<?xml version="1.0" encoding="UTF-8" standalone="no"?><!DOCTYPE svg PUBLIC "-//W3C//DTD SVG 1.1//EN" "http://www.w3.org/Graphics/SVG/1.1/DTD/svg11.dtd"><svg width="100%" height="100%" viewBox="0 0 508 508" version="1.1" xmlns="http://www.w3.org/2000/svg" xmlns:xlink="http://www.w3.org/1999/xlink" xml:space="preserve" xmlns:serif="http://www.serif.com/" style="fill-rule:evenodd;clip-rule:evenodd;stroke-linejoin:round;stroke-miterlimit:2;"><path d="M435.3,76.2c-48.1,-49.1 -112.5,-76.2 -181.3,-76.2c-68.8,0 -133.2,27.1 -181.3,76.2c-46.9,47.8 -72.7,110.9 -72.7,177.8c0,66.9 25.8,130 72.7,177.8c48.1,49.1 112.5,76.2 181.3,76.2c68.8,0 133.2,-27.1 181.3,-76.2c46.9,-47.8 72.7,-110.9 72.7,-177.8c0,-66.9 -25.8,-130 -72.7,-177.8Zm-418.7,186l90.1,0c0.7,37.5 6,73.8 15.6,106.5l-76.4,0c-17.9,-32.4 -28,-68.8 -29.3,-106.5Zm245.6,-139.3l0,-106c31.6,3.6 61.2,27.7 84,69c6.4,11.4 12,23.8 16.8,37l-100.8,0Zm106.4,16.4c10,32.4 15.6,68.7 16.3,106.5l-122.7,0l0,-106.5l106.4,0Zm-122.8,-122.4l0,106l-100.9,0c4.9,-13.1 10.5,-25.5 16.8,-37c22.9,-41.3 52.5,-65.4 84.1,-69Zm0,122.4l0,106.5l-122.7,0c0.7,-37.8 6.3,-74.1 16.3,-106.5l106.4,0Zm-139.1,106.5l-90.1,0c1.3,-37.8 11.4,-74.1 29.4,-106.5l76.3,0c-9.6,32.7 -14.9,68.9 -15.6,106.5Zm16.4,16.4l122.7,0l0,106.5l-106.4,0c-10,-32.5 -15.6,-68.7 -16.3,-106.5Zm122.7,122.9l0,106c-31.6,-3.6 -61.2,-27.7 -84.1,-69c-6.4,-11.4 -12,-23.9 -16.9,-37l101,0Zm16.4,106l0,-106l100.9,0c-4.9,13.2 -10.5,25.6 -16.9,37c-22.8,41.3 -52.4,65.4 -84,69Zm0,-122.4l0,-106.5l122.7,0c-0.7,37.8 -6.3,74.1 -16.3,106.5l-106.4,0Zm139.1,-106.5l90.1,0c-1.3,37.8 -11.4,74.1 -29.3,106.5l-76.3,0c9.5,-32.8 14.8,-69 15.5,-106.5Zm0,-16.4c-0.7,-37.5 -6,-73.8 -15.6,-106.5l76.3,0c18,32.4 28.1,68.7 29.4,106.5l-90.1,0Zm22.3,-158.1c10.7,10.9 20.2,22.7 28.6,35.2l-71.8,0c-5.6,-16 -12.1,-31.2 -19.8,-44.9c-12.2,-22 -26.3,-39.7 -41.8,-52.6c39.4,11 75.4,32.2 104.8,62.3Zm-339.2,0c29.4,-30.1 65.4,-51.2 104.7,-62.3c-15.4,12.9 -29.6,30.6 -41.8,52.6c-7.7,13.8 -14.2,28.9 -19.8,44.9l-71.6,0c8.3,-12.5 17.8,-24.3 28.5,-35.2Zm0,332.6c-10.7,-10.9 -20.3,-22.8 -28.6,-35.3l71.8,0c5.6,16 12.1,31.2 19.8,45c12.2,22 26.3,39.7 41.8,52.6c-39.4,-11 -75.4,-32.2 -104.8,-62.3Zm339.2,0c-29.4,30.1 -65.4,51.2 -104.7,62.3c15.4,-12.9 29.6,-30.6 41.8,-52.6c7.7,-13.8 14.2,-28.9 19.8,-45l71.8,0c-8.4,12.6 -18,24.4 -28.7,35.3Z" style="fill:#ddd;fill-rule:nonzero;"/></svg>