<?xml version="1.0" encoding="UTF-8" standalone="no"?>
<!DOCTYPE svg PUBLIC "-//W3C//DTD SVG 1.1//EN" "http://www.w3.org/Graphics/SVG/1.1/DTD/svg11.dtd">
<svg width="100%" height="100%" viewBox="0 0 1921 1081" version="1.1" xmlns="http://www.w3.org/2000/svg" xmlns:xlink="http://www.w3.org/1999/xlink" xml:space="preserve" xmlns:serif="http://www.serif.com/" style="fill-rule:evenodd;clip-rule:evenodd;stroke-linecap:round;stroke-linejoin:round;stroke-miterlimit:1.5;">
    <g transform="matrix(1,0,0,1,-8153,-1200)">
        <g transform="matrix(1,0,0,1,8160,0)">
            <g id="appuis.fr" transform="matrix(1,0,0,1,-6.20313,1200.26)">
                <rect x="0" y="0" width="1920" height="1080" style="fill:none;"/>
                <g transform="matrix(1.71429,0,0,0.571429,-14206.5,-337.29)">
                    <path d="M8613.8,2200.26L8473.8,2200.26L8508.8,2060.26L8578.8,2060.26L8613.8,2200.26Z" style="fill:rgb(252,109,8);fill-opacity:0.5;"/>
                </g>
                <g transform="matrix(1.71429,0,0,0.571429,-13846.5,-337.29)">
                    <path d="M8613.8,2200.26L8473.8,2200.26L8508.8,2060.26L8578.8,2060.26L8613.8,2200.26Z" style="fill:rgb(252,109,8);fill-opacity:0.5;"/>
                </g>
                <g transform="matrix(1.03538,0,0,1.04279,246.466,-82.709)">
                    <path d="M286.866,590.36C287.663,563.919 287.044,537.469 285.296,511.075C284.561,499.979 284.588,491.631 282.114,482.122C280.171,474.654 276.474,466.571 276.95,458.707C277.831,444.173 276.259,427.649 271.212,413.582C267.371,402.876 258.217,394.11 248.346,388.958C241.434,385.351 234.035,382.722 227.235,378.909C223.318,376.95 218.134,373.719 214,369.916C210.434,366.635 207.561,363.264 205.599,359.742C205.254,357.849 206.146,355.524 206.856,353.568C207.31,352.316 208.365,351.273 209.095,350.175C210.218,348.47 210.924,346.501 211.242,344.489C211.341,343.839 211.187,341.256 211.96,341.133C213.868,340.845 214.267,339.673 215.285,336.9C216.309,334.128 216.616,334.704 218.432,330.085C219.524,327.306 220.972,321.417 218.683,318.828C218.193,318.276 217.223,318.153 217.205,317.282L217.205,317.251C216.727,316.565 217.334,315.675 217.616,313.693C218.168,309.909 218.855,305.958 218.886,302.062C218.917,298.719 218.911,293.339 215.647,291.394C215.444,291.272 215.34,291.204 215.322,291.18C215.481,291.21 217.635,292.382 218.512,293.094C218.512,293.094 216.825,288.051 212.831,284.383C208.838,280.72 206.255,279.935 203.82,279.076C201.384,278.212 198.697,277.77 198.697,277.77C198.697,277.77 201.844,277.205 204.617,278.224C204.445,278.046 201.703,275.267 198.023,274.549C193.618,273.69 189.974,275.04 189.974,275.04C189.974,275.04 190.943,273.519 194.102,273.285C194.102,273.285 192.33,271.28 187.49,271.126C183.686,271.016 179.852,271.421 176.349,272.997C173.055,274.482 170.043,277.96 170.043,277.96C170.043,277.96 163.448,277.187 160.013,280.26C156.688,283.236 155.891,287.327 155.842,287.585C156.026,287.383 158.896,284.113 160.596,284.076C160.596,284.076 158.381,285.837 156.418,287.904C154.615,289.8 153.044,291.953 152.872,293.241C152.872,293.241 154.173,291.873 155.087,291.689C154.946,291.72 154.682,292.168 154.602,292.272C150.732,297.229 152.682,304.541 153.94,310.056C154.014,310.381 154.093,310.712 154.167,311.037C155.167,315.313 155.952,317.3 155.995,318.552L155.878,318.552L155.885,318.583C155.903,319.454 154.94,319.62 154.474,320.19C152.284,322.871 153.774,328.698 154.983,331.434C157.001,335.968 157.486,335.373 158.627,338.103C159.768,340.826 160.209,341.986 162.123,342.188C162.909,342.28 162.866,344.869 162.994,345.513C163.399,347.507 164.178,349.445 165.381,351.102C166.154,352.169 167.252,353.163 167.761,354.396C168.45,356.064 169.361,357.838 169.107,359.489C167.47,363.31 164.185,366.477 161.127,369.217C156.716,373.169 151.737,376.032 146.608,378.909C139.808,382.722 132.408,385.351 125.497,388.958C115.626,394.11 106.472,402.876 102.631,413.582C97.584,427.649 96.012,444.173 96.892,458.707C97.368,466.571 93.671,474.654 91.729,482.122C89.255,491.631 89.282,499.979 88.547,511.075C86.798,537.469 86.179,563.919 86.977,590.36C84.927,599.096 83.077,607.798 83.304,616.885C83.564,627.288 88.6,641.963 97.555,649.16C99.741,650.916 103.073,648.942 102.37,646.228C102.291,645.923 102.164,645.638 101.976,645.386C99.203,641.654 97.985,638.992 96.403,634.62C95.114,631.058 93.963,626.187 95.037,622.418C95.774,619.827 98.327,618.095 100.239,620.529C102.222,623.054 101.173,630.278 101.318,633.424C101.378,634.726 101.478,636.134 102.326,637.125C105.483,640.813 107.196,633.532 107.499,631.439C108.322,625.745 107.196,619.672 106.737,613.981C106.337,609.017 106.002,598.189 105.866,597.952C106.037,596.283 106.265,594.597 106.56,592.89L106.669,592.89C106.669,592.89 107.271,589.216 113.327,561.988C117.145,544.824 115.208,545.132 120.831,528.356C124.821,516.448 129.522,504.554 130.962,491.989C131.576,486.626 131.046,481.414 130.937,476.052C130.909,474.706 130.272,466.6 132.731,466.6C133.912,466.6 134.695,478.482 135.172,492.1C135.674,506.459 139.09,520.265 139.025,534.049C138.96,547.834 135.413,561.598 133.628,575.872C131.389,593.785 128.701,612.147 132.732,647.078C135.054,667.196 131.836,687.697 133.184,708.201C134.599,729.728 129.313,751.022 130.984,772.496C132.488,791.827 136.817,810.937 143.805,829.024C147.286,838.032 150.219,847.002 150.917,856.633C151.1,859.156 151.352,861.693 151.64,864.226C151.676,864.536 151.715,864.846 151.752,865.156C151.827,865.784 151.899,866.411 151.978,867.037C152.109,868.076 152.244,869.113 152.386,870.147C152.69,873.85 152.49,877.567 152.42,881.275C152.351,884.847 152.889,888.365 152.889,891.915C152.889,894.627 146.326,900.499 143.844,904.567C142.502,906.777 140.698,908.893 140.088,911.469C139.505,913.978 143.833,919.14 150.573,921.417C156.95,923.572 169.026,920.812 169.718,920.107C171.941,917.842 172.43,914.737 172.28,911.686C172.091,907.875 172.009,903.997 172.891,900.282C173.786,896.43 175.033,895.983 174.464,891.237C174.187,888.915 173.876,881.93 173.823,880.93C173.84,880.917 173.851,880.902 173.851,880.882C173.851,880.882 173.691,877.55 173.45,872.332C173.449,872.293 173.447,872.257 173.445,872.218C173.423,871.5 173.4,870.782 173.384,870.064L173.346,870.064C172.567,853.126 172.323,821.294 172.323,811.908C172.323,795.497 175.608,787.327 173.438,762.77C172.412,751.151 168.164,738.864 169.821,727.266C170.716,720.997 175.195,705.77 176.986,680.244C177.557,672.113 186.304,649.151 186.921,638.097C187.539,649.151 195.958,671.899 196.529,680.031C198.32,705.556 202.798,720.784 203.694,727.052C205.351,738.651 201.489,750.978 200.076,762.556C197.362,784.796 201.191,795.284 201.191,811.694C201.191,821.068 200.948,852.818 200.172,869.773L200.15,869.773C200.149,869.798 200.153,871.286 200.131,872.004C200.129,872.043 200.127,872.079 200.125,872.118C199.885,877.336 199.725,880.668 199.725,880.668C199.724,880.689 199.736,880.703 199.753,880.716C199.7,881.716 199.388,888.702 199.112,891.023C198.543,895.77 199.79,896.216 200.685,900.069C201.567,903.784 201.485,907.661 201.296,911.473C201.146,914.523 201.635,917.629 203.858,919.893C204.55,920.599 212.232,923.448 221.032,921.204C227.331,919.597 234.071,913.764 233.488,911.255C232.878,908.68 231.074,906.564 229.732,904.353C227.25,900.285 220.687,894.414 220.687,891.702C220.687,888.151 221.224,884.634 221.156,881.061C221.085,877.353 220.886,873.637 221.19,869.934C221.197,869.88 221.203,869.827 221.211,869.773L221.2,869.773C221.461,867.862 221.705,865.939 221.925,864.013L221.873,864.013C222.163,861.479 222.415,858.943 222.598,856.419C223.296,846.789 226.229,837.819 229.71,828.81C236.698,810.724 241.026,791.613 242.531,772.283C244.202,750.809 238.916,729.514 240.331,707.987C241.679,687.484 238.789,667.196 241.11,647.078C245.141,612.147 242.454,593.785 240.214,575.872C238.43,561.598 234.883,547.834 234.818,534.049C234.753,520.265 238.169,506.459 238.671,492.1C239.147,478.482 239.931,466.6 241.112,466.6C243.57,466.6 242.934,474.706 242.906,476.052C242.797,481.414 242.266,486.626 242.881,491.989C244.32,504.554 249.021,516.448 253.012,528.356C258.634,545.132 256.698,544.824 260.515,561.988C266.572,589.216 267.174,592.89 267.174,592.89L267.283,592.89C267.578,594.597 267.805,596.283 267.976,597.952C267.841,598.189 267.506,609.017 267.105,613.981C266.647,619.672 265.521,625.745 266.344,631.439C266.647,633.532 268.36,640.813 271.517,637.125C272.365,636.134 272.465,634.726 272.525,633.424C272.67,630.278 271.621,623.054 273.604,620.529C275.515,618.095 278.068,619.827 278.806,622.418C279.879,626.187 278.728,631.058 277.439,634.62C275.858,638.992 274.64,641.654 271.867,645.386C271.679,645.638 271.552,645.923 271.473,646.228C270.77,648.942 274.101,650.916 276.287,649.16C285.242,641.963 290.279,627.288 290.538,616.885C290.766,607.798 288.915,599.096 286.866,590.36Z" style="fill:rgb(204,204,204);fill-rule:nonzero;"/>
                </g>
                <g transform="matrix(1.11908,0,0,1.12709,323.86,-160.386)">
                    <path d="M510.545,592.168C509.733,585.271 510.545,558.901 508.516,547.947C506.488,536.993 504.459,531.313 502.836,526.851C501.214,522.388 501.214,509.811 499.996,499.263C497.998,481.942 499.457,462.477 494.04,445.6C487.489,425.194 472.031,428.011 459.047,422.725C453.056,420.286 447.633,417.066 443.978,411.572C443.589,410.986 442.733,408.803 441.828,406.166L443.778,406.166C443.667,406.04 443.556,405.913 443.449,405.783C443.607,405.756 443.766,405.724 443.924,405.696C444.037,405.678 444.15,405.658 444.261,405.634C444.757,405.544 445.253,405.457 445.748,405.36L445.1,405.36C445.537,405.157 445.915,404.859 446.18,404.422C444.378,404.187 442.714,402.975 441.861,401.277C446.464,403.005 451.959,401.665 455.385,397.979C455.531,397.822 455.684,397.609 455.61,397.403C455.565,397.277 455.447,397.2 455.336,397.133C454.837,396.83 449.308,392.727 452.613,392.996C454.604,393.158 459.159,393.203 460.425,391.471C459.411,390.515 458.144,389.814 457.275,388.673C457.168,388.531 455.777,386.75 456.613,387.34C457.946,388.281 460.626,388.945 462.125,388.633C460.437,387.229 458.885,385.848 458.17,383.569C457.727,382.155 461.062,379.327 461.952,372.024C462.841,364.719 461.062,355.764 458.17,347.046C455.279,338.327 452.61,328.43 442.156,322.775C431.702,317.12 425.474,321.125 425.474,321.125C425.474,321.125 419.246,317.12 408.793,322.775C398.339,328.43 395.67,338.327 392.778,347.046C389.887,355.764 388.107,364.719 388.997,372.024C389.887,379.327 393.222,382.155 392.778,383.569C392.064,385.848 390.511,387.229 388.824,388.633C390.323,388.945 393.002,388.281 394.336,387.34C395.171,386.75 393.781,388.531 393.673,388.673C392.804,389.814 391.537,390.515 390.524,391.471C391.79,393.203 396.345,393.158 398.336,392.996C401.64,392.727 396.111,396.83 395.612,397.133C395.502,397.2 395.384,397.277 395.338,397.403C395.264,397.609 395.418,397.822 395.564,397.979C398.99,401.665 404.485,403.005 409.088,401.277C408.234,402.975 406.571,404.187 404.769,404.422C405.396,405.458 406.649,405.713 407.847,405.778L407.847,406.166L409.12,406.166C408.216,408.803 407.36,410.986 406.97,411.572C403.315,417.066 397.893,420.286 391.901,422.725C378.917,428.011 363.459,425.194 356.909,445.6C351.492,462.477 352.951,481.942 350.952,499.263C349.735,509.811 349.735,522.388 348.112,526.851C346.489,531.313 344.461,536.993 342.432,547.947C340.404,558.901 341.215,585.271 340.404,592.168C339.592,599.065 339.592,608.802 340.404,621.784C340.779,627.781 341.117,634.04 342.046,640.079C342.842,645.247 344.646,650.309 347.098,654.919C348.124,656.849 349.371,658.696 350.663,660.456C351.946,662.205 354.821,666.969 357.491,666.278C358.168,666.103 358.662,665.477 358.836,664.8C359.352,662.785 357.104,660.203 356.265,658.479C354.847,655.568 354.004,652.529 353.343,649.374C352.943,647.464 352.887,645.911 353.5,645.212C355.495,642.94 357.735,656.433 360.465,656.033C362.292,655.764 361.778,651.301 361.253,645.687C360.722,640.021 360.719,633.364 358.35,628.083C356.118,623.105 352.816,618.16 353.386,612.453C354.198,604.339 363.935,571.072 365.152,560.118C366.369,549.164 368.978,523.605 371.006,517.114C373.026,510.65 375.785,493.729 375.813,493.584C375.661,494.359 382.319,502.392 382.999,503.854C385.925,510.147 386.79,518.14 387.383,524.977C389.522,549.644 379.659,571.023 373.266,594.197C370.02,605.962 366.774,635.578 368.397,646.938C370.02,658.298 369.351,682.051 373.408,693.005C377.465,703.959 382.334,723.027 382.74,729.518C383.014,733.916 382.994,745.824 382.648,756.792L382.645,756.792C382.48,762.011 382.242,767.018 381.926,770.899C381.189,779.941 381.114,796.053 385.983,818.773C390.41,839.435 397.672,868.84 399.451,889.232C399.451,889.232 399.465,891.466 399.444,892.582C399.396,895.124 399.778,897.628 399.778,900.154C399.778,902.084 395.107,906.263 393.341,909.158C392.386,910.732 391.102,912.237 390.668,914.071C390.253,915.856 392.68,921.441 398.462,921.991C403.986,922.517 411.263,920.72 411.755,920.218C413.337,918.607 413.685,916.397 413.579,914.225C413.444,911.513 413.386,908.753 414.013,906.109C414.65,903.368 415.538,903.05 415.133,899.672C414.936,898.02 414.714,893.049 414.677,892.336C414.689,892.327 414.697,892.316 414.696,892.302C414.696,892.302 414.642,891.164 414.551,889.232L414.562,889.232C413.418,858.499 418.22,827.505 418.08,796.787C418.001,779.36 416.569,769.61 416.118,757.678C416.107,757.384 416.101,757.088 416.094,756.792L416.097,756.792C415.963,750.604 416.794,743.778 416.379,734.973C415.776,722.151 415.372,714.58 416.113,697.126C416.518,687.599 423.971,672.986 423.778,663.723C423.668,658.5 424.622,651.626 425.474,646.614C426.327,651.626 427.28,658.5 427.171,663.723C426.977,672.986 436.661,689.547 437.187,699.068C437.981,713.421 437.525,724.093 436.921,736.915C436.507,745.72 437.338,752.546 437.204,758.734L437.192,758.734C437.185,759.03 437.179,759.326 437.168,759.62C436.717,771.552 435.285,781.302 435.205,798.729C435.065,829.447 439.868,860.441 438.724,891.174L438.782,891.174C438.691,893.11 438.636,894.25 438.636,894.25C438.636,894.264 438.644,894.275 438.656,894.284C438.618,894.997 438.396,899.977 438.199,901.633C437.793,905.016 438.683,905.335 439.321,908.081C439.949,910.73 439.891,913.495 439.756,916.212C439.65,918.387 439.998,920.601 441.583,922.216C442.076,922.719 448.27,925.41 453.611,923.933C458.944,922.459 463.124,917.846 462.708,916.057C462.273,914.22 460.987,912.712 460.03,911.136C458.261,908.236 453.582,904.05 453.582,902.116C453.582,899.585 453.965,897.077 453.916,894.53C453.895,893.412 453.835,891.174 453.835,891.174C455.614,870.782 462.876,841.377 467.303,820.715C472.172,797.995 472.097,781.883 471.36,772.841C471.044,768.96 470.805,763.953 470.641,758.734L470.653,758.734C470.306,747.766 470.286,735.858 470.561,731.46C470.967,724.969 475.835,705.901 479.892,694.947C483.949,683.993 480.929,658.298 482.551,646.938C484.174,635.578 480.929,605.962 477.683,594.197C471.29,571.023 461.426,549.644 463.565,524.977C464.158,518.14 465.024,510.147 467.949,503.854C468.63,502.392 475.288,494.359 475.135,493.584C475.164,493.729 478.503,510.65 480.523,517.114C482.551,523.605 484.58,549.164 485.797,560.118C487.014,571.072 496.751,604.339 497.562,612.453C498.133,618.16 494.831,623.105 492.598,628.083C490.23,633.364 490.227,640.021 489.696,645.687C489.17,651.301 488.657,655.764 490.484,656.033C493.213,656.433 495.453,642.94 497.449,645.212C498.062,645.911 498.006,647.464 497.606,649.374C496.945,652.529 496.102,655.568 494.684,658.479C493.845,660.203 491.596,662.785 492.113,664.8C492.287,665.477 492.781,666.103 493.457,666.278C496.128,666.969 499.002,662.205 500.286,660.456C501.577,658.696 502.824,656.849 503.851,654.919C506.303,650.309 508.107,645.247 508.902,640.079C509.832,634.04 510.17,627.781 510.545,621.784C511.356,608.802 511.356,599.065 510.545,592.168Z" style="fill:rgb(204,204,204);fill-rule:nonzero;"/>
                </g>
                <g transform="matrix(1,0,0,1,-8153.8,-1200.26)">
                    <path d="M8593.8,1320.26L8593.8,2079.23" style="fill:none;stroke:rgb(252,109,8);stroke-width:5px;"/>
                </g>
                <g transform="matrix(1,0,0,0.996731,-8153.8,-1195.94)">
                    <path d="M8953.8,1320.26L8953.8,2081.72" style="fill:none;stroke:rgb(252,109,8);stroke-width:5.01px;"/>
                </g>
                <g transform="matrix(4.37135,0,0,4.37135,730.732,188.827)">
                    <path d="M167.54,18.012C167.54,18.012 170.163,17.101 171.074,15.389C171.984,13.678 172.005,12.991 172.096,12.591C172.184,12.19 172.985,10.144 172.739,9.634C172.497,9.123 172.361,8.456 172.12,8.01C171.874,7.569 171.897,7.609 171.874,7.322C171.851,7.032 171.784,6.39 171.561,6.568C171.338,6.745 170.851,7.701 170.805,8.146C170.761,8.588 170.628,8.569 169.385,9.501C168.14,10.435 167.717,10.703 167.717,10.703C167.717,10.703 167.117,7.769 166.94,6.656C166.762,5.545 165.984,3.146 164.452,2.901C162.918,2.657 163.295,2.856 162.695,2.788C162.094,2.725 161.208,2.611 160.83,2.725C160.451,2.833 159.941,2.725 159.496,2.788C159.051,2.856 159.34,2.766 158.519,2.701C157.696,2.633 156.473,2.256 155.717,3.08C154.962,3.902 154.94,4.257 154.785,5.235C154.627,6.213 154.252,7.746 153.918,9.724C153.585,11.699 153.742,11.479 153.562,11.79C153.383,12.099 153.14,12.345 153.094,12.413C153.052,12.478 152.052,11.79 151.543,10.99C151.028,10.19 149.474,8.523 148.163,8.656C146.851,8.788 146.541,9.611 147.163,10.366C147.785,11.122 147.785,11.299 148.496,11.922C149.207,12.545 149.54,12.991 150.384,14.123C151.228,15.255 151.874,15.811 152.517,16.255C153.162,16.702 153.785,16.524 153.873,16.834C153.961,17.144 153.961,18.123 154.562,18.589C155.163,19.055 155.293,19.055 155.293,19.19C155.293,19.323 155.628,22.211 155.628,22.412C155.628,22.612 155.163,22.944 154.875,23.544C154.585,24.145 154.407,24.013 154.252,24.634C154.096,25.254 153.873,25.3 153.763,25.522C153.651,25.745 154.096,25.745 153.229,25.723C152.363,25.7 152.052,25.832 151.607,26.322C151.163,26.809 150.786,26.9 150.585,27.187C150.384,27.478 149.941,27.61 149.497,27.964C149.05,28.32 149.095,28.188 148.696,28.32C148.295,28.456 148.608,28.611 148.117,28.456C147.629,28.301 146.762,28.523 146.518,28.81C146.275,29.101 145.984,28.878 145.697,29.256C145.407,29.634 145.029,29.566 144.785,29.944C144.54,30.322 144.562,30.322 144.163,30.677C143.761,31.035 143.14,31.699 142.784,32.922C142.429,34.143 141.829,35.388 141.697,37.522C141.563,39.655 141.408,39.3 141.119,41.078C140.83,42.856 140.83,42.788 140.739,44.367C140.651,45.945 140.518,46.455 141.096,48.324C141.673,50.19 142.007,52.277 142.873,53.788C143.74,55.301 143.473,55.08 143.985,55.611C144.496,56.144 144.163,55.921 144.562,56.457C144.962,56.99 145.096,57.076 145.231,57.299C145.362,57.521 145.897,57.7 146.318,57.722C146.741,57.744 146.318,57.454 146.807,58.031C147.296,58.61 147.585,58.877 147.585,58.877C147.585,58.877 147.519,59.033 147.007,59.7C146.496,60.364 146.297,59.965 146.118,60.701C145.941,61.433 145.674,61.543 145.474,61.92C145.274,62.299 145.428,63.211 145.697,63.834C145.962,64.454 146.006,63.898 146.14,64.545C146.275,65.186 146.275,65.122 146.673,65.322C147.073,65.522 146.896,65.522 147.34,65.855C147.785,66.187 147.519,65.988 147.519,66.766C147.519,67.543 147.562,67.365 147.496,67.965C147.43,68.566 146.807,69.233 146.807,69.853C146.807,70.477 146.475,70.054 146.14,71.144C145.807,72.232 145.741,71.832 145.674,72.455C145.607,73.078 145.274,72.323 145.163,73.342C145.051,74.366 144.785,74.542 144.341,76.254C143.896,77.966 143.718,79.364 143.629,80.365C143.541,81.365 143.34,81.566 143.163,82.945C142.986,84.322 142.918,83.877 142.83,85.164C142.739,86.455 142.474,86.323 142.385,87.875C142.296,89.43 141.874,90.053 141.807,91.054C141.739,92.054 141.607,91.744 141.563,93.319C141.518,94.897 141.829,94.897 141.786,96.12C141.739,97.344 141.697,96.252 141.497,98.832C141.296,101.41 141.497,101.897 141.073,103.698C140.651,105.496 140.875,106.987 141.362,108.029C141.852,109.075 141.852,108.784 141.807,109.361C141.763,109.939 141.362,109.875 141.208,110.72C141.052,111.563 141.029,111.362 140.54,112.586C140.051,113.809 139.63,114.075 139.029,116.12C138.429,118.163 138.54,117.385 138.096,119.319C137.653,121.252 137.607,120.941 136.896,122.984C136.186,125.031 136.473,125.763 136.428,126.787C136.384,127.806 136.141,127.966 136.186,130.007C136.229,132.054 136.097,131.541 136.118,133.497C136.141,135.452 135.852,135.252 135.763,136.32C135.675,137.385 135.386,136.631 135.318,138.273C135.252,139.919 135.119,139.228 134.874,140.607C134.629,141.984 134.185,143.231 134.185,143.809C134.185,144.386 134.119,144.272 134.007,145.251C133.896,146.229 133.83,146.118 134.053,147.01C134.274,147.898 134.229,147.874 134.387,148.275C134.541,148.675 134.674,149.03 134.985,149.007C135.295,148.985 134.851,149.607 134.387,150.208C133.918,150.808 133.807,150.853 133.408,151.453C133.007,152.051 133.119,152.073 132.43,152.741C131.741,153.406 131.741,152.896 131.23,154.029C130.719,155.162 130.073,155.721 130.719,156.385C130.719,156.385 130.296,156.495 130.275,156.699C130.252,156.895 130.119,157.186 130.43,157.295C130.741,157.408 136.653,158.363 138.251,157.564C139.852,156.764 139.986,156.63 139.918,155.985L139.852,155.339C139.852,155.339 141.451,155.453 141.651,155.43C141.852,155.407 143.541,154.72 143.696,154.407C143.85,154.097 144.253,152.273 144.362,151.563C144.474,150.853 144.362,150.742 144.362,150.742C144.362,150.742 144.518,150.276 144.518,150.095C144.518,149.918 145.096,149.899 145.428,149.899C145.762,149.899 146.051,150.007 146.275,149.94C146.496,149.875 146.362,149.694 146.453,149.14C146.541,148.585 146.428,148.83 146.918,147.606C147.408,146.386 148.852,140.364 148.918,138.209C148.985,136.053 149.029,136.117 149.229,134.92C149.429,133.719 150.23,130.007 150.296,128.898C150.362,127.787 150.607,127.874 150.673,126.673C150.741,125.472 151.384,123.253 151.718,121.429C152.052,119.609 152.119,119.964 152.139,118.787C152.163,117.607 152.228,117.876 152.496,116.943C152.763,116.007 152.717,115.853 152.673,115.184C152.629,114.52 152.673,114.875 152.74,114.143C152.806,113.409 152.918,113.986 152.963,113.074C153.006,112.164 152.918,110.186 153.429,109.408C153.94,108.63 157.429,98.832 158.963,95.807C160.497,92.786 161.497,88.21 161.54,87.811C161.585,87.411 161.628,87.698 162.005,87.766C162.385,87.834 162.272,87.543 162.584,88.697C162.896,89.853 163.185,91.541 165.228,96.011C167.273,100.474 167.674,101.41 168.608,103.585C169.541,105.764 169.496,104.653 169.828,106.296C170.163,107.942 170.183,107.474 170.406,108.652C170.628,109.83 170.584,109.653 171.251,112.208C171.917,114.764 172.096,114.543 172.429,117.098C172.761,119.654 173.317,120.875 173.985,125.009C174.652,129.143 174.785,131.895 175.273,133.096C175.763,134.297 175.427,133.187 175.828,135.475C176.228,137.764 177.028,142.607 177.451,143.854C177.874,145.096 178.229,145.386 178.961,146.652C179.693,147.919 179.474,148.097 179.829,148.54C180.184,148.985 180.075,149.186 180.317,149.517C180.562,149.852 180.894,149.694 181.094,149.694C181.295,149.694 180.985,149.785 181.119,150.208C181.25,150.63 181.74,153.096 181.985,153.564C182.227,154.029 183.627,154.542 183.829,154.498C184.029,154.452 185.384,154.407 185.384,154.407C185.384,154.407 184.938,155.32 185.161,155.739C185.384,156.163 186.407,156.739 188.962,156.764C191.516,156.785 193.672,156.764 194.45,156.564C195.226,156.363 195.072,156.23 194.939,155.807C194.805,155.384 194.585,155.407 194.585,155.407C194.585,155.407 195.186,154.32 193.629,152.629C192.074,150.94 191.96,150.786 191.407,150.007C190.85,149.23 191.206,149.585 190.738,148.785C190.274,147.984 190.45,148.275 190.628,148.185C190.805,148.097 190.919,147.919 190.984,147.651C191.051,147.384 191.206,147.451 190.96,146.874C190.715,146.297 190.784,145.828 190.784,145.651C190.784,145.473 191.605,144.076 191.229,143.162C190.85,142.252 190.805,142.274 190.697,141.743C190.584,141.207 190.874,141.765 190.45,140.808C190.028,139.851 189.984,140.296 189.918,139.231C189.85,138.164 189.56,137.231 189.228,136.007C188.895,134.788 189.095,135.03 188.695,133.497C188.295,131.964 188.117,131.895 188.073,130.854C188.027,129.807 188.34,128.562 188.34,127.719C188.34,126.874 188.25,127.165 188.363,125.918C188.472,124.675 188.583,124.941 188.073,123.876C187.561,122.808 187.23,122.075 187.271,121.542C187.317,121.006 186.494,119.295 186.407,118.496C186.316,117.698 185.939,117.252 185.894,116.097C185.852,114.943 185.652,114.606 185.293,113.497C184.938,112.386 184.715,112.164 184.273,111.519C183.829,110.876 183.783,109.853 183.319,109.298C182.85,108.742 182.763,108.83 182.828,108.343C182.896,107.852 182.873,107.766 182.85,106.987C182.828,106.21 182.563,106.586 182.896,105.83C183.227,105.077 183.319,104.164 183.406,103.63C183.496,103.098 183.251,102.63 183.073,101.364C182.896,100.096 182.94,100.187 182.85,99.409C182.763,98.631 182.606,98.899 182.606,98.099C182.606,97.298 182.318,96.12 182.14,95.652C181.962,95.187 182.027,93.477 181.962,91.654C181.895,89.83 181.695,89.253 181.563,88.565C181.426,87.875 181.363,87.656 181.426,86.697C181.495,85.742 181.63,85.787 181.295,84.723C180.962,83.654 180.717,83.167 180.45,82.411C180.184,81.656 180.208,80.876 180.075,80.256C179.939,79.633 179.918,79.877 179.939,78.787C179.961,77.7 179.116,76.054 178.875,75.211C178.628,74.366 178.561,73.811 178.337,73.142C178.119,72.477 178.316,72.369 177.673,71.765C177.028,71.167 176.918,71.409 176.783,70.877C176.651,70.344 176.651,70.122 176.695,69.812C176.741,69.498 177.382,69.122 177.295,67.898C177.295,67.898 176.34,66.989 176.049,66.9C175.763,66.81 175.849,67.189 175.74,66.342C175.627,65.5 175.586,65.032 175.586,65.032C175.586,65.032 176.583,65.322 177.337,64.991C178.096,64.654 178.452,64.745 178.917,64.39C179.383,64.031 179.139,64.099 179.452,63.654C179.761,63.211 179.761,62.966 179.562,62.589C179.362,62.21 178.716,61.498 178.628,60.457C178.538,59.411 178.337,59.364 178.274,58.5C178.206,57.631 178.074,56.412 178.029,55.898C177.983,55.388 177.874,54.921 177.806,54.679C177.738,54.433 178.006,54.611 178.274,54.411C178.538,54.211 178.474,54.342 178.961,54.166C179.452,53.987 180.408,53.3 180.894,52.787C181.384,52.277 181.808,52.123 182.163,51.077C182.518,50.035 182.718,50.367 182.763,49.498C182.805,48.634 182.627,49.234 183.073,48.033C183.518,46.832 184.518,43.521 183.696,41.5C182.873,39.478 182.85,37.944 182.563,36.898C182.272,35.857 182.472,36.079 182.14,35.211C181.808,34.345 182.363,34.165 181.74,33.033C181.119,31.899 180.785,31.277 180.294,30.657C179.807,30.035 179.407,29.634 178.917,29.434C178.43,29.233 178.607,28.966 177.496,28.702C176.386,28.433 176.563,28.479 175.273,28.057C173.985,27.633 173.23,26.946 172.519,26.609C171.805,26.278 171.984,26.189 171.206,25.9C170.428,25.613 170.341,25.522 170.228,25.522C170.118,25.522 170.141,25.322 169.696,24.367C169.251,23.412 168.762,23.012 168.184,22.278C167.608,21.546 167.05,21.746 167.05,21.746C167.05,21.746 167.184,18.457 167.251,18.258C167.319,18.058 167.54,18.012 167.54,18.012Z" style="fill:none;fill-rule:nonzero;stroke:rgb(204,204,204);stroke-width:1.14px;stroke-linecap:butt;stroke-miterlimit:2;"/>
                </g>
                <g transform="matrix(1,0,0,1,-8153.8,-1278.49)">
                    <path d="M9473.8,1600.26L9713.88,1840.34" style="fill:none;stroke:rgb(252,109,8);stroke-width:16px;stroke-linecap:square;"/>
                </g>
                <g transform="matrix(1,0,0,1,-8153.8,-1278.49)">
                    <path d="M9473.8,1840.26L9717.4,1596.65" style="fill:none;stroke:rgb(252,109,8);stroke-width:16px;stroke-linecap:square;"/>
                </g>
            </g>
        </g>
    </g>
</svg>
