<?xml version="1.0" encoding="UTF-8" standalone="no"?>
<!DOCTYPE svg PUBLIC "-//W3C//DTD SVG 1.1//EN" "http://www.w3.org/Graphics/SVG/1.1/DTD/svg11.dtd">
<svg width="100%" height="100%" viewBox="0 0 1921 1080" version="1.1" xmlns="http://www.w3.org/2000/svg" xmlns:xlink="http://www.w3.org/1999/xlink" xml:space="preserve" xmlns:serif="http://www.serif.com/" style="fill-rule:evenodd;clip-rule:evenodd;stroke-linejoin:round;stroke-miterlimit:2;">
    <g transform="matrix(1,0,0,1,-8153,-2400)">
        <g transform="matrix(1,0,0,1,8160,0)">
            <g id="respiration.fr" transform="matrix(1,0,0,1,-6.20313,2400)">
                <rect x="0" y="0" width="1920" height="1080" style="fill:none;"/>
                <g transform="matrix(1.35083,0,0,1.35083,129.819,-190.165)">
                    <g transform="matrix(1.03538,0,0,1.04279,246.466,-82.709)">
                        <path d="M286.866,590.36C287.663,563.919 287.044,537.469 285.296,511.075C284.561,499.979 284.588,491.631 282.114,482.122C280.171,474.654 276.474,466.571 276.95,458.707C277.831,444.173 276.259,427.649 271.212,413.582C267.371,402.876 258.217,394.11 248.346,388.958C241.434,385.351 234.035,382.722 227.235,378.909C223.318,376.95 218.134,373.719 214,369.916C210.434,366.635 207.561,363.264 205.599,359.742C205.254,357.849 206.146,355.524 206.856,353.568C207.31,352.316 208.365,351.273 209.095,350.175C210.218,348.47 210.924,346.501 211.242,344.489C211.341,343.839 211.187,341.256 211.96,341.133C213.868,340.845 214.267,339.673 215.285,336.9C216.309,334.128 216.616,334.704 218.432,330.085C219.524,327.306 220.972,321.417 218.683,318.828C218.193,318.276 217.223,318.153 217.205,317.282L217.205,317.251C216.727,316.565 217.334,315.675 217.616,313.693C218.168,309.909 218.855,305.958 218.886,302.062C218.917,298.719 218.911,293.339 215.647,291.394C215.444,291.272 215.34,291.204 215.322,291.18C215.481,291.21 217.635,292.382 218.512,293.094C218.512,293.094 216.825,288.051 212.831,284.383C208.838,280.72 206.255,279.935 203.82,279.076C201.384,278.212 198.697,277.77 198.697,277.77C198.697,277.77 201.844,277.205 204.617,278.224C204.445,278.046 201.703,275.267 198.023,274.549C193.618,273.69 189.974,275.04 189.974,275.04C189.974,275.04 190.943,273.519 194.102,273.285C194.102,273.285 192.33,271.28 187.49,271.126C183.686,271.016 179.852,271.421 176.349,272.997C173.055,274.482 170.043,277.96 170.043,277.96C170.043,277.96 163.448,277.187 160.013,280.26C156.688,283.236 155.891,287.327 155.842,287.585C156.026,287.383 158.896,284.113 160.596,284.076C160.596,284.076 158.381,285.837 156.418,287.904C154.615,289.8 153.044,291.953 152.872,293.241C152.872,293.241 154.173,291.873 155.087,291.689C154.946,291.72 154.682,292.168 154.602,292.272C150.732,297.229 152.682,304.541 153.94,310.056C154.014,310.381 154.093,310.712 154.167,311.037C155.167,315.313 155.952,317.3 155.995,318.552L155.878,318.552L155.885,318.583C155.903,319.454 154.94,319.62 154.474,320.19C152.284,322.871 153.774,328.698 154.983,331.434C157.001,335.968 157.486,335.373 158.627,338.103C159.768,340.826 160.209,341.986 162.123,342.188C162.909,342.28 162.866,344.869 162.994,345.513C163.399,347.507 164.178,349.445 165.381,351.102C166.154,352.169 167.252,353.163 167.761,354.396C168.45,356.064 169.361,357.838 169.107,359.489C167.47,363.31 164.185,366.477 161.127,369.217C156.716,373.169 151.737,376.032 146.608,378.909C139.808,382.722 132.408,385.351 125.497,388.958C115.626,394.11 106.472,402.876 102.631,413.582C97.584,427.649 96.012,444.173 96.892,458.707C97.368,466.571 93.671,474.654 91.729,482.122C89.255,491.631 89.282,499.979 88.547,511.075C86.798,537.469 86.179,563.919 86.977,590.36C84.927,599.096 83.077,607.798 83.304,616.885C83.564,627.288 88.6,641.963 97.555,649.16C99.741,650.916 103.073,648.942 102.37,646.228C102.291,645.923 102.164,645.638 101.976,645.386C99.203,641.654 97.985,638.992 96.403,634.62C95.114,631.058 93.963,626.187 95.037,622.418C95.774,619.827 98.327,618.095 100.239,620.529C102.222,623.054 101.173,630.278 101.318,633.424C101.378,634.726 101.478,636.134 102.326,637.125C105.483,640.813 107.196,633.532 107.499,631.439C108.322,625.745 107.196,619.672 106.737,613.981C106.337,609.017 106.002,598.189 105.866,597.952C106.037,596.283 106.265,594.597 106.56,592.89L106.669,592.89C106.669,592.89 107.271,589.216 113.327,561.988C117.145,544.824 115.208,545.132 120.831,528.356C124.821,516.448 129.522,504.554 130.962,491.989C131.576,486.626 131.046,481.414 130.937,476.052C130.909,474.706 130.272,466.6 132.731,466.6C133.912,466.6 134.695,478.482 135.172,492.1C135.674,506.459 139.09,520.265 139.025,534.049C138.96,547.834 135.413,561.598 133.628,575.872C131.389,593.785 128.701,612.147 132.732,647.078C135.054,667.196 131.836,687.697 133.184,708.201C134.599,729.728 129.313,751.022 130.984,772.496C132.488,791.827 136.817,810.937 143.805,829.024C147.286,838.032 150.219,847.002 150.917,856.633C151.1,859.156 151.352,861.693 151.64,864.226C151.676,864.536 151.715,864.846 151.752,865.156C151.827,865.784 151.899,866.411 151.978,867.037C152.109,868.076 152.244,869.113 152.386,870.147C152.69,873.85 152.49,877.567 152.42,881.275C152.351,884.847 152.889,888.365 152.889,891.915C152.889,894.627 146.326,900.499 143.844,904.567C142.502,906.777 140.698,908.893 140.088,911.469C139.505,913.978 143.833,919.14 150.573,921.417C156.95,923.572 169.026,920.812 169.718,920.107C171.941,917.842 172.43,914.737 172.28,911.686C172.091,907.875 172.009,903.997 172.891,900.282C173.786,896.43 175.033,895.983 174.464,891.237C174.187,888.915 173.876,881.93 173.823,880.93C173.84,880.917 173.851,880.902 173.851,880.882C173.851,880.882 173.691,877.55 173.45,872.332C173.449,872.293 173.447,872.257 173.445,872.218C173.423,871.5 173.4,870.782 173.384,870.064L173.346,870.064C172.567,853.126 172.323,821.294 172.323,811.908C172.323,795.497 175.608,787.327 173.438,762.77C172.412,751.151 168.164,738.864 169.821,727.266C170.716,720.997 175.195,705.77 176.986,680.244C177.557,672.113 186.304,649.151 186.921,638.097C187.539,649.151 195.958,671.899 196.529,680.031C198.32,705.556 202.798,720.784 203.694,727.052C205.351,738.651 201.489,750.978 200.076,762.556C197.362,784.796 201.191,795.284 201.191,811.694C201.191,821.068 200.948,852.818 200.172,869.773L200.15,869.773C200.149,869.798 200.153,871.286 200.131,872.004C200.129,872.043 200.127,872.079 200.125,872.118C199.885,877.336 199.725,880.668 199.725,880.668C199.724,880.689 199.736,880.703 199.753,880.716C199.7,881.716 199.388,888.702 199.112,891.023C198.543,895.77 199.79,896.216 200.685,900.069C201.567,903.784 201.485,907.661 201.296,911.473C201.146,914.523 201.635,917.629 203.858,919.893C204.55,920.599 212.232,923.448 221.032,921.204C227.331,919.597 234.071,913.764 233.488,911.255C232.878,908.68 231.074,906.564 229.732,904.353C227.25,900.285 220.687,894.414 220.687,891.702C220.687,888.151 221.224,884.634 221.156,881.061C221.085,877.353 220.886,873.637 221.19,869.934C221.197,869.88 221.203,869.827 221.211,869.773L221.2,869.773C221.461,867.862 221.705,865.939 221.925,864.013L221.873,864.013C222.163,861.479 222.415,858.943 222.598,856.419C223.296,846.789 226.229,837.819 229.71,828.81C236.698,810.724 241.026,791.613 242.531,772.283C244.202,750.809 238.916,729.514 240.331,707.987C241.679,687.484 238.789,667.196 241.11,647.078C245.141,612.147 242.454,593.785 240.214,575.872C238.43,561.598 234.883,547.834 234.818,534.049C234.753,520.265 238.169,506.459 238.671,492.1C239.147,478.482 239.931,466.6 241.112,466.6C243.57,466.6 242.934,474.706 242.906,476.052C242.797,481.414 242.266,486.626 242.881,491.989C244.32,504.554 249.021,516.448 253.012,528.356C258.634,545.132 256.698,544.824 260.515,561.988C266.572,589.216 267.174,592.89 267.174,592.89L267.283,592.89C267.578,594.597 267.805,596.283 267.976,597.952C267.841,598.189 267.506,609.017 267.105,613.981C266.647,619.672 265.521,625.745 266.344,631.439C266.647,633.532 268.36,640.813 271.517,637.125C272.365,636.134 272.465,634.726 272.525,633.424C272.67,630.278 271.621,623.054 273.604,620.529C275.515,618.095 278.068,619.827 278.806,622.418C279.879,626.187 278.728,631.058 277.439,634.62C275.858,638.992 274.64,641.654 271.867,645.386C271.679,645.638 271.552,645.923 271.473,646.228C270.77,648.942 274.101,650.916 276.287,649.16C285.242,641.963 290.279,627.288 290.538,616.885C290.766,607.798 288.915,599.096 286.866,590.36Z" style="fill:rgb(204,204,204);fill-rule:nonzero;"/>
                    </g>
                    <g transform="matrix(1.11908,0,0,1.12709,323.86,-160.386)">
                        <path d="M510.545,592.168C509.733,585.271 510.545,558.901 508.516,547.947C506.488,536.993 504.459,531.313 502.836,526.851C501.214,522.388 501.214,509.811 499.996,499.263C497.998,481.942 499.457,462.477 494.04,445.6C487.489,425.194 472.031,428.011 459.047,422.725C453.056,420.286 447.633,417.066 443.978,411.572C443.589,410.986 442.733,408.803 441.828,406.166L443.778,406.166C443.667,406.04 443.556,405.913 443.449,405.783C443.607,405.756 443.766,405.724 443.924,405.696C444.037,405.678 444.15,405.658 444.261,405.634C444.757,405.544 445.253,405.457 445.748,405.36L445.1,405.36C445.537,405.157 445.915,404.859 446.18,404.422C444.378,404.187 442.714,402.975 441.861,401.277C446.464,403.005 451.959,401.665 455.385,397.979C455.531,397.822 455.684,397.609 455.61,397.403C455.565,397.277 455.447,397.2 455.336,397.133C454.837,396.83 449.308,392.727 452.613,392.996C454.604,393.158 459.159,393.203 460.425,391.471C459.411,390.515 458.144,389.814 457.275,388.673C457.168,388.531 455.777,386.75 456.613,387.34C457.946,388.281 460.626,388.945 462.125,388.633C460.437,387.229 458.885,385.848 458.17,383.569C457.727,382.155 461.062,379.327 461.952,372.024C462.841,364.719 461.062,355.764 458.17,347.046C455.279,338.327 452.61,328.43 442.156,322.775C431.702,317.12 425.474,321.125 425.474,321.125C425.474,321.125 419.246,317.12 408.793,322.775C398.339,328.43 395.67,338.327 392.778,347.046C389.887,355.764 388.107,364.719 388.997,372.024C389.887,379.327 393.222,382.155 392.778,383.569C392.064,385.848 390.511,387.229 388.824,388.633C390.323,388.945 393.002,388.281 394.336,387.34C395.171,386.75 393.781,388.531 393.673,388.673C392.804,389.814 391.537,390.515 390.524,391.471C391.79,393.203 396.345,393.158 398.336,392.996C401.64,392.727 396.111,396.83 395.612,397.133C395.502,397.2 395.384,397.277 395.338,397.403C395.264,397.609 395.418,397.822 395.564,397.979C398.99,401.665 404.485,403.005 409.088,401.277C408.234,402.975 406.571,404.187 404.769,404.422C405.396,405.458 406.649,405.713 407.847,405.778L407.847,406.166L409.12,406.166C408.216,408.803 407.36,410.986 406.97,411.572C403.315,417.066 397.893,420.286 391.901,422.725C378.917,428.011 363.459,425.194 356.909,445.6C351.492,462.477 352.951,481.942 350.952,499.263C349.735,509.811 349.735,522.388 348.112,526.851C346.489,531.313 344.461,536.993 342.432,547.947C340.404,558.901 341.215,585.271 340.404,592.168C339.592,599.065 339.592,608.802 340.404,621.784C340.779,627.781 341.117,634.04 342.046,640.079C342.842,645.247 344.646,650.309 347.098,654.919C348.124,656.849 349.371,658.696 350.663,660.456C351.946,662.205 354.821,666.969 357.491,666.278C358.168,666.103 358.662,665.477 358.836,664.8C359.352,662.785 357.104,660.203 356.265,658.479C354.847,655.568 354.004,652.529 353.343,649.374C352.943,647.464 352.887,645.911 353.5,645.212C355.495,642.94 357.735,656.433 360.465,656.033C362.292,655.764 361.778,651.301 361.253,645.687C360.722,640.021 360.719,633.364 358.35,628.083C356.118,623.105 352.816,618.16 353.386,612.453C354.198,604.339 363.935,571.072 365.152,560.118C366.369,549.164 368.978,523.605 371.006,517.114C373.026,510.65 375.785,493.729 375.813,493.584C375.661,494.359 382.319,502.392 382.999,503.854C385.925,510.147 386.79,518.14 387.383,524.977C389.522,549.644 379.659,571.023 373.266,594.197C370.02,605.962 366.774,635.578 368.397,646.938C370.02,658.298 369.351,682.051 373.408,693.005C377.465,703.959 382.334,723.027 382.74,729.518C383.014,733.916 382.994,745.824 382.648,756.792L382.645,756.792C382.48,762.011 382.242,767.018 381.926,770.899C381.189,779.941 381.114,796.053 385.983,818.773C390.41,839.435 397.672,868.84 399.451,889.232C399.451,889.232 399.465,891.466 399.444,892.582C399.396,895.124 399.778,897.628 399.778,900.154C399.778,902.084 395.107,906.263 393.341,909.158C392.386,910.732 391.102,912.237 390.668,914.071C390.253,915.856 392.68,921.441 398.462,921.991C403.986,922.517 411.263,920.72 411.755,920.218C413.337,918.607 413.685,916.397 413.579,914.225C413.444,911.513 413.386,908.753 414.013,906.109C414.65,903.368 415.538,903.05 415.133,899.672C414.936,898.02 414.714,893.049 414.677,892.336C414.689,892.327 414.697,892.316 414.696,892.302C414.696,892.302 414.642,891.164 414.551,889.232L414.562,889.232C413.418,858.499 418.22,827.505 418.08,796.787C418.001,779.36 416.569,769.61 416.118,757.678C416.107,757.384 416.101,757.088 416.094,756.792L416.097,756.792C415.963,750.604 416.794,743.778 416.379,734.973C415.776,722.151 415.372,714.58 416.113,697.126C416.518,687.599 423.971,672.986 423.778,663.723C423.668,658.5 424.622,651.626 425.474,646.614C426.327,651.626 427.28,658.5 427.171,663.723C426.977,672.986 436.661,689.547 437.187,699.068C437.981,713.421 437.525,724.093 436.921,736.915C436.507,745.72 437.338,752.546 437.204,758.734L437.192,758.734C437.185,759.03 437.179,759.326 437.168,759.62C436.717,771.552 435.285,781.302 435.205,798.729C435.065,829.447 439.868,860.441 438.724,891.174L438.782,891.174C438.691,893.11 438.636,894.25 438.636,894.25C438.636,894.264 438.644,894.275 438.656,894.284C438.618,894.997 438.396,899.977 438.199,901.633C437.793,905.016 438.683,905.335 439.321,908.081C439.949,910.73 439.891,913.495 439.756,916.212C439.65,918.387 439.998,920.601 441.583,922.216C442.076,922.719 448.27,925.41 453.611,923.933C458.944,922.459 463.124,917.846 462.708,916.057C462.273,914.22 460.987,912.712 460.03,911.136C458.261,908.236 453.582,904.05 453.582,902.116C453.582,899.585 453.965,897.077 453.916,894.53C453.895,893.412 453.835,891.174 453.835,891.174C455.614,870.782 462.876,841.377 467.303,820.715C472.172,797.995 472.097,781.883 471.36,772.841C471.044,768.96 470.805,763.953 470.641,758.734L470.653,758.734C470.306,747.766 470.286,735.858 470.561,731.46C470.967,724.969 475.835,705.901 479.892,694.947C483.949,683.993 480.929,658.298 482.551,646.938C484.174,635.578 480.929,605.962 477.683,594.197C471.29,571.023 461.426,549.644 463.565,524.977C464.158,518.14 465.024,510.147 467.949,503.854C468.63,502.392 475.288,494.359 475.135,493.584C475.164,493.729 478.503,510.65 480.523,517.114C482.551,523.605 484.58,549.164 485.797,560.118C487.014,571.072 496.751,604.339 497.562,612.453C498.133,618.16 494.831,623.105 492.598,628.083C490.23,633.364 490.227,640.021 489.696,645.687C489.17,651.301 488.657,655.764 490.484,656.033C493.213,656.433 495.453,642.94 497.449,645.212C498.062,645.911 498.006,647.464 497.606,649.374C496.945,652.529 496.102,655.568 494.684,658.479C493.845,660.203 491.596,662.785 492.113,664.8C492.287,665.477 492.781,666.103 493.457,666.278C496.128,666.969 499.002,662.205 500.286,660.456C501.577,658.696 502.824,656.849 503.851,654.919C506.303,650.309 508.107,645.247 508.902,640.079C509.832,634.04 510.17,627.781 510.545,621.784C511.356,608.802 511.356,599.065 510.545,592.168Z" style="fill:rgb(204,204,204);fill-rule:nonzero;"/>
                    </g>
                </g>
                <g transform="matrix(1,0,0,1,-8154.61,-2395)">
                    <ellipse cx="8878.8" cy="2745" rx="45" ry="25" style="fill:rgb(252,109,8);"/>
                </g>
                <g transform="matrix(1,0,0,1,-7667.8,-2395)">
                    <ellipse cx="8878.8" cy="2745" rx="45" ry="25" style="fill:rgb(252,109,8);"/>
                </g>
                <g transform="matrix(1,0,0,1.8,-8154.61,-4516)">
                    <ellipse cx="8878.8" cy="2745" rx="45" ry="25" style="fill:rgb(252,109,8);"/>
                </g>
                <g transform="matrix(1,0,0,1.8,-7667.8,-4516)">
                    <ellipse cx="8878.8" cy="2745" rx="45" ry="25" style="fill:rgb(252,109,8);"/>
                </g>
            </g>
        </g>
    </g>
</svg>
