<?xml version="1.0" encoding="UTF-8" standalone="no"?>
<!DOCTYPE svg PUBLIC "-//W3C//DTD SVG 1.1//EN" "http://www.w3.org/Graphics/SVG/1.1/DTD/svg11.dtd">
<svg width="100%" height="100%" viewBox="0 0 1321 1320" version="1.1" xmlns="http://www.w3.org/2000/svg" xmlns:xlink="http://www.w3.org/1999/xlink" xml:space="preserve" xmlns:serif="http://www.serif.com/" style="fill-rule:evenodd;clip-rule:evenodd;stroke-linecap:round;stroke-linejoin:round;stroke-miterlimit:1.5;">
    <g transform="matrix(1,0,0,1,-2283,0)">
        <g transform="matrix(1.22222,0,0,1.22222,2283.8,0)">
            <rect id="pta" x="0" y="0" width="1080" height="1080" style="fill:none;"/>
            <g id="pta1" serif:id="pta">
                <g transform="matrix(0.818182,0,0,0.818182,289.513,11.6771)">
                    <g transform="matrix(48,0,0,48,219.744,180)">
                    </g>
                    <text x="89.856px" y="180px" style="font-family:'HelveticaNeue-Bold', 'Helvetica Neue';font-weight:700;font-size:48px;fill:rgb(235,235,235);">A<tspan x="121.872px 146.832px " y="180px 180px ">va</tspan>nt</text>
                </g>
                <g transform="matrix(0.818182,0,0,0.818182,25.2916,186.958)">
                    <text x="98.112px" y="180px" style="font-family:'HelveticaNeue-Bold', 'Helvetica Neue';font-weight:700;font-size:48px;fill:rgb(235,235,235);">Savent</text>
                    <g transform="matrix(48,0,0,48,233.712,229.344)">
                    </g>
                    <text x="119.088px" y="229.344px" style="font-family:'HelveticaNeue', 'Helvetica Neue';font-size:48px;fill:rgb(235,235,235);">(faits)</text>
                </g>
                <g transform="matrix(0.818182,0,0,0.818182,25.2916,382.988)">
                    <text x="83.04px" y="180px" style="font-family:'HelveticaNeue-Bold', 'Helvetica Neue';font-weight:700;font-size:48px;fill:rgb(235,235,235);">Pensent</text>
                    <g transform="matrix(48,0,0,48,299.064,229.344)">
                    </g>
                    <text x="53.736px" y="229.344px" style="font-family:'HelveticaNeue', 'Helvetica Neue';font-size:48px;fill:rgb(235,235,235);">(cr<tspan x="107.064px 134.616px " y="229.344px 229.344px ">oy</tspan>ances)</text>
                </g>
                <g transform="matrix(0.818182,0,0,0.818182,25.2916,579.351)">
                    <text x="46.608px" y="180px" style="font-family:'HelveticaNeue-Bold', 'Helvetica Neue';font-weight:700;font-size:48px;fill:rgb(235,235,235);">Ressentent</text>
                    <g transform="matrix(48,0,0,48,287.976,229.344)">
                    </g>
                    <text x="64.824px" y="229.344px" style="font-family:'HelveticaNeue', 'Helvetica Neue';font-size:48px;fill:rgb(235,235,235);">(émotions)</text>
                </g>
                <g transform="matrix(0.818182,0,0,0.818182,25.2916,775.715)">
                    <text x="124.824px" y="180px" style="font-family:'HelveticaNeue-Bold', 'Helvetica Neue';font-weight:700;font-size:48px;fill:rgb(235,235,235);">Font</text>
                    <g transform="matrix(48,0,0,48,266.616,229.344)">
                    </g>
                    <text x="86.184px" y="229.344px" style="font-family:'HelveticaNeue', 'Helvetica Neue';font-size:48px;fill:rgb(235,235,235);">(actions)</text>
                </g>
                <g transform="matrix(0.818182,0,0,0.818182,-1868.56,-2.04545)">
                    <path d="M3003.8,190.375L3003.8,174.625L3161.3,174.625L3161.3,160L3183.8,182.5L3161.3,205L3161.3,190.375L3003.8,190.375Z" style="fill:rgb(235,235,235);"/>
                </g>
                <g transform="matrix(0.818182,0,0,0.818182,340.658,-318.982)">
                    <g transform="matrix(48,0,0,48,761.971,584.362)">
                    </g>
                    <text x="627.763px" y="584.362px" style="font-family:'HelveticaNeue-Bold', 'Helvetica Neue';font-weight:700;font-size:48px;fill:rgb(235,235,235);">Après</text>
                </g>
                <g transform="matrix(1.06719,0,0,1.06719,-2513.43,-36.2846)">
                    <path d="M3320,83.725C3320,81.669 3318.33,80 3316.28,80L2403.72,80C2401.67,80 2400,81.669 2400,83.725L2400,996.275C2400,998.331 2401.67,1000 2403.72,1000L3316.28,1000C3318.33,1000 3320,998.331 3320,996.275L3320,83.725Z" style="fill:none;stroke:rgb(235,235,235);stroke-width:3.83px;"/>
                </g>
                <g transform="matrix(1.06719,0,0,0.818182,-2513.43,210.129)">
                    <path d="M2400,283.176L3320,283.176" style="fill:none;stroke:rgb(235,235,235);stroke-width:2.58px;"/>
                </g>
                <g transform="matrix(1.06719,0,0,0.818182,-2513.43,13.7651)">
                    <path d="M2400,283.176L3320,283.176" style="fill:none;stroke:rgb(235,235,235);stroke-width:2.58px;"/>
                </g>
                <g transform="matrix(0.231225,3.89441e-17,1.37802e-16,1.09091,214.15,-63.4647)">
                    <path d="M2470.77,103.176L2470.77,1003.18" style="fill:none;stroke:rgb(235,235,235);stroke-width:3.11px;"/>
                </g>
                <g transform="matrix(0.27747,1.29814e-17,4.59341e-17,1.09091,-145.565,-63.4647)">
                    <path d="M2470.77,103.176L2470.77,1003.18" style="fill:none;stroke:rgb(235,235,235);stroke-width:3.08px;"/>
                </g>
                <g transform="matrix(0.231225,3.89441e-17,1.37802e-16,1.09091,-276.759,-63.4647)">
                    <path d="M2470.77,103.176L2470.77,1003.18" style="fill:none;stroke:rgb(235,235,235);stroke-width:3.11px;"/>
                </g>
                <g transform="matrix(1.06719,0,0,0.818182,-2513.43,406.492)">
                    <path d="M2400,283.176L3320,283.176" style="fill:none;stroke:rgb(235,235,235);stroke-width:2.58px;"/>
                </g>
                <g transform="matrix(1.06719,0,0,0.818182,-2513.43,602.856)">
                    <path d="M2400,283.176L3320,283.176" style="fill:none;stroke:rgb(235,235,235);stroke-width:2.58px;"/>
                </g>
                <g transform="matrix(-7.01389e-16,-3.81818,2.18182,-4.00793e-16,510.316,12450.9)">
                    <path d="M3003.8,190.375L3003.8,174.625L3170.94,174.625L3170.94,160L3183.8,182.5L3170.94,205L3170.94,190.375L3003.8,190.375Z" style="fill:rgb(252,109,8);stroke:rgb(235,235,235);stroke-width:0.79px;"/>
                </g>
            </g>
        </g>
    </g>
</svg>
