<?xml version="1.0" encoding="UTF-8" standalone="no"?>
<!DOCTYPE svg PUBLIC "-//W3C//DTD SVG 1.1//EN" "http://www.w3.org/Graphics/SVG/1.1/DTD/svg11.dtd">
<svg width="100%" height="100%" viewBox="0 0 1281 1281" version="1.1" xmlns="http://www.w3.org/2000/svg" xmlns:xlink="http://www.w3.org/1999/xlink" xml:space="preserve" xmlns:serif="http://www.serif.com/" style="fill-rule:evenodd;clip-rule:evenodd;stroke-linecap:round;stroke-linejoin:round;stroke-miterlimit:1.5;">
    <g transform="matrix(1,0,0,1,-2283,-2840)">
        <g transform="matrix(1.18519,0,0,1.18519,2283.8,2840.05)">
            <rect id="pta" x="0" y="0" width="1080" height="1080" style="fill:none;"/>
            <clipPath id="_clip1">
                <rect id="pta1" serif:id="pta" x="0" y="0" width="1080" height="1080"/>
            </clipPath>
            <g clip-path="url(#_clip1)">
                <g transform="matrix(0.84375,0,0,0.84375,275.427,-29.6797)">
                    <g transform="matrix(48,0,0,48,219.744,180)">
                    </g>
                    <text x="89.856px" y="180px" style="font-family:'HelveticaNeue-Bold', 'Helvetica Neue';font-weight:700;font-size:48px;fill:rgb(235,235,235);">A<tspan x="121.872px 146.832px " y="180px 180px ">va</tspan>nt</text>
                </g>
                <g transform="matrix(0.84375,0,0,0.84375,-14.0392,162.122)">
                    <text x="98.112px" y="180px" style="font-family:'HelveticaNeue-Bold', 'Helvetica Neue';font-weight:700;font-size:48px;fill:rgb(235,235,235);">Savent</text>
                    <g transform="matrix(48,0,0,48,233.712,229.344)">
                    </g>
                    <text x="119.088px" y="229.344px" style="font-family:'HelveticaNeue', 'Helvetica Neue';font-size:48px;fill:rgb(235,235,235);">(faits)</text>
                </g>
                <g transform="matrix(0.84375,0,0,0.84375,-13.8375,377.575)">
                    <text x="83.04px" y="180px" style="font-family:'HelveticaNeue-Bold', 'Helvetica Neue';font-weight:700;font-size:48px;fill:rgb(235,235,235);">Pensent</text>
                    <g transform="matrix(48,0,0,48,299.064,229.344)">
                    </g>
                    <text x="53.736px" y="229.344px" style="font-family:'HelveticaNeue', 'Helvetica Neue';font-size:48px;fill:rgb(235,235,235);">(cr<tspan x="107.064px 134.616px " y="229.344px 229.344px ">oy</tspan>ances)</text>
                </g>
                <g transform="matrix(0.84375,0,0,0.84375,-15.12,593.777)">
                    <text x="46.608px" y="180px" style="font-family:'HelveticaNeue-Bold', 'Helvetica Neue';font-weight:700;font-size:48px;fill:rgb(235,235,235);">Ressentent</text>
                    <g transform="matrix(48,0,0,48,287.976,229.344)">
                    </g>
                    <text x="64.824px" y="229.344px" style="font-family:'HelveticaNeue', 'Helvetica Neue';font-size:48px;fill:rgb(235,235,235);">(émotions)</text>
                </g>
                <g transform="matrix(0.84375,0,0,0.84375,-14.0063,809.777)">
                    <text x="124.824px" y="180px" style="font-family:'HelveticaNeue-Bold', 'Helvetica Neue';font-weight:700;font-size:48px;fill:rgb(235,235,235);">Font</text>
                    <g transform="matrix(48,0,0,48,266.616,229.344)">
                    </g>
                    <text x="86.184px" y="229.344px" style="font-family:'HelveticaNeue', 'Helvetica Neue';font-size:48px;fill:rgb(235,235,235);">(actions)</text>
                </g>
                <g transform="matrix(0.84375,0,0,0.84375,-1935.39,-45.9844)">
                    <path d="M3003.8,190.375L3003.8,174.625L3161.3,174.625L3161.3,160L3183.8,182.5L3161.3,205L3161.3,190.375L3003.8,190.375Z" style="fill:rgb(235,235,235);"/>
                </g>
                <g transform="matrix(0.84375,0,0,0.84375,361.568,-372.825)">
                    <g transform="matrix(48,0,0,48,761.971,584.362)">
                    </g>
                    <text x="627.763px" y="584.362px" style="font-family:'HelveticaNeue-Bold', 'Helvetica Neue';font-weight:700;font-size:48px;fill:rgb(235,235,235);">Après</text>
                </g>
                <g transform="matrix(1.17391,0,0,1.17391,-2817.39,-93.913)">
                    <path d="M3320,87.036L3320,992.964C3320,996.847 3316.85,1000 3312.96,1000L2407.04,1000C2403.15,1000 2400,996.847 2400,992.964L2400,87.036C2400,83.153 2403.15,80 2407.04,80L3312.96,80C3316.85,80 3320,83.153 3320,87.036ZM3316.41,87.036C3316.41,85.136 3314.86,83.594 3312.96,83.594L2407.04,83.594C2405.14,83.594 2403.59,85.136 2403.59,87.036L2403.59,992.964C2403.59,994.864 2405.14,996.406 2407.04,996.406L3312.96,996.406C3314.86,996.406 3316.41,994.864 3316.41,992.964L3316.41,87.036Z" style="fill:rgb(235,235,235);"/>
                </g>
                <g transform="matrix(1.17391,0,0,0.84375,-2818.69,193.07)">
                    <path d="M2400,283.176L3320,283.176" style="fill:none;stroke:rgb(235,235,235);stroke-width:2.48px;"/>
                </g>
                <g transform="matrix(1.17391,0,0,0.84375,-2818.69,-22.9298)">
                    <path d="M2400,283.176L3320,283.176" style="fill:none;stroke:rgb(235,235,235);stroke-width:2.48px;"/>
                </g>
                <g transform="matrix(0.238451,4.87898e-17,1.70181e-16,1.2,220.842,-123.811)">
                    <path d="M2470.77,103.176L2470.77,1003.18" style="fill:none;stroke:rgb(235,235,235);stroke-width:2.93px;"/>
                </g>
                <g transform="matrix(0.286141,2.15085e-17,7.57912e-17,1.2,-166.989,-123.811)">
                    <path d="M2470.77,103.176L2470.77,1003.18" style="fill:none;stroke:rgb(235,235,235);stroke-width:2.9px;"/>
                </g>
                <g transform="matrix(0.238451,4.88627e-17,1.7053e-16,1.2,-319.158,-123.811)">
                    <path d="M2470.77,103.176L2470.77,1003.18" style="fill:none;stroke:rgb(235,235,235);stroke-width:2.93px;"/>
                </g>
                <g transform="matrix(1.17391,0,0,0.84375,-2817.39,409.07)">
                    <path d="M2400,283.176L3320,283.176" style="fill:none;stroke:rgb(235,235,235);stroke-width:2.48px;"/>
                </g>
                <g transform="matrix(1.17391,0,0,0.84375,-2818.04,625.07)">
                    <path d="M2400,283.176L3320,283.176" style="fill:none;stroke:rgb(235,235,235);stroke-width:2.48px;"/>
                </g>
                <g transform="matrix(1.28588e-15,4.2,-2.4,7.34788e-16,1113,-12345.9)">
                    <path d="M3003.8,190.375L3003.8,174.625L3170.94,174.625L3170.94,160L3183.8,182.5L3170.94,205L3170.94,190.375L3003.8,190.375Z" style="fill:rgb(252,109,8);stroke:rgb(235,235,235);stroke-width:0.74px;"/>
                </g>
            </g>
        </g>
    </g>
</svg>
