<?xml version="1.0" encoding="UTF-8" standalone="no"?>
<!DOCTYPE svg PUBLIC "-//W3C//DTD SVG 1.1//EN" "http://www.w3.org/Graphics/SVG/1.1/DTD/svg11.dtd">
<svg width="100%" height="100%" viewBox="0 0 1920 1080" version="1.1" xmlns="http://www.w3.org/2000/svg" xmlns:xlink="http://www.w3.org/1999/xlink" xml:space="preserve" xmlns:serif="http://www.serif.com/" style="fill-rule:evenodd;clip-rule:evenodd;stroke-linejoin:round;stroke-miterlimit:2;">
    <g transform="matrix(1,0,0,1,-2050,0)">
        <g transform="matrix(1,0,0,1,10,0)">
            <g id="three-circles" transform="matrix(1,0,0,1,2040,1.52767e-13)">
                <rect x="0" y="0" width="1920" height="1080" style="fill:none;"/>
                <g transform="matrix(1.02128,0,0,1.03846,-20.4255,-20.7692)">
                    <path d="M1900,43.169L1900,1036.83C1900,1049.62 1889.44,1060 1876.44,1060L43.559,1060C30.557,1060 20,1049.62 20,1036.83L20,43.169C20,30.382 30.557,20 43.559,20L1876.44,20C1889.44,20 1900,30.382 1900,43.169ZM1898.53,43.169C1898.53,31.179 1888.63,21.444 1876.44,21.444L43.559,21.444C31.367,21.444 21.469,31.179 21.469,43.169L21.469,1036.83C21.469,1048.82 31.367,1058.56 43.559,1058.56L1876.44,1058.56C1888.63,1058.56 1898.53,1048.82 1898.53,1036.83L1898.53,43.169Z" style="fill:rgb(117,117,117);"/>
                </g>
                <g transform="matrix(1,0,0,1,1087.84,554.08)">
                    <g transform="matrix(48,0,0,48,90,180)">
                        <path d="M0.176,-0.237L0.024,-0.237C0.023,-0.193 0.031,-0.155 0.048,-0.123C0.065,-0.091 0.087,-0.065 0.116,-0.044C0.144,-0.023 0.177,-0.008 0.214,0.002C0.251,0.011 0.289,0.016 0.328,0.016C0.377,0.016 0.42,0.01 0.457,-0.001C0.494,-0.012 0.525,-0.028 0.55,-0.049C0.575,-0.069 0.593,-0.093 0.606,-0.121C0.619,-0.149 0.625,-0.179 0.625,-0.212C0.625,-0.252 0.616,-0.285 0.6,-0.311C0.583,-0.336 0.562,-0.357 0.539,-0.372C0.516,-0.387 0.492,-0.399 0.469,-0.406C0.445,-0.413 0.426,-0.417 0.413,-0.42C0.368,-0.431 0.332,-0.441 0.305,-0.448C0.277,-0.455 0.255,-0.463 0.24,-0.47C0.224,-0.477 0.213,-0.485 0.208,-0.494C0.203,-0.503 0.2,-0.514 0.2,-0.528C0.2,-0.543 0.203,-0.556 0.21,-0.566C0.217,-0.576 0.225,-0.584 0.236,-0.591C0.246,-0.598 0.257,-0.602 0.27,-0.605C0.283,-0.608 0.295,-0.609 0.308,-0.609C0.327,-0.609 0.345,-0.607 0.362,-0.604C0.378,-0.601 0.392,-0.595 0.405,-0.587C0.418,-0.579 0.428,-0.568 0.436,-0.554C0.443,-0.54 0.448,-0.522 0.449,-0.501L0.601,-0.501C0.601,-0.542 0.593,-0.578 0.578,-0.607C0.562,-0.636 0.541,-0.659 0.514,-0.678C0.487,-0.697 0.457,-0.71 0.423,-0.719C0.388,-0.727 0.352,-0.731 0.315,-0.731C0.283,-0.731 0.251,-0.727 0.219,-0.718C0.187,-0.709 0.158,-0.696 0.133,-0.678C0.108,-0.66 0.087,-0.638 0.072,-0.611C0.056,-0.584 0.048,-0.552 0.048,-0.515C0.048,-0.482 0.054,-0.455 0.067,-0.432C0.079,-0.409 0.095,-0.389 0.115,-0.374C0.135,-0.359 0.158,-0.346 0.183,-0.337C0.208,-0.327 0.234,-0.319 0.261,-0.312C0.287,-0.305 0.313,-0.298 0.338,-0.292C0.363,-0.286 0.386,-0.279 0.406,-0.271C0.426,-0.263 0.442,-0.253 0.455,-0.241C0.467,-0.229 0.473,-0.213 0.473,-0.194C0.473,-0.176 0.468,-0.161 0.459,-0.15C0.45,-0.138 0.438,-0.129 0.424,-0.122C0.41,-0.115 0.395,-0.111 0.379,-0.109C0.363,-0.106 0.348,-0.105 0.334,-0.105C0.313,-0.105 0.293,-0.108 0.274,-0.113C0.255,-0.117 0.238,-0.125 0.224,-0.136C0.209,-0.146 0.198,-0.159 0.189,-0.176C0.18,-0.193 0.176,-0.213 0.176,-0.237Z" style="fill-rule:nonzero;stroke:white;stroke-width:0.02px;"/>
                    </g>
                    <g transform="matrix(48,0,0,48,121.152,180)">
                        <path d="M0.234,-0.517L0.234,-0.672L0.092,-0.672L0.092,-0.517L0.006,-0.517L0.006,-0.422L0.092,-0.422L0.092,-0.117C0.092,-0.091 0.096,-0.07 0.105,-0.054C0.114,-0.038 0.126,-0.026 0.141,-0.017C0.156,-0.008 0.173,-0.003 0.193,0.001C0.212,0.004 0.233,0.005 0.255,0.005C0.269,0.005 0.283,0.005 0.298,0.004C0.313,0.003 0.326,0.002 0.338,-0L0.338,-0.11C0.331,-0.109 0.324,-0.108 0.317,-0.107C0.31,-0.106 0.302,-0.106 0.294,-0.106C0.27,-0.106 0.254,-0.11 0.246,-0.118C0.238,-0.126 0.234,-0.142 0.234,-0.166L0.234,-0.422L0.338,-0.422L0.338,-0.517L0.234,-0.517Z" style="fill-rule:nonzero;stroke:white;stroke-width:0.02px;"/>
                    </g>
                    <g transform="matrix(48,0,0,48,138.048,180)">
                        <path d="M0.18,-0.258C0.18,-0.279 0.182,-0.299 0.186,-0.319C0.19,-0.339 0.197,-0.357 0.207,-0.372C0.216,-0.387 0.229,-0.4 0.245,-0.41C0.261,-0.419 0.281,-0.424 0.305,-0.424C0.329,-0.424 0.349,-0.419 0.366,-0.41C0.382,-0.4 0.395,-0.387 0.405,-0.372C0.414,-0.357 0.421,-0.339 0.425,-0.319C0.429,-0.299 0.431,-0.279 0.431,-0.258C0.431,-0.237 0.429,-0.217 0.425,-0.198C0.421,-0.178 0.414,-0.16 0.405,-0.145C0.395,-0.129 0.382,-0.116 0.366,-0.107C0.349,-0.098 0.329,-0.093 0.305,-0.093C0.281,-0.093 0.261,-0.098 0.245,-0.107C0.229,-0.116 0.216,-0.129 0.207,-0.145C0.197,-0.16 0.19,-0.178 0.186,-0.198C0.182,-0.217 0.18,-0.237 0.18,-0.258ZM0.038,-0.258C0.038,-0.217 0.044,-0.179 0.057,-0.146C0.07,-0.113 0.088,-0.084 0.111,-0.061C0.134,-0.037 0.162,-0.019 0.195,-0.006C0.228,0.007 0.264,0.013 0.305,0.013C0.346,0.013 0.383,0.007 0.416,-0.006C0.449,-0.019 0.477,-0.037 0.5,-0.061C0.523,-0.084 0.541,-0.113 0.554,-0.146C0.567,-0.179 0.573,-0.217 0.573,-0.258C0.573,-0.299 0.567,-0.337 0.554,-0.371C0.541,-0.404 0.523,-0.433 0.5,-0.457C0.477,-0.48 0.449,-0.499 0.416,-0.512C0.383,-0.525 0.346,-0.531 0.305,-0.531C0.264,-0.531 0.228,-0.525 0.195,-0.512C0.162,-0.499 0.134,-0.48 0.111,-0.457C0.088,-0.433 0.07,-0.404 0.057,-0.371C0.044,-0.337 0.038,-0.299 0.038,-0.258Z" style="fill-rule:nonzero;stroke:white;stroke-width:0.02px;"/>
                    </g>
                    <g transform="matrix(48,0,0,48,167.376,180)">
                        <path d="M0.054,-0.517L0.054,-0L0.196,-0L0.196,-0.233C0.196,-0.256 0.198,-0.278 0.203,-0.298C0.208,-0.318 0.216,-0.335 0.227,-0.351C0.238,-0.366 0.252,-0.377 0.27,-0.386C0.288,-0.395 0.31,-0.399 0.336,-0.399C0.345,-0.399 0.354,-0.399 0.363,-0.398C0.372,-0.397 0.38,-0.395 0.387,-0.394L0.387,-0.526C0.376,-0.529 0.365,-0.531 0.356,-0.531C0.338,-0.531 0.321,-0.528 0.304,-0.523C0.287,-0.518 0.272,-0.51 0.257,-0.501C0.242,-0.491 0.229,-0.479 0.218,-0.466C0.207,-0.452 0.198,-0.437 0.191,-0.421L0.189,-0.421L0.189,-0.517L0.054,-0.517Z" style="fill-rule:nonzero;stroke:white;stroke-width:0.02px;"/>
                    </g>
                    <g transform="matrix(48,0,0,48,186.048,180)">
                        <path d="M0.309,0.064L0.525,-0.517L0.378,-0.517L0.265,-0.163L0.263,-0.163L0.146,-0.517L-0.005,-0.517L0.176,-0.032C0.18,-0.022 0.182,-0.011 0.182,-0C0.182,0.015 0.178,0.029 0.169,0.042C0.16,0.055 0.146,0.062 0.127,0.064C0.113,0.065 0.099,0.064 0.085,0.063C0.071,0.062 0.057,0.06 0.044,0.059L0.044,0.176C0.059,0.177 0.073,0.179 0.088,0.18C0.102,0.181 0.116,0.181 0.131,0.181C0.18,0.181 0.218,0.172 0.245,0.154C0.272,0.136 0.294,0.106 0.309,0.064Z" style="fill-rule:nonzero;stroke:white;stroke-width:0.02px;"/>
                    </g>
                </g>
                <g transform="matrix(1,0,0,1,500.848,555.52)">
                    <g transform="matrix(48,0,0,48,90,180)">
                        <path d="M0.401,-0L0.638,-0.714L0.476,-0.714L0.315,-0.212L0.313,-0.212L0.154,-0.714L-0.007,-0.714L0.224,-0L0.401,-0Z" style="fill-rule:nonzero;stroke:white;stroke-width:0.02px;"/>
                    </g>
                    <g transform="matrix(48,0,0,48,119.376,180)">
                        <path d="M0.2,-0.597L0.2,-0.714L0.058,-0.714L0.058,-0.597L0.2,-0.597ZM0.058,-0.517L0.058,-0L0.2,-0L0.2,-0.517L0.058,-0.517Z" style="fill-rule:nonzero;stroke:white;stroke-width:0.02px;"/>
                    </g>
                    <g transform="matrix(48,0,0,48,131.76,180)">
                        <path d="M0.164,-0.168L0.029,-0.168C0.03,-0.133 0.038,-0.105 0.053,-0.082C0.067,-0.058 0.085,-0.04 0.108,-0.026C0.13,-0.012 0.155,-0.002 0.184,0.004C0.213,0.01 0.242,0.013 0.272,0.013C0.301,0.013 0.33,0.01 0.359,0.005C0.387,-0.001 0.412,-0.011 0.434,-0.025C0.456,-0.039 0.474,-0.057 0.488,-0.081C0.501,-0.103 0.508,-0.132 0.508,-0.166C0.508,-0.19 0.503,-0.21 0.494,-0.227C0.485,-0.243 0.472,-0.257 0.457,-0.268C0.442,-0.279 0.424,-0.287 0.405,-0.294C0.385,-0.301 0.365,-0.306 0.344,-0.311C0.324,-0.316 0.304,-0.32 0.285,-0.324C0.266,-0.328 0.249,-0.333 0.234,-0.338C0.219,-0.343 0.206,-0.349 0.197,-0.357C0.188,-0.365 0.183,-0.375 0.183,-0.388C0.183,-0.399 0.186,-0.407 0.191,-0.414C0.196,-0.42 0.203,-0.425 0.211,-0.428C0.218,-0.431 0.227,-0.434 0.236,-0.435C0.245,-0.436 0.254,-0.436 0.262,-0.436C0.287,-0.436 0.309,-0.431 0.328,-0.422C0.347,-0.412 0.357,-0.393 0.359,-0.366L0.494,-0.366C0.491,-0.398 0.483,-0.425 0.47,-0.446C0.456,-0.467 0.439,-0.483 0.418,-0.496C0.397,-0.509 0.374,-0.518 0.348,-0.523C0.321,-0.528 0.294,-0.531 0.266,-0.531C0.238,-0.531 0.211,-0.529 0.184,-0.524C0.157,-0.519 0.133,-0.51 0.112,-0.498C0.091,-0.485 0.074,-0.468 0.061,-0.447C0.048,-0.426 0.041,-0.398 0.041,-0.365C0.041,-0.342 0.046,-0.323 0.055,-0.308C0.064,-0.292 0.077,-0.279 0.092,-0.269C0.107,-0.258 0.125,-0.25 0.145,-0.244C0.164,-0.237 0.184,-0.232 0.205,-0.227C0.256,-0.216 0.295,-0.206 0.324,-0.195C0.352,-0.184 0.366,-0.168 0.366,-0.147C0.366,-0.134 0.363,-0.124 0.357,-0.116C0.351,-0.107 0.343,-0.1 0.335,-0.096C0.326,-0.09 0.316,-0.087 0.305,-0.085C0.294,-0.082 0.283,-0.081 0.273,-0.081C0.259,-0.081 0.246,-0.083 0.233,-0.086C0.22,-0.089 0.208,-0.094 0.198,-0.102C0.188,-0.109 0.18,-0.118 0.174,-0.129C0.167,-0.139 0.164,-0.153 0.164,-0.168Z" style="fill-rule:nonzero;stroke:white;stroke-width:0.02px;"/>
                    </g>
                    <g transform="matrix(48,0,0,48,157.536,180)">
                        <path d="M0.539,-0L0.539,-0.517L0.397,-0.517L0.397,-0.246C0.397,-0.193 0.388,-0.156 0.371,-0.133C0.354,-0.11 0.326,-0.098 0.287,-0.098C0.253,-0.098 0.229,-0.109 0.216,-0.13C0.203,-0.151 0.196,-0.182 0.196,-0.225L0.196,-0.517L0.054,-0.517L0.054,-0.199C0.054,-0.167 0.057,-0.138 0.063,-0.112C0.068,-0.085 0.078,-0.063 0.092,-0.045C0.106,-0.026 0.125,-0.012 0.15,-0.002C0.174,0.008 0.205,0.013 0.243,0.013C0.273,0.013 0.302,0.006 0.331,-0.007C0.36,-0.02 0.383,-0.042 0.401,-0.072L0.404,-0.072L0.404,-0L0.539,-0Z" style="fill-rule:nonzero;stroke:white;stroke-width:0.02px;"/>
                    </g>
                    <g transform="matrix(48,0,0,48,186,180)">
                        <path d="M0.048,-0.358C0.05,-0.391 0.058,-0.419 0.073,-0.441C0.088,-0.463 0.106,-0.481 0.129,-0.494C0.152,-0.507 0.177,-0.517 0.206,-0.523C0.234,-0.528 0.262,-0.531 0.291,-0.531C0.317,-0.531 0.343,-0.529 0.37,-0.526C0.397,-0.522 0.421,-0.515 0.443,-0.504C0.465,-0.493 0.483,-0.478 0.497,-0.46C0.511,-0.44 0.518,-0.415 0.518,-0.384L0.518,-0.115C0.518,-0.092 0.519,-0.069 0.522,-0.048C0.525,-0.027 0.529,-0.011 0.536,-0L0.392,-0C0.389,-0.008 0.387,-0.016 0.386,-0.025C0.384,-0.033 0.383,-0.041 0.382,-0.05C0.359,-0.027 0.333,-0.01 0.302,-0.001C0.271,0.008 0.24,0.013 0.208,0.013C0.183,0.013 0.16,0.01 0.139,0.004C0.118,-0.002 0.099,-0.011 0.083,-0.024C0.067,-0.037 0.055,-0.053 0.046,-0.072C0.037,-0.091 0.032,-0.114 0.032,-0.141C0.032,-0.17 0.037,-0.195 0.048,-0.214C0.058,-0.233 0.071,-0.248 0.088,-0.259C0.104,-0.27 0.123,-0.279 0.144,-0.285C0.165,-0.29 0.186,-0.295 0.207,-0.298C0.228,-0.301 0.249,-0.304 0.27,-0.306C0.291,-0.308 0.309,-0.311 0.325,-0.315C0.341,-0.319 0.354,-0.325 0.363,-0.333C0.372,-0.34 0.377,-0.351 0.376,-0.366C0.376,-0.381 0.374,-0.394 0.369,-0.403C0.364,-0.412 0.357,-0.419 0.349,-0.424C0.34,-0.428 0.331,-0.432 0.32,-0.434C0.309,-0.435 0.297,-0.436 0.284,-0.436C0.256,-0.436 0.234,-0.43 0.218,-0.418C0.202,-0.406 0.193,-0.386 0.19,-0.358L0.048,-0.358ZM0.376,-0.253C0.37,-0.248 0.363,-0.243 0.354,-0.241C0.345,-0.238 0.335,-0.235 0.325,-0.233C0.314,-0.231 0.303,-0.229 0.292,-0.228C0.281,-0.227 0.269,-0.225 0.258,-0.223C0.247,-0.221 0.237,-0.218 0.227,-0.215C0.216,-0.212 0.207,-0.207 0.2,-0.202C0.192,-0.196 0.186,-0.189 0.181,-0.18C0.176,-0.171 0.174,-0.16 0.174,-0.147C0.174,-0.134 0.176,-0.124 0.181,-0.115C0.186,-0.106 0.192,-0.099 0.2,-0.095C0.208,-0.09 0.217,-0.086 0.228,-0.084C0.239,-0.082 0.25,-0.081 0.261,-0.081C0.289,-0.081 0.311,-0.086 0.326,-0.095C0.341,-0.104 0.353,-0.116 0.36,-0.129C0.367,-0.141 0.372,-0.155 0.374,-0.168C0.375,-0.181 0.376,-0.192 0.376,-0.2L0.376,-0.253Z" style="fill-rule:nonzero;stroke:white;stroke-width:0.02px;"/>
                    </g>
                    <g transform="matrix(48,0,0,48,213.552,180)">
                        <rect x="0.058" y="-0.714" width="0.142" height="0.714" style="fill-rule:nonzero;stroke:white;stroke-width:0.02px;"/>
                    </g>
                    <g transform="matrix(48,0,0,48,225.936,180)">
                        <path d="M0.164,-0.168L0.029,-0.168C0.03,-0.133 0.038,-0.105 0.053,-0.082C0.067,-0.058 0.085,-0.04 0.108,-0.026C0.13,-0.012 0.155,-0.002 0.184,0.004C0.213,0.01 0.242,0.013 0.272,0.013C0.301,0.013 0.33,0.01 0.359,0.005C0.387,-0.001 0.412,-0.011 0.434,-0.025C0.456,-0.039 0.474,-0.057 0.488,-0.081C0.501,-0.103 0.508,-0.132 0.508,-0.166C0.508,-0.19 0.503,-0.21 0.494,-0.227C0.485,-0.243 0.472,-0.257 0.457,-0.268C0.442,-0.279 0.424,-0.287 0.405,-0.294C0.385,-0.301 0.365,-0.306 0.344,-0.311C0.324,-0.316 0.304,-0.32 0.285,-0.324C0.266,-0.328 0.249,-0.333 0.234,-0.338C0.219,-0.343 0.206,-0.349 0.197,-0.357C0.188,-0.365 0.183,-0.375 0.183,-0.388C0.183,-0.399 0.186,-0.407 0.191,-0.414C0.196,-0.42 0.203,-0.425 0.211,-0.428C0.218,-0.431 0.227,-0.434 0.236,-0.435C0.245,-0.436 0.254,-0.436 0.262,-0.436C0.287,-0.436 0.309,-0.431 0.328,-0.422C0.347,-0.412 0.357,-0.393 0.359,-0.366L0.494,-0.366C0.491,-0.398 0.483,-0.425 0.47,-0.446C0.456,-0.467 0.439,-0.483 0.418,-0.496C0.397,-0.509 0.374,-0.518 0.348,-0.523C0.321,-0.528 0.294,-0.531 0.266,-0.531C0.238,-0.531 0.211,-0.529 0.184,-0.524C0.157,-0.519 0.133,-0.51 0.112,-0.498C0.091,-0.485 0.074,-0.468 0.061,-0.447C0.048,-0.426 0.041,-0.398 0.041,-0.365C0.041,-0.342 0.046,-0.323 0.055,-0.308C0.064,-0.292 0.077,-0.279 0.092,-0.269C0.107,-0.258 0.125,-0.25 0.145,-0.244C0.164,-0.237 0.184,-0.232 0.205,-0.227C0.256,-0.216 0.295,-0.206 0.324,-0.195C0.352,-0.184 0.366,-0.168 0.366,-0.147C0.366,-0.134 0.363,-0.124 0.357,-0.116C0.351,-0.107 0.343,-0.1 0.335,-0.096C0.326,-0.09 0.316,-0.087 0.305,-0.085C0.294,-0.082 0.283,-0.081 0.273,-0.081C0.259,-0.081 0.246,-0.083 0.233,-0.086C0.22,-0.089 0.208,-0.094 0.198,-0.102C0.188,-0.109 0.18,-0.118 0.174,-0.129C0.167,-0.139 0.164,-0.153 0.164,-0.168Z" style="fill-rule:nonzero;stroke:white;stroke-width:0.02px;"/>
                    </g>
                </g>
                <g transform="matrix(1,0,0,1,764.24,469.824)">
                    <g transform="matrix(48,0,0,48,90,180)">
                        <path d="M0.069,-0.714L0.069,-0L0.216,-0L0.216,-0.501L0.218,-0.501L0.393,-0L0.514,-0L0.689,-0.506L0.691,-0.506L0.691,-0L0.838,-0L0.838,-0.714L0.617,-0.714L0.459,-0.223L0.457,-0.223L0.29,-0.714L0.069,-0.714Z" style="fill-rule:nonzero;stroke:white;stroke-width:0.02px;"/>
                    </g>
                    <g transform="matrix(48,0,0,48,133.536,180)">
                        <path d="M0.402,-0.314L0.171,-0.314C0.172,-0.324 0.174,-0.335 0.178,-0.348C0.181,-0.361 0.188,-0.373 0.197,-0.384C0.206,-0.395 0.218,-0.405 0.233,-0.413C0.248,-0.42 0.266,-0.424 0.289,-0.424C0.324,-0.424 0.349,-0.415 0.367,-0.396C0.384,-0.377 0.395,-0.35 0.402,-0.314ZM0.171,-0.224L0.544,-0.224C0.547,-0.264 0.543,-0.302 0.534,-0.339C0.525,-0.376 0.509,-0.408 0.489,-0.437C0.468,-0.466 0.441,-0.489 0.408,-0.506C0.375,-0.523 0.337,-0.531 0.293,-0.531C0.254,-0.531 0.218,-0.524 0.186,-0.51C0.153,-0.496 0.125,-0.477 0.102,-0.453C0.079,-0.428 0.061,-0.399 0.048,-0.366C0.035,-0.333 0.029,-0.297 0.029,-0.258C0.029,-0.218 0.035,-0.181 0.048,-0.148C0.06,-0.115 0.077,-0.086 0.1,-0.062C0.123,-0.038 0.15,-0.02 0.183,-0.007C0.216,0.007 0.252,0.013 0.293,0.013C0.352,0.013 0.402,-0 0.443,-0.027C0.484,-0.054 0.515,-0.098 0.535,-0.16L0.41,-0.16C0.405,-0.144 0.393,-0.129 0.372,-0.115C0.351,-0.1 0.327,-0.093 0.298,-0.093C0.258,-0.093 0.227,-0.103 0.206,-0.124C0.185,-0.145 0.173,-0.178 0.171,-0.224Z" style="fill-rule:nonzero;stroke:white;stroke-width:0.02px;"/>
                    </g>
                    <g transform="matrix(48,0,0,48,161.088,180)">
                        <path d="M0.164,-0.168L0.029,-0.168C0.03,-0.133 0.038,-0.105 0.053,-0.082C0.067,-0.058 0.085,-0.04 0.108,-0.026C0.13,-0.012 0.155,-0.002 0.184,0.004C0.213,0.01 0.242,0.013 0.272,0.013C0.301,0.013 0.33,0.01 0.359,0.005C0.387,-0.001 0.412,-0.011 0.434,-0.025C0.456,-0.039 0.474,-0.057 0.488,-0.081C0.501,-0.103 0.508,-0.132 0.508,-0.166C0.508,-0.19 0.503,-0.21 0.494,-0.227C0.485,-0.243 0.472,-0.257 0.457,-0.268C0.442,-0.279 0.424,-0.287 0.405,-0.294C0.385,-0.301 0.365,-0.306 0.344,-0.311C0.324,-0.316 0.304,-0.32 0.285,-0.324C0.266,-0.328 0.249,-0.333 0.234,-0.338C0.219,-0.343 0.206,-0.349 0.197,-0.357C0.188,-0.365 0.183,-0.375 0.183,-0.388C0.183,-0.399 0.186,-0.407 0.191,-0.414C0.196,-0.42 0.203,-0.425 0.211,-0.428C0.218,-0.431 0.227,-0.434 0.236,-0.435C0.245,-0.436 0.254,-0.436 0.262,-0.436C0.287,-0.436 0.309,-0.431 0.328,-0.422C0.347,-0.412 0.357,-0.393 0.359,-0.366L0.494,-0.366C0.491,-0.398 0.483,-0.425 0.47,-0.446C0.456,-0.467 0.439,-0.483 0.418,-0.496C0.397,-0.509 0.374,-0.518 0.348,-0.523C0.321,-0.528 0.294,-0.531 0.266,-0.531C0.238,-0.531 0.211,-0.529 0.184,-0.524C0.157,-0.519 0.133,-0.51 0.112,-0.498C0.091,-0.485 0.074,-0.468 0.061,-0.447C0.048,-0.426 0.041,-0.398 0.041,-0.365C0.041,-0.342 0.046,-0.323 0.055,-0.308C0.064,-0.292 0.077,-0.279 0.092,-0.269C0.107,-0.258 0.125,-0.25 0.145,-0.244C0.164,-0.237 0.184,-0.232 0.205,-0.227C0.256,-0.216 0.295,-0.206 0.324,-0.195C0.352,-0.184 0.366,-0.168 0.366,-0.147C0.366,-0.134 0.363,-0.124 0.357,-0.116C0.351,-0.107 0.343,-0.1 0.335,-0.096C0.326,-0.09 0.316,-0.087 0.305,-0.085C0.294,-0.082 0.283,-0.081 0.273,-0.081C0.259,-0.081 0.246,-0.083 0.233,-0.086C0.22,-0.089 0.208,-0.094 0.198,-0.102C0.188,-0.109 0.18,-0.118 0.174,-0.129C0.167,-0.139 0.164,-0.153 0.164,-0.168Z" style="fill-rule:nonzero;stroke:white;stroke-width:0.02px;"/>
                    </g>
                    <g transform="matrix(48,0,0,48,186.864,180)">
                        <path d="M0.164,-0.168L0.029,-0.168C0.03,-0.133 0.038,-0.105 0.053,-0.082C0.067,-0.058 0.085,-0.04 0.108,-0.026C0.13,-0.012 0.155,-0.002 0.184,0.004C0.213,0.01 0.242,0.013 0.272,0.013C0.301,0.013 0.33,0.01 0.359,0.005C0.387,-0.001 0.412,-0.011 0.434,-0.025C0.456,-0.039 0.474,-0.057 0.488,-0.081C0.501,-0.103 0.508,-0.132 0.508,-0.166C0.508,-0.19 0.503,-0.21 0.494,-0.227C0.485,-0.243 0.472,-0.257 0.457,-0.268C0.442,-0.279 0.424,-0.287 0.405,-0.294C0.385,-0.301 0.365,-0.306 0.344,-0.311C0.324,-0.316 0.304,-0.32 0.285,-0.324C0.266,-0.328 0.249,-0.333 0.234,-0.338C0.219,-0.343 0.206,-0.349 0.197,-0.357C0.188,-0.365 0.183,-0.375 0.183,-0.388C0.183,-0.399 0.186,-0.407 0.191,-0.414C0.196,-0.42 0.203,-0.425 0.211,-0.428C0.218,-0.431 0.227,-0.434 0.236,-0.435C0.245,-0.436 0.254,-0.436 0.262,-0.436C0.287,-0.436 0.309,-0.431 0.328,-0.422C0.347,-0.412 0.357,-0.393 0.359,-0.366L0.494,-0.366C0.491,-0.398 0.483,-0.425 0.47,-0.446C0.456,-0.467 0.439,-0.483 0.418,-0.496C0.397,-0.509 0.374,-0.518 0.348,-0.523C0.321,-0.528 0.294,-0.531 0.266,-0.531C0.238,-0.531 0.211,-0.529 0.184,-0.524C0.157,-0.519 0.133,-0.51 0.112,-0.498C0.091,-0.485 0.074,-0.468 0.061,-0.447C0.048,-0.426 0.041,-0.398 0.041,-0.365C0.041,-0.342 0.046,-0.323 0.055,-0.308C0.064,-0.292 0.077,-0.279 0.092,-0.269C0.107,-0.258 0.125,-0.25 0.145,-0.244C0.164,-0.237 0.184,-0.232 0.205,-0.227C0.256,-0.216 0.295,-0.206 0.324,-0.195C0.352,-0.184 0.366,-0.168 0.366,-0.147C0.366,-0.134 0.363,-0.124 0.357,-0.116C0.351,-0.107 0.343,-0.1 0.335,-0.096C0.326,-0.09 0.316,-0.087 0.305,-0.085C0.294,-0.082 0.283,-0.081 0.273,-0.081C0.259,-0.081 0.246,-0.083 0.233,-0.086C0.22,-0.089 0.208,-0.094 0.198,-0.102C0.188,-0.109 0.18,-0.118 0.174,-0.129C0.167,-0.139 0.164,-0.153 0.164,-0.168Z" style="fill-rule:nonzero;stroke:white;stroke-width:0.02px;"/>
                    </g>
                    <g transform="matrix(48,0,0,48,212.64,180)">
                        <path d="M0.048,-0.358C0.05,-0.391 0.058,-0.419 0.073,-0.441C0.088,-0.463 0.106,-0.481 0.129,-0.494C0.152,-0.507 0.177,-0.517 0.206,-0.523C0.234,-0.528 0.262,-0.531 0.291,-0.531C0.317,-0.531 0.343,-0.529 0.37,-0.526C0.397,-0.522 0.421,-0.515 0.443,-0.504C0.465,-0.493 0.483,-0.478 0.497,-0.46C0.511,-0.44 0.518,-0.415 0.518,-0.384L0.518,-0.115C0.518,-0.092 0.519,-0.069 0.522,-0.048C0.525,-0.027 0.529,-0.011 0.536,-0L0.392,-0C0.389,-0.008 0.387,-0.016 0.386,-0.025C0.384,-0.033 0.383,-0.041 0.382,-0.05C0.359,-0.027 0.333,-0.01 0.302,-0.001C0.271,0.008 0.24,0.013 0.208,0.013C0.183,0.013 0.16,0.01 0.139,0.004C0.118,-0.002 0.099,-0.011 0.083,-0.024C0.067,-0.037 0.055,-0.053 0.046,-0.072C0.037,-0.091 0.032,-0.114 0.032,-0.141C0.032,-0.17 0.037,-0.195 0.048,-0.214C0.058,-0.233 0.071,-0.248 0.088,-0.259C0.104,-0.27 0.123,-0.279 0.144,-0.285C0.165,-0.29 0.186,-0.295 0.207,-0.298C0.228,-0.301 0.249,-0.304 0.27,-0.306C0.291,-0.308 0.309,-0.311 0.325,-0.315C0.341,-0.319 0.354,-0.325 0.363,-0.333C0.372,-0.34 0.377,-0.351 0.376,-0.366C0.376,-0.381 0.374,-0.394 0.369,-0.403C0.364,-0.412 0.357,-0.419 0.349,-0.424C0.34,-0.428 0.331,-0.432 0.32,-0.434C0.309,-0.435 0.297,-0.436 0.284,-0.436C0.256,-0.436 0.234,-0.43 0.218,-0.418C0.202,-0.406 0.193,-0.386 0.19,-0.358L0.048,-0.358ZM0.376,-0.253C0.37,-0.248 0.363,-0.243 0.354,-0.241C0.345,-0.238 0.335,-0.235 0.325,-0.233C0.314,-0.231 0.303,-0.229 0.292,-0.228C0.281,-0.227 0.269,-0.225 0.258,-0.223C0.247,-0.221 0.237,-0.218 0.227,-0.215C0.216,-0.212 0.207,-0.207 0.2,-0.202C0.192,-0.196 0.186,-0.189 0.181,-0.18C0.176,-0.171 0.174,-0.16 0.174,-0.147C0.174,-0.134 0.176,-0.124 0.181,-0.115C0.186,-0.106 0.192,-0.099 0.2,-0.095C0.208,-0.09 0.217,-0.086 0.228,-0.084C0.239,-0.082 0.25,-0.081 0.261,-0.081C0.289,-0.081 0.311,-0.086 0.326,-0.095C0.341,-0.104 0.353,-0.116 0.36,-0.129C0.367,-0.141 0.372,-0.155 0.374,-0.168C0.375,-0.181 0.376,-0.192 0.376,-0.2L0.376,-0.253Z" style="fill-rule:nonzero;stroke:white;stroke-width:0.02px;"/>
                    </g>
                    <g transform="matrix(48,0,0,48,240.192,180)">
                        <path d="M0.295,-0.122C0.273,-0.122 0.255,-0.127 0.24,-0.136C0.225,-0.145 0.214,-0.157 0.205,-0.172C0.196,-0.187 0.189,-0.203 0.186,-0.222C0.182,-0.24 0.18,-0.258 0.18,-0.277C0.18,-0.296 0.182,-0.315 0.187,-0.333C0.191,-0.35 0.198,-0.366 0.208,-0.38C0.217,-0.393 0.229,-0.404 0.244,-0.412C0.258,-0.42 0.275,-0.424 0.295,-0.424C0.318,-0.424 0.338,-0.42 0.353,-0.411C0.368,-0.402 0.381,-0.391 0.39,-0.376C0.399,-0.361 0.406,-0.345 0.41,-0.326C0.414,-0.307 0.416,-0.286 0.416,-0.265C0.416,-0.246 0.414,-0.229 0.409,-0.212C0.404,-0.195 0.396,-0.179 0.386,-0.166C0.376,-0.153 0.363,-0.142 0.348,-0.134C0.333,-0.126 0.315,-0.122 0.295,-0.122ZM0.551,-0.033L0.551,-0.517L0.416,-0.517L0.416,-0.448L0.414,-0.448C0.397,-0.478 0.375,-0.499 0.35,-0.512C0.324,-0.525 0.294,-0.531 0.26,-0.531C0.224,-0.531 0.192,-0.524 0.165,-0.51C0.137,-0.496 0.114,-0.477 0.095,-0.454C0.076,-0.43 0.062,-0.403 0.053,-0.372C0.043,-0.341 0.038,-0.308 0.038,-0.275C0.038,-0.24 0.042,-0.206 0.051,-0.175C0.059,-0.143 0.072,-0.115 0.09,-0.092C0.108,-0.068 0.131,-0.049 0.159,-0.036C0.187,-0.022 0.22,-0.015 0.259,-0.015C0.29,-0.015 0.32,-0.022 0.349,-0.035C0.377,-0.048 0.399,-0.068 0.414,-0.095L0.416,-0.095L0.416,-0.027C0.417,0.01 0.408,0.04 0.39,0.064C0.371,0.088 0.342,0.1 0.302,0.1C0.277,0.1 0.254,0.095 0.235,0.085C0.216,0.074 0.203,0.056 0.196,0.029L0.055,0.029C0.057,0.058 0.065,0.084 0.08,0.105C0.094,0.126 0.112,0.143 0.134,0.156C0.155,0.169 0.179,0.179 0.206,0.186C0.232,0.192 0.258,0.195 0.283,0.195C0.342,0.195 0.39,0.187 0.425,0.171C0.46,0.155 0.487,0.135 0.506,0.113C0.525,0.09 0.537,0.065 0.543,0.038C0.548,0.011 0.551,-0.012 0.551,-0.033Z" style="fill-rule:nonzero;stroke:white;stroke-width:0.02px;"/>
                    </g>
                    <g transform="matrix(48,0,0,48,269.52,180)">
                        <path d="M0.402,-0.314L0.171,-0.314C0.172,-0.324 0.174,-0.335 0.178,-0.348C0.181,-0.361 0.188,-0.373 0.197,-0.384C0.206,-0.395 0.218,-0.405 0.233,-0.413C0.248,-0.42 0.266,-0.424 0.289,-0.424C0.324,-0.424 0.349,-0.415 0.367,-0.396C0.384,-0.377 0.395,-0.35 0.402,-0.314ZM0.171,-0.224L0.544,-0.224C0.547,-0.264 0.543,-0.302 0.534,-0.339C0.525,-0.376 0.509,-0.408 0.489,-0.437C0.468,-0.466 0.441,-0.489 0.408,-0.506C0.375,-0.523 0.337,-0.531 0.293,-0.531C0.254,-0.531 0.218,-0.524 0.186,-0.51C0.153,-0.496 0.125,-0.477 0.102,-0.453C0.079,-0.428 0.061,-0.399 0.048,-0.366C0.035,-0.333 0.029,-0.297 0.029,-0.258C0.029,-0.218 0.035,-0.181 0.048,-0.148C0.06,-0.115 0.077,-0.086 0.1,-0.062C0.123,-0.038 0.15,-0.02 0.183,-0.007C0.216,0.007 0.252,0.013 0.293,0.013C0.352,0.013 0.402,-0 0.443,-0.027C0.484,-0.054 0.515,-0.098 0.535,-0.16L0.41,-0.16C0.405,-0.144 0.393,-0.129 0.372,-0.115C0.351,-0.1 0.327,-0.093 0.298,-0.093C0.258,-0.093 0.227,-0.103 0.206,-0.124C0.185,-0.145 0.173,-0.178 0.171,-0.224Z" style="fill-rule:nonzero;stroke:white;stroke-width:0.02px;"/>
                    </g>
                </g>
                <g transform="matrix(1,0,0,1,264.437,-284.362)">
                    <g transform="matrix(48,0,0,48,619.267,584.362)">
                        <path d="M0.195,-0.354C0.195,-0.385 0.199,-0.416 0.206,-0.445C0.213,-0.474 0.224,-0.501 0.239,-0.524C0.254,-0.547 0.274,-0.565 0.299,-0.579C0.324,-0.592 0.354,-0.599 0.389,-0.599C0.424,-0.599 0.454,-0.592 0.479,-0.579C0.504,-0.565 0.524,-0.547 0.539,-0.524C0.554,-0.501 0.566,-0.474 0.573,-0.445C0.58,-0.416 0.583,-0.385 0.583,-0.354C0.583,-0.324 0.58,-0.295 0.573,-0.267C0.566,-0.238 0.554,-0.213 0.539,-0.19C0.524,-0.167 0.504,-0.149 0.479,-0.136C0.454,-0.122 0.424,-0.115 0.389,-0.115C0.354,-0.115 0.324,-0.122 0.299,-0.136C0.274,-0.149 0.254,-0.167 0.239,-0.19C0.224,-0.213 0.213,-0.238 0.206,-0.267C0.199,-0.295 0.195,-0.324 0.195,-0.354ZM0.038,-0.354C0.038,-0.302 0.046,-0.254 0.062,-0.209C0.078,-0.164 0.101,-0.124 0.131,-0.091C0.161,-0.058 0.198,-0.032 0.242,-0.013C0.285,0.007 0.334,0.016 0.389,0.016C0.444,0.016 0.494,0.007 0.537,-0.013C0.58,-0.032 0.617,-0.058 0.647,-0.091C0.677,-0.124 0.7,-0.164 0.716,-0.209C0.732,-0.254 0.74,-0.302 0.74,-0.354C0.74,-0.407 0.732,-0.457 0.716,-0.503C0.7,-0.548 0.677,-0.588 0.647,-0.622C0.617,-0.656 0.58,-0.683 0.537,-0.702C0.494,-0.721 0.444,-0.731 0.389,-0.731C0.334,-0.731 0.285,-0.721 0.242,-0.702C0.198,-0.683 0.161,-0.656 0.131,-0.622C0.101,-0.588 0.078,-0.548 0.062,-0.503C0.046,-0.457 0.038,-0.407 0.038,-0.354Z" style="fill-rule:nonzero;stroke:white;stroke-width:0.02px;"/>
                    </g>
                    <g transform="matrix(48,0,0,48,656.611,584.362)">
                        <path d="M0.054,-0.517L0.054,-0L0.196,-0L0.196,-0.233C0.196,-0.256 0.198,-0.278 0.203,-0.298C0.208,-0.318 0.216,-0.335 0.227,-0.351C0.238,-0.366 0.252,-0.377 0.27,-0.386C0.288,-0.395 0.31,-0.399 0.336,-0.399C0.345,-0.399 0.354,-0.399 0.363,-0.398C0.372,-0.397 0.38,-0.395 0.387,-0.394L0.387,-0.526C0.376,-0.529 0.365,-0.531 0.356,-0.531C0.338,-0.531 0.321,-0.528 0.304,-0.523C0.287,-0.518 0.272,-0.51 0.257,-0.501C0.242,-0.491 0.229,-0.479 0.218,-0.466C0.207,-0.452 0.198,-0.437 0.191,-0.421L0.189,-0.421L0.189,-0.517L0.054,-0.517Z" style="fill-rule:nonzero;stroke:white;stroke-width:0.02px;"/>
                    </g>
                    <g transform="matrix(48,0,0,48,675.283,584.362)">
                        <path d="M0.048,-0.358C0.05,-0.391 0.058,-0.419 0.073,-0.441C0.088,-0.463 0.106,-0.481 0.129,-0.494C0.152,-0.507 0.177,-0.517 0.206,-0.523C0.234,-0.528 0.262,-0.531 0.291,-0.531C0.317,-0.531 0.343,-0.529 0.37,-0.526C0.397,-0.522 0.421,-0.515 0.443,-0.504C0.465,-0.493 0.483,-0.478 0.497,-0.46C0.511,-0.44 0.518,-0.415 0.518,-0.384L0.518,-0.115C0.518,-0.092 0.519,-0.069 0.522,-0.048C0.525,-0.027 0.529,-0.011 0.536,-0L0.392,-0C0.389,-0.008 0.387,-0.016 0.386,-0.025C0.384,-0.033 0.383,-0.041 0.382,-0.05C0.359,-0.027 0.333,-0.01 0.302,-0.001C0.271,0.008 0.24,0.013 0.208,0.013C0.183,0.013 0.16,0.01 0.139,0.004C0.118,-0.002 0.099,-0.011 0.083,-0.024C0.067,-0.037 0.055,-0.053 0.046,-0.072C0.037,-0.091 0.032,-0.114 0.032,-0.141C0.032,-0.17 0.037,-0.195 0.048,-0.214C0.058,-0.233 0.071,-0.248 0.088,-0.259C0.104,-0.27 0.123,-0.279 0.144,-0.285C0.165,-0.29 0.186,-0.295 0.207,-0.298C0.228,-0.301 0.249,-0.304 0.27,-0.306C0.291,-0.308 0.309,-0.311 0.325,-0.315C0.341,-0.319 0.354,-0.325 0.363,-0.333C0.372,-0.34 0.377,-0.351 0.376,-0.366C0.376,-0.381 0.374,-0.394 0.369,-0.403C0.364,-0.412 0.357,-0.419 0.349,-0.424C0.34,-0.428 0.331,-0.432 0.32,-0.434C0.309,-0.435 0.297,-0.436 0.284,-0.436C0.256,-0.436 0.234,-0.43 0.218,-0.418C0.202,-0.406 0.193,-0.386 0.19,-0.358L0.048,-0.358ZM0.376,-0.253C0.37,-0.248 0.363,-0.243 0.354,-0.241C0.345,-0.238 0.335,-0.235 0.325,-0.233C0.314,-0.231 0.303,-0.229 0.292,-0.228C0.281,-0.227 0.269,-0.225 0.258,-0.223C0.247,-0.221 0.237,-0.218 0.227,-0.215C0.216,-0.212 0.207,-0.207 0.2,-0.202C0.192,-0.196 0.186,-0.189 0.181,-0.18C0.176,-0.171 0.174,-0.16 0.174,-0.147C0.174,-0.134 0.176,-0.124 0.181,-0.115C0.186,-0.106 0.192,-0.099 0.2,-0.095C0.208,-0.09 0.217,-0.086 0.228,-0.084C0.239,-0.082 0.25,-0.081 0.261,-0.081C0.289,-0.081 0.311,-0.086 0.326,-0.095C0.341,-0.104 0.353,-0.116 0.36,-0.129C0.367,-0.141 0.372,-0.155 0.374,-0.168C0.375,-0.181 0.376,-0.192 0.376,-0.2L0.376,-0.253Z" style="fill-rule:nonzero;stroke:white;stroke-width:0.02px;"/>
                    </g>
                    <g transform="matrix(48,0,0,48,702.835,584.362)">
                        <path d="M0.234,-0.517L0.234,-0.672L0.092,-0.672L0.092,-0.517L0.006,-0.517L0.006,-0.422L0.092,-0.422L0.092,-0.117C0.092,-0.091 0.096,-0.07 0.105,-0.054C0.114,-0.038 0.126,-0.026 0.141,-0.017C0.156,-0.008 0.173,-0.003 0.193,0.001C0.212,0.004 0.233,0.005 0.255,0.005C0.269,0.005 0.283,0.005 0.298,0.004C0.313,0.003 0.326,0.002 0.338,-0L0.338,-0.11C0.331,-0.109 0.324,-0.108 0.317,-0.107C0.31,-0.106 0.302,-0.106 0.294,-0.106C0.27,-0.106 0.254,-0.11 0.246,-0.118C0.238,-0.126 0.234,-0.142 0.234,-0.166L0.234,-0.422L0.338,-0.422L0.338,-0.517L0.234,-0.517Z" style="fill-rule:nonzero;stroke:white;stroke-width:0.02px;"/>
                    </g>
                    <g transform="matrix(48,0,0,48,719.731,584.362)">
                        <path d="M0.18,-0.258C0.18,-0.279 0.182,-0.299 0.186,-0.319C0.19,-0.339 0.197,-0.357 0.207,-0.372C0.216,-0.387 0.229,-0.4 0.245,-0.41C0.261,-0.419 0.281,-0.424 0.305,-0.424C0.329,-0.424 0.349,-0.419 0.366,-0.41C0.382,-0.4 0.395,-0.387 0.405,-0.372C0.414,-0.357 0.421,-0.339 0.425,-0.319C0.429,-0.299 0.431,-0.279 0.431,-0.258C0.431,-0.237 0.429,-0.217 0.425,-0.198C0.421,-0.178 0.414,-0.16 0.405,-0.145C0.395,-0.129 0.382,-0.116 0.366,-0.107C0.349,-0.098 0.329,-0.093 0.305,-0.093C0.281,-0.093 0.261,-0.098 0.245,-0.107C0.229,-0.116 0.216,-0.129 0.207,-0.145C0.197,-0.16 0.19,-0.178 0.186,-0.198C0.182,-0.217 0.18,-0.237 0.18,-0.258ZM0.038,-0.258C0.038,-0.217 0.044,-0.179 0.057,-0.146C0.07,-0.113 0.088,-0.084 0.111,-0.061C0.134,-0.037 0.162,-0.019 0.195,-0.006C0.228,0.007 0.264,0.013 0.305,0.013C0.346,0.013 0.383,0.007 0.416,-0.006C0.449,-0.019 0.477,-0.037 0.5,-0.061C0.523,-0.084 0.541,-0.113 0.554,-0.146C0.567,-0.179 0.573,-0.217 0.573,-0.258C0.573,-0.299 0.567,-0.337 0.554,-0.371C0.541,-0.404 0.523,-0.433 0.5,-0.457C0.477,-0.48 0.449,-0.499 0.416,-0.512C0.383,-0.525 0.346,-0.531 0.305,-0.531C0.264,-0.531 0.228,-0.525 0.195,-0.512C0.162,-0.499 0.134,-0.48 0.111,-0.457C0.088,-0.433 0.07,-0.404 0.057,-0.371C0.044,-0.337 0.038,-0.299 0.038,-0.258Z" style="fill-rule:nonzero;stroke:white;stroke-width:0.02px;"/>
                    </g>
                    <g transform="matrix(48,0,0,48,749.059,584.362)">
                        <path d="M0.054,-0.517L0.054,-0L0.196,-0L0.196,-0.233C0.196,-0.256 0.198,-0.278 0.203,-0.298C0.208,-0.318 0.216,-0.335 0.227,-0.351C0.238,-0.366 0.252,-0.377 0.27,-0.386C0.288,-0.395 0.31,-0.399 0.336,-0.399C0.345,-0.399 0.354,-0.399 0.363,-0.398C0.372,-0.397 0.38,-0.395 0.387,-0.394L0.387,-0.526C0.376,-0.529 0.365,-0.531 0.356,-0.531C0.338,-0.531 0.321,-0.528 0.304,-0.523C0.287,-0.518 0.272,-0.51 0.257,-0.501C0.242,-0.491 0.229,-0.479 0.218,-0.466C0.207,-0.452 0.198,-0.437 0.191,-0.421L0.189,-0.421L0.189,-0.517L0.054,-0.517Z" style="fill-rule:nonzero;stroke:white;stroke-width:0.02px;"/>
                    </g>
                </g>
                <g transform="matrix(1,0,0,1,-2038.72,-7.85333)">
                    <path d="M2998.72,102.56C3163.59,102.56 3297.44,236.412 3297.44,401.28C3297.44,566.148 3163.59,700 2998.72,700C2833.85,700 2700,566.148 2700,401.28C2700,236.412 2833.85,102.56 2998.72,102.56ZM2998.72,107.56C2836.61,107.56 2705,239.172 2705,401.28C2705,563.388 2836.61,695 2998.72,695C3160.83,695 3292.44,563.388 3292.44,401.28C3292.44,239.172 3160.83,107.56 2998.72,107.56Z" style="fill:white;"/>
                </g>
                <g transform="matrix(1,0,0,1,-1867.13,285.293)">
                    <path d="M2998.72,102.56C3163.59,102.56 3297.44,236.412 3297.44,401.28C3297.44,566.148 3163.59,700 2998.72,700C2833.85,700 2700,566.148 2700,401.28C2700,236.412 2833.85,102.56 2998.72,102.56ZM2998.72,107.56C2836.61,107.56 2705,239.172 2705,401.28C2705,563.388 2836.61,695 2998.72,695C3160.83,695 3292.44,563.388 3292.44,401.28C3292.44,239.172 3160.83,107.56 2998.72,107.56Z" style="fill:white;"/>
                </g>
                <g transform="matrix(1,0,0,1,-2210.31,285.293)">
                    <path d="M2998.72,102.56C3163.59,102.56 3297.44,236.412 3297.44,401.28C3297.44,566.148 3163.59,700 2998.72,700C2833.85,700 2700,566.148 2700,401.28C2700,236.412 2833.85,102.56 2998.72,102.56ZM2998.72,107.56C2836.61,107.56 2705,239.172 2705,401.28C2705,563.388 2836.61,695 2998.72,695C3160.83,695 3292.44,563.388 3292.44,401.28C3292.44,239.172 3160.83,107.56 2998.72,107.56Z" style="fill:white;"/>
                </g>
            </g>
        </g>
    </g>
</svg>
