<?xml version="1.0" encoding="UTF-8" standalone="no"?>
<!DOCTYPE svg PUBLIC "-//W3C//DTD SVG 1.1//EN" "http://www.w3.org/Graphics/SVG/1.1/DTD/svg11.dtd">
<svg width="100%" height="100%" viewBox="0 0 1080 1080" version="1.1" xmlns="http://www.w3.org/2000/svg" xmlns:xlink="http://www.w3.org/1999/xlink" xml:space="preserve" xmlns:serif="http://www.serif.com/" style="fill-rule:evenodd;clip-rule:evenodd;stroke-linejoin:round;stroke-miterlimit:2;">
    <g transform="matrix(1,0,0,1,667.84,554.08)">
        <g transform="matrix(48,0,0,48,243.648,180)">
        </g>
        <text x="65.952px" y="180px" style="font-family:'HelveticaNeue-Bold', 'Helvetica Neue';font-weight:700;font-size:48px;fill:rgb(235,235,235);">Histoir<tspan x="216.096px " y="180px ">e</tspan></text>
    </g>
    <g transform="matrix(1,0,0,1,80.848,555.52)">
        <g transform="matrix(48,0,0,48,257.256,180)">
        </g>
        <text x="95.544px" y="180px" style="font-family:'HelveticaNeue-Bold', 'Helvetica Neue';font-weight:700;font-size:48px;fill:rgb(235,235,235);">V<tspan x="124.92px 137.304px " y="180px 180px ">is</tspan>uels</text>
    </g>
    <g transform="matrix(1,0,0,1,344.24,469.824)">
        <g transform="matrix(48,0,0,48,301.536,180)">
        </g>
        <text x="94.464px" y="180px" style="font-family:'HelveticaNeue-Bold', 'Helvetica Neue';font-weight:700;font-size:48px;fill:rgb(235,235,235);">Message</text>
    </g>
    <g transform="matrix(1,0,0,1,-155.563,-284.362)">
        <g transform="matrix(48,0,0,48,782.443,584.362)">
        </g>
        <text x="607.291px" y="584.362px" style="font-family:'HelveticaNeue-Bold', 'Helvetica Neue';font-weight:700;font-size:48px;fill:rgb(235,235,235);">Orateur</text>
    </g>
    <g transform="matrix(1,0,0,1,-2458.72,-7.85333)">
        <path d="M2998.72,102.56C3163.59,102.56 3297.44,236.412 3297.44,401.28C3297.44,566.148 3163.59,700 2998.72,700C2833.85,700 2700,566.148 2700,401.28C2700,236.412 2833.85,102.56 2998.72,102.56ZM2998.72,107.56C2836.61,107.56 2705,239.172 2705,401.28C2705,563.388 2836.61,695 2998.72,695C3160.83,695 3292.44,563.388 3292.44,401.28C3292.44,239.172 3160.83,107.56 2998.72,107.56Z" style="fill:rgb(235,235,235);"/>
    </g>
    <g transform="matrix(1,0,0,1,-2287.13,285.293)">
        <path d="M2998.72,102.56C3163.59,102.56 3297.44,236.412 3297.44,401.28C3297.44,566.148 3163.59,700 2998.72,700C2833.85,700 2700,566.148 2700,401.28C2700,236.412 2833.85,102.56 2998.72,102.56ZM2998.72,107.56C2836.61,107.56 2705,239.172 2705,401.28C2705,563.388 2836.61,695 2998.72,695C3160.83,695 3292.44,563.388 3292.44,401.28C3292.44,239.172 3160.83,107.56 2998.72,107.56Z" style="fill:rgb(235,235,235);"/>
    </g>
    <g transform="matrix(1,0,0,1,-2630.31,285.293)">
        <path d="M2998.72,102.56C3163.59,102.56 3297.44,236.412 3297.44,401.28C3297.44,566.148 3163.59,700 2998.72,700C2833.85,700 2700,566.148 2700,401.28C2700,236.412 2833.85,102.56 2998.72,102.56ZM2998.72,107.56C2836.61,107.56 2705,239.172 2705,401.28C2705,563.388 2836.61,695 2998.72,695C3160.83,695 3292.44,563.388 3292.44,401.28C3292.44,239.172 3160.83,107.56 2998.72,107.56Z" style="fill:rgb(235,235,235);"/>
    </g>
</svg>
