<?xml version="1.0" encoding="UTF-8" standalone="no"?><!DOCTYPE svg PUBLIC "-//W3C//DTD SVG 1.1//EN" "http://www.w3.org/Graphics/SVG/1.1/DTD/svg11.dtd"><svg width="100%" height="100%" viewBox="0 0 240 240" version="1.1" xmlns="http://www.w3.org/2000/svg" xmlns:xlink="http://www.w3.org/1999/xlink" xml:space="preserve" xmlns:serif="http://www.serif.com/" style="fill-rule:evenodd;clip-rule:evenodd;stroke-linejoin:round;stroke-miterlimit:2;"><g id="csr"><rect x="0" y="0" width="240" height="240" style="fill:none;"/><g><path d="M170.28,106.392c0,41.946 -27.362,107.358 -56.945,113.608c-40.416,-16.04 -50,-63.332 -50,-63.332" style="fill:none;stroke:#808080;stroke-width:3px;"/><path d="M133.674,206.667c-1.173,-16.457 -13.98,-20 -13.59,-47.929c0,-41.793 46.793,-71.306 53.753,-98.736c3.817,19.557 26.163,63.559 26.163,88.006c0,52.689 -49.179,48.859 -66.326,58.659Z" style="fill:none;stroke:#808080;stroke-width:5px;"/><path d="M90.078,205c-13.83,-5.906 -31.193,2.5 -45.359,-25.959c-12.347,-20.923 3.46,-54.453 3.26,-70.706c16.066,31.24 21.88,26.29 35.589,40.526c8.507,8.823 9.767,20.626 9.767,27.013c0,10.65 -3.25,17.95 -3.257,29.126Z" style="fill:none;stroke:#808080;stroke-width:5px;"/></g></g></svg>