<?xml version="1.0" encoding="UTF-8" standalone="no"?><!DOCTYPE svg PUBLIC "-//W3C//DTD SVG 1.1//EN" "http://www.w3.org/Graphics/SVG/1.1/DTD/svg11.dtd"><svg width="100%" height="100%" viewBox="0 0 40 40" version="1.1" xmlns="http://www.w3.org/2000/svg" xmlns:xlink="http://www.w3.org/1999/xlink" xml:space="preserve" xmlns:serif="http://www.serif.com/" style="fill-rule:evenodd;clip-rule:evenodd;stroke-linejoin:round;stroke-miterlimit:1.41421;"><g id="Layer-1" serif:id="Layer 1"><g><path d="M40,20c0,11.046 -8.954,20 -20,20c-11.046,0 -20,-8.954 -20,-20c0,-11.046 8.954,-20 20,-20c11.046,0 20,8.954 20,20" style="fill:#0172b1;"/><path d="M21.292,18.115c0.099,-0.106 0.137,-0.139 0.165,-0.179c1.344,-1.961 3.264,-2.538 5.504,-2.193c2.588,0.398 4.245,2.21 4.668,4.983c0.1,0.657 0.15,1.317 0.15,1.982c-0.002,2.76 -0.006,5.521 0.006,8.281c0.001,0.311 -0.075,0.402 -0.394,0.398c-1.446,-0.017 -2.893,-0.017 -4.339,0c-0.317,0.004 -0.398,-0.086 -0.396,-0.398c0.012,-2.574 0.008,-5.149 0.005,-7.723c-0.001,-0.585 -0.041,-1.167 -0.206,-1.733c-0.527,-1.818 -2.594,-2.456 -4.067,-1.247c-0.795,0.653 -1.106,1.516 -1.1,2.532c0.013,2.428 0.003,4.857 0.003,7.285c0,0.319 -0.017,0.638 0.006,0.955c0.02,0.275 -0.092,0.329 -0.342,0.327c-1.473,-0.01 -2.946,-0.011 -4.419,0c-0.267,0.002 -0.363,-0.052 -0.36,-0.346c0.022,-2.189 0.03,-4.379 0.031,-6.568c0.001,-2.694 -0.005,-5.388 -0.023,-8.082c-0.002,-0.295 0.059,-0.382 0.364,-0.379c1.473,0.017 2.946,0.014 4.419,0.002c0.265,-0.002 0.339,0.077 0.331,0.335c-0.018,0.556 -0.006,1.112 -0.006,1.768" style="fill:#fefefe;"/><path d="M13.375,23.701c0,2.427 -0.005,4.855 0.006,7.283c0.001,0.301 -0.06,0.409 -0.388,0.404c-1.459,-0.019 -2.919,-0.015 -4.378,-0.002c-0.271,0.002 -0.362,-0.066 -0.362,-0.351c0.007,-4.895 0.006,-9.79 -0.001,-14.685c0,-0.255 0.062,-0.34 0.329,-0.338c1.486,0.013 2.972,0.014 4.458,-0.001c0.296,-0.003 0.342,0.105 0.341,0.367c-0.009,2.441 -0.005,4.882 -0.005,7.323" style="fill:#fefefe;"/><path d="M10.856,8.613c1.957,0.002 3.229,1.552 2.765,3.371c-0.35,1.373 -1.771,2.163 -3.41,1.897c-1.741,-0.282 -2.711,-1.981 -2.07,-3.623c0.401,-1.026 1.425,-1.647 2.715,-1.645" style="fill:#fefefe;"/></g></g><g><path d="M40,20c0,11.046 -8.954,20 -20,20c-11.046,0 -20,-8.954 -20,-20c0,-11.046 8.954,-20 20,-20c11.046,0 20,8.954 20,20" style="fill:#ee3124;"/><g><path d="M31.495,14.191c-0.272,-1.036 -1.09,-1.855 -2.127,-2.141c-1.868,-0.505 -9.368,-0.505 -9.368,-0.505c0,0 -7.5,0 -9.382,0.505c-1.036,0.273 -1.841,1.091 -2.127,2.141c-0.491,1.882 -0.491,5.809 -0.491,5.809c0,0 0,3.927 0.505,5.809c0.272,1.036 1.09,1.855 2.127,2.141c1.868,0.505 9.368,0.505 9.368,0.505c0,0 7.5,0 9.382,-0.505c1.036,-0.273 1.841,-1.091 2.127,-2.141c0.491,-1.882 0.491,-5.809 0.491,-5.809c0,0 0,-3.927 -0.505,-5.809Z" style="fill:#fff;fill-rule:nonzero;"/><path d="M17.545,23.573l0,-7.146l6.273,3.573l-6.273,3.573Z" style="fill:#ee3124;fill-rule:nonzero;"/></g></g></svg>