<?xml version="1.0" encoding="UTF-8" standalone="no"?><!DOCTYPE svg PUBLIC "-//W3C//DTD SVG 1.1//EN" "http://www.w3.org/Graphics/SVG/1.1/DTD/svg11.dtd"><svg width="100%" height="100%" viewBox="0 0 240 240" version="1.1" xmlns="http://www.w3.org/2000/svg" xmlns:xlink="http://www.w3.org/1999/xlink" xml:space="preserve" xmlns:serif="http://www.serif.com/" style="fill-rule:evenodd;clip-rule:evenodd;stroke-miterlimit:2;"><g id="certificate"><rect x="0" y="0" width="240" height="240" style="fill:none;"/><g><path d="M87.833,112.667l65.834,0" style="fill:none;stroke:#808080;stroke-width:3px;"/><path d="M87.833,129.125l65.834,0" style="fill:none;stroke:#808080;stroke-width:3px;"/><path d="M87.833,96.208l65.834,0" style="fill:none;stroke:#808080;stroke-width:3px;"/><path d="M180,76.458c-9.092,0 -16.458,-7.366 -16.458,-16.458" style="fill:none;stroke:#808080;stroke-width:3px;stroke-linejoin:round;"/><path d="M77.958,60c0,9.092 -7.366,16.458 -16.458,16.458" style="fill:none;stroke:#808080;stroke-width:3px;stroke-linejoin:round;"/><path d="M61.5,181.792c9.092,0 16.458,7.366 16.458,16.458" style="fill:none;stroke:#808080;stroke-width:3px;stroke-linejoin:round;"/><path d="M163.542,198.25c0,-9.092 7.366,-16.458 16.458,-16.458" style="fill:none;stroke:#808080;stroke-width:3px;stroke-linejoin:round;"/><path d="M133.917,185.054l0,32.946l9.802,-9.803l9.948,9.803l0,-32.946" style="fill:none;stroke:#808080;stroke-width:5.5px;stroke-linejoin:round;"/><path d="M153.667,198.25l26.333,0l0,-138.25l-118.5,0l0,138.25l72.417,0" style="fill:none;stroke:#808080;stroke-width:5px;stroke-linejoin:round;"/><path d="M143.792,142.292l5.102,8.69l9.137,-3.973l-0.882,10.082l9.684,2.261l-6.53,7.627l6.53,7.627l-9.684,2.261l0.882,10.083l-9.137,-3.973l-5.102,8.69l-5.102,-8.69l-9.138,3.973l0.882,-10.083l-9.684,-2.261l6.531,-7.627l-6.531,-7.627l9.684,-2.261l-0.882,-10.082l9.138,3.973l5.102,-8.69Z" style="fill:none;stroke:#808080;stroke-width:3px;stroke-linejoin:round;"/></g></g></svg>