<?xml version="1.0" encoding="UTF-8" standalone="no"?><!DOCTYPE svg PUBLIC "-//W3C//DTD SVG 1.1//EN" "http://www.w3.org/Graphics/SVG/1.1/DTD/svg11.dtd"><svg width="100%" height="100%" viewBox="0 0 240 240" version="1.1" xmlns="http://www.w3.org/2000/svg" xmlns:xlink="http://www.w3.org/1999/xlink" xml:space="preserve" xmlns:serif="http://www.serif.com/" style="fill-rule:evenodd;clip-rule:evenodd;stroke-linejoin:round;stroke-miterlimit:2;"><g id="fast"><rect x="0" y="0" width="240" height="240" style="fill:none;"/><g><path d="M145.302,79.977l-17.708,-17.709l72.406,0l0,72.41l-17.707,-17.709l-25.747,25.746l-20.389,-20.389l-16.601,16.601l-16.604,-16.601l16.604,-16.601l25.746,-25.748Z" style="fill:none;fill-rule:nonzero;stroke:#808080;stroke-width:5px;"/><path d="M131.884,165.008l11.37,-11.37l-11.37,-11.37l-11.369,11.37l11.369,11.37Z" style="fill:none;fill-rule:nonzero;stroke:#808080;stroke-width:3px;"/><path d="M95.026,159.14l11.163,-11.16l-11.163,-11.163l-11.163,11.163l11.163,11.16Z" style="fill:none;fill-rule:nonzero;stroke:#808080;stroke-width:3px;"/><path d="M106.188,190l11.163,-11.163l-11.163,-11.16l-11.16,11.16l11.16,11.163Z" style="fill:none;fill-rule:nonzero;stroke:#808080;stroke-width:3px;"/><path d="M81.16,214.606l11.163,-11.163l-11.163,-11.159l-11.16,11.159l11.16,11.163Z" style="fill:none;fill-rule:nonzero;stroke:#808080;stroke-width:3px;"/><path d="M73.144,181.236l11.048,-11.048l-11.048,-11.048l-11.048,11.048l11.048,11.048Z" style="fill:none;fill-rule:nonzero;stroke:#808080;stroke-width:3px;"/><path d="M50,203.332l11.048,-11.048l-11.048,-11.048l-11.048,11.048l11.048,11.048Z" style="fill:none;fill-rule:nonzero;stroke:#808080;stroke-width:3px;"/></g></g></svg>