<?xml version="1.0" encoding="UTF-8" standalone="no"?><!DOCTYPE svg PUBLIC "-//W3C//DTD SVG 1.1//EN" "http://www.w3.org/Graphics/SVG/1.1/DTD/svg11.dtd"><svg width="100%" height="100%" viewBox="0 0 240 240" version="1.1" xmlns="http://www.w3.org/2000/svg" xmlns:xlink="http://www.w3.org/1999/xlink" xml:space="preserve" xmlns:serif="http://www.serif.com/" style="fill-rule:evenodd;clip-rule:evenodd;stroke-linecap:round;stroke-linejoin:round;stroke-miterlimit:2;"><g id="identity"><rect x="0" y="0" width="240" height="240" style="fill:none;"/><g><g><g><path d="M162.4,162.4l-83.2,0" style="fill:none;stroke:#808080;stroke-width:3px;"/><path d="M162.4,143.2l-83.2,0" style="fill:none;stroke:#808080;stroke-width:3px;"/><path d="M162.4,181.6l-83.2,0" style="fill:none;stroke:#808080;stroke-width:3px;"/><path d="M152.8,92c0,7.069 -5.731,12.8 -12.8,12.8c-7.069,0 -12.8,-5.731 -12.8,-12.8c0,-7.069 5.731,-12.8 12.8,-12.8c7.069,0 12.8,5.731 12.8,12.8Z" style="fill:none;stroke:#808080;stroke-width:3px;stroke-linecap:butt;"/><path d="M162.4,124c0,-9.946 -10.035,-16 -22.4,-16c-12.365,0 -22.4,6.054 -22.4,16" style="fill:none;stroke:#808080;stroke-width:3px;"/></g><path d="M92,60l0,28.8c0,1.77 -1.43,3.2 -3.2,3.2l-28.8,0" style="fill:none;stroke:#808080;stroke-width:3px;"/></g><path d="M181.6,216.8c0,1.77 -1.43,3.2 -3.2,3.2l-115.2,0c-1.77,0 -3.2,-1.43 -3.2,-3.2l0,-124.8l32,-32l86.4,0c1.77,0 3.2,1.43 3.2,3.2l0,153.6Z" style="fill:none;stroke:#808080;stroke-width:5px;"/></g></g></svg>