<svg clip-rule="evenodd" fill-rule="evenodd" stroke-linecap="round" stroke-linejoin="round" stroke-miterlimit="2" viewBox="0 0 240 240" xmlns="http://www.w3.org/2000/svg"><g fill="none"><path d="m0 0h240v240h-240z"/><g stroke="#808080"><path d="m62.188 211.815 3.616-22.476" stroke-width="3"/><path d="m177.808 211.819-3.612-22.475" stroke-width="3"/><path d="m95.058 112.754c6.429 14.633-.127 25.828-14.637 30.805-14.91 5.113-29.84 9.438-36.054 25.626-3.138 8.168-6.168 19.54-7.723 29.325-.111.371-.19.742-.19 1.129 0 .079.021.153.029.231-.008.083-.029.165-.029.252 0 10.201 32.64 18.604 74.545 19.668 2.932.136 5.925.21 8.972.21h.054c3.051 0 6.044-.074 8.976-.214 41.905-1.06 74.545-9.463 74.545-19.668 0-.083-.021-.165-.029-.252.008-.074.029-.148.029-.227-.005-.391-.079-.763-.19-1.129-1.555-9.785-4.585-21.157-7.723-29.329-6.218-16.188-21.148-20.509-36.058-25.626-14.506-4.973-21.062-16.172-14.633-30.801" stroke-width="5"/><path d="m161.464 85.759c.865-6.247-.19-12.37-3.86-11.962.008-1.299.182-2.676.182-4.012 0-20.921-16.898-34.351-37.786-34.478-20.888.127-37.786 13.553-37.786 34.474 0 1.336.174 2.717.182 4.012-7.504-.833-4.082 25.635 4.371 24.649.387-.045.754-.181 1.113-.355 6.465 16.572 17.981 33.271 32.12 33.329 14.135-.058 25.655-16.753 32.12-33.324" stroke-width="5"/><path d="m120.421 145.554-29.465 18.25-.693-24.051" stroke-width="3"/><path d="m120.396 145.554 29.465 18.254.692-24.055" stroke-width="3"/><path d="m107.626 153.933s1.047 15.842 12.77 15.842" stroke-width="3"/><path d="m133.161 153.937s-1.047 15.838-12.765 15.838" stroke-width="3"/><path d="m120.021 169.775s-8.02 6.341-9.17 14.287c-1.151 7.941-3.221 33.794-3.221 33.794" stroke-width="3"/><path d="m120.771 169.775s8.02 6.341 9.17 14.287c1.151 7.941 3.22 33.794 3.22 33.794" stroke-width="3"/><path d="m120.421 144.375v-12.959" stroke-width="3"/><path d="m174.897 79.64c.322-30.644-16.241-59.849-54.979-59.639h-.12c-38.738-.21-55.289 28.995-54.98 59.639" stroke-width="3"/><path d="m67.424 107.546c-9.578 0-17.334-10.951-17.334-24.451 0-13.512 7.756-24.459 17.334-24.459" stroke-width="3"/><path d="m173.607 107.546c9.578 0 17.334-10.951 17.334-24.451 0-13.512-7.756-24.459-17.334-24.459" stroke-width="3"/><path d="m151.254 100.24c-6.267 11.256-14.65 14.11-31.262 13.033" stroke-width="3"/></g></g></svg>