<?xml version="1.0" encoding="UTF-8" standalone="no"?>
<!DOCTYPE svg PUBLIC "-//W3C//DTD SVG 1.1//EN" "http://www.w3.org/Graphics/SVG/1.1/DTD/svg11.dtd">
<svg width="100%" height="100%" viewBox="0 0 1920 1080" version="1.1" xmlns="http://www.w3.org/2000/svg" xmlns:xlink="http://www.w3.org/1999/xlink" xml:space="preserve" xmlns:serif="http://www.serif.com/" style="fill-rule:evenodd;clip-rule:evenodd;stroke-linecap:round;stroke-linejoin:round;stroke-miterlimit:1.5;">
    <g transform="matrix(1,0,0,1,-10,0)">
        <g transform="matrix(1,0,0,1,10,0)">
            <rect id="rehearsal-dip" x="0" y="0" width="1920" height="1080" style="fill:none;"/>
            <clipPath id="_clip1">
                <rect id="rehearsal-dip1" serif:id="rehearsal-dip" x="0" y="0" width="1920" height="1080"/>
            </clipPath>
            <g clip-path="url(#_clip1)">
                <g transform="matrix(1.02128,0,0,1.03846,-20.4255,-20.7692)">
                    <path d="M1900,43.169L1900,1036.83C1900,1049.62 1889.44,1060 1876.44,1060L43.559,1060C30.557,1060 20,1049.62 20,1036.83L20,43.169C20,30.382 30.557,20 43.559,20L1876.44,20C1889.44,20 1900,30.382 1900,43.169ZM1898.53,43.169C1898.53,31.179 1888.63,21.444 1876.44,21.444L43.559,21.444C31.367,21.444 21.469,31.179 21.469,43.169L21.469,1036.83C21.469,1048.82 31.367,1058.56 43.559,1058.56L1876.44,1058.56C1888.63,1058.56 1898.53,1048.82 1898.53,1036.83L1898.53,43.169Z" style="fill:rgb(117,117,117);"/>
                </g>
                <g transform="matrix(1,0,0,1,-80,0)">
                    <g transform="matrix(1,0,0,1.04545,-120,-44.5455)">
                        <path d="M600,100L600,980L600,100Z" style="fill:rgb(117,117,117);"/>
                        <g transform="matrix(1,-0,-0,0.956522,200,42.6087)">
                            <path d="M409,78L400,60L391,78C395.5,73.5 404.5,73.5 409,78Z" style="fill:rgb(117,117,117);"/>
                            <path d="M400,74.4L400,980L400,60" style="fill:none;stroke:rgb(117,117,117);stroke-width:2px;"/>
                        </g>
                    </g>
                    <g transform="matrix(1.77865e-16,2.90476,-1.38636,8.48903e-17,1838.64,-762.857)">
                        <path d="M600,100L600,980L600,100Z" style="fill:rgb(117,117,117);"/>
                        <g transform="matrix(2.108e-17,-0.721311,0.344262,4.41676e-17,262.623,1268.52)">
                            <path d="M1602,989L1620,980L1602,971C1606.5,975.5 1606.5,984.5 1602,989Z" style="fill:rgb(117,117,117);"/>
                            <path d="M1605.6,980L400,980L1620,980" style="fill:none;stroke:rgb(117,117,117);stroke-width:2px;"/>
                        </g>
                    </g>
                </g>
                <g transform="matrix(1.38636,0,0,1.02273,-320.909,-11.7045)">
                    <path d="M520,695.889C520,695.889 552.182,706.594 577.705,754.556C606.501,808.669 668.427,901.222 772.459,901.222C822.391,901.222 946.227,882.582 1026.26,695.889L520,695.889Z" style="fill:rgb(18,145,216);fill-opacity:0.21;"/>
                </g>
                <g transform="matrix(1.00044,-2.41489e-18,-2.41489e-18,0.985746,-0.174235,9.97787)">
                    <path d="M400,700L1101.55,700" style="fill:none;stroke:rgb(18,145,216);stroke-width:3.02px;stroke-dasharray:9.06,6.04,0,0;"/>
                </g>
                <g transform="matrix(1.38636,0,0,1.02273,-320.909,-11.7045)">
                    <path d="M520,695.889C520,695.889 552.182,706.594 577.705,754.556C606.501,808.669 668.427,901.222 772.459,901.222C836.158,901.222 1020.13,870.886 1080,500C1115.34,281.054 1331.43,164.822 1400,130" style="fill:none;stroke:rgb(252,109,8);stroke-width:2.46px;"/>
                </g>
                <g id="fr">
                    <g transform="matrix(1,0,0,1,126.944,-64.48)">
                        <g transform="matrix(48,0,0,48,90,180)">
                            <path d="M0.53,0.038L0.449,-0.039C0.41,-0.005 0.36,0.012 0.3,0.012C0.137,0.012 0.056,-0.108 0.056,-0.349C0.056,-0.59 0.137,-0.71 0.3,-0.71C0.463,-0.71 0.544,-0.59 0.544,-0.349C0.544,-0.241 0.527,-0.157 0.494,-0.097L0.637,0.038L0.53,0.038ZM0.3,-0.061C0.337,-0.061 0.368,-0.071 0.393,-0.092L0.255,-0.223L0.362,-0.223L0.434,-0.155C0.448,-0.192 0.455,-0.238 0.455,-0.292L0.455,-0.406C0.455,-0.479 0.443,-0.536 0.418,-0.577C0.393,-0.617 0.353,-0.637 0.3,-0.637C0.247,-0.637 0.208,-0.617 0.183,-0.577C0.158,-0.536 0.145,-0.479 0.145,-0.406L0.145,-0.292C0.145,-0.219 0.158,-0.162 0.183,-0.122C0.208,-0.081 0.247,-0.061 0.3,-0.061Z" style="fill-rule:nonzero;"/>
                        </g>
                        <g transform="matrix(48,0,0,48,118.8,180)">
                            <path d="M0.422,-0.084L0.418,-0.084C0.391,-0.02 0.342,0.012 0.271,0.012C0.216,0.012 0.173,-0.005 0.141,-0.04C0.108,-0.075 0.092,-0.123 0.092,-0.185L0.092,-0.516L0.172,-0.516L0.172,-0.199C0.172,-0.152 0.182,-0.117 0.203,-0.094C0.224,-0.071 0.254,-0.059 0.294,-0.059C0.329,-0.059 0.36,-0.068 0.385,-0.085C0.409,-0.101 0.422,-0.126 0.422,-0.158L0.422,-0.516L0.502,-0.516L0.502,-0L0.422,-0L0.422,-0.084Z" style="fill-rule:nonzero;"/>
                        </g>
                        <g transform="matrix(48,0,0,48,147.6,180)">
                            <path d="M0.495,-0C0.441,-0 0.41,-0.028 0.403,-0.084L0.398,-0.084C0.374,-0.02 0.322,0.012 0.243,0.012C0.189,0.012 0.146,-0.002 0.114,-0.03C0.082,-0.058 0.066,-0.096 0.066,-0.145C0.066,-0.245 0.14,-0.295 0.288,-0.295L0.398,-0.295L0.398,-0.346C0.398,-0.383 0.387,-0.412 0.366,-0.431C0.345,-0.45 0.314,-0.46 0.275,-0.46C0.212,-0.46 0.166,-0.435 0.137,-0.384L0.083,-0.424C0.097,-0.453 0.121,-0.478 0.155,-0.498C0.189,-0.518 0.231,-0.528 0.28,-0.528C0.341,-0.528 0.389,-0.513 0.425,-0.482C0.46,-0.45 0.478,-0.408 0.478,-0.354L0.478,-0.106C0.478,-0.096 0.482,-0.088 0.489,-0.081C0.496,-0.074 0.504,-0.07 0.514,-0.07L0.55,-0.07L0.55,-0L0.495,-0ZM0.257,-0.055C0.298,-0.055 0.331,-0.064 0.358,-0.083C0.385,-0.101 0.398,-0.123 0.398,-0.15L0.398,-0.235L0.288,-0.235C0.196,-0.235 0.15,-0.209 0.15,-0.157L0.15,-0.136C0.15,-0.11 0.16,-0.09 0.179,-0.076C0.198,-0.062 0.224,-0.055 0.257,-0.055Z" style="fill-rule:nonzero;"/>
                        </g>
                        <g transform="matrix(48,0,0,48,176.4,180)">
                            <path d="M0.179,-0C0.152,-0 0.132,-0.008 0.117,-0.023C0.101,-0.038 0.094,-0.058 0.094,-0.083L0.094,-0.74L0.174,-0.74L0.174,-0.095C0.174,-0.078 0.182,-0.07 0.199,-0.07L0.25,-0.07L0.25,-0L0.179,-0Z" style="fill-rule:nonzero;"/>
                        </g>
                        <g transform="matrix(48,0,0,48,190.8,180)">
                            <path d="M0.203,-0.74L0.203,-0.634L0.097,-0.634L0.097,-0.74L0.203,-0.74ZM0.11,-0.516L0.19,-0.516L0.19,-0L0.11,-0L0.11,-0.516Z" style="fill-rule:nonzero;"/>
                        </g>
                        <g transform="matrix(48,0,0,48,205.2,180)">
                            <path d="M0.241,-0.172C0.241,-0.14 0.246,-0.117 0.256,-0.102C0.266,-0.087 0.281,-0.077 0.3,-0.074C0.319,-0.07 0.347,-0.068 0.385,-0.068L0.398,-0.068L0.398,-0L0.386,-0C0.333,-0 0.291,-0.005 0.26,-0.014C0.228,-0.023 0.204,-0.04 0.187,-0.065C0.169,-0.09 0.161,-0.126 0.161,-0.173L0.161,-0.448L0.049,-0.448L0.049,-0.516L0.161,-0.516L0.161,-0.698L0.241,-0.698L0.241,-0.516L0.396,-0.516L0.396,-0.448L0.241,-0.448L0.241,-0.172Z" style="fill-rule:nonzero;"/>
                        </g>
                        <g transform="matrix(48,0,0,48,226.8,180)">
                            <path d="M0.309,0.012C0.26,0.012 0.218,0.001 0.181,-0.021C0.144,-0.043 0.116,-0.074 0.097,-0.115C0.077,-0.156 0.067,-0.203 0.067,-0.257C0.067,-0.311 0.077,-0.359 0.097,-0.4C0.117,-0.441 0.145,-0.472 0.181,-0.495C0.216,-0.517 0.257,-0.528 0.304,-0.528C0.349,-0.528 0.389,-0.517 0.424,-0.496C0.459,-0.474 0.486,-0.444 0.505,-0.406C0.524,-0.368 0.533,-0.325 0.533,-0.276L0.533,-0.238L0.151,-0.238L0.151,-0.214C0.151,-0.168 0.165,-0.13 0.194,-0.101C0.223,-0.072 0.261,-0.057 0.309,-0.057C0.343,-0.057 0.373,-0.065 0.398,-0.081C0.423,-0.096 0.443,-0.118 0.457,-0.147L0.516,-0.107C0.5,-0.071 0.474,-0.042 0.438,-0.021C0.401,0.001 0.358,0.012 0.309,0.012ZM0.304,-0.462C0.275,-0.462 0.249,-0.455 0.226,-0.442C0.203,-0.428 0.184,-0.409 0.171,-0.385C0.158,-0.361 0.151,-0.334 0.151,-0.305L0.151,-0.298L0.447,-0.298L0.447,-0.309C0.447,-0.354 0.434,-0.391 0.408,-0.42C0.381,-0.448 0.347,-0.462 0.304,-0.462ZM0.309,-0.585L0.257,-0.609L0.342,-0.779L0.415,-0.744L0.309,-0.585Z" style="fill-rule:nonzero;"/>
                        </g>
                    </g>
                    <g transform="matrix(1,0,0,1,980.848,860)">
                        <g transform="matrix(48,0,0,48,75.6,180)">
                            <path d="M0.163,-0.591L0.156,-0.591L0.156,-0L0.08,-0L0.08,-0.698L0.199,-0.698L0.437,-0.113L0.444,-0.113L0.444,-0.698L0.52,-0.698L0.52,-0L0.401,-0L0.163,-0.591Z" style="fill-rule:nonzero;"/>
                        </g>
                        <g transform="matrix(48,0,0,48,104.4,180)">
                            <path d="M0.3,0.012C0.252,0.012 0.211,0.001 0.176,-0.021C0.14,-0.043 0.114,-0.074 0.095,-0.115C0.076,-0.156 0.066,-0.203 0.066,-0.258C0.066,-0.313 0.076,-0.36 0.095,-0.401C0.114,-0.442 0.14,-0.473 0.176,-0.495C0.211,-0.517 0.252,-0.528 0.3,-0.528C0.348,-0.528 0.389,-0.517 0.425,-0.495C0.46,-0.473 0.487,-0.442 0.506,-0.401C0.525,-0.36 0.534,-0.313 0.534,-0.258C0.534,-0.203 0.525,-0.156 0.506,-0.115C0.487,-0.074 0.46,-0.043 0.425,-0.021C0.389,0.001 0.348,0.012 0.3,0.012ZM0.3,-0.057C0.346,-0.057 0.382,-0.071 0.409,-0.099C0.436,-0.126 0.449,-0.167 0.449,-0.221L0.449,-0.295C0.449,-0.349 0.436,-0.39 0.409,-0.418C0.382,-0.445 0.346,-0.459 0.3,-0.459C0.254,-0.459 0.218,-0.445 0.191,-0.418C0.164,-0.39 0.151,-0.349 0.151,-0.295L0.151,-0.221C0.151,-0.167 0.164,-0.126 0.191,-0.099C0.218,-0.071 0.254,-0.057 0.3,-0.057Z" style="fill-rule:nonzero;"/>
                        </g>
                        <g transform="matrix(48,0,0,48,133.2,180)">
                            <path d="M0.096,-0.516L0.176,-0.516L0.176,-0.432L0.18,-0.432C0.193,-0.462 0.211,-0.486 0.232,-0.503C0.253,-0.52 0.282,-0.528 0.319,-0.528C0.355,-0.528 0.387,-0.519 0.415,-0.502C0.443,-0.485 0.464,-0.458 0.477,-0.423L0.479,-0.423C0.49,-0.454 0.508,-0.479 0.535,-0.499C0.561,-0.518 0.595,-0.528 0.636,-0.528C0.689,-0.528 0.73,-0.511 0.76,-0.476C0.789,-0.441 0.804,-0.393 0.804,-0.331L0.804,-0L0.724,-0L0.724,-0.317C0.724,-0.363 0.715,-0.398 0.697,-0.421C0.678,-0.444 0.65,-0.456 0.611,-0.456C0.577,-0.456 0.548,-0.448 0.525,-0.431C0.502,-0.413 0.49,-0.389 0.49,-0.358L0.49,-0L0.41,-0L0.41,-0.317C0.41,-0.364 0.401,-0.399 0.383,-0.422C0.365,-0.444 0.337,-0.456 0.299,-0.456C0.265,-0.456 0.236,-0.448 0.212,-0.431C0.188,-0.413 0.176,-0.389 0.176,-0.358L0.176,-0L0.096,-0L0.096,-0.516Z" style="fill-rule:nonzero;"/>
                        </g>
                        <g transform="matrix(48,0,0,48,176.4,180)">
                            <path d="M0.095,-0.74L0.175,-0.74L0.175,-0.432L0.179,-0.432C0.212,-0.496 0.265,-0.528 0.338,-0.528C0.401,-0.528 0.451,-0.504 0.487,-0.457C0.522,-0.409 0.54,-0.343 0.54,-0.258C0.54,-0.173 0.522,-0.107 0.487,-0.06C0.451,-0.012 0.401,0.012 0.338,0.012C0.265,0.012 0.212,-0.02 0.179,-0.084L0.175,-0.084L0.175,-0L0.095,-0L0.095,-0.74ZM0.307,-0.059C0.353,-0.059 0.389,-0.073 0.415,-0.101C0.441,-0.129 0.454,-0.167 0.454,-0.214L0.454,-0.302C0.454,-0.349 0.441,-0.387 0.415,-0.415C0.389,-0.443 0.353,-0.457 0.307,-0.457C0.27,-0.457 0.238,-0.448 0.213,-0.429C0.188,-0.41 0.175,-0.384 0.175,-0.351L0.175,-0.165C0.175,-0.132 0.188,-0.106 0.213,-0.087C0.238,-0.068 0.27,-0.059 0.307,-0.059Z" style="fill-rule:nonzero;"/>
                        </g>
                        <g transform="matrix(48,0,0,48,205.2,180)">
                            <path d="M0.112,-0.516L0.192,-0.516L0.192,-0.386L0.197,-0.386C0.222,-0.473 0.28,-0.516 0.371,-0.516L0.423,-0.516L0.423,-0.436L0.346,-0.436C0.297,-0.436 0.26,-0.422 0.233,-0.395C0.206,-0.368 0.192,-0.333 0.192,-0.291L0.192,-0L0.112,-0L0.112,-0.516Z" style="fill-rule:nonzero;"/>
                        </g>
                        <g transform="matrix(48,0,0,48,226.8,180)">
                            <path d="M0.309,0.012C0.26,0.012 0.218,0.001 0.181,-0.021C0.144,-0.043 0.116,-0.074 0.097,-0.115C0.077,-0.156 0.067,-0.203 0.067,-0.257C0.067,-0.311 0.077,-0.359 0.097,-0.4C0.117,-0.441 0.145,-0.472 0.181,-0.495C0.216,-0.517 0.257,-0.528 0.304,-0.528C0.349,-0.528 0.389,-0.517 0.424,-0.496C0.459,-0.474 0.486,-0.444 0.505,-0.406C0.524,-0.368 0.533,-0.325 0.533,-0.276L0.533,-0.238L0.151,-0.238L0.151,-0.214C0.151,-0.168 0.165,-0.13 0.194,-0.101C0.223,-0.072 0.261,-0.057 0.309,-0.057C0.343,-0.057 0.373,-0.065 0.398,-0.081C0.423,-0.096 0.443,-0.118 0.457,-0.147L0.516,-0.107C0.5,-0.071 0.474,-0.042 0.438,-0.021C0.401,0.001 0.358,0.012 0.309,0.012ZM0.304,-0.462C0.275,-0.462 0.249,-0.455 0.226,-0.442C0.203,-0.428 0.184,-0.409 0.171,-0.385C0.158,-0.361 0.151,-0.334 0.151,-0.305L0.151,-0.298L0.447,-0.298L0.447,-0.309C0.447,-0.354 0.434,-0.391 0.408,-0.42C0.381,-0.448 0.347,-0.462 0.304,-0.462Z" style="fill-rule:nonzero;"/>
                        </g>
                        <g transform="matrix(48,0,0,48,277.2,180)">
                            <path d="M0.425,-0.084L0.421,-0.084C0.388,-0.02 0.335,0.012 0.262,0.012C0.199,0.012 0.149,-0.012 0.114,-0.06C0.078,-0.107 0.06,-0.173 0.06,-0.258C0.06,-0.343 0.078,-0.409 0.114,-0.457C0.149,-0.504 0.199,-0.528 0.262,-0.528C0.335,-0.528 0.388,-0.496 0.421,-0.432L0.425,-0.432L0.425,-0.74L0.505,-0.74L0.505,-0L0.425,-0L0.425,-0.084ZM0.293,-0.059C0.33,-0.059 0.362,-0.068 0.387,-0.087C0.412,-0.106 0.425,-0.132 0.425,-0.165L0.425,-0.351C0.425,-0.384 0.412,-0.41 0.387,-0.429C0.362,-0.448 0.33,-0.457 0.293,-0.457C0.247,-0.457 0.211,-0.443 0.185,-0.415C0.159,-0.387 0.146,-0.349 0.146,-0.302L0.146,-0.214C0.146,-0.167 0.159,-0.129 0.185,-0.101C0.211,-0.073 0.247,-0.059 0.293,-0.059Z" style="fill-rule:nonzero;"/>
                        </g>
                        <g transform="matrix(48,0,0,48,306,180)">
                            <path d="M0.309,0.012C0.26,0.012 0.218,0.001 0.181,-0.021C0.144,-0.043 0.116,-0.074 0.097,-0.115C0.077,-0.156 0.067,-0.203 0.067,-0.257C0.067,-0.311 0.077,-0.359 0.097,-0.4C0.117,-0.441 0.145,-0.472 0.181,-0.495C0.216,-0.517 0.257,-0.528 0.304,-0.528C0.349,-0.528 0.389,-0.517 0.424,-0.496C0.459,-0.474 0.486,-0.444 0.505,-0.406C0.524,-0.368 0.533,-0.325 0.533,-0.276L0.533,-0.238L0.151,-0.238L0.151,-0.214C0.151,-0.168 0.165,-0.13 0.194,-0.101C0.223,-0.072 0.261,-0.057 0.309,-0.057C0.343,-0.057 0.373,-0.065 0.398,-0.081C0.423,-0.096 0.443,-0.118 0.457,-0.147L0.516,-0.107C0.5,-0.071 0.474,-0.042 0.438,-0.021C0.401,0.001 0.358,0.012 0.309,0.012ZM0.304,-0.462C0.275,-0.462 0.249,-0.455 0.226,-0.442C0.203,-0.428 0.184,-0.409 0.171,-0.385C0.158,-0.361 0.151,-0.334 0.151,-0.305L0.151,-0.298L0.447,-0.298L0.447,-0.309C0.447,-0.354 0.434,-0.391 0.408,-0.42C0.381,-0.448 0.347,-0.462 0.304,-0.462Z" style="fill-rule:nonzero;"/>
                        </g>
                        <g transform="matrix(48,0,0,48,356.4,180)">
                            <path d="M0.112,-0.516L0.192,-0.516L0.192,-0.386L0.197,-0.386C0.222,-0.473 0.28,-0.516 0.371,-0.516L0.423,-0.516L0.423,-0.436L0.346,-0.436C0.297,-0.436 0.26,-0.422 0.233,-0.395C0.206,-0.368 0.192,-0.333 0.192,-0.291L0.192,-0L0.112,-0L0.112,-0.516Z" style="fill-rule:nonzero;"/>
                        </g>
                        <g transform="matrix(48,0,0,48,378,180)">
                            <path d="M0.309,0.012C0.26,0.012 0.218,0.001 0.181,-0.021C0.144,-0.043 0.116,-0.074 0.097,-0.115C0.077,-0.156 0.067,-0.203 0.067,-0.257C0.067,-0.311 0.077,-0.359 0.097,-0.4C0.117,-0.441 0.145,-0.472 0.181,-0.495C0.216,-0.517 0.257,-0.528 0.304,-0.528C0.349,-0.528 0.389,-0.517 0.424,-0.496C0.459,-0.474 0.486,-0.444 0.505,-0.406C0.524,-0.368 0.533,-0.325 0.533,-0.276L0.533,-0.238L0.151,-0.238L0.151,-0.214C0.151,-0.168 0.165,-0.13 0.194,-0.101C0.223,-0.072 0.261,-0.057 0.309,-0.057C0.343,-0.057 0.373,-0.065 0.398,-0.081C0.423,-0.096 0.443,-0.118 0.457,-0.147L0.516,-0.107C0.5,-0.071 0.474,-0.042 0.438,-0.021C0.401,0.001 0.358,0.012 0.309,0.012ZM0.304,-0.462C0.275,-0.462 0.249,-0.455 0.226,-0.442C0.203,-0.428 0.184,-0.409 0.171,-0.385C0.158,-0.361 0.151,-0.334 0.151,-0.305L0.151,-0.298L0.447,-0.298L0.447,-0.309C0.447,-0.354 0.434,-0.391 0.408,-0.42C0.381,-0.448 0.347,-0.462 0.304,-0.462ZM0.309,-0.585L0.257,-0.609L0.342,-0.779L0.415,-0.744L0.309,-0.585Z" style="fill-rule:nonzero;"/>
                        </g>
                        <g transform="matrix(48,0,0,48,406.8,180)">
                            <path d="M0.095,-0.516L0.175,-0.516L0.175,-0.432L0.179,-0.432C0.212,-0.496 0.265,-0.528 0.338,-0.528C0.401,-0.528 0.451,-0.504 0.487,-0.457C0.522,-0.409 0.54,-0.343 0.54,-0.258C0.54,-0.173 0.522,-0.107 0.487,-0.06C0.451,-0.012 0.401,0.012 0.338,0.012C0.265,0.012 0.212,-0.02 0.179,-0.084L0.175,-0.084L0.175,0.2L0.095,0.2L0.095,-0.516ZM0.307,-0.059C0.353,-0.059 0.389,-0.073 0.415,-0.101C0.441,-0.129 0.454,-0.167 0.454,-0.214L0.454,-0.302C0.454,-0.349 0.441,-0.387 0.415,-0.415C0.389,-0.443 0.353,-0.457 0.307,-0.457C0.27,-0.457 0.238,-0.448 0.213,-0.429C0.188,-0.41 0.175,-0.384 0.175,-0.351L0.175,-0.165C0.175,-0.132 0.188,-0.106 0.213,-0.087C0.238,-0.068 0.27,-0.059 0.307,-0.059Z" style="fill-rule:nonzero;"/>
                        </g>
                        <g transform="matrix(48,0,0,48,435.6,180)">
                            <path d="M0.309,0.012C0.26,0.012 0.218,0.001 0.181,-0.021C0.144,-0.043 0.116,-0.074 0.097,-0.115C0.077,-0.156 0.067,-0.203 0.067,-0.257C0.067,-0.311 0.077,-0.359 0.097,-0.4C0.117,-0.441 0.145,-0.472 0.181,-0.495C0.216,-0.517 0.257,-0.528 0.304,-0.528C0.349,-0.528 0.389,-0.517 0.424,-0.496C0.459,-0.474 0.486,-0.444 0.505,-0.406C0.524,-0.368 0.533,-0.325 0.533,-0.276L0.533,-0.238L0.151,-0.238L0.151,-0.214C0.151,-0.168 0.165,-0.13 0.194,-0.101C0.223,-0.072 0.261,-0.057 0.309,-0.057C0.343,-0.057 0.373,-0.065 0.398,-0.081C0.423,-0.096 0.443,-0.118 0.457,-0.147L0.516,-0.107C0.5,-0.071 0.474,-0.042 0.438,-0.021C0.401,0.001 0.358,0.012 0.309,0.012ZM0.304,-0.462C0.275,-0.462 0.249,-0.455 0.226,-0.442C0.203,-0.428 0.184,-0.409 0.171,-0.385C0.158,-0.361 0.151,-0.334 0.151,-0.305L0.151,-0.298L0.447,-0.298L0.447,-0.309C0.447,-0.354 0.434,-0.391 0.408,-0.42C0.381,-0.448 0.347,-0.462 0.304,-0.462ZM0.309,-0.585L0.257,-0.609L0.342,-0.779L0.415,-0.744L0.309,-0.585Z" style="fill-rule:nonzero;"/>
                        </g>
                        <g transform="matrix(48,0,0,48,464.4,180)">
                            <path d="M0.241,-0.172C0.241,-0.14 0.246,-0.117 0.256,-0.102C0.266,-0.087 0.281,-0.077 0.3,-0.074C0.319,-0.07 0.347,-0.068 0.385,-0.068L0.398,-0.068L0.398,-0L0.386,-0C0.333,-0 0.291,-0.005 0.26,-0.014C0.228,-0.023 0.204,-0.04 0.187,-0.065C0.169,-0.09 0.161,-0.126 0.161,-0.173L0.161,-0.448L0.049,-0.448L0.049,-0.516L0.161,-0.516L0.161,-0.698L0.241,-0.698L0.241,-0.516L0.396,-0.516L0.396,-0.448L0.241,-0.448L0.241,-0.172Z" style="fill-rule:nonzero;"/>
                        </g>
                        <g transform="matrix(48,0,0,48,486,180)">
                            <path d="M0.203,-0.74L0.203,-0.634L0.097,-0.634L0.097,-0.74L0.203,-0.74ZM0.11,-0.516L0.19,-0.516L0.19,-0L0.11,-0L0.11,-0.516Z" style="fill-rule:nonzero;"/>
                        </g>
                        <g transform="matrix(48,0,0,48,500.4,180)">
                            <path d="M0.241,-0.172C0.241,-0.14 0.246,-0.117 0.256,-0.102C0.266,-0.087 0.281,-0.077 0.3,-0.074C0.319,-0.07 0.347,-0.068 0.385,-0.068L0.398,-0.068L0.398,-0L0.386,-0C0.333,-0 0.291,-0.005 0.26,-0.014C0.228,-0.023 0.204,-0.04 0.187,-0.065C0.169,-0.09 0.161,-0.126 0.161,-0.173L0.161,-0.448L0.049,-0.448L0.049,-0.516L0.161,-0.516L0.161,-0.698L0.241,-0.698L0.241,-0.516L0.396,-0.516L0.396,-0.448L0.241,-0.448L0.241,-0.172Z" style="fill-rule:nonzero;"/>
                        </g>
                        <g transform="matrix(48,0,0,48,522,180)">
                            <path d="M0.203,-0.74L0.203,-0.634L0.097,-0.634L0.097,-0.74L0.203,-0.74ZM0.11,-0.516L0.19,-0.516L0.19,-0L0.11,-0L0.11,-0.516Z" style="fill-rule:nonzero;"/>
                        </g>
                        <g transform="matrix(48,0,0,48,536.4,180)">
                            <path d="M0.3,0.012C0.252,0.012 0.211,0.001 0.176,-0.021C0.14,-0.043 0.114,-0.074 0.095,-0.115C0.076,-0.156 0.066,-0.203 0.066,-0.258C0.066,-0.313 0.076,-0.36 0.095,-0.401C0.114,-0.442 0.14,-0.473 0.176,-0.495C0.211,-0.517 0.252,-0.528 0.3,-0.528C0.348,-0.528 0.389,-0.517 0.425,-0.495C0.46,-0.473 0.487,-0.442 0.506,-0.401C0.525,-0.36 0.534,-0.313 0.534,-0.258C0.534,-0.203 0.525,-0.156 0.506,-0.115C0.487,-0.074 0.46,-0.043 0.425,-0.021C0.389,0.001 0.348,0.012 0.3,0.012ZM0.3,-0.057C0.346,-0.057 0.382,-0.071 0.409,-0.099C0.436,-0.126 0.449,-0.167 0.449,-0.221L0.449,-0.295C0.449,-0.349 0.436,-0.39 0.409,-0.418C0.382,-0.445 0.346,-0.459 0.3,-0.459C0.254,-0.459 0.218,-0.445 0.191,-0.418C0.164,-0.39 0.151,-0.349 0.151,-0.295L0.151,-0.221C0.151,-0.167 0.164,-0.126 0.191,-0.099C0.218,-0.071 0.254,-0.057 0.3,-0.057Z" style="fill-rule:nonzero;"/>
                        </g>
                        <g transform="matrix(48,0,0,48,565.2,180)">
                            <path d="M0.098,-0L0.098,-0.516L0.178,-0.516L0.178,-0.432L0.182,-0.432C0.209,-0.496 0.258,-0.528 0.329,-0.528C0.384,-0.528 0.427,-0.511 0.46,-0.476C0.492,-0.441 0.508,-0.393 0.508,-0.331L0.508,-0L0.428,-0L0.428,-0.317C0.428,-0.364 0.418,-0.399 0.397,-0.422C0.376,-0.445 0.346,-0.457 0.306,-0.457C0.271,-0.457 0.241,-0.448 0.216,-0.432C0.191,-0.415 0.178,-0.39 0.178,-0.358L0.178,-0L0.098,-0Z" style="fill-rule:nonzero;"/>
                        </g>
                        <g transform="matrix(48,0,0,48,594,180)">
                            <path d="M0.306,0.012C0.206,0.012 0.126,-0.022 0.067,-0.089L0.121,-0.136C0.146,-0.109 0.174,-0.088 0.204,-0.075C0.234,-0.062 0.269,-0.055 0.308,-0.055C0.35,-0.055 0.383,-0.063 0.408,-0.078C0.433,-0.093 0.445,-0.115 0.445,-0.144C0.445,-0.169 0.437,-0.186 0.421,-0.197C0.405,-0.208 0.383,-0.215 0.354,-0.219L0.273,-0.231C0.24,-0.236 0.212,-0.242 0.187,-0.251C0.162,-0.259 0.141,-0.273 0.123,-0.293C0.105,-0.312 0.096,-0.339 0.096,-0.374C0.096,-0.424 0.115,-0.462 0.153,-0.489C0.191,-0.515 0.241,-0.528 0.304,-0.528C0.392,-0.528 0.462,-0.5 0.514,-0.445L0.462,-0.396C0.426,-0.439 0.372,-0.461 0.301,-0.461C0.26,-0.461 0.229,-0.454 0.208,-0.44C0.186,-0.426 0.175,-0.406 0.175,-0.379C0.175,-0.354 0.183,-0.337 0.2,-0.326C0.216,-0.315 0.238,-0.308 0.266,-0.304L0.347,-0.292C0.38,-0.287 0.409,-0.281 0.434,-0.273C0.459,-0.264 0.48,-0.25 0.498,-0.231C0.515,-0.211 0.524,-0.184 0.524,-0.149C0.524,-0.098 0.504,-0.059 0.465,-0.031C0.426,-0.002 0.373,0.012 0.306,0.012Z" style="fill-rule:nonzero;"/>
                        </g>
                    </g>
                    <g transform="matrix(1,0,0,1,106.425,204.54)">
                        <g transform="matrix(48,0,0,48,586.867,584.362)">
                            <path d="M0.323,0.012C0.239,0.012 0.176,-0.019 0.134,-0.081C0.091,-0.142 0.07,-0.232 0.07,-0.349C0.07,-0.466 0.091,-0.556 0.134,-0.618C0.176,-0.679 0.239,-0.71 0.323,-0.71C0.381,-0.71 0.426,-0.696 0.459,-0.669C0.491,-0.641 0.517,-0.604 0.538,-0.557L0.466,-0.524C0.451,-0.561 0.434,-0.589 0.413,-0.608C0.392,-0.627 0.362,-0.637 0.323,-0.637C0.269,-0.637 0.228,-0.616 0.201,-0.576C0.173,-0.535 0.159,-0.478 0.159,-0.406L0.159,-0.292C0.159,-0.22 0.173,-0.164 0.201,-0.123C0.228,-0.082 0.269,-0.061 0.323,-0.061C0.362,-0.061 0.392,-0.071 0.413,-0.09C0.434,-0.109 0.451,-0.137 0.466,-0.174L0.538,-0.141C0.517,-0.094 0.491,-0.057 0.459,-0.03C0.426,-0.002 0.381,0.012 0.323,0.012Z" style="fill-rule:nonzero;"/>
                        </g>
                        <g transform="matrix(48,0,0,48,615.667,584.362)">
                            <path d="M0.112,-0.516L0.192,-0.516L0.192,-0.386L0.197,-0.386C0.222,-0.473 0.28,-0.516 0.371,-0.516L0.423,-0.516L0.423,-0.436L0.346,-0.436C0.297,-0.436 0.26,-0.422 0.233,-0.395C0.206,-0.368 0.192,-0.333 0.192,-0.291L0.192,-0L0.112,-0L0.112,-0.516Z" style="fill-rule:nonzero;"/>
                        </g>
                        <g transform="matrix(48,0,0,48,637.267,584.362)">
                            <path d="M0.309,0.012C0.26,0.012 0.218,0.001 0.181,-0.021C0.144,-0.043 0.116,-0.074 0.097,-0.115C0.077,-0.156 0.067,-0.203 0.067,-0.257C0.067,-0.311 0.077,-0.359 0.097,-0.4C0.117,-0.441 0.145,-0.472 0.181,-0.495C0.216,-0.517 0.257,-0.528 0.304,-0.528C0.349,-0.528 0.389,-0.517 0.424,-0.496C0.459,-0.474 0.486,-0.444 0.505,-0.406C0.524,-0.368 0.533,-0.325 0.533,-0.276L0.533,-0.238L0.151,-0.238L0.151,-0.214C0.151,-0.168 0.165,-0.13 0.194,-0.101C0.223,-0.072 0.261,-0.057 0.309,-0.057C0.343,-0.057 0.373,-0.065 0.398,-0.081C0.423,-0.096 0.443,-0.118 0.457,-0.147L0.516,-0.107C0.5,-0.071 0.474,-0.042 0.438,-0.021C0.401,0.001 0.358,0.012 0.309,0.012ZM0.304,-0.462C0.275,-0.462 0.249,-0.455 0.226,-0.442C0.203,-0.428 0.184,-0.409 0.171,-0.385C0.158,-0.361 0.151,-0.334 0.151,-0.305L0.151,-0.298L0.447,-0.298L0.447,-0.309C0.447,-0.354 0.434,-0.391 0.408,-0.42C0.381,-0.448 0.347,-0.462 0.304,-0.462Z" style="fill-rule:nonzero;"/>
                        </g>
                        <g transform="matrix(48,0,0,48,666.067,584.362)">
                            <path d="M0.422,-0.084L0.418,-0.084C0.391,-0.02 0.342,0.012 0.271,0.012C0.216,0.012 0.173,-0.005 0.141,-0.04C0.108,-0.075 0.092,-0.123 0.092,-0.185L0.092,-0.516L0.172,-0.516L0.172,-0.199C0.172,-0.152 0.182,-0.117 0.203,-0.094C0.224,-0.071 0.254,-0.059 0.294,-0.059C0.329,-0.059 0.36,-0.068 0.385,-0.085C0.409,-0.101 0.422,-0.126 0.422,-0.158L0.422,-0.516L0.502,-0.516L0.502,-0L0.422,-0L0.422,-0.084Z" style="fill-rule:nonzero;"/>
                        </g>
                        <g transform="matrix(48,0,0,48,694.867,584.362)">
                            <path d="M0.061,-0L0.253,-0.262L0.066,-0.516L0.162,-0.516L0.24,-0.407L0.302,-0.321L0.306,-0.321L0.366,-0.407L0.443,-0.516L0.535,-0.516L0.346,-0.263L0.54,-0L0.444,-0L0.298,-0.203L0.294,-0.203L0.153,-0L0.061,-0Z" style="fill-rule:nonzero;"/>
                        </g>
                    </g>
                </g>
            </g>
        </g>
    </g>
</svg>
