<?xml version="1.0" encoding="UTF-8" standalone="no"?><!DOCTYPE svg PUBLIC "-//W3C//DTD SVG 1.1//EN" "http://www.w3.org/Graphics/SVG/1.1/DTD/svg11.dtd"><svg width="100%" height="100%" viewBox="0 0 1280 414" version="1.1" xmlns="http://www.w3.org/2000/svg" xmlns:xlink="http://www.w3.org/1999/xlink" xml:space="preserve" xmlns:serif="http://www.serif.com/" style="fill-rule:evenodd;clip-rule:evenodd;stroke-linecap:round;stroke-linejoin:round;stroke-miterlimit:1.5;"><rect x="12" y="7.5" width="218.25" height="111" style="fill:#f98500;stroke:#fff;stroke-width:1px;"/><rect x="230.25" y="7.5" width="346.5" height="111" style="fill:#f98500;stroke:#fff;stroke-width:1px;"/><rect x="576.75" y="7.5" width="346.5" height="111" style="fill:#f98500;stroke:#fff;stroke-width:1px;"/><rect x="923.25" y="7.5" width="346.5" height="111" style="fill:#f98500;stroke:#fff;stroke-width:1px;"/><rect x="12" y="118.5" width="218.25" height="69.75" style="fill:#f98500;fill-opacity:0.49;stroke:#fff;stroke-width:1px;"/><rect x="230.25" y="118.5" width="346.5" height="69.75" style="fill:#fff;stroke:#e6e6e6;stroke-width:1px;"/><rect x="576.75" y="118.5" width="346.5" height="69.75" style="fill:#fff;stroke:#e6e6e6;stroke-width:1px;"/><rect x="923.25" y="118.5" width="346.5" height="69.75" style="fill:#fff;stroke:#e6e6e6;stroke-width:1px;"/><rect x="12" y="188.25" width="218.25" height="69.75" style="fill:#f98500;fill-opacity:0.49;stroke:#fff;stroke-width:1px;"/><rect x="12" y="258" width="218.25" height="69.75" style="fill:#f98500;fill-opacity:0.49;stroke:#fff;stroke-width:1px;"/><rect x="12" y="327.75" width="218.25" height="69.75" style="fill:#f98500;fill-opacity:0.49;stroke:#fff;stroke-width:1px;"/><rect x="230.25" y="188.25" width="346.5" height="69.75" style="fill:#fff;stroke:#e6e6e6;stroke-width:1px;"/><rect x="230.25" y="258" width="346.5" height="69.75" style="fill:#fff;stroke:#e6e6e6;stroke-width:1px;"/><rect x="230.25" y="327.75" width="346.5" height="69.75" style="fill:#fff;stroke:#e6e6e6;stroke-width:1px;"/><rect x="576.75" y="188.25" width="346.5" height="69.75" style="fill:#fff;stroke:#e6e6e6;stroke-width:1px;"/><rect x="576.75" y="258" width="346.5" height="69.75" style="fill:#fff;stroke:#e6e6e6;stroke-width:1px;"/><rect x="576.75" y="327.75" width="346.5" height="69.75" style="fill:#fff;stroke:#e6e6e6;stroke-width:1px;"/><rect x="923.25" y="188.25" width="346.5" height="69.75" style="fill:#fff;stroke:#e6e6e6;stroke-width:1px;"/><rect x="923.25" y="258" width="346.5" height="69.75" style="fill:#fff;stroke:#e6e6e6;stroke-width:1px;"/><rect x="923.25" y="327.75" width="346.5" height="69.75" style="fill:#fff;stroke:#e6e6e6;stroke-width:1px;"/><g><text x="18.164px" y="71.52px" style="font-family:'Arial-BoldMT', 'Arial', sans-serif;font-weight:700;font-size:36px;fill:#262626;">What they<tspan x="187.494px 197.496px " y="71.52px 71.52px ">..</tspan>.</text></g><text x="85.488px" y="161.895px" style="font-family:'Arial-BoldMT', 'Arial', sans-serif;font-weight:700;font-size:36px;fill:#262626;">... know</text><text x="55.412px" y="231.645px" style="font-family:'Arial-BoldMT', 'Arial', sans-serif;font-weight:700;font-size:36px;fill:#262626;">... believe</text><text x="115.459px" y="301.395px" style="font-family:'Arial-BoldMT', 'Arial', sans-serif;font-weight:700;font-size:36px;fill:#262626;">... feel</text><text x="133.512px" y="371.145px" style="font-family:'Arial-BoldMT', 'Arial', sans-serif;font-weight:700;font-size:36px;fill:#262626;">... do</text><text x="346.485px" y="71.52px" style="font-family:'Arial-BoldMT', 'Arial', sans-serif;font-weight:700;font-size:36px;fill:#fff;">Before</text><text x="1054.5px" y="71.52px" style="font-family:'Arial-BoldMT', 'Arial', sans-serif;font-weight:700;font-size:36px;fill:#fff;">After</text></svg>