<?xml version="1.0" encoding="UTF-8" standalone="no"?><!DOCTYPE svg PUBLIC "-//W3C//DTD SVG 1.1//EN" "http://www.w3.org/Graphics/SVG/1.1/DTD/svg11.dtd"><svg width="100%" height="100%" viewBox="0 0 187 104" version="1.1" xmlns="http://www.w3.org/2000/svg" xmlns:xlink="http://www.w3.org/1999/xlink" xml:space="preserve" xmlns:serif="http://www.serif.com/" style="fill-rule:evenodd;clip-rule:evenodd;stroke-linejoin:round;stroke-miterlimit:2;"><g id="Layer-1" serif:id="Layer 1"><path d="M59.616,61.378l3.266,7.147l-6.33,0l3.064,-7.147Zm-19.167,-2.818l-2.858,0l0,16.091l11.406,0l0,-2.573l-8.548,0l0,-13.518Zm85.478,2.573l0,13.518l2.858,0l0,-13.518l5.636,0l0,-2.573l-13.968,0l0,2.573l5.474,0Zm-30.467,10.986c-3.186,0 -5.595,-2.41 -5.595,-5.514c0,-3.104 2.409,-5.513 5.595,-5.513c3.185,0 5.595,2.409 5.595,5.513c0,3.104 -2.41,5.514 -5.595,5.514m-17.112,-11.027c2.41,0 3.757,1.306 4.533,2.001l2.001,-1.96c-0.653,-0.735 -2.572,-2.9 -6.575,-2.9c-4.614,0 -8.698,3.103 -8.698,8.372c0,5.268 4.043,8.373 8.658,8.373c3.553,0 5.962,-1.92 6.738,-2.615l-1.593,-2.246c-1.266,1.062 -3.267,2.002 -5.105,2.002c-3.185,0 -5.595,-2.41 -5.595,-5.514c0,-3.104 2.41,-5.513 5.636,-5.513m28.016,11.966c0.654,0.531 2.614,1.92 6.045,1.92c3.471,0 6.288,-1.879 6.288,-4.82c0,-6.126 -8.861,-4.166 -8.861,-7.514c0,-0.94 0.776,-1.715 2.818,-1.715c2.45,0 4.042,1.102 4.655,1.592l1.185,-2.369c-0.736,-0.694 -2.982,-1.919 -5.84,-1.919c-4.289,0 -6.045,2.41 -6.045,4.778c0,5.554 8.863,3.962 8.863,7.27c0,1.389 -1.389,2.001 -2.982,2.001c-2.409,0 -4.329,-1.062 -5.146,-1.675l-0.98,2.451Zm42.8,-14.498l-12.211,0l0,16.091l12.456,0l0,-2.573l-9.597,0l0,-4.207l8.168,0l0,-2.573l-8.168,0l0,-4.165l9.352,0l0,-2.573Zm-83.464,16.091l3.369,0l-7.738,-16.091l-3.227,0l-7.146,16.091l2.981,0l1.552,-3.635l8.535,0l1.674,3.635Zm29.76,0.327c4.615,0 8.699,-3.105 8.699,-8.373c0,-5.269 -4.084,-8.372 -8.699,-8.372c-4.615,0 -8.699,3.103 -8.699,8.372c0,5.268 4.084,8.373 8.699,8.373" style="fill-rule:nonzero;"/><path d="M95.7,41.944c-0.067,0.276 -0.131,0.558 -0.192,0.847c-0.014,0.07 -0.082,0.103 -0.149,0.069c-0.311,-0.152 -0.642,-0.313 -0.994,-0.482c-0.076,-0.033 -0.078,-0.097 -0.002,-0.132c0.386,-0.185 0.795,-0.319 1.216,-0.398c0.084,-0.016 0.139,0.029 0.121,0.096m-1.886,-0.657c-0.066,0.276 -0.132,0.559 -0.19,0.848c-0.017,0.069 -0.082,0.102 -0.148,0.069c-0.315,-0.153 -0.644,-0.315 -0.996,-0.481c-0.076,-0.037 -0.078,-0.098 0,-0.135c0.384,-0.185 0.791,-0.32 1.215,-0.397c0.083,-0.016 0.139,0.028 0.119,0.096m-0.59,2.642c-0.014,0.07 -0.08,0.099 -0.148,0.069c-0.311,-0.152 -0.641,-0.314 -0.994,-0.482c-0.076,-0.035 -0.077,-0.097 -0.001,-0.133c0.384,-0.187 0.793,-0.321 1.215,-0.4c0.084,-0.013 0.139,0.031 0.122,0.098c-0.069,0.275 -0.132,0.559 -0.194,0.848m-1.388,-2.965c-0.068,0.274 -0.133,0.557 -0.194,0.846c-0.014,0.071 -0.079,0.103 -0.147,0.071c-0.311,-0.155 -0.642,-0.316 -0.993,-0.482c-0.078,-0.036 -0.079,-0.098 -0.003,-0.134c0.385,-0.187 0.795,-0.321 1.217,-0.399c0.083,-0.014 0.138,0.031 0.12,0.098m-0.398,1.742c-0.067,0.274 -0.132,0.557 -0.192,0.846c-0.015,0.071 -0.082,0.103 -0.148,0.071c-0.311,-0.153 -0.643,-0.316 -0.996,-0.482c-0.075,-0.036 -0.076,-0.099 -0.001,-0.136c0.385,-0.184 0.793,-0.318 1.217,-0.397c0.084,-0.016 0.137,0.03 0.12,0.098m-0.393,1.782c-0.069,0.275 -0.133,0.557 -0.193,0.846c-0.015,0.071 -0.081,0.102 -0.148,0.071c-0.312,-0.152 -0.642,-0.316 -0.994,-0.483c-0.076,-0.035 -0.078,-0.098 -0.002,-0.134c0.385,-0.185 0.794,-0.319 1.215,-0.398c0.084,-0.016 0.14,0.03 0.122,0.098m-1.456,-2.722c-0.012,0.072 -0.079,0.103 -0.145,0.072c-0.314,-0.155 -0.643,-0.315 -0.996,-0.482c-0.076,-0.036 -0.078,-0.097 -0.002,-0.134c0.386,-0.186 0.794,-0.321 1.218,-0.398c0.082,-0.015 0.137,0.028 0.12,0.098c-0.069,0.273 -0.133,0.556 -0.195,0.844m-0.199,0.883c-0.068,0.277 -0.133,0.557 -0.192,0.848c-0.019,0.069 -0.082,0.101 -0.15,0.069c-0.311,-0.153 -0.643,-0.315 -0.994,-0.481c-0.076,-0.036 -0.077,-0.098 -0.002,-0.134c0.384,-0.187 0.793,-0.321 1.216,-0.399c0.085,-0.015 0.14,0.03 0.122,0.097m-0.385,1.759c-0.067,0.277 -0.132,0.556 -0.192,0.847c-0.014,0.069 -0.081,0.102 -0.147,0.069c-0.313,-0.152 -0.642,-0.314 -0.996,-0.481c-0.075,-0.036 -0.077,-0.097 -0.001,-0.133c0.385,-0.186 0.792,-0.321 1.216,-0.4c0.083,-0.014 0.137,0.031 0.12,0.098m-1.614,-2.402c-0.314,-0.151 -0.644,-0.316 -0.996,-0.48c-0.075,-0.037 -0.077,-0.099 -0.001,-0.136c0.385,-0.184 0.794,-0.318 1.218,-0.397c0.081,-0.015 0.136,0.029 0.12,0.097c-0.069,0.275 -0.134,0.558 -0.193,0.847c-0.016,0.069 -0.082,0.102 -0.148,0.069m-0.059,0.844c-0.068,0.273 -0.133,0.555 -0.192,0.847c-0.015,0.071 -0.083,0.102 -0.148,0.069c-0.314,-0.151 -0.641,-0.314 -0.995,-0.481c-0.077,-0.037 -0.079,-0.097 -0.003,-0.134c0.386,-0.186 0.794,-0.321 1.218,-0.398c0.083,-0.014 0.137,0.031 0.12,0.097m-0.385,1.772c-0.069,0.275 -0.133,0.556 -0.194,0.846c-0.014,0.072 -0.079,0.102 -0.146,0.071c-0.313,-0.153 -0.641,-0.315 -0.996,-0.483c-0.076,-0.036 -0.078,-0.096 -0.003,-0.133c0.388,-0.187 0.795,-0.321 1.218,-0.398c0.083,-0.015 0.138,0.031 0.121,0.097m-1.647,-2.265c-0.314,-0.153 -0.644,-0.315 -0.994,-0.483c-0.076,-0.033 -0.08,-0.094 -0.003,-0.133c0.385,-0.186 0.793,-0.319 1.216,-0.397c0.084,-0.014 0.138,0.029 0.121,0.098c-0.067,0.272 -0.133,0.556 -0.193,0.844c-0.014,0.073 -0.081,0.103 -0.147,0.071m-0.276,1.785c-0.014,0.07 -0.079,0.102 -0.147,0.07c-0.311,-0.154 -0.643,-0.316 -0.993,-0.482c-0.075,-0.036 -0.079,-0.096 -0.002,-0.133c0.385,-0.187 0.794,-0.322 1.215,-0.398c0.084,-0.014 0.14,0.028 0.122,0.097c-0.068,0.275 -0.133,0.558 -0.195,0.846m-0.396,1.773c-0.014,0.07 -0.08,0.102 -0.148,0.07c-0.312,-0.153 -0.641,-0.314 -0.993,-0.482c-0.077,-0.035 -0.08,-0.097 -0.003,-0.134c0.385,-0.186 0.795,-0.32 1.217,-0.397c0.083,-0.014 0.138,0.029 0.122,0.097c-0.07,0.274 -0.133,0.558 -0.195,0.846m-1.247,-3.153c-0.015,0.07 -0.08,0.103 -0.146,0.07c-0.314,-0.151 -0.643,-0.312 -0.996,-0.482c-0.075,-0.033 -0.079,-0.097 -0.002,-0.133c0.386,-0.186 0.794,-0.317 1.217,-0.398c0.084,-0.015 0.137,0.03 0.121,0.098c-0.068,0.274 -0.134,0.557 -0.194,0.845m-0.244,1.087c-0.068,0.275 -0.133,0.557 -0.194,0.846c-0.015,0.069 -0.082,0.103 -0.149,0.069c-0.31,-0.151 -0.641,-0.315 -0.993,-0.48c-0.076,-0.036 -0.077,-0.097 -0.001,-0.134c0.383,-0.185 0.793,-0.319 1.215,-0.399c0.084,-0.014 0.14,0.031 0.122,0.098m-0.4,1.83c-0.068,0.274 -0.131,0.556 -0.193,0.844c-0.015,0.071 -0.08,0.104 -0.147,0.071c-0.312,-0.153 -0.642,-0.314 -0.994,-0.483c-0.076,-0.034 -0.078,-0.095 -0.003,-0.132c0.385,-0.186 0.793,-0.32 1.218,-0.398c0.082,-0.016 0.138,0.03 0.119,0.098m-1.565,-2.274c-0.313,-0.152 -0.644,-0.314 -0.997,-0.479c-0.075,-0.036 -0.077,-0.099 -0.001,-0.135c0.385,-0.184 0.795,-0.32 1.216,-0.399c0.085,-0.014 0.138,0.029 0.122,0.097c-0.07,0.276 -0.133,0.558 -0.194,0.847c-0.014,0.071 -0.08,0.103 -0.146,0.069m-0.084,0.949c-0.07,0.276 -0.134,0.559 -0.194,0.848c-0.016,0.069 -0.08,0.103 -0.147,0.069c-0.313,-0.152 -0.642,-0.314 -0.994,-0.481c-0.076,-0.035 -0.078,-0.097 -0.003,-0.135c0.385,-0.184 0.794,-0.32 1.215,-0.398c0.086,-0.015 0.141,0.032 0.123,0.097m-1.799,-0.872c-0.015,0.072 -0.081,0.102 -0.147,0.072c-0.313,-0.156 -0.643,-0.316 -0.996,-0.483c-0.076,-0.035 -0.076,-0.096 -0.001,-0.135c0.385,-0.185 0.794,-0.319 1.217,-0.397c0.082,-0.016 0.137,0.028 0.121,0.096c-0.07,0.276 -0.133,0.559 -0.194,0.847m-0.399,1.775c-0.015,0.071 -0.081,0.103 -0.148,0.071c-0.311,-0.153 -0.642,-0.317 -0.994,-0.482c-0.076,-0.037 -0.078,-0.098 -0.002,-0.136c0.385,-0.182 0.794,-0.318 1.218,-0.397c0.083,-0.014 0.138,0.03 0.121,0.097c-0.069,0.275 -0.133,0.557 -0.195,0.847m-1.912,-3.424c-0.075,-0.035 -0.075,-0.097 0,-0.132c0.385,-0.187 0.794,-0.322 1.216,-0.4c0.082,-0.014 0.137,0.03 0.121,0.097c-0.068,0.274 -0.133,0.558 -0.193,0.848c-0.014,0.07 -0.081,0.101 -0.148,0.069c-0.311,-0.152 -0.641,-0.315 -0.996,-0.482m0.105,2.489c-0.015,0.071 -0.081,0.104 -0.148,0.07c-0.313,-0.153 -0.643,-0.315 -0.996,-0.481c-0.074,-0.035 -0.078,-0.098 -0.002,-0.134c0.386,-0.186 0.795,-0.32 1.217,-0.397c0.084,-0.017 0.14,0.028 0.124,0.095c-0.072,0.276 -0.135,0.56 -0.195,0.847m-2.162,-2.034c-0.075,-0.036 -0.077,-0.097 -0.002,-0.134c0.385,-0.186 0.795,-0.321 1.217,-0.4c0.084,-0.015 0.138,0.029 0.122,0.096c-0.069,0.276 -0.134,0.559 -0.195,0.848c-0.015,0.071 -0.08,0.104 -0.147,0.07c-0.312,-0.154 -0.644,-0.315 -0.995,-0.48m-0.216,-1.819c0.387,-0.185 0.797,-0.319 1.22,-0.398c0.083,-0.017 0.138,0.029 0.12,0.096c-0.069,0.276 -0.133,0.558 -0.194,0.846c-0.016,0.071 -0.081,0.105 -0.148,0.07c-0.314,-0.153 -0.642,-0.314 -0.996,-0.481c-0.075,-0.035 -0.076,-0.095 -0.002,-0.133m0.478,-1.671c0.386,-0.187 0.793,-0.32 1.216,-0.398c0.083,-0.016 0.138,0.029 0.123,0.095c-0.07,0.277 -0.134,0.559 -0.195,0.847c-0.015,0.07 -0.081,0.105 -0.148,0.07c-0.312,-0.153 -0.641,-0.315 -0.995,-0.482c-0.074,-0.035 -0.077,-0.097 -0.001,-0.132m1.265,-1.453c0.383,-0.187 0.793,-0.32 1.217,-0.398c0.083,-0.016 0.138,0.029 0.119,0.096c-0.067,0.275 -0.132,0.557 -0.191,0.846c-0.015,0.071 -0.082,0.104 -0.15,0.071c-0.312,-0.152 -0.642,-0.314 -0.993,-0.482c-0.078,-0.036 -0.078,-0.097 -0.002,-0.133m1.672,2.407c-0.07,0.275 -0.134,0.557 -0.195,0.846c-0.015,0.07 -0.08,0.105 -0.147,0.07c-0.313,-0.152 -0.643,-0.314 -0.995,-0.481c-0.075,-0.034 -0.077,-0.096 -0.001,-0.134c0.385,-0.186 0.796,-0.319 1.217,-0.398c0.082,-0.015 0.138,0.029 0.121,0.097m0.77,-1.605c0.086,-0.015 0.14,0.029 0.122,0.097c-0.068,0.276 -0.133,0.558 -0.194,0.846c-0.014,0.071 -0.078,0.103 -0.146,0.071c-0.312,-0.155 -0.643,-0.315 -0.995,-0.482c-0.075,-0.035 -0.078,-0.097 -0.002,-0.135c0.384,-0.185 0.793,-0.319 1.215,-0.397m-0.791,-1.913c0.385,-0.185 0.792,-0.32 1.216,-0.398c0.083,-0.014 0.138,0.03 0.121,0.098c-0.069,0.275 -0.134,0.556 -0.193,0.846c-0.014,0.072 -0.08,0.102 -0.147,0.07c-0.314,-0.153 -0.643,-0.315 -0.996,-0.481c-0.076,-0.035 -0.078,-0.099 -0.001,-0.135m1.843,-0.866c0.387,-0.186 0.794,-0.319 1.217,-0.399c0.083,-0.014 0.139,0.03 0.121,0.096c-0.069,0.275 -0.134,0.558 -0.193,0.846c-0.015,0.072 -0.081,0.104 -0.148,0.072c-0.313,-0.153 -0.643,-0.316 -0.995,-0.482c-0.075,-0.035 -0.078,-0.097 -0.002,-0.133m23.294,5.155c0.561,0.001 0.907,0.432 0.97,0.626c0,0 -0.844,0.187 -1.212,0.264c-0.24,0.051 -0.397,-0.051 -0.421,-0.24c-0.031,-0.209 0.195,-0.654 0.663,-0.65m2.084,0.065c0.087,-0.221 0.268,-0.371 0.456,-0.372c0.335,0 0.496,0.366 0.495,0.478l-0.81,0.181c-0.227,0.044 -0.221,-0.08 -0.141,-0.287m9.092,6.836c-0.347,-0.219 -0.652,-0.246 -0.969,-0.342c-0.43,-0.13 -0.568,-0.658 -0.727,-0.718c-0.322,-0.124 -0.619,0.367 -0.813,0.302c-0.195,-0.062 -0.275,-0.708 -0.433,-0.767c-0.31,-0.115 -0.645,0.378 -0.841,0.314c-0.194,-0.062 -0.299,-0.699 -0.457,-0.757c-0.324,-0.119 -0.656,0.394 -0.85,0.33c-0.195,-0.062 -0.249,-0.724 -0.408,-0.784c-0.345,-0.13 -0.661,0.394 -0.966,0.345c-0.193,-0.029 -0.617,-0.101 -1.174,-0.474c-0.159,-0.106 -0.49,-0.373 -0.516,-0.383c-0.057,-0.021 -0.2,-0.056 -0.165,0.231c0.082,0.673 1.241,1.157 2.574,1.543c1.331,0.384 2.679,0.756 3.483,1.127c0.498,0.229 0.711,0.503 0.532,0.77c-0.139,0.207 -0.481,0.22 -0.852,0.043c-0.398,-0.189 -0.439,-0.502 -0.689,-0.561c-0.307,-0.072 -0.697,0.51 -0.94,0.454c-0.313,-0.073 -0.347,-0.743 -0.623,-0.817c-0.366,-0.098 -0.774,0.469 -1.015,0.418c-0.243,-0.049 -0.334,-0.767 -0.562,-0.826c-0.386,-0.1 -0.778,0.494 -1.02,0.442c-0.243,-0.05 -0.377,-0.755 -0.581,-0.838c-0.384,-0.155 -0.897,0.426 -1.428,0.144c-1.72,-1.161 -1.39,-1.76 -2.704,-2.149c-0.679,-0.201 -1.526,0.043 -2.021,0.095c-1.165,0.121 -1.119,-0.885 -1.119,-0.885c0.338,0.078 0.812,0.292 1.681,-0.031c0.941,-0.349 1.466,-0.411 2.693,0c1.034,0.348 1.65,0.037 2.011,-0.056c0.178,-0.046 0.314,-0.143 0.649,0.07c0.335,0.213 0.657,0.449 0.821,0.368c0.254,-0.123 0.163,-0.802 0.601,-0.947c0.2,-0.066 0.745,0.479 0.983,0.388c0.239,-0.091 0.165,-0.803 0.602,-0.947c0.2,-0.066 0.746,0.479 0.984,0.389c0.241,-0.094 0.166,-0.804 0.601,-0.949c0.201,-0.066 0.747,0.48 0.985,0.39c0.239,-0.093 0.166,-0.805 0.602,-0.951c0.199,-0.065 0.747,0.482 0.984,0.391l0,0c0.239,-0.095 0.205,-0.275 0.397,-0.759c0.037,-0.095 0.107,-0.189 0.204,-0.269c0.267,-0.219 0.669,-0.685 0.432,-1.209c-0.216,-0.473 -0.66,-0.459 -1.637,-0.257c-0.822,0.169 -5.924,1.291 -5.924,1.291c-0.796,-1.473 -1.334,-0.501 -2.517,-0.643c-0.748,-0.09 -1.957,-0.854 -3.872,0.914c-1.029,-0.294 -1.938,-0.033 -2.615,0.347c-1.148,-0.468 -3.339,-1.592 -7.5,-1.592c-1.178,0 -3.986,0.233 -8.455,1.409c-1.144,0.302 -2.188,0.237 -2.443,-0.442c-0.264,-0.711 0.653,-1.456 2.382,-2.284c4.288,-2.054 7.151,-1.57 12.916,-4.623c3.091,-1.635 3.293,-3.554 3.291,-4.019c0,-0.318 -0.324,-0.425 -0.51,-0.164c-1.041,1.451 -1.308,1.331 -1.631,1.007c-0.433,-0.432 -0.723,0.255 -1.189,0.601c-0.353,0.263 -0.424,-0.053 -0.71,-0.237c-0.487,-0.316 -0.899,0.616 -1.317,0.804c-0.486,0.217 -0.574,-0.026 -0.739,-0.198c-0.116,-0.122 -0.326,-0.119 -0.477,0.025c-0.984,0.934 -1.128,0.828 -1.422,0.516c-0.218,-0.231 -0.337,-0.392 -0.972,0.253c-0.368,0.372 -0.983,0.813 -1.168,0.348c-0.186,-0.465 -0.348,-0.737 -1.249,0.087c-0.535,0.487 -0.899,0.527 -1.061,0.297c-0.162,-0.232 -0.137,-0.865 -0.982,-0.2c-0.756,0.596 -1.137,0.955 -1.387,0.379c-0.241,-0.557 -0.798,-0.089 -1.221,0.315c-0.222,0.212 -0.59,0.716 -0.888,0.203c-0.296,-0.507 -0.768,0.017 -1.375,0.659c-0.342,0.359 -0.571,0.201 -0.909,-0.038c-0.39,-0.279 -0.802,0.717 -1.367,1.315c-0.106,0.099 -0.26,0.171 -0.601,-0.066c-0.44,-0.304 -1.138,1.243 -1.336,1.622c-0.326,0.612 -0.682,-0.161 -1.06,0.393c-0.882,1.291 -1.825,2.721 -2.092,5.257c-0.32,3.035 0.804,5.506 1.946,6.414c0,0 -0.139,0.34 -0.299,0.767c-0.319,0.855 -0.45,1.964 -0.04,2.743c0.396,0.751 1.323,2.002 1.667,0.821c0.168,-0.573 0.325,-0.543 0.878,-0.152c0.834,0.588 0.63,-0.484 0.797,-0.801c0.118,-0.223 0.263,-0.309 0.95,0.144c0.396,0.257 0.523,-0.092 0.64,-0.582c0.363,-1.512 -0.351,-1.884 -1.057,-2.026c-0.514,-0.103 -1.055,-0.017 -1.055,-0.017c1.125,-1.715 1.264,-2.651 0.001,-3.52c0.189,-0.094 0.343,-0.043 0.504,0.025c0.311,0.132 0.571,0.371 0.735,0.66c0.175,0.308 0.461,0.995 -0.119,2.215c0.243,0 1.175,0.059 1.596,1.016c0.552,0.178 4.119,0.461 5.677,0.209c0.567,-0.091 0.823,-0.603 1.388,-1.129c0.616,-0.574 1.333,-1.198 1.972,-0.731c-1.089,0.447 -1.856,1.294 -1.856,2.368c0,0.807 0.332,1.131 0.909,1.61c0.522,0.434 0.684,1.122 0.875,1.658c0.243,0.68 0.756,0.702 0.87,0.056c0.158,-0.895 0.428,-0.728 0.773,-0.347c0.421,0.463 0.749,0.392 0.75,-0.274c0.001,-0.63 0.19,-0.942 0.895,-0.213c0.285,0.296 0.63,0.285 0.625,-0.359c-0.007,-0.787 0.346,-0.711 0.787,-0.374c0.153,0.117 0.259,0.201 0.342,0.197c0.347,-0.018 0.575,-0.693 0.308,-1.227c-0.133,-0.266 -0.327,-0.665 -2.127,-1.035c-0.589,-0.122 -0.488,-0.531 -0.488,-0.531c4.393,0.213 8.118,-0.339 10.567,-1.828c3.009,0.726 7.413,0.795 8.858,0.776c1.443,-0.017 2.548,-0.083 3.452,-0.517c0.954,-0.457 0.811,-1.153 0.37,-1.43" style="fill:#00552d;fill-rule:nonzero;"/><path d="M103.502,43.65c-1.226,-0.411 -1.752,-0.349 -2.693,0c-0.869,0.322 -1.343,0.109 -1.681,0.03c0,0 -0.046,1.007 1.119,0.886c0.495,-0.053 1.342,-0.296 2.021,-0.095c1.314,0.389 0.984,0.988 2.704,2.149c0.531,0.282 1.044,-0.299 1.428,-0.144c0.204,0.083 0.338,0.788 0.581,0.838c0.242,0.052 0.634,-0.542 1.02,-0.442c0.228,0.059 0.319,0.777 0.562,0.825c0.241,0.052 0.649,-0.515 1.015,-0.417c0.276,0.074 0.31,0.744 0.623,0.817c0.243,0.057 0.633,-0.527 0.94,-0.454c0.25,0.058 0.291,0.372 0.689,0.562c0.372,0.176 0.713,0.162 0.852,-0.044c0.179,-0.267 -0.034,-0.541 -0.532,-0.77c-0.804,-0.371 -2.152,-0.743 -3.483,-1.127c-1.333,-0.386 -2.492,-0.87 -2.574,-1.543c-0.034,-0.284 0.104,-0.253 0.162,-0.231c-0.512,-0.381 -0.619,-0.74 -0.593,-0.938l-0.001,-0.001c0,0 0,0 0,0.001l0,0l-0.001,-0.001c-0.049,0.013 -0.097,0.03 -0.147,0.043c-0.361,0.093 -0.977,0.404 -2.011,0.056" style="fill:#e10041;fill-rule:nonzero;"/></g></svg>