<?xml version="1.0" encoding="UTF-8" standalone="no"?>
<!DOCTYPE svg PUBLIC "-//W3C//DTD SVG 1.1//EN" "http://www.w3.org/Graphics/SVG/1.1/DTD/svg11.dtd">
<svg width="100%" height="100%" viewBox="0 0 256 256" version="1.1" xmlns="http://www.w3.org/2000/svg" xmlns:xlink="http://www.w3.org/1999/xlink" xml:space="preserve" xmlns:serif="http://www.serif.com/" style="fill-rule:evenodd;clip-rule:evenodd;stroke-linejoin:round;stroke-miterlimit:2;">
    <g transform="matrix(1.42222,0,0,1.42222,-4.02641e-14,-32.9892)">
        <path d="M77.058,203.068C33.505,196.788 0,159.276 0,114C0,64.328 40.327,24 90,24C139.673,24 180,64.328 180,114C180,159.276 146.495,196.788 102.942,203.068C103.97,201.08 104.665,198.847 105,196.5C106.17,188.308 110.743,156.301 112.5,144C114.257,131.707 102.418,121.5 90,121.5C77.582,121.5 65.744,131.707 67.5,144C69.25,156.248 73.796,188.073 75,196.5C75.335,198.847 76.03,201.08 77.058,203.068ZM90,84C98.279,84 105,90.722 105,99C105,107.278 98.279,114 90,114C81.722,114 75,107.278 75,99C75,90.722 81.722,84 90,84Z"/>
    </g>
</svg>
