<?xml version="1.0" encoding="UTF-8" standalone="no"?><!DOCTYPE svg PUBLIC "-//W3C//DTD SVG 1.1//EN" "http://www.w3.org/Graphics/SVG/1.1/DTD/svg11.dtd"><svg width="100%" height="100%" viewBox="0 0 240 240" version="1.1" xmlns="http://www.w3.org/2000/svg" xmlns:xlink="http://www.w3.org/1999/xlink" xml:space="preserve" xmlns:serif="http://www.serif.com/" style="fill-rule:evenodd;clip-rule:evenodd;stroke-linecap:round;stroke-linejoin:round;stroke-miterlimit:1.41421;"><g id="group"><rect x="0" y="0" width="240" height="240" style="fill:none;"/><g><path d="M138.637,220l-13.537,0" style="fill:none;stroke:#808080;stroke-width:5px;"/><path d="M111.229,219.996l6.342,-63.888" style="fill:none;stroke:#808080;stroke-width:5px;"/><path d="M128.442,85.012l-38.459,0" style="fill:none;stroke:#808080;stroke-width:5px;"/><path d="M75.242,154.692l15.212,0l5.692,65.308l14.921,0l0,-0.004l0.162,0" style="fill:none;stroke:#808080;stroke-width:5px;"/><path d="M90.454,154.692l15.146,-48.571" style="fill:none;stroke:#808080;stroke-width:5px;"/><path d="M130.929,55.658c0,7.963 -6.642,14.417 -14.825,14.417c-8.191,0 -14.829,-6.454 -14.829,-14.417c0,-7.966 6.638,-14.408 14.829,-14.408c8.183,0 14.825,6.442 14.825,14.408Z" style="fill:none;stroke:#808080;stroke-width:5px;"/><path d="M89.983,85.012l-14.741,69.68" style="fill:none;stroke:#808080;stroke-width:5px;"/><path d="M145.004,85.012l-55.021,0" style="fill:none;stroke:#808080;stroke-width:5px;"/><path d="M129.925,104.321l8.712,115.679" style="fill:none;stroke:#808080;stroke-width:5px;"/><path d="M145.004,85.012l5.554,64.876" style="fill:none;stroke:#808080;stroke-width:5px;"/><path d="M79.15,192.05l-23.162,0" style="fill:none;stroke:#808080;stroke-width:5px;"/><path d="M55.988,192.05l6.341,-63.888" style="fill:none;stroke:#808080;stroke-width:5px;"/><path d="M73.2,57.062l-10.492,0l0,0.005l-27.97,0" style="fill:none;stroke:#808080;stroke-width:5px;"/><path d="M20,126.746l15.208,0l5.696,65.304l15.084,0" style="fill:none;stroke:#808080;stroke-width:5px;"/><path d="M35.208,126.746l15.15,-48.575" style="fill:none;stroke:#808080;stroke-width:5px;"/><path d="M75.687,27.712c0,7.963 -6.645,14.417 -14.829,14.417c-8.187,0 -14.825,-6.454 -14.825,-14.417c0,-7.97 6.638,-14.408 14.825,-14.408c8.184,0 14.829,6.438 14.829,14.408Z" style="fill:none;stroke:#808080;stroke-width:5px;"/><path d="M34.738,57.067l-14.738,69.679" style="fill:none;stroke:#808080;stroke-width:5px;"/><path d="M86.983,57.062l-24.275,0l0,0.005l-27.97,0" style="fill:none;stroke:#808080;stroke-width:5px;"/><path d="M86.983,57.062l1.113,13.013" style="fill:none;stroke:#808080;stroke-width:5px;"/><path d="M152.633,192.05l24.48,0" style="fill:none;stroke:#808080;stroke-width:5px;"/><path d="M177.113,192.05l-6.342,-63.888" style="fill:none;stroke:#808080;stroke-width:5px;"/><path d="M159.9,57.062l10.487,0l0,0.005l27.971,0" style="fill:none;stroke:#808080;stroke-width:5px;"/><path d="M213.096,126.746l-15.208,0l-5.696,65.304l-15.079,0" style="fill:none;stroke:#808080;stroke-width:5px;"/><path d="M197.888,126.746l-15.151,-48.575" style="fill:none;stroke:#808080;stroke-width:5px;"/><path d="M157.412,27.712c0,7.963 6.642,14.417 14.825,14.417c8.192,0 14.83,-6.454 14.83,-14.417c0,-7.97 -6.638,-14.408 -14.83,-14.408c-8.183,0 -14.825,6.438 -14.825,14.408Z" style="fill:none;stroke:#808080;stroke-width:5px;"/><path d="M198.358,57.067l14.738,69.679" style="fill:none;stroke:#808080;stroke-width:5px;"/><path d="M146.117,57.062l24.27,0l0,0.005l27.971,0" style="fill:none;stroke:#808080;stroke-width:5px;"/><path d="M146.117,57.062l-1.113,13.013" style="fill:none;stroke:#808080;stroke-width:5px;"/></g></g></svg>