<?xml version="1.0" encoding="UTF-8" standalone="no"?><!DOCTYPE svg PUBLIC "-//W3C//DTD SVG 1.1//EN" "http://www.w3.org/Graphics/SVG/1.1/DTD/svg11.dtd"><svg width="100%" height="100%" viewBox="0 0 240 240" version="1.1" xmlns="http://www.w3.org/2000/svg" xmlns:xlink="http://www.w3.org/1999/xlink" xml:space="preserve" xmlns:serif="http://www.serif.com/" style="fill-rule:evenodd;clip-rule:evenodd;stroke-linecap:round;stroke-linejoin:round;stroke-miterlimit:1.41421;"><g id="instructor"><rect x="0" y="0" width="240" height="240" style="fill:none;"/><g><g><path d="M155.12,163.114l0,55.919" style="fill:none;stroke:#808080;stroke-width:2.5px;"/><path d="M122.163,220l65.913,0" style="fill:none;stroke:#808080;stroke-width:2.5px;"/><path d="M100.233,101.42l0,-37.122l109.767,0l0,98.816l-109.767,0l0,-45.483" style="fill:none;stroke:#808080;stroke-width:2.5px;"/><path d="M118.714,148.466l72.808,0" style="fill:none;stroke:#808080;stroke-width:2.5px;"/></g><g><path d="M73.14,102.418l55.888,-0.003l7.551,10.248l-55.872,6.572" style="fill:none;stroke:#808080;stroke-width:5px;"/><path d="M85.158,220l-11.789,0" style="fill:none;stroke:#808080;stroke-width:5px;"/><path d="M58.146,219.997l5.521,-55.649" style="fill:none;stroke:#808080;stroke-width:5px;"/><path d="M73.14,102.418l-9.137,0l0,0.003l-24.366,0" style="fill:none;stroke:#808080;stroke-width:5px;"/><path d="M26.8,163.114l13.248,0l4.96,56.886l12.997,0l0,-0.003l0.141,0" style="fill:none;stroke:#808080;stroke-width:5px;"/><path d="M40.048,163.114l13.196,-42.31" style="fill:none;stroke:#808080;stroke-width:5px;"/><path d="M73.724,76.85c0,6.933 -5.785,12.558 -12.913,12.558c-7.134,0 -12.916,-5.625 -12.916,-12.558c0,-6.943 5.782,-12.552 12.916,-12.552c7.128,0 12.913,5.609 12.913,12.552Z" style="fill:none;stroke:#808080;stroke-width:5px;"/><path d="M39.637,102.421l-12.837,60.693" style="fill:none;stroke:#808080;stroke-width:5px;"/><path d="M73.14,102.418l-9.137,0l0,0.003l-24.366,0" style="fill:none;stroke:#808080;stroke-width:5px;"/><path d="M80.707,119.235l4.451,100.765" style="fill:none;stroke:#808080;stroke-width:5px;"/></g></g></g></svg>