<?xml version="1.0" encoding="UTF-8" standalone="no"?><!DOCTYPE svg PUBLIC "-//W3C//DTD SVG 1.1//EN" "http://www.w3.org/Graphics/SVG/1.1/DTD/svg11.dtd"><svg width="100%" height="100%" viewBox="0 0 240 240" version="1.1" xmlns="http://www.w3.org/2000/svg" xmlns:xlink="http://www.w3.org/1999/xlink" xml:space="preserve" xmlns:serif="http://www.serif.com/" style="fill-rule:evenodd;clip-rule:evenodd;stroke-miterlimit:2;"><g id="transformation"><rect x="0" y="0" width="240" height="240" style="fill:none;"/><g><path d="M130,76.667c0,10 -5.97,16.666 -13.333,16.666c-7.364,0 -13.334,-6.666 -13.334,-16.666c0,-7.364 5.97,-13.334 13.334,-13.334c7.363,0 13.333,5.97 13.333,13.334Z" style="fill:none;stroke:#808080;stroke-width:5px;"/><path d="M116.667,220l0,-63.333" style="fill:none;stroke:#808080;stroke-width:5px;stroke-linejoin:round;"/><path d="M136.667,113.333l40,0l0,13.334l23.333,-20l-23.333,-20l0,13.333l-100,0l0,-16.667l13.333,0l-20,-23.333l-20,23.333l13.333,0l0,30l33.334,0l0,106.667l40,0l0,-106.667Z" style="fill:none;stroke:#808080;stroke-width:5px;stroke-linecap:round;stroke-linejoin:round;"/></g></g></svg>