<?xml version="1.0" encoding="UTF-8" standalone="no"?><!DOCTYPE svg PUBLIC "-//W3C//DTD SVG 1.1//EN" "http://www.w3.org/Graphics/SVG/1.1/DTD/svg11.dtd"><svg width="100%" height="100%" viewBox="0 0 240 240" version="1.1" xmlns="http://www.w3.org/2000/svg" xmlns:xlink="http://www.w3.org/1999/xlink" xml:space="preserve" xmlns:serif="http://www.serif.com/" style="fill-rule:evenodd;clip-rule:evenodd;stroke-linejoin:round;stroke-miterlimit:2;"><g id="performance"><rect x="0" y="0" width="240" height="240" style="fill:none;"/><g><path d="M70.886,116.875c-18.789,14.637 -30.886,37.462 -30.886,63.126l43.683,0c0,-10.651 4.614,-20.202 11.916,-26.846l-24.713,-36.28Z" style="fill:none;fill-rule:nonzero;stroke:#808080;stroke-width:3px;"/><path d="M120.002,100c-14.895,0 -28.827,4.084 -40.767,11.17l24.716,36.289c4.845,-2.395 10.28,-3.776 16.051,-3.776c5.77,0 11.205,1.381 16.047,3.776l24.719,-36.289c-11.94,-7.086 -25.875,-11.17 -40.766,-11.17Z" style="fill:none;fill-rule:nonzero;stroke:#808080;stroke-width:3px;"/><path d="M170.966,154.251l-42.462,12.432c-4.448,-2.729 -10.13,-3.242 -15.185,-0.818c-7.913,3.797 -11.25,13.286 -7.457,21.199c3.797,7.912 13.289,11.252 21.202,7.456c5.053,-2.424 8.212,-7.175 8.867,-12.349l36.274,-25.336l-1.239,-2.584Z" style="fill:none;fill-rule:nonzero;stroke:#808080;stroke-width:5px;"/><path d="M155.677,173.425c0.394,2.137 0.64,4.324 0.64,6.576l43.683,0c0,-25.664 -12.097,-48.489 -30.886,-63.126l-24.713,36.28c1.215,1.105 2.323,2.317 3.378,3.574" style="fill:none;fill-rule:nonzero;stroke:#808080;stroke-width:5.5px;"/></g></g></svg>