<?xml version="1.0" encoding="UTF-8" standalone="no"?><!DOCTYPE svg PUBLIC "-//W3C//DTD SVG 1.1//EN" "http://www.w3.org/Graphics/SVG/1.1/DTD/svg11.dtd"><svg width="100%" height="100%" viewBox="0 0 512 512" version="1.1" xmlns="http://www.w3.org/2000/svg" xmlns:xlink="http://www.w3.org/1999/xlink" xml:space="preserve" xmlns:serif="http://www.serif.com/" style="fill-rule:evenodd;clip-rule:evenodd;"><g id="arduino"><rect x="0" y="0" width="512" height="512" style="fill:none;"/><g><path d="M157.608,176.742c-50.514,-4.02 -92.954,55.773 -72.238,101.985c20.184,50.142 96.141,63.74 132.26,23.584c35.004,-34.314 48.496,-87.112 91.361,-114.202c43.556,-29.745 113.67,-1.657 122.169,51.205c8.286,50.62 -46.265,99.86 -95.61,84.987c-36.492,-8.233 -62.678,-39.413 -77.551,-72.239c-18.325,-31.339 -42.281,-64.802 -79.675,-73.301c-6.64,-1.509 -13.492,-2.104 -20.291,-2.093l-0.425,0.074Z" style="fill:none;fill-rule:nonzero;stroke:#808080;stroke-width:31.34px;"/><path d="M127.863,248.45l63.74,0" style="fill:none;fill-rule:nonzero;stroke:#808080;stroke-width:13.28px;"/><path d="M323.333,248.45l53.117,0m-27.09,-26.558l0,53.116" style="fill:none;fill-rule:nonzero;stroke:#808080;stroke-width:17px;"/></g></g></svg>