<?xml version="1.0" encoding="UTF-8" standalone="no"?><!DOCTYPE svg PUBLIC "-//W3C//DTD SVG 1.1//EN" "http://www.w3.org/Graphics/SVG/1.1/DTD/svg11.dtd"><svg width="100%" height="100%" viewBox="0 0 512 512" version="1.1" xmlns="http://www.w3.org/2000/svg" xmlns:xlink="http://www.w3.org/1999/xlink" xml:space="preserve" xmlns:serif="http://www.serif.com/" style="fill-rule:evenodd;clip-rule:evenodd;stroke-linecap:round;stroke-linejoin:round;stroke-miterlimit:1.5;"><g id="computer"><rect x="0" y="0" width="512" height="512" style="fill:none;"/><path d="M432,371.754l0,-19.754l-352,0l0,19.754c0,6.759 5.487,12.246 12.246,12.246l327.508,0c6.759,0 12.246,-5.487 12.246,-12.246Z" style="fill:#808080;stroke:#808080;stroke-width:6px;"/><path d="M80,140.246l0,195.754l352,0l0,-195.754c0,-6.759 -5.487,-12.246 -12.246,-12.246l-327.508,-0c-6.759,-0 -12.246,5.487 -12.246,12.246Z" style="fill:#808080;stroke:#808080;stroke-width:6px;"/><path d="M416,144l-320,0l0,176l320,0l0,-176Zm-6,6l0,164c-0,0 -308,0 -308,0c0,0 0,-164 0,-164c-0,0 308,0 308,0l0,-0Z" style="fill:#fff;"/></g></svg>