<?xml version="1.0" encoding="UTF-8" standalone="no"?><!DOCTYPE svg PUBLIC "-//W3C//DTD SVG 1.1//EN" "http://www.w3.org/Graphics/SVG/1.1/DTD/svg11.dtd"><svg width="100%" height="100%" viewBox="0 0 512 512" version="1.1" xmlns="http://www.w3.org/2000/svg" xmlns:xlink="http://www.w3.org/1999/xlink" xml:space="preserve" xmlns:serif="http://www.serif.com/" style="fill-rule:evenodd;clip-rule:evenodd;stroke-linecap:round;stroke-linejoin:round;stroke-miterlimit:1.5;"><g id="microcontroller"><rect x="0" y="0" width="512" height="512" style="fill:none;"/><path d="M448,175.297c0,-8.443 -6.854,-15.297 -15.297,-15.297l-353.406,0c-8.443,0 -15.297,6.854 -15.297,15.297l0,161.406c0,8.443 6.854,15.297 15.297,15.297l353.406,0c8.443,0 15.297,-6.854 15.297,-15.297l0,-161.406Z" style="fill:#737373;stroke:#737373;stroke-width:6px;"/><path d="M96,128l0,256" style="fill:none;stroke:#737373;stroke-width:6px;"/><path d="M128,128l0,256" style="fill:none;stroke:#737373;stroke-width:6px;"/><path d="M160,128l0,256" style="fill:none;stroke:#737373;stroke-width:6px;"/><path d="M192,128l0,256" style="fill:none;stroke:#737373;stroke-width:6px;"/><path d="M224,128l0,256" style="fill:none;stroke:#737373;stroke-width:6px;"/><path d="M256,128l0,256" style="fill:none;stroke:#737373;stroke-width:6px;"/><path d="M288,128l0,256" style="fill:none;stroke:#737373;stroke-width:6px;"/><path d="M320,128l0,256" style="fill:none;stroke:#737373;stroke-width:6px;"/><path d="M352,128l0,256" style="fill:none;stroke:#737373;stroke-width:6px;"/><path d="M384,128l0,256" style="fill:none;stroke:#737373;stroke-width:6px;"/><path d="M416,128l0,256" style="fill:none;stroke:#737373;stroke-width:6px;"/></g></svg>