<?xml version="1.0" encoding="UTF-8" standalone="no"?><!DOCTYPE svg PUBLIC "-//W3C//DTD SVG 1.1//EN" "http://www.w3.org/Graphics/SVG/1.1/DTD/svg11.dtd"><svg width="100%" height="100%" viewBox="0 0 240 240" version="1.1" xmlns="http://www.w3.org/2000/svg" xmlns:xlink="http://www.w3.org/1999/xlink" xml:space="preserve" xmlns:serif="http://www.serif.com/" style="fill-rule:evenodd;clip-rule:evenodd;stroke-miterlimit:2;"><g id="savings"><rect x="0" y="0" width="240" height="240" style="fill:none;"/><g><path d="M62.971,156.222c-26.344,0 -29.491,-32.037 -17.047,-36.119c17.047,-5.591 13.948,37.407 -27.891,21.497" style="fill:none;stroke:#808080;stroke-width:2.5px;"/><path d="M144.428,100.992c2.138,0.686 4.22,1.466 6.242,2.342l18.67,-11.612l0,24.131c6.757,6.689 11.651,14.844 13.96,23.897l11.375,0c2.94,0 5.325,2.642 5.325,5.905l0,15.844c0,3.267 -2.385,5.905 -5.325,5.905l-12.528,0c-3.406,9.81 -9.931,18.398 -18.518,24.932l0,27.664l-20.553,0l0,-17.362c-6.035,1.766 -12.468,2.758 -19.173,2.758c-6.708,0 -13.142,-0.992 -19.176,-2.758l0,17.362l-20.553,0l0,-27.664c-12.963,-9.863 -21.203,-24.436 -21.203,-40.731c0,-20.222 12.64,-37.841 31.322,-47.027" style="fill:none;stroke:#808080;stroke-width:5px;"/><path d="M141.477,117.642c-6.773,-3.44 -13.039,-5.414 -21.446,-5.414c-8.408,0 -16.286,1.974 -23.058,5.414" style="fill:none;stroke:#808080;stroke-width:2.5px;"/><path d="M131.501,112.892c3.139,-3.484 5.082,-8.301 5.082,-13.622c0,-10.642 -7.77,-19.27 -17.358,-19.27c-9.581,0 -17.354,8.628 -17.354,19.27c0,6.207 2.636,11.727 6.744,15.251" style="fill:none;stroke:#808080;stroke-width:2.5px;"/><path d="M150.515,128.519c-3.083,4.723 -2.134,11.328 2.118,14.746c4.251,3.426 10.202,2.372 13.285,-2.347" style="fill:none;stroke:#808080;stroke-width:2.5px;"/><path d="M104.108,183.332c5.106,2.882 12.153,4.671 19.939,4.671c7.79,0 14.841,-1.789 19.942,-4.671" style="fill:none;stroke:#808080;stroke-width:2.5px;"/></g></g></svg>