<?xml version="1.0" encoding="UTF-8" standalone="no"?><!DOCTYPE svg PUBLIC "-//W3C//DTD SVG 1.1//EN" "http://www.w3.org/Graphics/SVG/1.1/DTD/svg11.dtd"><svg width="100%" height="100%" viewBox="0 0 240 240" version="1.1" xmlns="http://www.w3.org/2000/svg" xmlns:xlink="http://www.w3.org/1999/xlink" xml:space="preserve" xmlns:serif="http://www.serif.com/" style="fill-rule:evenodd;clip-rule:evenodd;stroke-linecap:square;stroke-linejoin:round;stroke-miterlimit:2;"><g id="leader"><rect x="-0" y="-0" width="240" height="240" style="fill:none;"/><g id="leader1" serif:id="leader"><path d="M103.193,97.891l-10.814,6.073c-1.428,0.806 -2.454,2.865 -2.271,4.558l2.955,27.96c0.173,1.687 5.319,8.962 5.465,10.658l1.488,16.216c0.129,1.7 1.138,4.147 2.191,5.429l2.002,2.414c1.076,1.281 2.055,3.729 2.201,5.425l3.55,43.373l20.167,0.003l3.549,-43.373c0.146,-1.696 1.126,-4.143 2.202,-5.428l2.002,-2.411c1.052,-1.278 2.062,-3.728 2.191,-5.425l1.488,-16.219c0.146,-1.697 5.292,-8.972 5.465,-10.658l2.955,-27.96c0.182,-1.694 -0.84,-3.752 -2.271,-4.559l-10.814,-6.073" style="fill:none;stroke:#808080;stroke-width:5px;"/><path d="M132.87,76.253c-0,8.978 -5.748,16.266 -12.83,16.266c-7.082,-0 -12.816,-7.288 -12.816,-16.266c-0,-8.975 5.734,-16.253 12.816,-16.253c7.082,-0 12.83,7.278 12.83,16.253Z" style="fill:none;stroke:#808080;stroke-width:5px;"/><path d="M108.15,108.921l11.897,41.848" style="fill:none;stroke:#808080;stroke-width:3px;stroke-linecap:round;"/><path d="M131.943,108.921l-11.896,41.848" style="fill:none;stroke:#808080;stroke-width:3px;stroke-linecap:round;"/></g></g></svg>