<?xml version="1.0" encoding="UTF-8" standalone="no"?>
<!DOCTYPE svg PUBLIC "-//W3C//DTD SVG 1.1//EN" "http://www.w3.org/Graphics/SVG/1.1/DTD/svg11.dtd">
<svg width="100%" height="100%" viewBox="0 0 1920 1080" version="1.1" xmlns="http://www.w3.org/2000/svg" xmlns:xlink="http://www.w3.org/1999/xlink" xml:space="preserve" xmlns:serif="http://www.serif.com/" style="fill-rule:evenodd;clip-rule:evenodd;stroke-linecap:round;stroke-linejoin:round;stroke-miterlimit:1.5;">
    <g transform="matrix(1,0,0,1,-4080,-2400)">
        <g transform="matrix(1,0,0,1,4080,2400)">
            <rect id="storyline" x="0" y="0" width="1920" height="1080" style="fill:none;"/>
            <g id="storyline1" serif:id="storyline">
                <g transform="matrix(1.01911,0,0,1.33333,-4191.59,-3413.33)">
                    <path d="M4270,2980.75L4270,2949.25L5781.12,2949.25L5781.12,2920L5840,2965L5781.12,3010L5781.12,2980.75L4270,2980.75Z" style="fill:rgb(213,213,213);"/>
                </g>
                <g transform="matrix(1,0,0,1,-790,320)">
                    <g transform="matrix(0.6875,0,0,0.6875,-2270,-807.5)">
                        <path d="M4880,1600L4840,1640L4720,1640L4720,1480L4880,1480L4880,1600Z" style="fill:rgb(255,251,127);"/>
                    </g>
                    <g transform="matrix(-0.6875,-8.41945e-17,8.41945e-17,-0.6875,4522.5,1365)">
                        <path d="M5000,1560L5040,1520L5040,1560L5000,1560Z" style="fill:rgb(185,180,42);"/>
                    </g>
                </g>
                <g transform="matrix(1,0,0,1,-665,245)">
                    <g transform="matrix(0.6875,0,0,0.6875,-2270,-807.5)">
                        <path d="M4880,1600L4840,1640L4720,1640L4720,1480L4880,1480L4880,1600Z" style="fill:rgb(255,251,127);"/>
                    </g>
                    <g transform="matrix(-0.6875,-8.41945e-17,8.41945e-17,-0.6875,4522.5,1365)">
                        <path d="M5000,1560L5040,1520L5040,1560L5000,1560Z" style="fill:rgb(185,180,42);"/>
                    </g>
                </g>
                <g transform="matrix(1,0,0,1,595,340)">
                    <g transform="matrix(0.6875,0,0,0.6875,-2270,-807.5)">
                        <path d="M4880,1600L4840,1640L4720,1640L4720,1480L4880,1480L4880,1600Z" style="fill:rgb(255,251,127);"/>
                    </g>
                    <g transform="matrix(-0.6875,-8.41945e-17,8.41945e-17,-0.6875,4522.5,1365)">
                        <path d="M5000,1560L5040,1520L5040,1560L5000,1560Z" style="fill:rgb(185,180,42);"/>
                    </g>
                </g>
                <g transform="matrix(1,0,0,1,-385,285)">
                    <g transform="matrix(0.6875,0,0,0.6875,-2270,-807.5)">
                        <path d="M4880,1600L4840,1640L4720,1640L4720,1480L4880,1480L4880,1600Z" style="fill:rgb(255,251,127);"/>
                    </g>
                    <g transform="matrix(-0.6875,-8.41945e-17,8.41945e-17,-0.6875,4522.5,1365)">
                        <path d="M5000,1560L5040,1520L5040,1560L5000,1560Z" style="fill:rgb(185,180,42);"/>
                    </g>
                </g>
                <g transform="matrix(1,0,0,1,-35,330)">
                    <g transform="matrix(0.6875,0,0,0.6875,-2270,-807.5)">
                        <path d="M4880,1600L4840,1640L4720,1640L4720,1480L4880,1480L4880,1600Z" style="fill:rgb(255,251,127);"/>
                    </g>
                    <g transform="matrix(-0.6875,-8.41945e-17,8.41945e-17,-0.6875,4522.5,1365)">
                        <path d="M5000,1560L5040,1520L5040,1560L5000,1560Z" style="fill:rgb(185,180,42);"/>
                    </g>
                </g>
                <g transform="matrix(1,0,0,1,100,280)">
                    <g transform="matrix(0.6875,0,0,0.6875,-2270,-807.5)">
                        <path d="M4880,1600L4840,1640L4720,1640L4720,1480L4880,1480L4880,1600Z" style="fill:rgb(255,251,127);"/>
                    </g>
                    <g transform="matrix(-0.6875,-8.41945e-17,8.41945e-17,-0.6875,4522.5,1365)">
                        <path d="M5000,1560L5040,1520L5040,1560L5000,1560Z" style="fill:rgb(185,180,42);"/>
                    </g>
                </g>
                <g transform="matrix(1,0,0,1,245,330)">
                    <g transform="matrix(0.6875,0,0,0.6875,-2270,-807.5)">
                        <path d="M4880,1600L4840,1640L4720,1640L4720,1480L4880,1480L4880,1600Z" style="fill:rgb(255,251,127);"/>
                    </g>
                    <g transform="matrix(-0.6875,-8.41945e-17,8.41945e-17,-0.6875,4522.5,1365)">
                        <path d="M5000,1560L5040,1520L5040,1560L5000,1560Z" style="fill:rgb(185,180,42);"/>
                    </g>
                </g>
                <g transform="matrix(1,0,0,1,400,250)">
                    <g transform="matrix(0.6875,0,0,0.6875,-2270,-807.5)">
                        <path d="M4880,1600L4840,1640L4720,1640L4720,1480L4880,1480L4880,1600Z" style="fill:rgb(255,251,127);"/>
                    </g>
                    <g transform="matrix(-0.6875,-8.41945e-17,8.41945e-17,-0.6875,4522.5,1365)">
                        <path d="M5000,1560L5040,1520L5040,1560L5000,1560Z" style="fill:rgb(185,180,42);"/>
                    </g>
                </g>
                <g transform="matrix(1.02128,0,0,1.03846,-20.4255,-20.7692)">
                    <path d="M1900,43.169L1900,1036.83C1900,1049.62 1889.44,1060 1876.44,1060L43.559,1060C30.557,1060 20,1049.62 20,1036.83L20,43.169C20,30.382 30.557,20 43.559,20L1876.44,20C1889.44,20 1900,30.382 1900,43.169ZM1898.53,43.169C1898.53,31.179 1888.63,21.444 1876.44,21.444L43.559,21.444C31.367,21.444 21.469,31.179 21.469,43.169L21.469,1036.83C21.469,1048.82 31.367,1058.56 43.559,1058.56L1876.44,1058.56C1888.63,1058.56 1898.53,1048.82 1898.53,1036.83L1898.53,43.169Z" style="fill:rgb(117,117,117);"/>
                </g>
                <g transform="matrix(1,0,0,1,55,0)">
                    <g transform="matrix(1,0,0,1,73.984,-14.48)">
                        <g transform="matrix(48,0,0,48,90,180)">
                            <path d="M0.088,-0.698L0.325,-0.698C0.384,-0.698 0.431,-0.682 0.466,-0.649C0.5,-0.616 0.517,-0.573 0.517,-0.518C0.517,-0.478 0.507,-0.446 0.488,-0.421C0.469,-0.396 0.442,-0.379 0.408,-0.368L0.408,-0.365C0.45,-0.356 0.483,-0.338 0.507,-0.311C0.531,-0.284 0.543,-0.247 0.543,-0.201C0.543,-0.164 0.535,-0.13 0.519,-0.099C0.502,-0.068 0.48,-0.044 0.451,-0.027C0.422,-0.009 0.39,-0 0.355,-0L0.088,-0L0.088,-0.698ZM0.316,-0.395C0.352,-0.395 0.38,-0.403 0.4,-0.419C0.419,-0.435 0.429,-0.459 0.429,-0.49L0.429,-0.529C0.429,-0.56 0.419,-0.584 0.4,-0.601C0.38,-0.617 0.352,-0.625 0.316,-0.625L0.172,-0.625L0.172,-0.395L0.316,-0.395ZM0.33,-0.073C0.369,-0.073 0.4,-0.082 0.422,-0.1C0.443,-0.118 0.454,-0.144 0.454,-0.179L0.454,-0.22C0.454,-0.255 0.443,-0.281 0.422,-0.299C0.4,-0.317 0.369,-0.326 0.33,-0.326L0.172,-0.326L0.172,-0.073L0.33,-0.073Z" style="fill-rule:nonzero;"/>
                        </g>
                        <g transform="matrix(48,0,0,48,118.8,180)">
                            <path d="M0.309,0.012C0.26,0.012 0.218,0.001 0.181,-0.021C0.144,-0.043 0.116,-0.074 0.097,-0.115C0.077,-0.156 0.067,-0.203 0.067,-0.257C0.067,-0.311 0.077,-0.359 0.097,-0.4C0.117,-0.441 0.145,-0.472 0.181,-0.495C0.216,-0.517 0.257,-0.528 0.304,-0.528C0.349,-0.528 0.389,-0.517 0.424,-0.496C0.459,-0.474 0.486,-0.444 0.505,-0.406C0.524,-0.368 0.533,-0.325 0.533,-0.276L0.533,-0.238L0.151,-0.238L0.151,-0.214C0.151,-0.168 0.165,-0.13 0.194,-0.101C0.223,-0.072 0.261,-0.057 0.309,-0.057C0.343,-0.057 0.373,-0.065 0.398,-0.081C0.423,-0.096 0.443,-0.118 0.457,-0.147L0.516,-0.107C0.5,-0.071 0.474,-0.042 0.438,-0.021C0.401,0.001 0.358,0.012 0.309,0.012ZM0.304,-0.462C0.275,-0.462 0.249,-0.455 0.226,-0.442C0.203,-0.428 0.184,-0.409 0.171,-0.385C0.158,-0.361 0.151,-0.334 0.151,-0.305L0.151,-0.298L0.447,-0.298L0.447,-0.309C0.447,-0.354 0.434,-0.391 0.408,-0.42C0.381,-0.448 0.347,-0.462 0.304,-0.462Z" style="fill-rule:nonzero;"/>
                        </g>
                        <g transform="matrix(48,0,0,48,147.6,180)">
                            <path d="M0.505,-0.017C0.505,0.054 0.485,0.11 0.445,0.151C0.405,0.192 0.349,0.212 0.278,0.212C0.201,0.212 0.139,0.188 0.093,0.141L0.14,0.086C0.176,0.123 0.222,0.142 0.279,0.142C0.376,0.142 0.425,0.091 0.425,-0.012L0.425,-0.098L0.421,-0.098C0.388,-0.034 0.335,-0.002 0.262,-0.002C0.199,-0.002 0.15,-0.025 0.114,-0.073C0.078,-0.12 0.06,-0.184 0.06,-0.265C0.06,-0.346 0.078,-0.411 0.114,-0.458C0.15,-0.505 0.199,-0.528 0.262,-0.528C0.335,-0.528 0.388,-0.496 0.421,-0.432L0.425,-0.432L0.425,-0.516L0.505,-0.516L0.505,-0.017ZM0.293,-0.073C0.33,-0.073 0.362,-0.082 0.387,-0.101C0.412,-0.12 0.425,-0.146 0.425,-0.179L0.425,-0.351C0.425,-0.384 0.412,-0.41 0.387,-0.429C0.362,-0.448 0.33,-0.457 0.293,-0.457C0.247,-0.457 0.211,-0.443 0.185,-0.415C0.159,-0.387 0.146,-0.349 0.146,-0.302L0.146,-0.228C0.146,-0.181 0.159,-0.143 0.185,-0.115C0.211,-0.087 0.247,-0.073 0.293,-0.073Z" style="fill-rule:nonzero;"/>
                        </g>
                        <g transform="matrix(48,0,0,48,176.4,180)">
                            <path d="M0.203,-0.74L0.203,-0.634L0.097,-0.634L0.097,-0.74L0.203,-0.74ZM0.11,-0.516L0.19,-0.516L0.19,-0L0.11,-0L0.11,-0.516Z" style="fill-rule:nonzero;"/>
                        </g>
                        <g transform="matrix(48,0,0,48,190.8,180)">
                            <path d="M0.098,-0L0.098,-0.516L0.178,-0.516L0.178,-0.432L0.182,-0.432C0.209,-0.496 0.258,-0.528 0.329,-0.528C0.384,-0.528 0.427,-0.511 0.46,-0.476C0.492,-0.441 0.508,-0.393 0.508,-0.331L0.508,-0L0.428,-0L0.428,-0.317C0.428,-0.364 0.418,-0.399 0.397,-0.422C0.376,-0.445 0.346,-0.457 0.306,-0.457C0.271,-0.457 0.241,-0.448 0.216,-0.432C0.191,-0.415 0.178,-0.39 0.178,-0.358L0.178,-0L0.098,-0Z" style="fill-rule:nonzero;"/>
                        </g>
                        <g transform="matrix(48,0,0,48,219.6,180)">
                            <path d="M0.098,-0L0.098,-0.516L0.178,-0.516L0.178,-0.432L0.182,-0.432C0.209,-0.496 0.258,-0.528 0.329,-0.528C0.384,-0.528 0.427,-0.511 0.46,-0.476C0.492,-0.441 0.508,-0.393 0.508,-0.331L0.508,-0L0.428,-0L0.428,-0.317C0.428,-0.364 0.418,-0.399 0.397,-0.422C0.376,-0.445 0.346,-0.457 0.306,-0.457C0.271,-0.457 0.241,-0.448 0.216,-0.432C0.191,-0.415 0.178,-0.39 0.178,-0.358L0.178,-0L0.098,-0Z" style="fill-rule:nonzero;"/>
                        </g>
                        <g transform="matrix(48,0,0,48,248.4,180)">
                            <path d="M0.203,-0.74L0.203,-0.634L0.097,-0.634L0.097,-0.74L0.203,-0.74ZM0.11,-0.516L0.19,-0.516L0.19,-0L0.11,-0L0.11,-0.516Z" style="fill-rule:nonzero;"/>
                        </g>
                        <g transform="matrix(48,0,0,48,262.8,180)">
                            <path d="M0.098,-0L0.098,-0.516L0.178,-0.516L0.178,-0.432L0.182,-0.432C0.209,-0.496 0.258,-0.528 0.329,-0.528C0.384,-0.528 0.427,-0.511 0.46,-0.476C0.492,-0.441 0.508,-0.393 0.508,-0.331L0.508,-0L0.428,-0L0.428,-0.317C0.428,-0.364 0.418,-0.399 0.397,-0.422C0.376,-0.445 0.346,-0.457 0.306,-0.457C0.271,-0.457 0.241,-0.448 0.216,-0.432C0.191,-0.415 0.178,-0.39 0.178,-0.358L0.178,-0L0.098,-0Z" style="fill-rule:nonzero;"/>
                        </g>
                        <g transform="matrix(48,0,0,48,291.6,180)">
                            <path d="M0.505,-0.017C0.505,0.054 0.485,0.11 0.445,0.151C0.405,0.192 0.349,0.212 0.278,0.212C0.201,0.212 0.139,0.188 0.093,0.141L0.14,0.086C0.176,0.123 0.222,0.142 0.279,0.142C0.376,0.142 0.425,0.091 0.425,-0.012L0.425,-0.098L0.421,-0.098C0.388,-0.034 0.335,-0.002 0.262,-0.002C0.199,-0.002 0.15,-0.025 0.114,-0.073C0.078,-0.12 0.06,-0.184 0.06,-0.265C0.06,-0.346 0.078,-0.411 0.114,-0.458C0.15,-0.505 0.199,-0.528 0.262,-0.528C0.335,-0.528 0.388,-0.496 0.421,-0.432L0.425,-0.432L0.425,-0.516L0.505,-0.516L0.505,-0.017ZM0.293,-0.073C0.33,-0.073 0.362,-0.082 0.387,-0.101C0.412,-0.12 0.425,-0.146 0.425,-0.179L0.425,-0.351C0.425,-0.384 0.412,-0.41 0.387,-0.429C0.362,-0.448 0.33,-0.457 0.293,-0.457C0.247,-0.457 0.211,-0.443 0.185,-0.415C0.159,-0.387 0.146,-0.349 0.146,-0.302L0.146,-0.228C0.146,-0.181 0.159,-0.143 0.185,-0.115C0.211,-0.087 0.247,-0.073 0.293,-0.073Z" style="fill-rule:nonzero;"/>
                        </g>
                    </g>
                    <g transform="matrix(1,0,0,1,1348.51,-14.48)">
                        <g transform="matrix(48,0,0,48,90,180)">
                            <path d="M0.09,-0L0.09,-0.698L0.52,-0.698L0.52,-0.625L0.174,-0.625L0.174,-0.39L0.508,-0.39L0.508,-0.317L0.174,-0.317L0.174,-0.073L0.52,-0.073L0.52,-0L0.09,-0Z" style="fill-rule:nonzero;"/>
                        </g>
                        <g transform="matrix(48,0,0,48,118.8,180)">
                            <path d="M0.098,-0L0.098,-0.516L0.178,-0.516L0.178,-0.432L0.182,-0.432C0.209,-0.496 0.258,-0.528 0.329,-0.528C0.384,-0.528 0.427,-0.511 0.46,-0.476C0.492,-0.441 0.508,-0.393 0.508,-0.331L0.508,-0L0.428,-0L0.428,-0.317C0.428,-0.364 0.418,-0.399 0.397,-0.422C0.376,-0.445 0.346,-0.457 0.306,-0.457C0.271,-0.457 0.241,-0.448 0.216,-0.432C0.191,-0.415 0.178,-0.39 0.178,-0.358L0.178,-0L0.098,-0Z" style="fill-rule:nonzero;"/>
                        </g>
                        <g transform="matrix(48,0,0,48,147.6,180)">
                            <path d="M0.425,-0.084L0.421,-0.084C0.388,-0.02 0.335,0.012 0.262,0.012C0.199,0.012 0.149,-0.012 0.114,-0.06C0.078,-0.107 0.06,-0.173 0.06,-0.258C0.06,-0.343 0.078,-0.409 0.114,-0.457C0.149,-0.504 0.199,-0.528 0.262,-0.528C0.335,-0.528 0.388,-0.496 0.421,-0.432L0.425,-0.432L0.425,-0.74L0.505,-0.74L0.505,-0L0.425,-0L0.425,-0.084ZM0.293,-0.059C0.33,-0.059 0.362,-0.068 0.387,-0.087C0.412,-0.106 0.425,-0.132 0.425,-0.165L0.425,-0.351C0.425,-0.384 0.412,-0.41 0.387,-0.429C0.362,-0.448 0.33,-0.457 0.293,-0.457C0.247,-0.457 0.211,-0.443 0.185,-0.415C0.159,-0.387 0.146,-0.349 0.146,-0.302L0.146,-0.214C0.146,-0.167 0.159,-0.129 0.185,-0.101C0.211,-0.073 0.247,-0.059 0.293,-0.059Z" style="fill-rule:nonzero;"/>
                        </g>
                    </g>
                    <g transform="matrix(1,0,0,1,206.029,-418.842)">
                        <g transform="matrix(48,0,0,48,619.267,584.362)">
                            <path d="M0.678,-0.588L0.619,-0.471L0.452,-0.167L0.286,-0.471L0.227,-0.587L0.202,-0.587L0.202,-0L0.12,-0L0.12,-0.698L0.25,-0.698L0.45,-0.322L0.454,-0.322L0.655,-0.698L0.785,-0.698L0.785,-0L0.703,-0L0.703,-0.588L0.678,-0.588Z" style="fill-rule:nonzero;"/>
                        </g>
                        <g transform="matrix(48,0,0,48,662.467,584.362)">
                            <path d="M0.203,-0.74L0.203,-0.634L0.097,-0.634L0.097,-0.74L0.203,-0.74ZM0.11,-0.516L0.19,-0.516L0.19,-0L0.11,-0L0.11,-0.516Z" style="fill-rule:nonzero;"/>
                        </g>
                        <g transform="matrix(48,0,0,48,676.867,584.362)">
                            <path d="M0.425,-0.084L0.421,-0.084C0.388,-0.02 0.335,0.012 0.262,0.012C0.199,0.012 0.149,-0.012 0.114,-0.06C0.078,-0.107 0.06,-0.173 0.06,-0.258C0.06,-0.343 0.078,-0.409 0.114,-0.457C0.149,-0.504 0.199,-0.528 0.262,-0.528C0.335,-0.528 0.388,-0.496 0.421,-0.432L0.425,-0.432L0.425,-0.74L0.505,-0.74L0.505,-0L0.425,-0L0.425,-0.084ZM0.293,-0.059C0.33,-0.059 0.362,-0.068 0.387,-0.087C0.412,-0.106 0.425,-0.132 0.425,-0.165L0.425,-0.351C0.425,-0.384 0.412,-0.41 0.387,-0.429C0.362,-0.448 0.33,-0.457 0.293,-0.457C0.247,-0.457 0.211,-0.443 0.185,-0.415C0.159,-0.387 0.146,-0.349 0.146,-0.302L0.146,-0.214C0.146,-0.167 0.159,-0.129 0.185,-0.101C0.211,-0.073 0.247,-0.059 0.293,-0.059Z" style="fill-rule:nonzero;"/>
                        </g>
                        <g transform="matrix(48,0,0,48,705.667,584.362)">
                            <path d="M0.425,-0.084L0.421,-0.084C0.388,-0.02 0.335,0.012 0.262,0.012C0.199,0.012 0.149,-0.012 0.114,-0.06C0.078,-0.107 0.06,-0.173 0.06,-0.258C0.06,-0.343 0.078,-0.409 0.114,-0.457C0.149,-0.504 0.199,-0.528 0.262,-0.528C0.335,-0.528 0.388,-0.496 0.421,-0.432L0.425,-0.432L0.425,-0.74L0.505,-0.74L0.505,-0L0.425,-0L0.425,-0.084ZM0.293,-0.059C0.33,-0.059 0.362,-0.068 0.387,-0.087C0.412,-0.106 0.425,-0.132 0.425,-0.165L0.425,-0.351C0.425,-0.384 0.412,-0.41 0.387,-0.429C0.362,-0.448 0.33,-0.457 0.293,-0.457C0.247,-0.457 0.211,-0.443 0.185,-0.415C0.159,-0.387 0.146,-0.349 0.146,-0.302L0.146,-0.214C0.146,-0.167 0.159,-0.129 0.185,-0.101C0.211,-0.073 0.247,-0.059 0.293,-0.059Z" style="fill-rule:nonzero;"/>
                        </g>
                        <g transform="matrix(48,0,0,48,734.467,584.362)">
                            <path d="M0.179,-0C0.152,-0 0.132,-0.008 0.117,-0.023C0.101,-0.038 0.094,-0.058 0.094,-0.083L0.094,-0.74L0.174,-0.74L0.174,-0.095C0.174,-0.078 0.182,-0.07 0.199,-0.07L0.25,-0.07L0.25,-0L0.179,-0Z" style="fill-rule:nonzero;"/>
                        </g>
                        <g transform="matrix(48,0,0,48,748.867,584.362)">
                            <path d="M0.309,0.012C0.26,0.012 0.218,0.001 0.181,-0.021C0.144,-0.043 0.116,-0.074 0.097,-0.115C0.077,-0.156 0.067,-0.203 0.067,-0.257C0.067,-0.311 0.077,-0.359 0.097,-0.4C0.117,-0.441 0.145,-0.472 0.181,-0.495C0.216,-0.517 0.257,-0.528 0.304,-0.528C0.349,-0.528 0.389,-0.517 0.424,-0.496C0.459,-0.474 0.486,-0.444 0.505,-0.406C0.524,-0.368 0.533,-0.325 0.533,-0.276L0.533,-0.238L0.151,-0.238L0.151,-0.214C0.151,-0.168 0.165,-0.13 0.194,-0.101C0.223,-0.072 0.261,-0.057 0.309,-0.057C0.343,-0.057 0.373,-0.065 0.398,-0.081C0.423,-0.096 0.443,-0.118 0.457,-0.147L0.516,-0.107C0.5,-0.071 0.474,-0.042 0.438,-0.021C0.401,0.001 0.358,0.012 0.309,0.012ZM0.304,-0.462C0.275,-0.462 0.249,-0.455 0.226,-0.442C0.203,-0.428 0.184,-0.409 0.171,-0.385C0.158,-0.361 0.151,-0.334 0.151,-0.305L0.151,-0.298L0.447,-0.298L0.447,-0.309C0.447,-0.354 0.434,-0.391 0.408,-0.42C0.381,-0.448 0.347,-0.462 0.304,-0.462Z" style="fill-rule:nonzero;"/>
                        </g>
                    </g>
                    <g transform="matrix(1,0,0,1,-4175,-1.52767e-13)">
                        <path d="M4680,100L4680,1000" style="fill:none;stroke:rgb(252,109,8);stroke-width:3px;"/>
                    </g>
                    <g transform="matrix(1,0,0,1,-4575,0)">
                        <path d="M4680,100L4680,1000" style="fill:none;stroke:rgb(213,213,213);stroke-width:3px;"/>
                    </g>
                    <g transform="matrix(1,0,0,1,-2975,0)">
                        <path d="M4680,100L4680,1000" style="fill:none;stroke:rgb(213,213,213);stroke-width:3px;"/>
                    </g>
                    <g transform="matrix(1,0,0,1,-3375,-1.52767e-13)">
                        <path d="M4680,100L4680,1000" style="fill:none;stroke:rgb(252,109,8);stroke-width:3px;"/>
                    </g>
                </g>
            </g>
        </g>
    </g>
</svg>
