<?xml version="1.0" encoding="UTF-8" standalone="no"?><!DOCTYPE svg PUBLIC "-//W3C//DTD SVG 1.1//EN" "http://www.w3.org/Graphics/SVG/1.1/DTD/svg11.dtd"><svg width="100%" height="100%" viewBox="0 0 187 104" version="1.1" xmlns="http://www.w3.org/2000/svg" xmlns:xlink="http://www.w3.org/1999/xlink" xml:space="preserve" xmlns:serif="http://www.serif.com/" style="fill-rule:evenodd;clip-rule:evenodd;stroke-linejoin:round;stroke-miterlimit:2;"><g><rect x="18" y="-23.5" width="151" height="151" style="fill:#fff;fill-opacity:0;"/><path d="M51.578,38.547l1.711,0c3.722,0 5.735,2.415 5.735,5.333c0,3.32 -2.012,5.634 -5.434,5.634l-2.012,0l0,-10.967Zm-3.723,10.967l-3.22,0l0,0.905l10.766,0c3.522,0 7.547,-1.911 7.547,-6.54c0,-3.622 -3.22,-5.533 -6.44,-5.734l0,-0.102c2.716,-0.2 5.434,-2.011 5.434,-5.533c0,-3.118 -2.717,-5.232 -7.546,-5.232l-9.761,0l0,0.905l3.22,0l0,21.331Zm3.723,-21.331l0.905,0c3.723,0 5.634,2.013 5.634,4.528c0,3.622 -2.515,4.93 -5.533,4.93l-1.006,0l0,-9.458Zm23.543,16.098c0,2.918 -0.301,5.735 -3.42,5.735c-3.22,0 -3.522,-2.817 -3.522,-5.735l0,-1.71c0,-2.817 0.201,-5.634 3.522,-5.634c3.321,0 3.42,2.817 3.42,5.634l0,1.71Zm-10.463,-0.804c0,4.125 2.918,7.445 7.043,7.445c4.125,0 6.942,-3.42 6.942,-7.445c0,-4.125 -2.817,-7.546 -6.942,-7.546c-4.125,0 -7.043,3.421 -7.043,7.546Zm46.583,0.804c0,2.918 -0.301,5.735 -3.421,5.735c-3.219,0 -3.52,-2.817 -3.52,-5.735l0,-1.609c0,-2.918 0.301,-5.735 3.52,-5.735c3.32,0 3.421,2.817 3.421,5.735l0,1.609Zm-10.463,-0.804c0,4.125 2.918,7.545 7.042,7.545c4.125,0 7.043,-3.521 7.043,-7.545c0,-4.125 -2.918,-7.546 -7.043,-7.546c-4.124,0 -7.042,3.421 -7.042,7.546Zm24.448,6.037l2.013,0l0,-9.861c0,-1.61 -1.108,-2.314 -2.214,-2.314c-1.51,0 -3.119,1.509 -3.823,3.019l0,9.155l2.515,0l0,0.905l-8.551,0l0,-0.905l2.716,0l0,-12.073l-2.617,0l0,-0.905l2.516,0c1.51,0 2.817,0 3.32,-0.705l0,2.717l0.101,0c1.308,-1.61 3.119,-2.717 5.131,-2.717c3.219,0 4.326,2.213 4.326,4.126l0,9.558l2.616,0l0,0.905l-8.049,0l0,-0.905Zm-39.44,-4.73c1.912,0.202 2.717,1.409 2.717,2.616c0,1.71 -1.409,2.616 -3.018,2.616c-2.919,0 -4.025,-2.616 -4.227,-4.327l-0.704,0l0.101,5.031l0.704,0c0.101,-0.503 0.202,-0.704 0.604,-0.704c0.705,0 1.509,0.905 3.622,0.905c3.119,0 5.031,-1.912 5.031,-4.83c0,-2.113 -1.207,-4.024 -3.924,-4.326l-1.61,-0.302c-2.012,-0.402 -2.817,-1.106 -2.817,-2.314c0,-1.207 1.007,-2.214 2.817,-2.214c2.113,0 3.321,1.208 3.622,3.22l0.705,0l0,-4.024l-0.705,0c0,0.301 -0.1,0.604 -0.503,0.604c-0.604,0 -1.408,-0.806 -3.119,-0.806c-2.515,0 -4.427,1.71 -4.427,4.226c0,3.019 2.013,4.226 4.125,4.426l1.006,0.203Z" style="fill:#15548b;"/><path d="M100.577,48.205c-0.404,0.604 -1.108,1.409 -2.114,1.409c-0.906,0 -1.71,-0.403 -1.71,-1.711l0,-10.463l3.824,0l0,-0.905l-3.824,0l0,-4.73l-0.604,0c-0.503,3.32 -2.414,4.73 -5.131,4.73l0,0.905l2.415,0l0,10.363c0,2.315 1.61,3.219 3.822,3.219c2.113,0 3.221,-1.107 3.824,-2.011l-0.502,-0.806Zm23.341,25.053l-3.118,0l0,1.006l9.357,0l0,-1.006l-2.515,0l0,-16.801c-0.805,0.804 -2.013,0.905 -3.32,0.905l-3.12,0l0,1.005l2.716,0l0,14.891l0,0Zm-59.26,0l-3.119,0l0,1.006l9.458,0l0,-1.006l-2.616,0l0,-16.801c-0.704,0.804 -2.012,0.905 -3.219,0.905l-3.121,0l0,1.005l2.616,0l0,14.891l0.001,0Zm70.126,0l-3.018,0l0,1.006l9.558,0l0,-1.006l-2.817,0l0,-14.992l6.74,0l0,14.992l-2.513,0l0,1.006l9.254,0l0,-1.006l-3.019,0l0,-16.801c-0.703,0.804 -2.113,0.905 -3.32,0.905l-7.142,0l0,-5.635c0,-3.822 1.408,-6.842 5.532,-6.842c1.711,0 2.918,0.705 2.918,1.409c0,0.503 -0.402,0.704 -0.804,0.905c-0.504,0.202 -0.906,0.805 -0.906,1.509c0,1.107 1.007,1.811 1.811,1.811c1.309,0 2.214,-1.005 2.214,-2.514c0,-1.811 -1.811,-4.125 -5.533,-4.125c-6.641,0 -8.956,5.533 -8.956,10.664l0,2.819l-3.419,0l0,0.904l3.419,0l0,14.991l0.001,0Zm-99.807,-11.369c4.125,0.906 5.936,3.421 5.936,6.137c0,3.219 -2.414,5.835 -6.238,5.835c-3.823,0 -7.546,-3.218 -8.15,-9.76l-1.006,0l0,10.464l1.006,0c0.101,-0.704 0.403,-1.207 1.208,-1.207c1.509,0 3.119,1.61 7.043,1.61c5.634,0 8.753,-3.521 8.753,-8.954c0,-4.226 -2.012,-7.346 -7.445,-8.754l-2.112,-0.504c-4.83,-1.105 -6.239,-3.42 -6.239,-5.734c0,-3.219 2.416,-5.333 5.333,-5.333c4.528,0 7.143,3.823 7.747,8.451l1.107,0l0,-8.651l-1.006,0c-0.101,0.502 -0.403,1.106 -1.207,1.106c-1.409,0 -2.516,-2.112 -6.741,-2.112c-4.226,0 -7.546,3.22 -7.546,7.948c0,5.031 2.415,7.748 7.546,8.955l2.011,0.503Zm76.365,9.156c0,2.918 1.911,3.923 4.426,3.923c3.019,0 4.024,-1.711 4.426,-2.716l-0.703,-0.604c-0.504,0.906 -1.309,1.912 -2.615,1.912c-1.007,0 -1.811,-0.504 -1.811,-2.113l0,-13.181l4.426,0l0,-0.904l-4.426,0l0,-5.233l-0.705,0c-0.604,4.026 -2.514,5.233 -6.137,5.233l0,0.904l3.119,0l0,12.779Zm-11.873,2.213l2.718,0l0,-12.576c0,-2.013 -1.007,-2.818 -2.416,-2.818c-2.414,0 -4.225,2.414 -5.13,3.623l0,11.77l2.916,0l0,1.006l-9.557,0l0,-1.006l2.918,0l0,-14.992l-2.918,0l0,-0.904l3.118,0c1.812,0 2.717,0 3.421,-0.905l0,3.32l0.102,0c0.804,-1.007 2.716,-3.32 6.035,-3.32c3.523,0 5.333,2.313 5.333,5.13l0,11.671l2.918,0l0,1.006l-9.457,0l0,-1.005l-0.001,0Zm-40.043,-4.528c-0.403,2.112 -2.113,4.83 -5.031,4.83c-2.818,0 -4.226,-1.711 -4.226,-5.534l0,-3.925c0,-3.722 1.408,-6.438 4.427,-6.438c1.811,0 2.918,0.905 2.918,1.61c0,0.403 -0.302,0.604 -0.503,0.905c-0.301,0.302 -0.503,0.704 -0.503,1.309c0,0.804 0.604,1.711 1.811,1.711c1.107,0 2.013,-0.906 2.013,-2.315c0,-2.012 -2.415,-4.227 -6.037,-4.227c-4.628,0 -8.25,3.622 -8.25,9.157c0,5.03 2.515,9.156 7.948,9.156c3.623,0 6.037,-3.018 6.439,-6.239l-1.006,0l0,0Zm106.246,-0.1c-0.402,2.212 -2.113,4.93 -4.93,4.93c-2.918,0 -4.226,-1.711 -4.226,-5.635l0,-3.824c0,-3.823 1.308,-6.539 4.428,-6.539c1.81,0 2.817,1.006 2.817,1.711c0,0.403 -0.202,0.604 -0.504,0.905c-0.2,0.302 -0.504,0.604 -0.504,1.208c0,0.905 0.705,1.71 1.812,1.71c1.106,0 2.011,-0.905 2.011,-2.314c0,-2.012 -2.313,-4.126 -6.036,-4.126c-4.628,0 -8.15,3.622 -8.15,9.157c0,5.03 2.516,9.156 7.848,9.156c3.723,0 6.037,-3.018 6.541,-6.338l-1.107,0l0,-0.001Zm-82.602,-5.736c0,0.202 -0.101,0.304 -0.303,0.304l-6.439,0l0,-1.209c0,-2.716 1.408,-4.426 3.421,-4.426c2.113,0 3.321,1.609 3.321,4.426l0,0.905Zm2.515,5.736c-0.503,2.415 -2.213,4.93 -5.031,4.93c-2.716,0 -4.225,-1.711 -4.225,-5.233l0,-4.024l10.262,0c0.202,0 0.302,-0.101 0.302,-0.403l0,-0.604c0,-2.615 -2.214,-6.64 -7.144,-6.64c-4.325,0 -7.545,4.326 -7.545,9.156c0,5.734 3.22,9.156 7.647,9.156c3.521,0 6.137,-2.516 6.74,-6.338l-1.006,0Z" style="fill:#15548b;"/></g></svg>