<?xml version="1.0" encoding="UTF-8" standalone="no"?><!DOCTYPE svg PUBLIC "-//W3C//DTD SVG 1.1//EN" "http://www.w3.org/Graphics/SVG/1.1/DTD/svg11.dtd"><svg width="100%" height="100%" viewBox="0 0 187 104" version="1.1" xmlns="http://www.w3.org/2000/svg" xmlns:xlink="http://www.w3.org/1999/xlink" xml:space="preserve" xmlns:serif="http://www.serif.com/" style="fill-rule:evenodd;clip-rule:evenodd;stroke-linejoin:round;stroke-miterlimit:2;"><g id="g11"><path id="path233" d="M58.249,59.942c-0.351,0.371 -1.306,0.507 -1.575,0.932c-0.409,0.641 -1.349,2.1 -2.083,2.796c-2.369,2.249 -7.441,3.38 -9.942,1.231c-0.164,0.012 -0.07,0.107 0.128,0.722c0.182,1.163 1.119,3.894 0.773,4.591c0.225,0.775 0.459,0.491 0.886,0.922c0.29,0.291 0.409,1.051 0.742,1.256c0.381,-0.026 0.763,-0.054 1.144,-0.08c0.067,0.212 0.14,0.425 0.208,0.641c0.487,-0.035 0.978,-0.071 1.468,-0.106c0.275,0.063 1.107,0.492 1.351,0.559c0.544,-0.039 1.087,-0.076 1.629,-0.113c1.245,0.332 2.332,-0.188 3.382,-0.898c0.585,-0.392 1.226,-0.33 1.746,-0.774c0.753,-0.647 1.78,-1.91 2.261,-2.784c1.178,-2.14 0.777,-7.268 -0.29,-8.535c-0.418,-0.457 -0.912,-0.465 -1.828,-0.36m9.853,-1.405c-0.884,0.676 -1.254,0.509 -1.771,1.553c-0.055,0 0.077,0.156 0.026,0.156c0.526,1.052 1.732,1.474 2.62,2.213c0.275,0.234 1.024,1.533 1.38,1.626c0.4,0.477 0.66,1.795 0.922,1.795c0.271,0.371 -0.024,1.243 0.242,1.583c0.017,1.564 -0.199,1.672 -0.471,1.973c0,0.108 0.149,0.392 0.149,0.498c0.073,0.074 0.702,0.525 0.974,0.47c0.851,0.024 4.338,2.746 4.615,3.271c2.501,0.187 2.32,-0.577 4.045,-1.309c0.466,-0.201 0.839,-0.01 1.144,-0.329c0.321,-0.327 0.346,-0.972 0.654,-1.308c0.041,-6.152 -8.329,-11.98 -14.529,-12.192m6.793,-13c-3.099,0.466 -4.993,1.456 -6.165,2.266c-0.819,0.571 -1.057,0.952 -1.23,1.193c-0.18,0.24 -0.299,0.771 -0.212,1.331c0.09,0.555 0.318,1.146 0.801,1.477c3.805,-0.282 10.414,-0.522 11.7,2.675c0.068,0.446 0.17,0.715 0.178,0.821c1.261,-0.312 0.338,-0.202 2.196,0.088c0.424,0.067 1.473,-0.169 2.168,-0.34c0.316,-0.073 0.496,-0.359 0.496,-0.359c0,0 -0.061,-0.305 -0.044,-0.472c0,0 0.652,0.05 0.918,-0.156c1.761,-0.284 0.836,-1.111 1.666,-2.045c-0.498,-5.976 -6.631,-7.364 -12.472,-6.479m-23.598,10.897c0.682,-0.175 1.843,-0.266 2.451,-0.569c0.971,-0.485 4.301,-2.814 3.24,-4.711c-0.325,-3.995 -5.147,-0.619 -7.202,-2.02c-2.077,-0.268 -4.412,-4.196 -5.037,-5.881c-0.243,-0.665 -0.144,-0.438 -0.477,-0.964c0.002,-0.054 -0.212,0.181 -0.21,0.128c-0.606,0.706 -0.502,1.325 -0.597,3.049c-0.273,-0.018 -0.544,-0.033 -0.817,-0.052c-0.052,0.626 -0.115,0.965 -0.407,1.288c-0.059,0.107 -0.121,0.208 -0.182,0.316c-0.518,-0.173 -0.258,0.072 -0.468,-0.361c-1.912,0.097 -1.771,2.02 -2.65,3.111c0.039,3.591 7.141,8.017 12.356,6.666m13.838,-19.516c0.165,-1.356 -0.037,-3.337 1.033,-4.27c0.314,-1.447 2.593,-1.109 2.237,-2.031c-0.221,-0.577 -1.29,-0.301 -1.723,-0.195c-0.33,0.078 -3.452,1.065 -4.652,1.199c-0.509,-0.141 -1.018,-0.281 -1.525,-0.424c-1.962,0.264 -3.092,1.823 -4.181,3.062c-0.914,1.037 -2.153,3.582 -1.167,5.104c-0.055,0.332 -0.111,0.665 -0.165,0.999l2.226,3.252c0.769,0.553 0.871,0.962 1.698,1.505c0.171,0.256 0.34,0.512 0.511,0.769c0.675,0.444 2.672,0.45 3.006,0.16c3.211,0.299 2.863,-6.2 3.881,-7.566c-0.129,-0.613 -0.668,-1.25 -1.179,-1.564" style="fill:#f1471c;"/><path id="path237" d="M116.79,61.001c2.844,0 5.156,-0.939 5.156,-5.961c0,-4.273 -2.312,-5.693 -5.156,-5.693l-1.492,0l0,11.654l1.492,0Zm1.508,-15.042c5.147,0 8.631,3.255 8.631,9.081c0,7.319 -4.783,9.487 -9.798,9.487l-6.712,0c0.024,-0.407 0,-1.49 0,-2.848l0,-12.874c0,-1.355 0.024,-2.222 0,-2.846" style="fill:#13356d;fill-rule:nonzero;"/><path id="path241" d="M134.227,61.679c0,1.358 0.068,2.848 0.068,2.848l-4.979,0c0,0 0.033,-1.49 0.033,-2.848l0,-12.876c0,-1.356 -0.033,-2.843 -0.033,-2.843l11.77,0l0,3.592c0,0 -2.632,-0.067 -3.524,-0.067l-3.335,0l0,3.74l3.335,0.034c0.624,0 2.772,-0.034 2.772,-0.034l0,3.422c0,0 -1.905,-0.052 -2.772,-0.052l-3.335,0.019" style="fill:#13356d;fill-rule:nonzero;"/><path id="path245" d="M96.339,52.976c0.074,-1.075 0.457,-3.569 3.17,-3.569c2.781,0 2.933,2.343 2.933,3.584l0,0.249c0,0 -1.859,0.052 -2.967,0.052c-1.109,0 -3.154,-0.052 -3.154,-0.052l0.018,-0.264Zm4.142,7.798c-2.34,0 -4.142,-1.576 -4.142,-4.039l0,-0.21c0,0 4.35,-0.106 5.825,-0.106c2.508,0 3.543,-0.024 5.52,-0.05l0,-1.401c0,-6.325 -2.683,-9.405 -8.209,-9.405c-2.547,0 -8.47,0.957 -8.47,9.817c0,5.912 2.984,9.444 8.201,9.444c4.095,0 6.609,-1.046 8.431,-2.376c-0.206,-0.308 -1.73,-3.049 -1.93,-3.348c-1.094,0.834 -2.897,1.674 -5.226,1.674" style="fill:#13356d;fill-rule:nonzero;"/></g></svg>