<?xml version="1.0" encoding="UTF-8" standalone="no"?><!DOCTYPE svg PUBLIC "-//W3C//DTD SVG 1.1//EN" "http://www.w3.org/Graphics/SVG/1.1/DTD/svg11.dtd"><svg width="100%" height="100%" viewBox="0 0 187 104" version="1.1" xmlns="http://www.w3.org/2000/svg" xmlns:xlink="http://www.w3.org/1999/xlink" xml:space="preserve" xmlns:serif="http://www.serif.com/" style="fill-rule:evenodd;clip-rule:evenodd;stroke-linejoin:round;stroke-miterlimit:2;"><clipPath id="_clip1"><rect x="54.5" y="13" width="78" height="78"/></clipPath><g clip-path="url(#_clip1)"><g id="g5237"><rect id="path6470" x="54.5" y="13" width="78" height="78.001" style="fill:#ed1c24;"/><g id="text6472"><path id="path5216" d="M65.025,47.552c1.371,0 2.225,-0.559 2.953,-1.343l-0.476,-0.42c-0.588,0.63 -1.343,1.12 -2.449,1.12c-1.399,0 -2.672,-1.036 -2.798,-2.813l5.918,0c0.014,-0.112 0.014,-0.154 0.014,-0.279c0,-2.113 -1.273,-3.736 -3.274,-3.736c-1.931,0 -3.386,1.651 -3.386,3.722l0,0.028c0,2.224 1.623,3.721 3.498,3.721Zm-2.77,-4.071c0.126,-1.581 1.217,-2.771 2.63,-2.771c1.637,0 2.463,1.33 2.561,2.771l-5.191,0Z" style="fill:#fff;fill-rule:nonzero;"/><path id="path5218" d="M69.475,47.385l0.685,0l0,-4.114c0,-1.441 1.008,-2.561 2.281,-2.561c1.273,0 2.085,0.91 2.085,2.393l0,4.282l0.685,0l0,-4.156c0,-1.595 1.05,-2.519 2.253,-2.519c1.315,0 2.113,0.896 2.113,2.435l0,4.24l0.686,0l0,-4.324c0,-1.791 -1.05,-2.98 -2.743,-2.98c-1.343,0 -2.113,0.741 -2.574,1.539c-0.392,-0.826 -1.162,-1.539 -2.407,-1.539c-1.273,0 -1.917,0.699 -2.379,1.441l0,-1.273l-0.685,0l0,7.136Z" style="fill:#fff;fill-rule:nonzero;"/></g><g id="text6476"><rect id="path5179" x="61.765" y="49.217" width="2.127" height="10.214" style="fill:#fff;"/><path id="path5181" d="M66.858,61.712c1.273,0 1.889,-0.573 2.463,-2.098l2.882,-7.682l-2.211,0l-1.637,5.107l-1.707,-5.107l-2.252,0l2.938,7.528c-0.182,0.377 -0.378,0.489 -0.742,0.489c-0.28,0 -0.629,-0.126 -0.909,-0.293l-0.714,1.539c0.546,0.321 1.12,0.517 1.889,0.517Z" style="fill:#fff;fill-rule:nonzero;"/><path id="path5183" d="M75.897,59.6c2.337,0 4.072,-1.749 4.072,-3.904l0,-0.028c0,-2.155 -1.721,-3.876 -4.044,-3.876c-2.337,0 -4.072,1.749 -4.072,3.904l0,0.028c0,2.155 1.721,3.876 4.044,3.876Zm0.028,-1.833c-1.175,0 -1.973,-0.966 -1.973,-2.071l0,-0.028c0,-1.106 0.728,-2.043 1.945,-2.043c1.175,0 1.973,0.965 1.973,2.071l0,0.028c0,1.105 -0.728,2.043 -1.945,2.043Z" style="fill:#fff;fill-rule:nonzero;"/><path id="path5185" d="M80.682,59.432l2.127,0l0,-4.184c0,-1.007 0.518,-1.525 1.329,-1.525c0.812,0 1.288,0.518 1.288,1.525l0,4.184l2.127,0l0,-4.856c0,-1.721 -0.938,-2.784 -2.547,-2.784c-1.078,0 -1.707,0.574 -2.197,1.203l0,-1.063l-2.127,0l0,7.5Z" style="fill:#fff;fill-rule:nonzero;"/><path id="path5187" d="M66.131,71.619c1.777,0 3.414,-1.371 3.414,-3.876l0,-0.028c0,-2.505 -1.665,-3.876 -3.414,-3.876c-1.106,0 -1.819,0.518 -2.337,1.217l0,-3.791l-2.127,0l0,10.214l2.127,0l0,-0.98c0.504,0.602 1.203,1.12 2.337,1.12Zm-0.546,-1.805c-0.994,0 -1.819,-0.826 -1.819,-2.071l0,-0.028c0,-1.245 0.825,-2.071 1.819,-2.071c0.993,0 1.833,0.826 1.833,2.071l0,0.028c0,1.259 -0.84,2.071 -1.833,2.071Z" style="fill:#fff;fill-rule:nonzero;"/><path id="path5189" d="M72.777,71.619c1.077,0 1.707,-0.574 2.197,-1.204l0,1.064l2.126,0l0,-7.5l-2.126,0l0,4.184c0,1.007 -0.518,1.525 -1.33,1.525c-0.811,0 -1.287,-0.518 -1.287,-1.525l0,-4.184l-2.127,0l0,4.855c0,1.721 0.938,2.785 2.547,2.785Z" style="fill:#fff;fill-rule:nonzero;"/><path id="path5191" d="M80.808,71.619c1.623,0 2.869,-0.756 2.869,-2.421l0,-0.028c0,-1.371 -1.218,-1.875 -2.267,-2.225c-0.812,-0.279 -1.525,-0.475 -1.525,-0.895l0,-0.028c0,-0.294 0.266,-0.518 0.783,-0.518c0.546,0 1.288,0.266 2.029,0.7l0.812,-1.469c-0.812,-0.546 -1.847,-0.868 -2.799,-0.868c-1.511,0 -2.742,0.854 -2.742,2.379l0,0.028c0,1.455 1.189,1.945 2.239,2.252c0.825,0.252 1.553,0.406 1.553,0.868l0,0.028c0,0.336 -0.28,0.56 -0.896,0.56c-0.699,0 -1.553,-0.308 -2.364,-0.896l-0.91,1.399c0.994,0.784 2.169,1.134 3.218,1.134Z" style="fill:#fff;fill-rule:nonzero;"/><path id="path5193" d="M84.418,63.154l2.239,0l0,-1.889l-2.239,0l0,1.889Zm0.056,8.325l2.127,0l0,-7.5l-2.127,0l0,7.5Z" style="fill:#fff;fill-rule:nonzero;"/><path id="path5195" d="M87.776,71.479l2.127,0l0,-4.184c0,-1.007 0.518,-1.525 1.329,-1.525c0.812,0 1.288,0.518 1.288,1.525l0,4.184l2.126,0l0,-4.855c0,-1.721 -0.937,-2.785 -2.546,-2.785c-1.077,0 -1.707,0.574 -2.197,1.204l0,-1.064l-2.127,0l0,7.5Z" style="fill:#fff;fill-rule:nonzero;"/><path id="path5197" d="M99.222,71.647c1.357,0 2.365,-0.532 3.064,-1.399l-1.217,-1.078c-0.588,0.546 -1.106,0.77 -1.819,0.77c-0.952,0 -1.623,-0.504 -1.833,-1.469l5.219,0c0.014,-0.196 0.028,-0.392 0.028,-0.56c0,-2.127 -1.147,-4.072 -3.652,-4.072c-2.183,0 -3.708,1.763 -3.708,3.904l0,0.028c0,2.295 1.665,3.876 3.918,3.876Zm-1.833,-4.506c0.168,-0.965 0.742,-1.595 1.623,-1.595c0.896,0 1.455,0.644 1.581,1.595l-3.204,0Z" style="fill:#fff;fill-rule:nonzero;"/><path id="path5199" d="M106.05,71.619c1.623,0 2.868,-0.756 2.868,-2.421l0,-0.028c0,-1.371 -1.217,-1.875 -2.266,-2.225c-0.812,-0.279 -1.525,-0.475 -1.525,-0.895l0,-0.028c0,-0.294 0.265,-0.518 0.783,-0.518c0.546,0 1.287,0.266 2.029,0.7l0.811,-1.469c-0.811,-0.546 -1.846,-0.868 -2.798,-0.868c-1.511,0 -2.742,0.854 -2.742,2.379l0,0.028c0,1.455 1.189,1.945 2.238,2.252c0.826,0.252 1.553,0.406 1.553,0.868l0,0.028c0,0.336 -0.279,0.56 -0.895,0.56c-0.7,0 -1.553,-0.308 -2.365,-0.896l-0.909,1.399c0.993,0.784 2.169,1.134 3.218,1.134Z" style="fill:#fff;fill-rule:nonzero;"/><path id="path5201" d="M112.095,71.619c1.623,0 2.868,-0.756 2.868,-2.421l0,-0.028c0,-1.371 -1.217,-1.875 -2.267,-2.225c-0.811,-0.279 -1.525,-0.475 -1.525,-0.895l0,-0.028c0,-0.294 0.266,-0.518 0.784,-0.518c0.545,0 1.287,0.266 2.028,0.7l0.812,-1.469c-0.812,-0.546 -1.847,-0.868 -2.798,-0.868c-1.512,0 -2.743,0.854 -2.743,2.379l0,0.028c0,1.455 1.189,1.945 2.239,2.252c0.825,0.252 1.553,0.406 1.553,0.868l0,0.028c0,0.336 -0.28,0.56 -0.895,0.56c-0.7,0 -1.554,-0.308 -2.365,-0.896l-0.91,1.399c0.994,0.784 2.169,1.134 3.219,1.134Z" style="fill:#fff;fill-rule:nonzero;"/><path id="path5203" d="M64.298,83.666c1.623,0 2.868,-0.756 2.868,-2.421l0,-0.028c0,-1.371 -1.217,-1.875 -2.267,-2.224c-0.811,-0.28 -1.525,-0.476 -1.525,-0.896l0,-0.028c0,-0.294 0.266,-0.518 0.784,-0.518c0.545,0 1.287,0.266 2.029,0.7l0.811,-1.469c-0.811,-0.546 -1.847,-0.868 -2.798,-0.868c-1.511,0 -2.743,0.854 -2.743,2.379l0,0.028c0,1.455 1.19,1.945 2.239,2.253c0.825,0.252 1.553,0.405 1.553,0.867l0,0.028c0,0.336 -0.28,0.56 -0.895,0.56c-0.7,0 -1.554,-0.308 -2.365,-0.896l-0.91,1.4c0.994,0.783 2.169,1.133 3.219,1.133Z" style="fill:#fff;fill-rule:nonzero;"/><path id="path5205" d="M71.406,83.694c1.497,0 2.336,-0.574 3.064,-1.371l-1.245,-1.26c-0.518,0.49 -1.008,0.798 -1.721,0.798c-1.162,0 -1.903,-0.923 -1.903,-2.071l0,-0.028c0,-1.105 0.755,-2.043 1.819,-2.043c0.755,0 1.231,0.322 1.707,0.826l1.301,-1.399c-0.7,-0.784 -1.581,-1.26 -2.994,-1.26c-2.295,0 -3.932,1.763 -3.932,3.904l0,0.028c0,2.141 1.651,3.876 3.904,3.876Z" style="fill:#fff;fill-rule:nonzero;"/><path id="path5207" d="M75.03,83.526l2.126,0l0,-4.184c0,-1.007 0.518,-1.525 1.33,-1.525c0.811,0 1.287,0.518 1.287,1.525l0,4.184l2.127,0l0,-4.855c0,-1.721 -0.938,-2.785 -2.547,-2.785c-1.077,0 -1.707,0.574 -2.197,1.204l0,-3.778l-2.126,0l0,10.214Z" style="fill:#fff;fill-rule:nonzero;"/><path id="path5209" d="M86.601,83.694c2.337,0 4.072,-1.749 4.072,-3.904l0,-0.028c0,-2.155 -1.721,-3.876 -4.044,-3.876c-2.337,0 -4.072,1.749 -4.072,3.904l0,0.028c0,2.155 1.721,3.876 4.044,3.876Zm0.028,-1.833c-1.175,0 -1.973,-0.965 -1.973,-2.071l0,-0.028c0,-1.105 0.728,-2.043 1.945,-2.043c1.175,0 1.973,0.966 1.973,2.071l0,0.028c0,1.105 -0.728,2.043 -1.945,2.043Z" style="fill:#fff;fill-rule:nonzero;"/><path id="path5211" d="M95.066,83.694c2.337,0 4.072,-1.749 4.072,-3.904l0,-0.028c0,-2.155 -1.721,-3.876 -4.044,-3.876c-2.336,0 -4.071,1.749 -4.071,3.904l0,0.028c0,2.155 1.721,3.876 4.043,3.876Zm0.028,-1.833c-1.175,0 -1.973,-0.965 -1.973,-2.071l0,-0.028c0,-1.105 0.728,-2.043 1.945,-2.043c1.176,0 1.973,0.966 1.973,2.071l0,0.028c0,1.105 -0.728,2.043 -1.945,2.043Z" style="fill:#fff;fill-rule:nonzero;"/><rect id="path5213" x="99.95" y="73.312" width="2.127" height="10.214" style="fill:#fff;"/></g></g></g></svg>