<svg clip-rule="evenodd" fill-rule="evenodd" stroke-linecap="round" stroke-linejoin="round" stroke-miterlimit="1.41421" viewBox="0 0 240 240" xmlns="http://www.w3.org/2000/svg"><g fill="none"><path d="m0 0h240v240h-240z"/><g stroke="#808080"><path d="m155.12 163.114v55.919" stroke-width="2.5"/><path d="m122.163 220h65.913" stroke-width="2.5"/><path d="m100.233 101.42v-37.122h109.767v98.816h-109.767v-45.483" stroke-width="2.5"/><path d="m118.714 148.466h72.808" stroke-width="2.5"/><path d="m73.14 102.418 55.888-.003 7.551 10.248-55.872 6.572" stroke-width="5"/><path d="m85.158 220h-11.789" stroke-width="5"/><path d="m58.146 219.997 5.521-55.649" stroke-width="5"/><path d="m73.14 102.418h-9.137v.003h-24.366" stroke-width="5"/><path d="m26.8 163.114h13.248l4.96 56.886h12.997v-.003h.141" stroke-width="5"/><path d="m40.048 163.114 13.196-42.31" stroke-width="5"/><path d="m73.724 76.85c0 6.933-5.785 12.558-12.913 12.558-7.134 0-12.916-5.625-12.916-12.558 0-6.943 5.782-12.552 12.916-12.552 7.128 0 12.913 5.609 12.913 12.552z" stroke-width="5"/><path d="m39.637 102.421-12.837 60.693" stroke-width="5"/><path d="m73.14 102.418h-9.137v.003h-24.366" stroke-width="5"/><path d="m80.707 119.235 4.451 100.765" stroke-width="5"/></g></g></svg>