<svg clip-rule="evenodd" fill-rule="evenodd" stroke-linecap="round" stroke-linejoin="round" stroke-miterlimit="1.5" viewBox="0 0 240 240" xmlns="http://www.w3.org/2000/svg"><g fill="none"><path d="m0 0h240v240h-240z"/><path d="m115.541 62.07c.688-1.868 2.468-3.108 4.459-3.108s3.771 1.24 4.459 3.108l18.999 51.534 54.883 2.144c1.989.078 3.719 1.388 4.334 3.281.616 1.893-.014 3.969-1.578 5.202l-43.14 33.994 14.92 52.859c.54 1.916-.17 3.966-1.781 5.136-1.61 1.17-3.78 1.212-5.435.106l-45.661-30.524-45.661 30.524c-1.655 1.106-3.825 1.064-5.435-.106-1.611-1.17-2.321-3.22-1.781-5.136l14.92-52.859-43.14-33.994c-1.564-1.233-2.194-3.309-1.578-5.202.615-1.893 2.345-3.203 4.334-3.281l54.883-2.144z" stroke="#808080" stroke-width="5"/></g></svg>