<svg clip-rule="evenodd" fill-rule="evenodd" stroke-linecap="round" stroke-linejoin="round" stroke-miterlimit="2" viewBox="0 0 240 240" xmlns="http://www.w3.org/2000/svg"><g fill="none"><path d="m0 0h240v240h-240z"/><g stroke="#808080"><path d="m186.142 118.044-85.248 85.257s-6.749 1.522-20.915-12.644c-15.482-15.482-13.804-22.076-13.804-22.076l85.262-85.248" stroke-width="3"/><path d="m186.142 118.044-85.248 85.257" stroke-width="5"/><path d="m66.175 168.581 85.262-85.248" stroke-width="5"/><path d="m66.028 168.693-12.561 47.393 47.309-12.639" stroke-width="5"/><path d="m186.142 118.044-6.022-14.002-14.577-14.578-14.106-6.131 6.456 15.537 12.71 12.71z" stroke-width="3"/><path d="m186.142 118.044-6.022-14.002-14.577-14.578-14.106-6.131" stroke-width="5"/><path d="m137.762 97.009 6.455 15.536 12.711 12.71 15.539 6.465" stroke-width="3"/><path d="m59.745 192.388s3.839 12.992 17.38 17.377" stroke-width="3"/><path d="m144.071 112.691-70.708 70.706" stroke-width="3"/><path d="m156.784 125.402-70.708 70.708" stroke-width="3"/></g></g></svg>