<svg clip-rule="evenodd" fill-rule="evenodd" stroke-linecap="round" stroke-linejoin="round" stroke-miterlimit="1.41421" viewBox="0 0 240 240" xmlns="http://www.w3.org/2000/svg"><g fill="none"><path d="m0 0h240v240h-240z"/><g stroke="#808080"><path d="m134.711 185.069c5.641 2.704 12.456 5.176 14.543 10.748 1.417 3.792 2.769 9.034 3.455 13.551.049.164.076.329.076.494 0 .033-.01.066-.014.099.004.066.014.099.014.132-.037 4.682-15.09 8.44-34.387 8.77-1.345.066-2.724.099-4.158.066l2.031.033c-1.434-.033-2.812-.066-4.154-.132-19.287-.66-34.278-4.649-34.239-9.331 0-.032.007-.065.01-.131-.003-.033-.01-.066-.01-.099.004-.165.037-.33.096-.528.748-4.484 2.179-9.726 3.66-13.451 2.054-5.209 8.245-7.616 13.705-10.056" stroke-width="5"/><path d="m134.239 155.496c-.042-10.386-8.499-18.859-18.891-18.925h-.036c-10.386.066-18.839 8.539-18.892 18.892-.323.329-.606.659-.844 1.088-1.483 2.571-.807 6.923.666 9.462 1.092 1.912 2.443 2.67 3.545 2.967 2.354 5.308 7.454 14.078 15.531 14.144 8.088-.066 13.195-8.803 15.549-14.144 3.475-.857 5.054-5.44 5.054-8.803.003-2.209-.683-3.758-1.682-4.681z" stroke-width="5"/><path d="m68.367 198.949c-7.042-.758-13.824-2.604-13.851-7.187v-.165c0-.231.033-.494.096-.758.471-2.901 1.362-6.264 2.331-8.77 1.091-2.868 3.247-4.813 5.859-6.264l9.501-5.374" stroke-width="3"/><path d="m87.66 144.022c-2.001-1.285-4.381-2.044-6.95-2.044-2.723 0-5.426.891-7.619 2.506-5.252 3.89-5.117 10.946-3.808 16.682 1.24 5.44 5.018 12.595 11.431 12.628 1.853 0 3.656-.726 5.097-1.88" stroke-width="3"/><path d="m162.089 198.949c7.039-.758 13.82-2.604 13.85-7.187v-.165c0-.231-.036-.494-.099-.758-.471-2.901-1.358-6.264-2.328-8.77-1.094-2.868-3.247-4.813-5.858-6.264l-9.502-5.374" stroke-width="3"/><path d="m142.792 144.022c2.004-1.285 4.381-2.044 6.953-2.044 2.723 0 5.427.891 7.616 2.506 5.255 3.89 5.117 10.946 3.808 16.682-1.24 5.44-5.018 12.595-11.431 12.628-1.853 0-3.656-.726-5.093-1.88" stroke-width="3"/><path d="m105.8 82.733c6.558 3.494 12.093 8.637 16.063 14.869" stroke-width="3"/><path d="m184.442 179.431c16.168-3.329 28.357-17.638 28.357-34.782 0-14.012-8.17-26.046-19.907-31.816.339-2.307.573-4.615.573-6.989 0-25.881-20.998-46.882-46.888-46.882-17.494 0-32.716 9.594-40.777 23.771-5.918-3.067-12.611-4.814-19.729-4.814-23.734 0-42.985 19.254-42.985 42.992 0 2.077.198 4.121.481 6.132.066.594.165 1.187.287 1.781.043.263.059.494.106.725-9.802 3.791-16.759 13.287-16.759 24.43 0 11.77 7.774 21.727 18.457 25.024" stroke-width="5"/><path d="m148.594 123.549c1.036-1.385 2.173-2.704 3.399-3.957 6.433-6.429 15.325-10.418 25.146-10.418 5.644 0 10.989 1.319 15.746 3.659" stroke-width="3"/><path d="m54.968 150.188c-5.413-5.638-9.307-12.726-11.008-20.639" stroke-width="3"/></g></g></svg>