<?xml version="1.0" encoding="UTF-8" standalone="no"?>
<!DOCTYPE svg PUBLIC "-//W3C//DTD SVG 1.1//EN" "http://www.w3.org/Graphics/SVG/1.1/DTD/svg11.dtd">
<svg width="100%" height="100%" viewBox="0 0 1920 1080" version="1.1" xmlns="http://www.w3.org/2000/svg" xmlns:xlink="http://www.w3.org/1999/xlink" xml:space="preserve" xmlns:serif="http://www.serif.com/" style="fill-rule:evenodd;clip-rule:evenodd;stroke-linecap:round;stroke-linejoin:round;stroke-miterlimit:1.5;">
    <g transform="matrix(1,0,0,1,-4080,-1200)">
        <g transform="matrix(1,0,0,1,4080,1200)">
            <rect id="atr-with-postits" x="0" y="0" width="1920" height="1080" style="fill:none;"/>
            <clipPath id="_clip1">
                <rect id="atr-with-postits1" serif:id="atr-with-postits" x="0" y="0" width="1920" height="1080"/>
            </clipPath>
            <g clip-path="url(#_clip1)">
                <g>
                    <g transform="matrix(0.6875,0,0,0.6875,-2270,-807.5)">
                        <path d="M4880,1600L4840,1640L4720,1640L4720,1480L4880,1480L4880,1600Z" style="fill:rgb(255,251,127);"/>
                    </g>
                    <g transform="matrix(-0.6875,-8.41945e-17,8.41945e-17,-0.6875,4522.5,1365)">
                        <path d="M5000,1560L5040,1520L5040,1560L5000,1560Z" style="fill:rgb(185,180,42);"/>
                    </g>
                </g>
                <g transform="matrix(1,0,0,1,125,25)">
                    <g transform="matrix(0.6875,0,0,0.6875,-2270,-807.5)">
                        <path d="M4880,1600L4840,1640L4720,1640L4720,1480L4880,1480L4880,1600Z" style="fill:rgb(255,251,127);"/>
                    </g>
                    <g transform="matrix(-0.6875,-8.41945e-17,8.41945e-17,-0.6875,4522.5,1365)">
                        <path d="M5000,1560L5040,1520L5040,1560L5000,1560Z" style="fill:rgb(185,180,42);"/>
                    </g>
                </g>
                <g transform="matrix(1,0,0,1,255,5)">
                    <g transform="matrix(0.6875,0,0,0.6875,-2270,-807.5)">
                        <path d="M4880,1600L4840,1640L4720,1640L4720,1480L4880,1480L4880,1600Z" style="fill:rgb(255,251,127);"/>
                    </g>
                    <g transform="matrix(-0.6875,-8.41945e-17,8.41945e-17,-0.6875,4522.5,1365)">
                        <path d="M5000,1560L5040,1520L5040,1560L5000,1560Z" style="fill:rgb(185,180,42);"/>
                    </g>
                </g>
                <g transform="matrix(1,0,0,1,55,225)">
                    <g transform="matrix(0.6875,0,0,0.6875,-2270,-807.5)">
                        <path d="M4880,1600L4840,1640L4720,1640L4720,1480L4880,1480L4880,1600Z" style="fill:rgb(255,251,127);"/>
                    </g>
                    <g transform="matrix(-0.6875,-8.41945e-17,8.41945e-17,-0.6875,4522.5,1365)">
                        <path d="M5000,1560L5040,1520L5040,1560L5000,1560Z" style="fill:rgb(185,180,42);"/>
                    </g>
                </g>
                <g transform="matrix(1,0,0,1,190,260)">
                    <g transform="matrix(0.6875,0,0,0.6875,-2270,-807.5)">
                        <path d="M4880,1600L4840,1640L4720,1640L4720,1480L4880,1480L4880,1600Z" style="fill:rgb(255,251,127);"/>
                    </g>
                    <g transform="matrix(-0.6875,-8.41945e-17,8.41945e-17,-0.6875,4522.5,1365)">
                        <path d="M5000,1560L5040,1520L5040,1560L5000,1560Z" style="fill:rgb(185,180,42);"/>
                    </g>
                </g>
                <g transform="matrix(1,0,0,1,20,445)">
                    <g transform="matrix(0.6875,0,0,0.6875,-2270,-807.5)">
                        <path d="M4880,1600L4840,1640L4720,1640L4720,1480L4880,1480L4880,1600Z" style="fill:rgb(255,251,127);"/>
                    </g>
                    <g transform="matrix(-0.6875,-8.41945e-17,8.41945e-17,-0.6875,4522.5,1365)">
                        <path d="M5000,1560L5040,1520L5040,1560L5000,1560Z" style="fill:rgb(185,180,42);"/>
                    </g>
                </g>
                <g transform="matrix(1,0,0,1,200,430)">
                    <g transform="matrix(0.6875,0,0,0.6875,-2270,-807.5)">
                        <path d="M4880,1600L4840,1640L4720,1640L4720,1480L4880,1480L4880,1600Z" style="fill:rgb(255,251,127);"/>
                    </g>
                    <g transform="matrix(-0.6875,-8.41945e-17,8.41945e-17,-0.6875,4522.5,1365)">
                        <path d="M5000,1560L5040,1520L5040,1560L5000,1560Z" style="fill:rgb(185,180,42);"/>
                    </g>
                </g>
                <g transform="matrix(1,0,0,1,110,645)">
                    <g transform="matrix(0.6875,0,0,0.6875,-2270,-807.5)">
                        <path d="M4880,1600L4840,1640L4720,1640L4720,1480L4880,1480L4880,1600Z" style="fill:rgb(255,251,127);"/>
                    </g>
                    <g transform="matrix(-0.6875,-8.41945e-17,8.41945e-17,-0.6875,4522.5,1365)">
                        <path d="M5000,1560L5040,1520L5040,1560L5000,1560Z" style="fill:rgb(185,180,42);"/>
                    </g>
                </g>
                <g transform="matrix(1.02128,0,0,1.03846,-20.4255,-20.7692)">
                    <path d="M1900,43.169L1900,1036.83C1900,1049.62 1889.44,1060 1876.44,1060L43.559,1060C30.557,1060 20,1049.62 20,1036.83L20,43.169C20,30.382 30.557,20 43.559,20L1876.44,20C1889.44,20 1900,30.382 1900,43.169ZM1898.53,43.169C1898.53,31.179 1888.63,21.444 1876.44,21.444L43.559,21.444C31.367,21.444 21.469,31.179 21.469,43.169L21.469,1036.83C21.469,1048.82 31.367,1058.56 43.559,1058.56L1876.44,1058.56C1888.63,1058.56 1898.53,1048.82 1898.53,1036.83L1898.53,43.169Z" style="fill:rgb(117,117,117);"/>
                </g>
                <g transform="matrix(1,0,0,1,55,0)">
                    <g transform="matrix(1,0,0,1,73.984,-14.48)">
                        <g transform="matrix(48,0,0,48,90,180)">
                            <path d="M0.025,-0.698L0.114,-0.698L0.189,-0.362L0.247,-0.101L0.249,-0.101L0.314,-0.362L0.402,-0.698L0.498,-0.698L0.583,-0.362L0.648,-0.102L0.651,-0.102L0.711,-0.362L0.79,-0.698L0.876,-0.698L0.697,-0L0.604,-0L0.513,-0.348L0.449,-0.604L0.447,-0.604L0.381,-0.348L0.288,-0L0.195,-0L0.025,-0.698Z" style="fill-rule:nonzero;"/>
                        </g>
                        <g transform="matrix(48,0,0,48,133.2,180)">
                            <path d="M0.098,-0.74L0.178,-0.74L0.178,-0.432L0.182,-0.432C0.209,-0.496 0.258,-0.528 0.329,-0.528C0.384,-0.528 0.427,-0.511 0.46,-0.476C0.492,-0.441 0.508,-0.393 0.508,-0.331L0.508,-0L0.428,-0L0.428,-0.317C0.428,-0.364 0.418,-0.399 0.397,-0.422C0.376,-0.445 0.346,-0.457 0.306,-0.457C0.271,-0.457 0.241,-0.448 0.216,-0.432C0.191,-0.415 0.178,-0.39 0.178,-0.358L0.178,-0L0.098,-0L0.098,-0.74Z" style="fill-rule:nonzero;"/>
                        </g>
                        <g transform="matrix(48,0,0,48,162,180)">
                            <path d="M0.495,-0C0.441,-0 0.41,-0.028 0.403,-0.084L0.398,-0.084C0.374,-0.02 0.322,0.012 0.243,0.012C0.189,0.012 0.146,-0.002 0.114,-0.03C0.082,-0.058 0.066,-0.096 0.066,-0.145C0.066,-0.245 0.14,-0.295 0.288,-0.295L0.398,-0.295L0.398,-0.346C0.398,-0.383 0.387,-0.412 0.366,-0.431C0.345,-0.45 0.314,-0.46 0.275,-0.46C0.212,-0.46 0.166,-0.435 0.137,-0.384L0.083,-0.424C0.097,-0.453 0.121,-0.478 0.155,-0.498C0.189,-0.518 0.231,-0.528 0.28,-0.528C0.341,-0.528 0.389,-0.513 0.425,-0.482C0.46,-0.45 0.478,-0.408 0.478,-0.354L0.478,-0.106C0.478,-0.096 0.482,-0.088 0.489,-0.081C0.496,-0.074 0.504,-0.07 0.514,-0.07L0.55,-0.07L0.55,-0L0.495,-0ZM0.257,-0.055C0.298,-0.055 0.331,-0.064 0.358,-0.083C0.385,-0.101 0.398,-0.123 0.398,-0.15L0.398,-0.235L0.288,-0.235C0.196,-0.235 0.15,-0.209 0.15,-0.157L0.15,-0.136C0.15,-0.11 0.16,-0.09 0.179,-0.076C0.198,-0.062 0.224,-0.055 0.257,-0.055Z" style="fill-rule:nonzero;"/>
                        </g>
                        <g transform="matrix(48,0,0,48,190.8,180)">
                            <path d="M0.241,-0.172C0.241,-0.14 0.246,-0.117 0.256,-0.102C0.266,-0.087 0.281,-0.077 0.3,-0.074C0.319,-0.07 0.347,-0.068 0.385,-0.068L0.398,-0.068L0.398,-0L0.386,-0C0.333,-0 0.291,-0.005 0.26,-0.014C0.228,-0.023 0.204,-0.04 0.187,-0.065C0.169,-0.09 0.161,-0.126 0.161,-0.173L0.161,-0.448L0.049,-0.448L0.049,-0.516L0.161,-0.516L0.161,-0.698L0.241,-0.698L0.241,-0.516L0.396,-0.516L0.396,-0.448L0.241,-0.448L0.241,-0.172Z" style="fill-rule:nonzero;"/>
                        </g>
                        <g transform="matrix(48,0,0,48,234,180)">
                            <path d="M0.241,-0.172C0.241,-0.14 0.246,-0.117 0.256,-0.102C0.266,-0.087 0.281,-0.077 0.3,-0.074C0.319,-0.07 0.347,-0.068 0.385,-0.068L0.398,-0.068L0.398,-0L0.386,-0C0.333,-0 0.291,-0.005 0.26,-0.014C0.228,-0.023 0.204,-0.04 0.187,-0.065C0.169,-0.09 0.161,-0.126 0.161,-0.173L0.161,-0.448L0.049,-0.448L0.049,-0.516L0.161,-0.516L0.161,-0.698L0.241,-0.698L0.241,-0.516L0.396,-0.516L0.396,-0.448L0.241,-0.448L0.241,-0.172Z" style="fill-rule:nonzero;"/>
                        </g>
                        <g transform="matrix(48,0,0,48,255.6,180)">
                            <path d="M0.098,-0.74L0.178,-0.74L0.178,-0.432L0.182,-0.432C0.209,-0.496 0.258,-0.528 0.329,-0.528C0.384,-0.528 0.427,-0.511 0.46,-0.476C0.492,-0.441 0.508,-0.393 0.508,-0.331L0.508,-0L0.428,-0L0.428,-0.317C0.428,-0.364 0.418,-0.399 0.397,-0.422C0.376,-0.445 0.346,-0.457 0.306,-0.457C0.271,-0.457 0.241,-0.448 0.216,-0.432C0.191,-0.415 0.178,-0.39 0.178,-0.358L0.178,-0L0.098,-0L0.098,-0.74Z" style="fill-rule:nonzero;"/>
                        </g>
                        <g transform="matrix(48,0,0,48,284.4,180)">
                            <path d="M0.309,0.012C0.26,0.012 0.218,0.001 0.181,-0.021C0.144,-0.043 0.116,-0.074 0.097,-0.115C0.077,-0.156 0.067,-0.203 0.067,-0.257C0.067,-0.311 0.077,-0.359 0.097,-0.4C0.117,-0.441 0.145,-0.472 0.181,-0.495C0.216,-0.517 0.257,-0.528 0.304,-0.528C0.349,-0.528 0.389,-0.517 0.424,-0.496C0.459,-0.474 0.486,-0.444 0.505,-0.406C0.524,-0.368 0.533,-0.325 0.533,-0.276L0.533,-0.238L0.151,-0.238L0.151,-0.214C0.151,-0.168 0.165,-0.13 0.194,-0.101C0.223,-0.072 0.261,-0.057 0.309,-0.057C0.343,-0.057 0.373,-0.065 0.398,-0.081C0.423,-0.096 0.443,-0.118 0.457,-0.147L0.516,-0.107C0.5,-0.071 0.474,-0.042 0.438,-0.021C0.401,0.001 0.358,0.012 0.309,0.012ZM0.304,-0.462C0.275,-0.462 0.249,-0.455 0.226,-0.442C0.203,-0.428 0.184,-0.409 0.171,-0.385C0.158,-0.361 0.151,-0.334 0.151,-0.305L0.151,-0.298L0.447,-0.298L0.447,-0.309C0.447,-0.354 0.434,-0.391 0.408,-0.42C0.381,-0.448 0.347,-0.462 0.304,-0.462Z" style="fill-rule:nonzero;"/>
                        </g>
                        <g transform="matrix(48,0,0,48,313.2,180)">
                            <path d="M0.467,-0.516L0.547,-0.516L0.291,0.113C0.278,0.144 0.263,0.167 0.244,0.18C0.225,0.193 0.196,0.2 0.159,0.2L0.083,0.2L0.083,0.132L0.174,0.132C0.194,0.132 0.207,0.123 0.214,0.105L0.261,-0.01L0.053,-0.516L0.135,-0.516L0.222,-0.3L0.299,-0.104L0.303,-0.104L0.38,-0.3L0.467,-0.516Z" style="fill-rule:nonzero;"/>
                        </g>
                        <g transform="matrix(48,0,0,48,342,180)">
                            <path d="M0.224,-0.131L0.224,-0L0.094,-0L0.094,-0.131L0.224,-0.131ZM0.518,-0.131L0.518,-0L0.388,-0L0.388,-0.131L0.518,-0.131ZM0.809,-0.131L0.809,-0L0.679,-0L0.679,-0.131L0.809,-0.131Z" style="fill-rule:nonzero;"/>
                        </g>
                    </g>
                    <g transform="matrix(1,0,0,1,1348.51,-14.48)">
                        <g transform="matrix(48,0,0,48,90,180)">
                            <path d="M0.481,-0L0.422,-0.199L0.177,-0.199L0.118,-0L0.031,-0L0.245,-0.698L0.356,-0.698L0.57,-0L0.481,-0ZM0.304,-0.609L0.295,-0.609L0.197,-0.272L0.402,-0.272L0.304,-0.609Z" style="fill-rule:nonzero;"/>
                        </g>
                        <g transform="matrix(48,0,0,48,118.8,180)">
                            <path d="M0.174,-0.448L0.07,-0.448L0.07,-0.516L0.174,-0.516L0.174,-0.567C0.174,-0.614 0.183,-0.65 0.2,-0.675C0.217,-0.7 0.241,-0.717 0.273,-0.727C0.304,-0.736 0.346,-0.74 0.399,-0.74L0.421,-0.74L0.421,-0.672L0.398,-0.672C0.36,-0.672 0.332,-0.67 0.313,-0.667C0.294,-0.663 0.279,-0.654 0.269,-0.639C0.259,-0.624 0.254,-0.6 0.254,-0.568L0.254,-0.516L0.391,-0.516L0.391,-0.448L0.254,-0.448L0.254,-0L0.174,-0L0.174,-0.448Z" style="fill-rule:nonzero;"/>
                        </g>
                        <g transform="matrix(48,0,0,48,140.4,180)">
                            <path d="M0.241,-0.172C0.241,-0.14 0.246,-0.117 0.256,-0.102C0.266,-0.087 0.281,-0.077 0.3,-0.074C0.319,-0.07 0.347,-0.068 0.385,-0.068L0.398,-0.068L0.398,-0L0.386,-0C0.333,-0 0.291,-0.005 0.26,-0.014C0.228,-0.023 0.204,-0.04 0.187,-0.065C0.169,-0.09 0.161,-0.126 0.161,-0.173L0.161,-0.448L0.049,-0.448L0.049,-0.516L0.161,-0.516L0.161,-0.698L0.241,-0.698L0.241,-0.516L0.396,-0.516L0.396,-0.448L0.241,-0.448L0.241,-0.172Z" style="fill-rule:nonzero;"/>
                        </g>
                        <g transform="matrix(48,0,0,48,162,180)">
                            <path d="M0.309,0.012C0.26,0.012 0.218,0.001 0.181,-0.021C0.144,-0.043 0.116,-0.074 0.097,-0.115C0.077,-0.156 0.067,-0.203 0.067,-0.257C0.067,-0.311 0.077,-0.359 0.097,-0.4C0.117,-0.441 0.145,-0.472 0.181,-0.495C0.216,-0.517 0.257,-0.528 0.304,-0.528C0.349,-0.528 0.389,-0.517 0.424,-0.496C0.459,-0.474 0.486,-0.444 0.505,-0.406C0.524,-0.368 0.533,-0.325 0.533,-0.276L0.533,-0.238L0.151,-0.238L0.151,-0.214C0.151,-0.168 0.165,-0.13 0.194,-0.101C0.223,-0.072 0.261,-0.057 0.309,-0.057C0.343,-0.057 0.373,-0.065 0.398,-0.081C0.423,-0.096 0.443,-0.118 0.457,-0.147L0.516,-0.107C0.5,-0.071 0.474,-0.042 0.438,-0.021C0.401,0.001 0.358,0.012 0.309,0.012ZM0.304,-0.462C0.275,-0.462 0.249,-0.455 0.226,-0.442C0.203,-0.428 0.184,-0.409 0.171,-0.385C0.158,-0.361 0.151,-0.334 0.151,-0.305L0.151,-0.298L0.447,-0.298L0.447,-0.309C0.447,-0.354 0.434,-0.391 0.408,-0.42C0.381,-0.448 0.347,-0.462 0.304,-0.462Z" style="fill-rule:nonzero;"/>
                        </g>
                        <g transform="matrix(48,0,0,48,190.8,180)">
                            <path d="M0.112,-0.516L0.192,-0.516L0.192,-0.386L0.197,-0.386C0.222,-0.473 0.28,-0.516 0.371,-0.516L0.423,-0.516L0.423,-0.436L0.346,-0.436C0.297,-0.436 0.26,-0.422 0.233,-0.395C0.206,-0.368 0.192,-0.333 0.192,-0.291L0.192,-0L0.112,-0L0.112,-0.516Z" style="fill-rule:nonzero;"/>
                        </g>
                    </g>
                    <g transform="matrix(1,0,0,1,995.36,-14.48)">
                        <g transform="matrix(48,0,0,48,90,180)">
                            <path d="M0.374,-0.142L0.326,-0.19L0.412,-0.276L0.462,-0.318L0.461,-0.321L0.365,-0.315L0.029,-0.315L0.029,-0.383L0.365,-0.383L0.461,-0.377L0.462,-0.38L0.412,-0.422L0.326,-0.508L0.374,-0.556L0.581,-0.349L0.374,-0.142Z" style="fill-rule:nonzero;"/>
                        </g>
                    </g>
                    <g transform="matrix(1,0,0,1,155.008,136.464)">
                        <g transform="matrix(48,0,0,48,90,180)">
                            <path d="M0.269,-0.342L0.169,-0.224L0.169,-0L0.085,-0L0.085,-0.698L0.169,-0.698L0.169,-0.334L0.172,-0.334L0.264,-0.45L0.47,-0.698L0.571,-0.698L0.326,-0.404L0.578,-0L0.48,-0L0.269,-0.342Z" style="fill-rule:nonzero;"/>
                        </g>
                        <g transform="matrix(48,0,0,48,118.8,180)">
                            <path d="M0.098,-0L0.098,-0.516L0.178,-0.516L0.178,-0.432L0.182,-0.432C0.209,-0.496 0.258,-0.528 0.329,-0.528C0.384,-0.528 0.427,-0.511 0.46,-0.476C0.492,-0.441 0.508,-0.393 0.508,-0.331L0.508,-0L0.428,-0L0.428,-0.317C0.428,-0.364 0.418,-0.399 0.397,-0.422C0.376,-0.445 0.346,-0.457 0.306,-0.457C0.271,-0.457 0.241,-0.448 0.216,-0.432C0.191,-0.415 0.178,-0.39 0.178,-0.358L0.178,-0L0.098,-0Z" style="fill-rule:nonzero;"/>
                        </g>
                        <g transform="matrix(48,0,0,48,147.6,180)">
                            <path d="M0.3,0.012C0.252,0.012 0.211,0.001 0.176,-0.021C0.14,-0.043 0.114,-0.074 0.095,-0.115C0.076,-0.156 0.066,-0.203 0.066,-0.258C0.066,-0.313 0.076,-0.36 0.095,-0.401C0.114,-0.442 0.14,-0.473 0.176,-0.495C0.211,-0.517 0.252,-0.528 0.3,-0.528C0.348,-0.528 0.389,-0.517 0.425,-0.495C0.46,-0.473 0.487,-0.442 0.506,-0.401C0.525,-0.36 0.534,-0.313 0.534,-0.258C0.534,-0.203 0.525,-0.156 0.506,-0.115C0.487,-0.074 0.46,-0.043 0.425,-0.021C0.389,0.001 0.348,0.012 0.3,0.012ZM0.3,-0.057C0.346,-0.057 0.382,-0.071 0.409,-0.099C0.436,-0.126 0.449,-0.167 0.449,-0.221L0.449,-0.295C0.449,-0.349 0.436,-0.39 0.409,-0.418C0.382,-0.445 0.346,-0.459 0.3,-0.459C0.254,-0.459 0.218,-0.445 0.191,-0.418C0.164,-0.39 0.151,-0.349 0.151,-0.295L0.151,-0.221C0.151,-0.167 0.164,-0.126 0.191,-0.099C0.218,-0.071 0.254,-0.057 0.3,-0.057Z" style="fill-rule:nonzero;"/>
                        </g>
                        <g transform="matrix(48,0,0,48,176.4,180)">
                            <path d="M0.155,-0.516L0.208,-0.317L0.275,-0.067L0.277,-0.067L0.354,-0.319L0.415,-0.516L0.486,-0.516L0.548,-0.319L0.627,-0.067L0.629,-0.067L0.695,-0.318L0.748,-0.516L0.823,-0.516L0.676,-0L0.577,-0L0.45,-0.405L0.448,-0.405L0.397,-0.24L0.322,-0L0.225,-0L0.077,-0.516L0.155,-0.516Z" style="fill-rule:nonzero;"/>
                        </g>
                    </g>
                    <g transform="matrix(1,0,0,1,155.224,336.464)">
                        <g transform="matrix(48,0,0,48,90,180)">
                            <path d="M0.342,-0.625L0.342,-0L0.258,-0L0.258,-0.625L0.025,-0.625L0.025,-0.698L0.575,-0.698L0.575,-0.625L0.342,-0.625Z" style="fill-rule:nonzero;"/>
                        </g>
                        <g transform="matrix(48,0,0,48,118.8,180)">
                            <path d="M0.098,-0.74L0.178,-0.74L0.178,-0.432L0.182,-0.432C0.209,-0.496 0.258,-0.528 0.329,-0.528C0.384,-0.528 0.427,-0.511 0.46,-0.476C0.492,-0.441 0.508,-0.393 0.508,-0.331L0.508,-0L0.428,-0L0.428,-0.317C0.428,-0.364 0.418,-0.399 0.397,-0.422C0.376,-0.445 0.346,-0.457 0.306,-0.457C0.271,-0.457 0.241,-0.448 0.216,-0.432C0.191,-0.415 0.178,-0.39 0.178,-0.358L0.178,-0L0.098,-0L0.098,-0.74Z" style="fill-rule:nonzero;"/>
                        </g>
                        <g transform="matrix(48,0,0,48,147.6,180)">
                            <path d="M0.203,-0.74L0.203,-0.634L0.097,-0.634L0.097,-0.74L0.203,-0.74ZM0.11,-0.516L0.19,-0.516L0.19,-0L0.11,-0L0.11,-0.516Z" style="fill-rule:nonzero;"/>
                        </g>
                        <g transform="matrix(48,0,0,48,162,180)">
                            <path d="M0.098,-0L0.098,-0.516L0.178,-0.516L0.178,-0.432L0.182,-0.432C0.209,-0.496 0.258,-0.528 0.329,-0.528C0.384,-0.528 0.427,-0.511 0.46,-0.476C0.492,-0.441 0.508,-0.393 0.508,-0.331L0.508,-0L0.428,-0L0.428,-0.317C0.428,-0.364 0.418,-0.399 0.397,-0.422C0.376,-0.445 0.346,-0.457 0.306,-0.457C0.271,-0.457 0.241,-0.448 0.216,-0.432C0.191,-0.415 0.178,-0.39 0.178,-0.358L0.178,-0L0.098,-0Z" style="fill-rule:nonzero;"/>
                        </g>
                        <g transform="matrix(48,0,0,48,190.8,180)">
                            <path d="M0.105,-0.74L0.185,-0.74L0.185,-0.273L0.189,-0.273L0.279,-0.358L0.451,-0.516L0.549,-0.516L0.335,-0.314L0.574,-0L0.475,-0L0.274,-0.268L0.185,-0.187L0.185,-0L0.105,-0L0.105,-0.74Z" style="fill-rule:nonzero;"/>
                        </g>
                    </g>
                    <g transform="matrix(1,0,0,1,168.64,536.464)">
                        <g transform="matrix(48,0,0,48,90,180)">
                            <path d="M0.09,-0L0.09,-0.698L0.53,-0.698L0.53,-0.625L0.174,-0.625L0.174,-0.39L0.5,-0.39L0.5,-0.317L0.174,-0.317L0.174,-0L0.09,-0Z" style="fill-rule:nonzero;"/>
                        </g>
                        <g transform="matrix(48,0,0,48,118.8,180)">
                            <path d="M0.309,0.012C0.26,0.012 0.218,0.001 0.181,-0.021C0.144,-0.043 0.116,-0.074 0.097,-0.115C0.077,-0.156 0.067,-0.203 0.067,-0.257C0.067,-0.311 0.077,-0.359 0.097,-0.4C0.117,-0.441 0.145,-0.472 0.181,-0.495C0.216,-0.517 0.257,-0.528 0.304,-0.528C0.349,-0.528 0.389,-0.517 0.424,-0.496C0.459,-0.474 0.486,-0.444 0.505,-0.406C0.524,-0.368 0.533,-0.325 0.533,-0.276L0.533,-0.238L0.151,-0.238L0.151,-0.214C0.151,-0.168 0.165,-0.13 0.194,-0.101C0.223,-0.072 0.261,-0.057 0.309,-0.057C0.343,-0.057 0.373,-0.065 0.398,-0.081C0.423,-0.096 0.443,-0.118 0.457,-0.147L0.516,-0.107C0.5,-0.071 0.474,-0.042 0.438,-0.021C0.401,0.001 0.358,0.012 0.309,0.012ZM0.304,-0.462C0.275,-0.462 0.249,-0.455 0.226,-0.442C0.203,-0.428 0.184,-0.409 0.171,-0.385C0.158,-0.361 0.151,-0.334 0.151,-0.305L0.151,-0.298L0.447,-0.298L0.447,-0.309C0.447,-0.354 0.434,-0.391 0.408,-0.42C0.381,-0.448 0.347,-0.462 0.304,-0.462Z" style="fill-rule:nonzero;"/>
                        </g>
                        <g transform="matrix(48,0,0,48,147.6,180)">
                            <path d="M0.309,0.012C0.26,0.012 0.218,0.001 0.181,-0.021C0.144,-0.043 0.116,-0.074 0.097,-0.115C0.077,-0.156 0.067,-0.203 0.067,-0.257C0.067,-0.311 0.077,-0.359 0.097,-0.4C0.117,-0.441 0.145,-0.472 0.181,-0.495C0.216,-0.517 0.257,-0.528 0.304,-0.528C0.349,-0.528 0.389,-0.517 0.424,-0.496C0.459,-0.474 0.486,-0.444 0.505,-0.406C0.524,-0.368 0.533,-0.325 0.533,-0.276L0.533,-0.238L0.151,-0.238L0.151,-0.214C0.151,-0.168 0.165,-0.13 0.194,-0.101C0.223,-0.072 0.261,-0.057 0.309,-0.057C0.343,-0.057 0.373,-0.065 0.398,-0.081C0.423,-0.096 0.443,-0.118 0.457,-0.147L0.516,-0.107C0.5,-0.071 0.474,-0.042 0.438,-0.021C0.401,0.001 0.358,0.012 0.309,0.012ZM0.304,-0.462C0.275,-0.462 0.249,-0.455 0.226,-0.442C0.203,-0.428 0.184,-0.409 0.171,-0.385C0.158,-0.361 0.151,-0.334 0.151,-0.305L0.151,-0.298L0.447,-0.298L0.447,-0.309C0.447,-0.354 0.434,-0.391 0.408,-0.42C0.381,-0.448 0.347,-0.462 0.304,-0.462Z" style="fill-rule:nonzero;"/>
                        </g>
                        <g transform="matrix(48,0,0,48,176.4,180)">
                            <path d="M0.179,-0C0.152,-0 0.132,-0.008 0.117,-0.023C0.101,-0.038 0.094,-0.058 0.094,-0.083L0.094,-0.74L0.174,-0.74L0.174,-0.095C0.174,-0.078 0.182,-0.07 0.199,-0.07L0.25,-0.07L0.25,-0L0.179,-0Z" style="fill-rule:nonzero;"/>
                        </g>
                    </g>
                    <g transform="matrix(1,0,0,1,190.504,736.464)">
                        <g transform="matrix(48,0,0,48,90,180)">
                            <path d="M0.095,-0.698L0.29,-0.698C0.375,-0.698 0.438,-0.669 0.481,-0.61C0.523,-0.551 0.544,-0.464 0.544,-0.349C0.544,-0.234 0.523,-0.147 0.481,-0.088C0.438,-0.029 0.375,-0 0.29,-0L0.095,-0L0.095,-0.698ZM0.286,-0.073C0.341,-0.073 0.383,-0.092 0.412,-0.131C0.441,-0.17 0.455,-0.224 0.455,-0.295L0.455,-0.403C0.455,-0.474 0.441,-0.528 0.412,-0.567C0.383,-0.606 0.341,-0.625 0.286,-0.625L0.179,-0.625L0.179,-0.073L0.286,-0.073Z" style="fill-rule:nonzero;"/>
                        </g>
                        <g transform="matrix(48,0,0,48,118.8,180)">
                            <path d="M0.3,0.012C0.252,0.012 0.211,0.001 0.176,-0.021C0.14,-0.043 0.114,-0.074 0.095,-0.115C0.076,-0.156 0.066,-0.203 0.066,-0.258C0.066,-0.313 0.076,-0.36 0.095,-0.401C0.114,-0.442 0.14,-0.473 0.176,-0.495C0.211,-0.517 0.252,-0.528 0.3,-0.528C0.348,-0.528 0.389,-0.517 0.425,-0.495C0.46,-0.473 0.487,-0.442 0.506,-0.401C0.525,-0.36 0.534,-0.313 0.534,-0.258C0.534,-0.203 0.525,-0.156 0.506,-0.115C0.487,-0.074 0.46,-0.043 0.425,-0.021C0.389,0.001 0.348,0.012 0.3,0.012ZM0.3,-0.057C0.346,-0.057 0.382,-0.071 0.409,-0.099C0.436,-0.126 0.449,-0.167 0.449,-0.221L0.449,-0.295C0.449,-0.349 0.436,-0.39 0.409,-0.418C0.382,-0.445 0.346,-0.459 0.3,-0.459C0.254,-0.459 0.218,-0.445 0.191,-0.418C0.164,-0.39 0.151,-0.349 0.151,-0.295L0.151,-0.221C0.151,-0.167 0.164,-0.126 0.191,-0.099C0.218,-0.071 0.254,-0.057 0.3,-0.057Z" style="fill-rule:nonzero;"/>
                        </g>
                    </g>
                    <g transform="matrix(1,0,0,1,1.02906,-418.842)">
                        <g transform="matrix(48,0,0,48,619.267,584.362)">
                            <path d="M0.088,-0.698L0.325,-0.698C0.384,-0.698 0.431,-0.682 0.466,-0.649C0.5,-0.616 0.517,-0.573 0.517,-0.518C0.517,-0.478 0.507,-0.446 0.488,-0.421C0.469,-0.396 0.442,-0.379 0.408,-0.368L0.408,-0.365C0.45,-0.356 0.483,-0.338 0.507,-0.311C0.531,-0.284 0.543,-0.247 0.543,-0.201C0.543,-0.164 0.535,-0.13 0.519,-0.099C0.502,-0.068 0.48,-0.044 0.451,-0.027C0.422,-0.009 0.39,-0 0.355,-0L0.088,-0L0.088,-0.698ZM0.316,-0.395C0.352,-0.395 0.38,-0.403 0.4,-0.419C0.419,-0.435 0.429,-0.459 0.429,-0.49L0.429,-0.529C0.429,-0.56 0.419,-0.584 0.4,-0.601C0.38,-0.617 0.352,-0.625 0.316,-0.625L0.172,-0.625L0.172,-0.395L0.316,-0.395ZM0.33,-0.073C0.369,-0.073 0.4,-0.082 0.422,-0.1C0.443,-0.118 0.454,-0.144 0.454,-0.179L0.454,-0.22C0.454,-0.255 0.443,-0.281 0.422,-0.299C0.4,-0.317 0.369,-0.326 0.33,-0.326L0.172,-0.326L0.172,-0.073L0.33,-0.073Z" style="fill-rule:nonzero;"/>
                        </g>
                        <g transform="matrix(48,0,0,48,648.067,584.362)">
                            <path d="M0.309,0.012C0.26,0.012 0.218,0.001 0.181,-0.021C0.144,-0.043 0.116,-0.074 0.097,-0.115C0.077,-0.156 0.067,-0.203 0.067,-0.257C0.067,-0.311 0.077,-0.359 0.097,-0.4C0.117,-0.441 0.145,-0.472 0.181,-0.495C0.216,-0.517 0.257,-0.528 0.304,-0.528C0.349,-0.528 0.389,-0.517 0.424,-0.496C0.459,-0.474 0.486,-0.444 0.505,-0.406C0.524,-0.368 0.533,-0.325 0.533,-0.276L0.533,-0.238L0.151,-0.238L0.151,-0.214C0.151,-0.168 0.165,-0.13 0.194,-0.101C0.223,-0.072 0.261,-0.057 0.309,-0.057C0.343,-0.057 0.373,-0.065 0.398,-0.081C0.423,-0.096 0.443,-0.118 0.457,-0.147L0.516,-0.107C0.5,-0.071 0.474,-0.042 0.438,-0.021C0.401,0.001 0.358,0.012 0.309,0.012ZM0.304,-0.462C0.275,-0.462 0.249,-0.455 0.226,-0.442C0.203,-0.428 0.184,-0.409 0.171,-0.385C0.158,-0.361 0.151,-0.334 0.151,-0.305L0.151,-0.298L0.447,-0.298L0.447,-0.309C0.447,-0.354 0.434,-0.391 0.408,-0.42C0.381,-0.448 0.347,-0.462 0.304,-0.462Z" style="fill-rule:nonzero;"/>
                        </g>
                        <g transform="matrix(48,0,0,48,676.867,584.362)">
                            <path d="M0.174,-0.448L0.07,-0.448L0.07,-0.516L0.174,-0.516L0.174,-0.567C0.174,-0.614 0.183,-0.65 0.2,-0.675C0.217,-0.7 0.241,-0.717 0.273,-0.727C0.304,-0.736 0.346,-0.74 0.399,-0.74L0.421,-0.74L0.421,-0.672L0.398,-0.672C0.36,-0.672 0.332,-0.67 0.313,-0.667C0.294,-0.663 0.279,-0.654 0.269,-0.639C0.259,-0.624 0.254,-0.6 0.254,-0.568L0.254,-0.516L0.391,-0.516L0.391,-0.448L0.254,-0.448L0.254,-0L0.174,-0L0.174,-0.448Z" style="fill-rule:nonzero;"/>
                        </g>
                        <g transform="matrix(48,0,0,48,698.467,584.362)">
                            <path d="M0.3,0.012C0.252,0.012 0.211,0.001 0.176,-0.021C0.14,-0.043 0.114,-0.074 0.095,-0.115C0.076,-0.156 0.066,-0.203 0.066,-0.258C0.066,-0.313 0.076,-0.36 0.095,-0.401C0.114,-0.442 0.14,-0.473 0.176,-0.495C0.211,-0.517 0.252,-0.528 0.3,-0.528C0.348,-0.528 0.389,-0.517 0.425,-0.495C0.46,-0.473 0.487,-0.442 0.506,-0.401C0.525,-0.36 0.534,-0.313 0.534,-0.258C0.534,-0.203 0.525,-0.156 0.506,-0.115C0.487,-0.074 0.46,-0.043 0.425,-0.021C0.389,0.001 0.348,0.012 0.3,0.012ZM0.3,-0.057C0.346,-0.057 0.382,-0.071 0.409,-0.099C0.436,-0.126 0.449,-0.167 0.449,-0.221L0.449,-0.295C0.449,-0.349 0.436,-0.39 0.409,-0.418C0.382,-0.445 0.346,-0.459 0.3,-0.459C0.254,-0.459 0.218,-0.445 0.191,-0.418C0.164,-0.39 0.151,-0.349 0.151,-0.295L0.151,-0.221C0.151,-0.167 0.164,-0.126 0.191,-0.099C0.218,-0.071 0.254,-0.057 0.3,-0.057Z" style="fill-rule:nonzero;"/>
                        </g>
                        <g transform="matrix(48,0,0,48,727.267,584.362)">
                            <path d="M0.112,-0.516L0.192,-0.516L0.192,-0.386L0.197,-0.386C0.222,-0.473 0.28,-0.516 0.371,-0.516L0.423,-0.516L0.423,-0.436L0.346,-0.436C0.297,-0.436 0.26,-0.422 0.233,-0.395C0.206,-0.368 0.192,-0.333 0.192,-0.291L0.192,-0L0.112,-0L0.112,-0.516Z" style="fill-rule:nonzero;"/>
                        </g>
                        <g transform="matrix(48,0,0,48,748.867,584.362)">
                            <path d="M0.309,0.012C0.26,0.012 0.218,0.001 0.181,-0.021C0.144,-0.043 0.116,-0.074 0.097,-0.115C0.077,-0.156 0.067,-0.203 0.067,-0.257C0.067,-0.311 0.077,-0.359 0.097,-0.4C0.117,-0.441 0.145,-0.472 0.181,-0.495C0.216,-0.517 0.257,-0.528 0.304,-0.528C0.349,-0.528 0.389,-0.517 0.424,-0.496C0.459,-0.474 0.486,-0.444 0.505,-0.406C0.524,-0.368 0.533,-0.325 0.533,-0.276L0.533,-0.238L0.151,-0.238L0.151,-0.214C0.151,-0.168 0.165,-0.13 0.194,-0.101C0.223,-0.072 0.261,-0.057 0.309,-0.057C0.343,-0.057 0.373,-0.065 0.398,-0.081C0.423,-0.096 0.443,-0.118 0.457,-0.147L0.516,-0.107C0.5,-0.071 0.474,-0.042 0.438,-0.021C0.401,0.001 0.358,0.012 0.309,0.012ZM0.304,-0.462C0.275,-0.462 0.249,-0.455 0.226,-0.442C0.203,-0.428 0.184,-0.409 0.171,-0.385C0.158,-0.361 0.151,-0.334 0.151,-0.305L0.151,-0.298L0.447,-0.298L0.447,-0.309C0.447,-0.354 0.434,-0.391 0.408,-0.42C0.381,-0.448 0.347,-0.462 0.304,-0.462Z" style="fill-rule:nonzero;"/>
                        </g>
                    </g>
                    <g transform="matrix(1,0,0,1,-4175,-1.52767e-13)">
                        <path d="M4680,100L4680,1000" style="fill:none;stroke:rgb(252,109,8);stroke-width:3px;"/>
                    </g>
                    <g transform="matrix(1,0,0,1,-3775,-1.52767e-13)">
                        <path d="M4680,100L4680,1000" style="fill:none;stroke:rgb(252,109,8);stroke-width:3px;"/>
                    </g>
                    <g transform="matrix(1,0,0,1,-3375,-1.52767e-13)">
                        <path d="M4680,100L4680,1000" style="fill:none;stroke:rgb(252,109,8);stroke-width:3px;"/>
                    </g>
                    <g transform="matrix(1.06667,0,0,1,-4460.33,-1.52767e-13)">
                        <path d="M4280,200L5780,200" style="fill:none;stroke:rgb(252,109,8);stroke-width:2.9px;"/>
                    </g>
                    <g transform="matrix(1.06667,0,0,1,-4460.33,200)">
                        <path d="M4280,200L5780,200" style="fill:none;stroke:rgb(252,109,8);stroke-width:2.9px;"/>
                    </g>
                    <g transform="matrix(1.06667,0,0,1,-4460.33,400)">
                        <path d="M4280,200L5780,200" style="fill:none;stroke:rgb(252,109,8);stroke-width:2.9px;"/>
                    </g>
                    <g transform="matrix(1.06667,0,0,1,-4460.33,600)">
                        <path d="M4280,200L5780,200" style="fill:none;stroke:rgb(252,109,8);stroke-width:2.9px;"/>
                    </g>
                    <g transform="matrix(1.06667,0,0,1,-4460.33,-1.52767e-13)">
                        <rect x="4280" y="100" width="1500" height="900" style="fill:none;stroke:rgb(252,109,8);stroke-width:2.9px;"/>
                    </g>
                </g>
            </g>
        </g>
    </g>
</svg>
