<?xml version="1.0" encoding="UTF-8" standalone="no"?><!DOCTYPE svg PUBLIC "-//W3C//DTD SVG 1.1//EN" "http://www.w3.org/Graphics/SVG/1.1/DTD/svg11.dtd"><svg width="100%" height="100%" viewBox="0 0 187 104" version="1.1" xmlns="http://www.w3.org/2000/svg" xmlns:xlink="http://www.w3.org/1999/xlink" xml:space="preserve" xmlns:serif="http://www.serif.com/" style="fill-rule:evenodd;clip-rule:evenodd;stroke-linejoin:round;stroke-miterlimit:2;"><clipPath id="_clip1"><rect x="41.5" y="0" width="104" height="104"/></clipPath><g clip-path="url(#_clip1)"><g><path d="M93.905,64.53l0,-0.056l-0.882,0l0,-0.057l-0.441,0l0,-0.057l-0.441,0l0,-0.057l-0.386,0l0,-0.057l-0.221,0l0,-0.057l-0.276,0l0,-0.057l-0.275,0l0,-0.057l-0.276,0l0,-0.057l-0.221,0l0,-0.057l-0.22,0l0,-0.057l-0.166,0l0,-0.057l-0.22,0l0,-0.057l-0.166,0l0,-0.057l-0.165,0l0,-0.057l-0.221,0l0,-0.056l-0.165,0l0,-0.057l-0.166,0l0,-0.057l-0.11,0l0,-0.057l-0.165,0l0,-0.057l-0.166,0l0,-0.057l-0.11,0l0,-0.057l-0.166,0l0,-0.057l-0.11,0l0,-0.057l-0.165,0l0,-0.057l-0.166,0l0,-0.057l-0.11,0l0,-0.057l-0.11,0l0,-0.057l-0.111,0l0,-0.057l-0.11,0l0,-0.057l-0.11,0l0,-0.056l-0.111,0l0,-0.057l-0.11,0l0,-0.057l-0.11,0l0,-0.057l-0.111,0l0,-0.057l-0.165,0l0,-0.057l-0.11,0l0,-0.057l-0.055,0l0,-0.057l-0.111,0l0,-0.057l-0.11,0l0,-0.057l-0.055,0l0,-0.057l-0.11,0l0,-0.057l-0.111,0l0,-0.057l-0.11,0l0,-0.056l-0.055,0l0,-0.057l-0.11,0l0,-0.057l-0.111,0l0,-0.057l-0.11,0l0,-0.057l-0.055,0l0,-0.057l-0.11,0l0,-0.057l-0.055,0l0,-0.057l-0.111,0l0,-0.057l-0.055,0l0,-0.057l-0.11,0l0,-0.057l-0.055,0l0,-0.057l-0.056,0l0,-0.057l-0.11,0l0,-0.056l-0.055,0l0,-0.057l-0.11,0l0,-0.057l-0.055,0l0,-0.057l-0.111,0l0,-0.057l-0.055,0l0,-0.057l-0.11,0l0,-0.057l-0.055,0l0,-0.057l-0.056,0l0,-0.057l-0.055,0l0,-0.057l-0.11,0l0,-0.057l-0.055,0l0,-0.057l-0.055,0l0,-0.057l-0.055,0l0,-0.057l-0.111,0l0,-0.057l-0.055,0l0,-0.057l-0.055,0l0,-0.057l-0.055,0l0,-0.056l-0.055,0l0,-0.057l-0.11,0l0,-0.057l-0.056,0l0,-0.057l-0.055,0l0,-0.057l-0.055,0l0,-0.057l-0.055,0l0,-0.057l-0.11,0l0,-0.057l-0.055,0l0,-0.057l-0.056,0l0,-0.057l-0.055,0l0,-0.057l-0.055,0l0,-0.057l-0.055,0l0,-0.057l-0.055,0l0,-0.056l-0.055,0l0,-0.057l-0.055,0l0,-0.057l-0.056,0l0,-0.057l-0.055,0l0,-0.057l-0.055,0l0,-0.057l-0.055,0l0,-0.057l-0.055,0l0,-0.057l-0.055,0l0,-0.057l-0.056,0l0,-0.057l-0.055,0l0,-0.057l-0.055,0l0,-0.057l-0.055,0l0,-0.057l-0.055,0l0,-0.056l-0.055,0l0,-0.057l-0.055,0l0,-0.057l-0.056,0l0,-0.057l-0.055,0l0,-0.114l-0.055,0l0,-0.057l-0.055,0l0,-0.057l-0.055,0l0,-0.057l-0.055,0l0,-0.057l-0.056,0l0,-0.057l-0.055,0l0,-0.057l-0.055,0l0,-0.057l-0.055,0l0,-0.056l-0.055,0l0,-0.114l-0.055,0l0,-0.057l-0.055,0l0,-0.057l-0.056,0l0,-0.114l-0.055,0l0,-0.057l-0.055,0l0,-0.057l-0.055,0l0,-0.057l-0.055,0l0,-0.114l-0.055,0l0,-0.057l-0.055,0l0,-0.057l-0.055,0l0,-0.114l-0.056,0l0,-0.057l-0.055,0l0,-0.056l-0.055,0l0,-0.114l-0.055,0l0,-0.057l-0.055,0l0,-0.057l-0.055,0l0,-0.114l-0.055,0l0,-0.057l-0.056,0l0,-0.114l-0.055,0l0,-0.057l-0.055,0l0,-0.114l-0.055,0l0,-0.056l-0.055,0l0,-0.114l-0.055,0l0,-0.114l-0.056,0l0,-0.057l-0.055,0l0,-0.114l-0.055,0l0,-0.057l-0.055,0l0,-0.114l-0.055,0l0,-0.057l-0.055,0l0,-0.113l-0.055,0l0,-0.114l-0.056,0l0,-0.114l-0.055,0l0,-0.114l-0.055,0l0,-0.057l-0.055,0l0,-0.114l-0.055,0l0,-0.114l-0.055,0l0,-0.113l-0.055,0l0,-0.114l-0.056,0l0,-0.114l-0.055,0l0,-0.057l-0.055,0l0,-0.114l-0.055,0l0,-0.114l-0.055,0l0,-0.171l-0.055,0l0,-0.114l-0.056,0l0,-0.114l-0.055,0l0,-0.113l-0.055,0l0,-0.171l-0.055,0l0,-0.114l-0.055,0l0,-0.114l-0.055,0l0,-0.114l-0.055,0l0,-0.17l-0.056,0l0,-0.114l-0.055,0l0,-0.171l-0.055,0l0,-0.171l-0.055,0l0,-0.171l-0.055,0l0,-0.17l-0.055,0l0,-0.114l-0.055,0l0,-0.171l-0.055,0l0,-0.171l-0.056,0l0,-0.171l-0.055,0l0,-0.227l-0.055,0l0,-0.171l-0.055,0l0,-0.228l-0.055,0l0,-0.228l-0.055,0l0,-0.227l-0.055,0l0,-0.228l-0.056,0l0,-0.285l-0.055,0l0,-0.341l-0.055,0l0,-0.285l-0.055,0l0,-0.341l-0.055,0l0,-0.399l-0.055,0l0,-0.569l-0.056,0l0,-0.683l-0.055,0l0,-1.822l0.055,0l0,-1.082l0.056,0l0,-0.398l0.055,0l0,-0.342l0.055,0l0,-0.398l0.055,0l0,-0.399l0.055,0l0,-0.341l0.055,0l0,-0.171l0.056,0l0,-0.228l0.055,0l0,-0.228l0.055,0l0,-0.227l0.055,0l0,-0.228l0.055,0l0,-0.228l0.055,0l0,-0.228l0.055,0l0,-0.17l0.056,0l0,-0.171l0.055,0l0,-0.171l0.055,0l0,-0.114l0.055,0l0,-0.17l0.055,0l0,-0.171l0.055,0l0,-0.114l0.055,0l0,-0.171l0.055,0l0,-0.171l0.056,0l0,-0.171l0.055,0l0,-0.113l0.055,0l0,-0.171l0.055,0l0,-0.114l0.055,0l0,-0.114l0.055,0l0,-0.114l0.055,0l0,-0.114l0.056,0l0,-0.114l0.055,0l0,-0.113l0.055,0l0,-0.114l0.055,0l0,-0.114l0.055,0l0,-0.114l0.055,0l0,-0.114l0.056,0l0,-0.114l0.055,0l0,-0.113l0.055,0l0,-0.114l0.055,0l0,-0.114l0.055,0l0,-0.114l0.055,0l0,-0.057l0.055,0l0,-0.114l0.056,0l0,-0.114l0.055,0l0,-0.057l0.055,0l0,-0.113l0.055,0l0,-0.057l0.055,0l0,-0.114l0.055,0l0,-0.114l0.055,0l0,-0.057l0.056,0l0,-0.114l0.055,0l0,-0.114l0.055,0l0,-0.057l0.055,0l0,-0.114l0.055,0l0,-0.057l0.055,0l0,-0.113l0.056,0l0,-0.057l0.055,0l0,-0.057l0.055,0l0,-0.114l0.055,0l0,-0.057l0.055,0l0,-0.057l0.055,0l0,-0.114l0.055,0l0,-0.057l0.056,0l0,-0.114l0.055,0l0,-0.057l0.055,0l0,-0.056l0.055,0l0,-0.114l0.055,0l0,-0.057l0.055,0l0,-0.057l0.055,0l0,-0.114l0.055,0l0,-0.057l0.056,0l0,-0.057l0.055,0l0,-0.057l0.055,0l0,-0.114l0.055,0l0,-0.057l0.055,0l0,-0.056l0.055,0l0,-0.057l0.055,0l0,-0.057l0.056,0l0,-0.057l0.055,0l0,-0.057l0.055,0l0,-0.057l0.055,0l0,-0.057l0.055,0l0,-0.057l0.055,0l0,-0.114l0.056,0l0,-0.057l0.055,0l0,-0.057l0.055,0l0,-0.057l0.055,0l0,-0.057l0.055,0l0,-0.056l0.055,0l0,-0.057l0.055,0l0,-0.057l0.056,0l0,-0.057l0.055,0l0,-0.057l0.055,0l0,-0.057l0.055,0l0,-0.057l0.055,0l0,-0.057l0.055,0l0,-0.057l0.056,0l0,-0.057l0.055,0l0,-0.057l0.055,0l0,-0.057l0.055,0l0,-0.057l0.055,0l0,-0.057l0.055,0l0,-0.057l0.111,0l0,-0.057l0.055,0l0,-0.056l0.055,0l0,-0.057l0.055,0l0,-0.057l0.055,0l0,-0.057l0.055,0l0,-0.057l0.055,0l0,-0.057l0.056,0l0,-0.057l0.055,0l0,-0.057l0.055,0l0,-0.057l0.11,0l0,-0.057l0.055,0l0,-0.057l0.055,0l0,-0.057l0.056,0l0,-0.057l0.11,0l0,-0.056l0.055,0l0,-0.057l0.055,0l0,-0.057l0.11,0l0,-0.057l0.055,0l0,-0.057l0.056,0l0,-0.057l0.11,0l0,-0.057l0.055,0l0,-0.057l0.055,0l0,-0.057l0.111,0l0,-0.057l0.055,0l0,-0.057l0.055,0l0,-0.057l0.11,0l0,-0.057l0.055,0l0,-0.057l0.055,0l0,-0.056l0.111,0l0,-0.057l0.11,0l0,-0.057l0.055,0l0,-0.057l0.111,0l0,-0.057l0.11,0l0,-0.057l0.055,0l0,-0.057l0.11,0l0,-0.057l0.055,0l0,-0.057l0.111,0l0,-0.057l0.11,0l0,-0.057l0.055,0l0,-0.057l0.11,0l0,-0.057l0.111,0l0,-0.056l0.055,0l0,-0.057l0.11,0l0,-0.057l0.11,0l0,-0.057l0.056,0l0,-0.057l0.165,0l0,-0.057l0.11,0l0,-0.057l0.11,0l0,-0.057l0.111,0l0,-0.057l0.11,0l0,-0.057l0.11,0l0,-0.057l0.111,0l0,-0.057l0.11,0l0,-0.057l0.11,0l0,-0.057l0.111,0l0,-0.057l0.11,0l0,-0.057l0.11,0l0,-0.056l0.166,0l0,-0.057l0.11,0l0,-0.057l0.165,0l0,-0.057l0.166,0l0,-0.057l0.11,0l0,-0.057l0.166,0l0,-0.057l0.165,0l0,-0.057l0.165,0l0,-0.057l0.111,0l0,-0.057l0.165,0l0,-0.057l0.166,0l0,-0.057l0.165,0l0,-0.057l0.221,0l0,-0.056l0.22,0l0,-0.057l0.221,0l0,-0.057l0.22,0l0,-0.057l0.221,0l0,-0.057l0.165,0l0,-0.057l0.221,0l0,-0.057l0.331,0l0,-0.057l0.386,0l0,-0.057l0.331,0l0,-0.057l0.386,0l0,-0.057l0.331,0l0,-0.057l1.048,0l0,-0.057l1.709,0l0,0.057l1.158,0l0,0.057l0.386,0l0,0.057l0.386,0l0,0.057l0.386,0l0,0.057l0.386,0l0,0.057l0.386,0l0,0.057l0.221,0l0,0.057l0.22,0l0,0.057l0.221,0l0,0.057l0.221,0l0,0.057l0.22,0l0,0.057l0.221,0l0,0.056l0.22,0l0,0.057l0.221,0l0,0.057l0.165,0l0,0.057l0.166,0l0,0.057l0.11,0l0,0.057l0.165,0l0,0.057l0.166,0l0,0.057l0.11,0l0,0.057l0.166,0l0,0.057l0.165,0l0,0.057l0.11,0l0,0.057l0.166,0l0,0.057l0.165,0l0,0.056l0.111,0l0,0.057l0.11,0l0,0.057l0.11,0l0,0.057l0.11,0l0,0.057l0.111,0l0,0.057l0.11,0l0,0.057l0.11,0l0,0.057l0.055,0l0,0.057l0.111,0l0,0.057l0.11,0l0,0.057l0.11,0l0,0.057l0.111,0l0,0.057l0.11,0l0,0.057l0.11,0l0,0.057l0.11,0l0,0.057l0.111,0l0,0.056l0.055,0l0,0.057l0.055,0l0,0.057l0.11,0l0,0.057l0.055,0l0,0.057l0.111,0l0,0.057l0.055,0l0,0.057l0.11,0l0,0.057l0.055,0l0,0.057l0.056,0l0,0.057l0.11,0l0,0.057l0.055,0l0,0.057l0.11,0l0,0.057l0.055,0l0,0.056l0.111,0l0,0.057l0.055,0l0,0.057l0.11,0l0,0.057l0.055,0l0,0.057l0.055,0l0,0.057l0.056,0l0,0.057l0.055,0l0,0.057l0.055,0l0,0.057l0.055,0l0,0.057l0.11,0l0,0.057l0.055,0l0,0.057l0.055,0l0,0.057l0.056,0l0,0.057l0.055,0l0,0.056l0.055,0l0,0.057l0.055,0l0,0.057l0.055,0l0,0.057l0.055,0l0,0.057l0.056,0l0,0.057l0.055,0l0,0.057l0.055,0l0,0.057l0.11,0l0,0.057l0.055,0l0,0.057l0.055,0l0,0.057l0.056,0l0,0.057l0.055,0l0,0.113l0.055,0l0,0.057l0.055,0l0,0.057l0.055,0l0,0.057l0.055,0l0,0.057l0.056,0l0,0.114l0.055,0l0,0.057l0.055,0l0,0.057l0.055,0l0,0.057l0.055,0l0,0.114l0.055,0l0,0.057l0.055,0l0,0.057l0.056,0l0,0.057l0.055,0l0,0.057l0.055,0l0,0.113l0.055,0l0,0.057l0.055,0l0,0.057l0.055,0l0,0.057l0.055,0l0,0.114l0.056,0l0,0.114l0.055,0l0,0.114l0.055,0l0,0.512l-0.055,0l0,0.171l-0.055,0l0,0.057l-0.056,0l0,0.057l-0.055,0l0,0.114l-0.055,0l0,0.056l-0.11,0l0,0.057l-0.11,0l0,0.057l-0.221,0l0,0.057l-0.11,0l0,-0.057l-0.276,0l0,-0.057l-0.166,0l0,-0.057l-0.11,0l0,-0.056l-0.11,0l0,-0.057l-0.11,0l0,-0.057l-0.111,0l0,-0.057l-0.165,0l0,-0.057l-0.111,0l0,-0.057l-0.11,0l0,-0.057l-0.11,0l0,-0.057l-0.11,0l0,-0.057l-0.111,0l0,-0.057l-0.11,0l0,-0.057l-0.11,0l0,-0.057l-0.166,0l0,-0.057l-0.165,0l0,-0.056l-0.165,0l0,-0.057l-0.166,0l0,-0.057l-0.165,0l0,-0.057l-0.166,0l0,-0.057l-0.165,0l0,-0.057l-0.166,0l0,-0.057l-0.165,0l0,-0.057l-0.166,0l0,-0.057l-0.275,0l0,-0.057l-0.276,0l0,-0.057l-0.276,0l0,-0.057l-0.22,0l0,-0.057l-0.276,0l0,-0.057l-0.276,0l0,-0.056l-0.386,0l0,-0.057l-0.496,0l0,-0.057l-0.497,0l0,-0.057l-0.33,0l0,0.057l0.055,0l0,0.057l0.11,0l0,0.057l0.055,0l0,0.056l0.055,0l0,0.057l0.055,0l0,0.057l0.056,0l0,0.057l0.11,0l0,0.057l0.055,0l0,0.057l0.055,0l0,0.057l0.055,0l0,0.057l0.056,0l0,0.057l0.055,0l0,0.057l0.11,0l0,0.057l0.055,0l0,0.057l0.055,0l0,0.057l0.055,0l0,0.057l0.056,0l0,0.056l0.11,0l0,0.057l0.055,0l0,0.057l0.055,0l0,0.057l0.055,0l0,0.057l0.055,0l0,0.057l0.056,0l0,0.057l0.055,0l0,0.057l0.055,0l0,0.057l0.055,0l0,0.057l0.055,0l0,0.057l0.055,0l0,0.057l0.056,0l0,0.057l0.055,0l0,0.056l0.055,0l0,0.057l0.055,0l0,0.057l0.055,0l0,0.057l0.055,0l0,0.057l0.055,0l0,0.057l0.056,0l0,0.057l0.055,0l0,0.057l0.055,0l0,0.057l0.055,0l0,0.057l0.055,0l0,0.057l0.055,0l0,0.057l0.055,0l0,0.057l0.056,0l0,0.056l0.055,0l0,0.114l0.055,0l0,0.057l0.055,0l0,0.057l0.055,0l0,0.057l0.055,0l0,0.057l0.055,0l0,0.057l0.055,0l0,0.114l0.056,0l0,0.057l0.055,0l0,0.057l0.055,0l0,0.057l0.055,0l0,0.057l0.055,0l0,0.057l0.055,0l0,0.057l0.056,0l0,0.113l0.055,0l0,0.057l0.055,0l0,0.057l0.055,0l0,0.057l0.055,0l0,0.057l0.055,0l0,0.057l0.055,0l0,0.114l0.056,0l0,0.057l0.055,0l0,0.057l0.055,0l0,0.114l0.055,0l0,0.057l0.055,0l0,0.056l0.055,0l0,0.114l0.055,0l0,0.057l0.056,0l0,0.057l0.055,0l0,0.114l0.055,0l0,0.057l0.055,0l0,0.057l0.055,0l0,0.114l0.055,0l0,0.057l0.056,0l0,0.057l0.055,0l0,0.113l0.055,0l0,0.057l0.055,0l0,0.114l0.055,0l0,0.057l0.055,0l0,0.057l0.055,0l0,0.114l0.056,0l0,0.057l0.055,0l0,0.114l0.055,0l0,0.057l0.055,0l0,0.114l0.055,0l0,0.056l0.055,0l0,0.114l0.055,0l0,0.057l0.056,0l0,0.114l0.055,0l0,0.114l0.055,0l0,0.057l0.055,0l0,0.114l0.055,0l0,0.057l0.055,0l0,0.114l0.055,0l0,-0.057l0.055,0l0,-0.057l0.056,0l0,-0.057l0.055,0l0,-0.057l0.055,0l0,-0.057l0.055,0l0,-0.057l0.055,0l0,-0.057l0.055,0l0,-0.114l0.056,0l0,-0.057l0.055,0l0,-0.057l0.055,0l0,-0.114l0.055,0l0,-0.056l0.055,0l0,-0.114l0.055,0l0,-0.057l0.055,0l0,-0.114l0.056,0l0,-0.057l0.055,0l0,-0.114l0.055,0l0,-0.114l0.055,0l0,-0.171l0.055,0l0,-0.113l0.055,0l0,-0.114l0.056,0l0,-0.171l0.055,0l0,-0.171l0.055,0l0,-0.228l0.055,0l0,-0.227l0.055,0l0,-0.114l0.055,0l0,-0.171l0.055,0l0,-0.057l0.056,0l0,-0.057l0.055,0l0,-0.057l0.055,0l0,-0.057l0.165,0l0,-0.057l0.111,0l0,-0.056l0.496,0l0,0.056l0.11,0l0,0.057l0.11,0l0,0.057l0.056,0l0,0.057l0.055,0l0,0.057l0.055,0l0,0.057l0.055,0l0,0.114l0.055,0l0,0.114l0.055,0l0,0.626l-0.055,0l0,0.171l-0.055,0l0,0.227l-0.055,0l0,0.228l-0.055,0l0,0.171l-0.055,0l0,0.171l-0.056,0l0,0.114l-0.055,0l0,0.114l-0.055,0l0,0.113l-0.055,0l0,0.114l-0.055,0l0,0.114l-0.055,0l0,0.114l-0.055,0l0,0.114l-0.056,0l0,0.114l-0.055,0l0,0.114l-0.055,0l0,0.057l-0.055,0l0,0.056l-0.055,0l0,0.114l-0.055,0l0,0.057l-0.055,0l0,0.057l-0.056,0l0,0.114l-0.055,0l0,0.057l-0.055,0l0,0.114l-0.055,0l0,0.057l-0.055,0l0,0.057l-0.055,0l0,0.057l-0.055,0l0,0.056l-0.056,0l0,0.057l-0.055,0l0,0.057l-0.055,0l0,0.057l-0.055,0l0,0.057l-0.055,0l0,0.057l-0.055,0l0,0.057l-0.055,0l0,0.057l-0.056,0l0,0.057l-0.055,0l0,0.057l-0.055,0l0,0.057l-0.055,0l0,0.057l-0.055,0l0,0.057l-0.055,0l0,0.056l0.055,0l0,0.171l0.055,0l0,0.114l0.055,0l0,0.114l0.055,0l0,0.114l0.055,0l0,0.171l0.056,0l0,0.114l0.055,0l0,0.113l0.055,0l0,0.114l0.055,0l0,0.114l0.055,0l0,0.171l0.055,0l0,0.114l0.055,0l0,0.114l0.056,0l0,0.114l0.055,0l0,0.17l0.055,0l0,0.114l0.055,0l0,0.114l0.055,0l0,0.114l0.055,0l0,0.114l0.055,0l0,0.17l0.056,0l0,0.171l0.055,0l0,0.171l0.055,0l0,0.171l0.055,0l0,0.171l0.055,0l0,0.227l0.055,0l0,0.171l0.055,0l0,0.171l0.056,0l0,0.171l0.055,0l0,0.171l0.055,0l0,0.17l0.055,0l0,0.171l0.055,0l0,0.171l0.055,0l0,0.171l0.055,0l0,0.284l0.056,0l0,0.285l0.055,0l0,0.285l0.055,0l0,0.284l0.055,0l0,0.285l0.055,0l0,0.284l0.055,0l0,0.285l0.055,0l0,0.285l0.056,0l0,0.341l0.055,0l0,0.854l0.055,0l0,0.854l0.055,0l0,1.424l0.055,0l0,-0.057l0.055,0l0,-0.114l0.055,0l0,-0.057l0.056,0l0,-0.057l0.055,0l0,-0.114l0.055,0l0,-0.057l0.055,0l0,-0.057l0.055,0l0,-0.114l0.055,0l0,-0.057l0.056,0l0,-0.114l0.055,0l0,-0.056l0.055,0l0,-0.057l0.055,0l0,-0.171l0.055,0l0,-0.114l0.055,0l0,-0.114l0.055,0l0,-0.114l0.056,0l0,-0.171l0.055,0l0,-0.113l0.055,0l0,-0.114l0.055,0l0,-0.114l0.055,0l0,-0.171l0.055,0l0,-0.285l0.055,0l0,-0.341l0.056,0l0,-0.285l0.055,0l0,-0.341l0.055,0l0,-0.285l0.055,0l0,-0.285l0.055,0l0,-0.854l0.055,0l0,-0.91l0.056,0l0,-0.57l-0.056,0l0,-1.138l-0.055,0l0,-0.513l-0.055,0l0,-0.341l-0.055,0l0,-0.399l-0.055,0l0,-0.398l-0.055,0l0,-0.285l-0.056,0l0,-0.228l-0.055,0l0,-0.17l-0.055,0l0,-0.228l-0.055,0l0,-0.228l-0.055,0l0,-0.228l-0.055,0l0,-0.227l-0.055,0l0,-0.171l-0.056,0l0,-0.171l-0.055,0l0,-0.171l-0.055,0l0,-0.17l-0.055,0l0,-0.114l-0.055,0l0,-0.171l-0.055,0l0,-0.171l-0.055,0l0,-0.171l-0.056,0l0,-0.113l-0.055,0l0,-0.171l-0.055,0l0,-0.228l-0.055,0l0,-0.285l0.055,0l0,-0.227l0.055,0l0,-0.114l0.055,0l0,-0.057l0.056,0l0,-0.114l0.11,0l0,-0.057l0.055,0l0,-0.057l0.055,0l0,-0.057l0.221,0l0,-0.057l0.386,0l0,0.057l0.165,0l0,0.057l0.111,0l0,0.057l0.055,0l0,0.057l0.055,0l0,0.057l0.055,0l0,0.057l0.055,0l0,0.114l0.055,0l0,0.057l0.055,0l0,0.17l0.055,0l0,0.171l0.056,0l0,0.171l0.055,0l0,0.114l0.055,0l0,0.171l0.055,0l0,0.171l0.055,0l0,0.113l0.055,0l0,0.171l0.055,0l0,0.171l0.056,0l0,0.171l0.055,0l0,0.17l0.055,0l0,0.228l0.055,0l0,0.228l0.055,0l0,0.228l0.055,0l0,0.17l0.055,0l0,0.228l0.056,0l0,0.228l0.055,0l0,0.228l0.055,0l0,0.341l0.055,0l0,0.342l0.055,0l0,0.398l0.055,0l0,0.399l0.056,0l0,0.341l0.055,0l0,1.082l0.055,0l0,1.594l-0.055,0l0,1.138l-0.055,0l0,0.342l-0.056,0l0,0.399l-0.055,0l0,0.341l-0.055,0l0,0.342l-0.055,0l0,0.398l-0.055,0l0,0.285l-0.055,0l0,0.228l-0.056,0l0,0.17l-0.055,0l0,0.228l-0.055,0l0,0.171l-0.055,0l0,0.228l-0.055,0l0,0.17l-0.055,0l0,0.171l-0.055,0l0,0.228l-0.056,0l0,0.171l-0.055,0l0,0.171l-0.055,0l0,0.17l-0.055,0l0,0.114l-0.055,0l0,0.171l-0.055,0l0,0.114l-0.055,0l0,0.171l-0.056,0l0,0.113l-0.055,0l0,0.171l-0.055,0l0,0.114l-0.055,0l0,0.171l-0.055,0l0,0.114l-0.055,0l0,0.113l-0.055,0l0,0.114l-0.055,0l0,0.114l-0.056,0l0,0.114l-0.055,0l0,0.114l-0.055,0l0,0.114l-0.055,0l0,0.114l-0.055,0l0,0.114l-0.055,0l0,0.114l-0.056,0l0,0.113l-0.055,0l0,0.114l-0.055,0l0,0.114l-0.055,0l0,0.114l-0.055,0l0,0.057l-0.055,0l0,0.114l-0.055,0l0,0.114l-0.056,0l0,0.056l-0.055,0l0,0.114l-0.055,0l0,0.114l-0.055,0l0,0.057l-0.055,0l0,0.114l-0.055,0l0,0.057l-0.055,0l0,0.114l-0.056,0l0,0.114l-0.055,0l0,0.056l-0.055,0l0,0.114l-0.055,0l0,0.057l-0.055,0l0,0.114l-0.055,0l0,0.057l-0.056,0l0,0.057l-0.055,0l0,0.114l-0.055,0l0,0.057l-0.055,0l0,0.057l-0.055,0l0,0.113l-0.055,0l0,0.057l-0.055,0l0,0.114l-0.056,0l0,0.057l-0.055,0l0,0.057l-0.055,0l0,0.114l-0.055,0l0,0.057l-0.055,0l0,0.057l-0.055,0l0,0.114l-0.055,0l0,0.057l-0.056,0l0,0.057l-0.055,0l0,0.057l-0.055,0l0,0.057l-0.055,0l0,0.057l-0.055,0l0,0.113l-0.055,0l0,0.057l-0.055,0l0,0.057l-0.056,0l0,0.057l-0.055,0l0,0.057l-0.055,0l0,0.057l-0.055,0l0,0.057l-0.055,0l0,0.057l-0.055,0l0,0.114l-0.055,0l0,0.057l-0.056,0l0,0.057l-0.055,0l0,0.056l-0.055,0l0,0.057l-0.055,0l0,0.057l-0.055,0l0,0.057l-0.055,0l0,0.057l-0.055,0l0,0.057l-0.056,0l0,0.057l-0.055,0l0,0.057l-0.055,0l0,0.057l-0.055,0l0,0.057l-0.055,0l0,0.057l-0.055,0l0,0.057l-0.055,0l0,0.057l-0.056,0l0,0.056l-0.055,0l0,0.057l-0.055,0l0,0.057l-0.055,0l0,0.057l-0.055,0l0,0.057l-0.055,0l0,0.057l-0.111,0l0,0.057l-0.055,0l0,0.057l-0.055,0l0,0.057l-0.055,0l0,0.057l-0.055,0l0,0.057l-0.055,0l0,0.057l-0.111,0l0,0.057l-0.055,0l0,0.056l-0.055,0l0,0.057l-0.055,0l0,0.057l-0.111,0l0,0.057l-0.055,0l0,0.057l-0.055,0l0,0.057l-0.055,0l0,0.057l-0.11,0l0,0.057l-0.055,0l0,0.057l-0.055,0l0,0.057l-0.056,0l0,0.057l-0.055,0l0,0.057l-0.11,0l0,0.057l-0.055,0l0,0.057l-0.055,0l0,0.057l-0.111,0l0,0.057l-0.055,0l0,0.057l-0.11,0l0,0.056l-0.055,0l0,0.057l-0.11,0l0,0.057l-0.056,0l0,0.057l-0.11,0l0,0.057l-0.055,0l0,0.057l-0.11,0l0,0.057l-0.056,0l0,0.057l-0.11,0l0,0.057l-0.11,0l0,0.057l-0.055,0l0,0.057l-0.111,0l0,0.057l-0.055,0l0,0.057l-0.11,0l0,0.056l-0.11,0l0,0.057l-0.055,0l0,0.057l-0.111,0l0,0.057l-0.11,0l0,0.057l-0.11,0l0,0.057l-0.111,0l0,0.057l-0.11,0l0,0.057l-0.11,0l0,0.057l-0.11,0l0,0.057l-0.111,0l0,0.057l-0.055,0l0,0.057l-0.11,0l0,0.057l-0.11,0l0,0.056l-0.166,0l0,0.057l-0.11,0l0,0.057l-0.11,0l0,0.057l-0.166,0l0,0.057l-0.11,0l0,0.057l-0.111,0l0,0.057l-0.11,0l0,0.057l-0.165,0l0,0.057l-0.111,0l0,0.057l-0.165,0l0,0.057l-0.165,0l0,0.057l-0.166,0l0,0.057l-0.165,0l0,0.057l-0.111,0l0,0.057l-0.165,0l0,0.056l-0.165,0l0,0.057l-0.166,0l0,0.057l-0.22,0l0,0.057l-0.221,0l0,0.057l-0.165,0l0,0.057l-0.221,0l0,0.057l-0.221,0l0,0.057l-0.22,0l0,0.057l-0.276,0l0,0.057l-0.331,0l0,0.057l-0.276,0l0,0.057l-0.275,0l0,0.057l-0.497,0l0,0.057l-0.496,0l0,0.057l-0.772,0l0,0.056l-1.765,0Zm0.662,-1.764l0,0.056l0.165,0l0,-0.056l0.166,0l0,-0.057l0.11,0l0,-0.057l0.11,0l0,-0.057l0.056,0l0,-0.057l0.055,0l0,-0.057l0.055,0l0,-0.057l0.055,0l0,-0.114l0.055,0l0,-0.057l0.055,0l0,-0.057l0.055,0l0,-0.114l0.056,0l0,-0.113l0.055,0l0,-0.057l0.055,0l0,-0.114l0.055,0l0,-0.114l0.055,0l0,-0.114l0.055,0l0,-0.114l0.056,0l0,-0.114l0.055,0l0,-0.113l0.055,0l0,-0.171l0.055,0l0,-0.114l0.055,0l0,-0.114l0.055,0l0,-0.171l0.055,0l0,-0.171l0.056,0l0,-0.114l0.055,0l0,-0.17l0.055,0l0,-0.171l0.055,0l0,-0.171l0.055,0l0,-0.171l0.055,0l0,-0.227l0.056,0l0,-0.171l0.055,0l0,-0.171l0.055,0l0,-0.228l0.055,0l0,-0.227l0.055,0l0,-0.228l0.055,0l0,-0.228l0.055,0l0,-0.227l0.056,0l0,-0.057l-0.442,0l0,-0.057l-0.606,0l0,-0.057l-0.552,0l0,-0.057l-0.606,0l0,-0.057l-0.331,0l0,-0.057l-0.331,0l0,-0.057l-0.331,0l0,-0.057l-0.276,0l0,-0.057l-0.331,0l0,-0.057l-0.331,0l0,-0.057l-0.33,0l0,-0.057l-0.221,0l0,-0.057l-0.221,0l0,-0.057l-0.22,0l0,-0.056l-0.221,0l0,-0.057l-0.22,0l0,-0.057l-0.276,0l0,-0.057l-0.165,0l0,-0.057l-0.221,0l0,-0.057l-0.165,0l0,-0.057l-0.166,0l0,-0.057l-0.221,0l0,-0.057l-0.165,0l0,-0.057l-0.221,0l0,-0.057l-0.165,0l0,-0.057l-0.165,0l0,-0.057l-0.166,0l0,-0.056l-0.11,0l0,-0.057l-0.166,0l0,-0.057l-0.165,0l0,-0.057l-0.165,0l0,-0.057l-0.166,0l0,-0.057l-0.165,0l0,-0.057l-0.111,0l0,-0.057l-0.165,0l0,-0.057l-0.11,0l0,-0.057l-0.166,0l0,-0.057l-0.11,0l0,-0.057l-0.11,0l0,-0.057l-0.166,0l0,-0.056l-0.11,0l0,-0.057l-0.166,0l0,-0.057l-0.11,0l0,-0.057l-0.11,0l0,0.455l-0.055,0l0,0.456l-0.056,0l0,0.74l-0.055,0l0,1.537l0.055,0l0,0.569l0.056,0l0,0.285l0.055,0l0,0.284l0.055,0l0,0.171l0.055,0l0,0.171l0.055,0l0,0.114l0.055,0l0,0.17l0.056,0l0,0.114l0.055,0l0,0.057l0.055,0l0,0.057l0.055,0l0,0.114l0.055,0l0,0.057l0.055,0l0,0.057l0.055,0l0,0.057l0.056,0l0,0.057l0.11,0l0,0.057l0.055,0l0,0.057l0.11,0l0,0.057l0.056,0l0,0.057l0.11,0l0,0.057l0.165,0l0,0.056l0.111,0l0,0.057l0.165,0l0,0.057l0.11,0l0,0.057l0.111,0l0,0.057l0.165,0l0,0.057l0.11,0l0,0.057l0.166,0l0,0.057l0.11,0l0,0.057l0.11,0l0,0.057l0.166,0l0,0.057l0.165,0l0,0.057l0.221,0l0,0.057l0.165,0l0,0.056l0.221,0l0,0.057l0.165,0l0,0.057l0.221,0l0,0.057l0.165,0l0,0.057l0.166,0l0,0.057l0.276,0l0,0.057l0.275,0l0,0.057l0.331,0l0,0.057l0.331,0l0,0.057l0.276,0l0,0.057l0.33,0l0,0.057l0.828,0l0,0.057l0.882,0Zm2.647,-0.228l0,0.057l0.165,0l0,-0.057l0.221,0l0,-0.057l0.276,0l0,-0.057l0.22,0l0,-0.057l0.276,0l0,-0.057l0.276,0l0,-0.057l0.22,0l0,-0.057l0.221,0l0,-0.057l0.166,0l0,-0.057l0.165,0l0,-0.056l0.165,0l0,-0.057l0.166,0l0,-0.057l0.11,0l0,-0.057l0.166,0l0,-0.057l0.165,0l0,-0.057l0.165,0l0,-0.057l0.166,0l0,-0.057l0.165,0l0,-0.057l0.166,0l0,-0.057l0.11,0l0,-0.057l0.11,0l0,-0.057l0.111,0l0,-0.057l0.11,0l0,-0.056l0.11,0l0,-0.057l0.11,0l0,-0.057l0.111,0l0,-0.057l0.11,0l0,-0.057l0.11,0l0,-0.057l0.111,0l0,-0.057l0.11,0l0,-0.057l0.11,0l0,-0.057l0.111,0l0,-0.057l0.11,0l0,-0.057l0.11,0l0,-0.057l0.11,0l0,-0.057l0.056,0l0,-0.057l0.11,0l0,-0.057l0.055,0l0,-0.057l0.11,0l0,-0.057l0.055,0l0,-0.056l0.111,0l0,-0.057l0.055,0l0,-0.057l0.11,0l0,-0.057l0.055,0l0,-0.057l0.111,0l0,-0.057l0.11,0l0,-0.057l0.055,0l0,-0.057l0.11,0l0,-0.057l0.055,0l0,-0.057l0.111,0l0,-0.057l0.055,0l0,-0.057l0.11,0l0,-0.057l0.055,0l0,-0.056l0.055,0l0,-0.057l0.056,0l0,-0.057l0.055,0l0,-0.057l0.11,0l0,-0.057l0.055,0l0,-0.057l0.055,0l0,-0.057l0.056,0l0,-0.057l0.055,0l0,-0.057l0.055,0l0,-0.057l0.055,0l0,-0.057l0.055,0l0,-0.057l0.055,0l0,-0.057l0.055,0l0,-0.056l0.056,0l0,-0.057l0.055,0l0,-0.057l0.055,0l0,-0.114l0.055,0l0,-0.057l0.055,0l0,-0.057l0.055,0l0,-0.057l0.055,0l0,-0.057l0.056,0l0,-0.114l0.055,0l0,-0.057l0.055,0l0,-0.057l0.055,0l0,-0.113l0.055,0l0,-0.057l0.055,0l0,-0.114l0.055,0l0,-0.057l0.055,0l0,-0.114l0.056,0l0,-0.114l0.055,0l0,-0.057l0.055,0l0,-0.114l0.055,0l0,-0.057l0.055,0l0,-0.114l0.055,0l0,-0.113l0.056,0l0,-0.114l0.055,0l0,-0.114l0.055,0l0,-0.114l0.055,0l0,-0.171l0.055,0l0,-0.114l0.055,0l0,-0.057l-0.11,0l0,0.057l-0.165,0l0,0.057l-0.111,0l0,0.057l-0.165,0l0,0.057l-0.166,0l0,0.057l-0.11,0l0,0.057l-0.165,0l0,0.057l-0.111,0l0,0.057l-0.165,0l0,0.057l-0.165,0l0,0.057l-0.221,0l0,0.057l-0.165,0l0,0.057l-0.221,0l0,0.056l-0.166,0l0,0.057l-0.22,0l0,0.057l-0.166,0l0,0.057l-0.22,0l0,0.057l-0.276,0l0,0.057l-0.276,0l0,0.057l-0.275,0l0,0.057l-0.276,0l0,0.057l-0.276,0l0,0.057l-0.386,0l0,0.057l-0.496,0l0,0.057l-0.441,0l0,0.057l-0.552,0l0,0.057l-1.158,0l0,0.057l-0.441,0l0,0.17l-0.055,0l0,0.228l-0.055,0l0,0.228l-0.055,0l0,0.284l-0.056,0l0,0.228l-0.055,0l0,0.228l-0.055,0l0,0.171l-0.055,0l0,0.227l-0.055,0l0,0.171l-0.055,0l0,0.171l-0.055,0l0,0.171l-0.056,0l0,0.227l-0.055,0l0,0.171l-0.055,0l0,0.114l-0.055,0l0,0.171l-0.055,0l0,0.171l-0.055,0l0,0.114l-0.056,0l0,0.17l-0.055,0l0,0.114l-0.055,0l0,0.171l-0.055,0l0,0.114l-0.055,0l0,0.114l-0.055,0l0,0.114l-0.055,0l0,0.113l-0.056,0l0,0.114l-0.055,0l0,0.114l-0.055,0l0,0.114l-0.055,0l0,0.057Zm-12.077,-3.188l0,0.057l0.055,0l0,-0.342l-0.055,0l0,-2.391l0.055,0l0,-0.683l0.055,0l0,-0.398l0.056,0l0,-0.342l0.055,0l0,-0.398l0.055,0l0,-0.171l-0.055,0l0,-0.057l-0.055,0l0,-0.057l-0.111,0l0,-0.057l-0.11,0l0,-0.057l-0.11,0l0,-0.057l-0.056,0l0,-0.057l-0.11,0l0,-0.057l-0.11,0l0,-0.057l-0.11,0l0,-0.057l-0.056,0l0,-0.057l-0.11,0l0,-0.057l-0.11,0l0,-0.057l-0.111,0l0,-0.056l-0.055,0l0,-0.057l-0.11,0l0,-0.057l-0.055,0l0,-0.057l-0.11,0l0,-0.057l-0.055,0l0,-0.057l-0.111,0l0,-0.057l-0.055,0l0,-0.057l-0.11,0l0,-0.057l-0.055,0l0,-0.057l-0.111,0l0,-0.057l-0.055,0l0,-0.057l-0.11,0l0,-0.057l-0.055,0l0,-0.056l-0.11,0l0,-0.057l-0.056,0l0,-0.057l-0.055,0l0,-0.057l-0.11,0l0,-0.057l-0.055,0l0,-0.057l-0.055,0l0,-0.057l-0.111,0l0,-0.057l-0.055,0l0,-0.057l-0.055,0l0,-0.057l-0.11,0l0,-0.057l-0.055,0l0,-0.057l-0.056,0l0,-0.057l-0.11,0l0,-0.056l-0.055,0l0,-0.057l-0.055,0l0,-0.057l-0.055,0l0,-0.057l-0.055,0l0,-0.057l-0.056,0l0,-0.057l-0.11,0l0,-0.057l-0.055,0l0,-0.057l-0.055,0l0,-0.057l-0.055,0l0,-0.057l-0.056,0l0,-0.057l-0.055,0l0,-0.057l-0.11,0l0,-0.057l-0.055,0l0,-0.057l-0.055,0l0,-0.057l-0.055,0l0,-0.056l-0.056,0l0,-0.057l-0.055,0l0,-0.057l-0.055,0l0,-0.057l-0.055,0l0,-0.057l-0.055,0l0,-0.057l-0.055,0l0,-0.057l-0.055,0l0,-0.057l-0.055,0l0,-0.057l-0.056,0l0,-0.057l-0.055,0l0,-0.057l-0.055,0l0,-0.057l-0.055,0l0,-0.057l-0.055,0l0,-0.057l-0.055,0l0,-0.057l-0.055,0l0,-0.056l-0.056,0l0,-0.057l-0.055,0l0,-0.057l-0.055,0l0,-0.057l-0.055,0l0,-0.114l-0.055,0l0,-0.057l-0.055,0l0,-0.057l-0.056,0l0,-0.057l-0.055,0l0,-0.114l-0.055,0l0,-0.057l-0.055,0l0,-0.057l-0.055,0l0,-0.056l-0.055,0l0,-0.114l-0.055,0l0,-0.057l-0.056,0l0,-0.057l-0.055,0l0,-0.114l-0.055,0l0,-0.057l-0.055,0l0,-0.057l-0.055,0l0,-0.057l-0.055,0l0,0.114l0.055,0l0,0.342l0.055,0l0,0.398l0.055,0l0,0.342l0.055,0l0,0.284l0.055,0l0,0.171l0.056,0l0,0.171l0.055,0l0,0.171l0.055,0l0,0.17l0.055,0l0,0.171l0.055,0l0,0.171l0.055,0l0,0.171l0.055,0l0,0.171l0.056,0l0,0.114l0.055,0l0,0.17l0.055,0l0,0.114l0.055,0l0,0.114l0.055,0l0,0.171l0.055,0l0,0.114l0.056,0l0,0.113l0.055,0l0,0.171l0.055,0l0,0.114l0.055,0l0,0.114l0.055,0l0,0.057l0.055,0l0,0.114l0.055,0l0,0.114l0.056,0l0,0.113l0.055,0l0,0.114l0.055,0l0,0.114l0.055,0l0,0.114l0.055,0l0,0.114l0.055,0l0,0.114l0.055,0l0,0.057l0.055,0l0,0.114l0.056,0l0,0.114l0.055,0l0,0.056l0.055,0l0,0.114l0.055,0l0,0.057l0.055,0l0,0.114l0.055,0l0,0.057l0.055,0l0,0.114l0.056,0l0,0.114l0.055,0l0,0.057l0.055,0l0,0.113l0.055,0l0,0.057l0.055,0l0,0.114l0.055,0l0,0.057l0.056,0l0,0.057l0.055,0l0,0.114l0.055,0l0,0.057l0.055,0l0,0.057l0.055,0l0,0.114l0.055,0l0,0.057l0.055,0l0,0.056l0.056,0l0,0.114l0.055,0l0,0.057l0.055,0l0,0.057l0.055,0l0,0.114l0.055,0l0,0.057l0.055,0l0,0.057l0.056,0l0,0.057l0.055,0l0,0.057l0.055,0l0,0.057l0.055,0l0,0.057l0.055,0l0,0.113l0.055,0l0,0.057l0.055,0l0,0.057l0.056,0l0,0.057l0.055,0l0,0.057l0.055,0l0,0.057l0.055,0l0,0.057l0.055,0l0,0.057l0.055,0l0,0.114l0.055,0l0,0.057l0.056,0l0,0.057l0.055,0l0,0.057l0.11,0l0,0.057l0.055,0l0,0.057l0.055,0l0,0.057l0.055,0l0,0.056l0.056,0l0,0.057l0.055,0l0,0.057l0.055,0l0,0.057l0.055,0l0,0.057l0.055,0l0,0.057l0.055,0l0,0.057l0.055,0l0,0.057l0.055,0l0,0.057l0.056,0l0,0.057l0.055,0l0,0.057l0.055,0l0,0.057l0.055,0l0,0.057l0.11,0l0,0.056l0.056,0l0,0.057l0.055,0l0,0.057l0.055,0l0,0.057l0.11,0l0,0.057l0.055,0l0,0.057l0.055,0l0,0.057l0.056,0l0,0.057l0.055,0l0,0.057l0.11,0Zm11.857,-3.188l0,0.057l0.33,0l0,-0.228l0.055,0l0,-0.341l0.056,0l0,-0.399l0.055,0l0,-0.398l0.055,0l0,-0.342l0.055,0l0,-0.399l0.055,0l0,-0.569l0.055,0l0,-0.512l0.055,0l0,-0.569l0.056,0l0,-0.513l0.055,0l0,-0.854l0.055,0l0,-0.968l0.055,0l0,-1.024l0.055,0l0,-4.555l-0.551,0l0,-0.057l-0.717,0l0,-0.057l-0.441,0l0,-0.056l-0.331,0l0,-0.057l-0.331,0l0,-0.057l-0.331,0l0,-0.057l-0.331,0l0,-0.057l-0.22,0l0,-0.057l-0.221,0l0,-0.057l-0.165,0l0,-0.057l-0.221,0l0,-0.057l-0.22,0l0,-0.057l-0.166,0l0,-0.057l-0.221,0l0,-0.057l-0.22,0l0,-0.057l-0.221,0l0,-0.056l-0.165,0l0,-0.057l-0.111,0l0,-0.057l-0.165,0l0,-0.057l-0.11,0l0,-0.057l-0.166,0l0,-0.057l-0.165,0l0,-0.057l-0.11,0l0,-0.057l-0.166,0l0,-0.057l-0.11,0l0,-0.057l-0.165,0l0,-0.057l-0.166,0l0,-0.057l-0.11,0l0,-0.057l-0.11,0l0,0.057l-0.056,0l0,0.114l-0.055,0l0,0.114l-0.055,0l0,0.114l-0.055,0l0,0.114l-0.055,0l0,0.114l-0.055,0l0,0.113l-0.056,0l0,0.114l-0.055,0l0,0.114l-0.055,0l0,0.114l-0.055,0l0,0.114l-0.055,0l0,0.057l-0.055,0l0,0.114l-0.055,0l0,0.113l-0.056,0l0,0.171l-0.055,0l0,0.114l-0.055,0l0,0.114l-0.055,0l0,0.114l-0.055,0l0,0.114l-0.055,0l0,0.17l-0.056,0l0,0.114l-0.055,0l0,0.114l-0.055,0l0,0.114l-0.055,0l0,0.114l-0.055,0l0,0.171l-0.055,0l0,0.114l-0.055,0l0,0.113l-0.056,0l0,0.114l-0.055,0l0,0.114l-0.055,0l0,0.171l-0.055,0l0,0.114l-0.055,0l0,0.114l-0.055,0l0,0.114l-0.055,0l0,0.113l-0.056,0l0,0.171l-0.055,0l0,0.114l-0.055,0l0,0.171l-0.055,0l0,0.171l-0.055,0l0,0.113l-0.055,0l0,0.171l-0.055,0l0,0.114l-0.056,0l0,0.171l-0.055,0l0,0.114l-0.055,0l0,0.17l-0.055,0l0,0.114l-0.055,0l0,0.171l-0.055,0l0,0.171l-0.055,0l0,0.114l-0.056,0l0,0.171l-0.055,0l0,0.114l-0.055,0l0,0.17l-0.055,0l0,0.171l-0.055,0l0,0.171l-0.055,0l0,0.171l-0.055,0l0,0.17l-0.056,0l0,0.171l-0.055,0l0,0.171l-0.055,0l0,0.171l-0.055,0l0,0.17l-0.055,0l0,0.171l-0.055,0l0,0.228l-0.055,0l0,0.171l-0.056,0l0,0.171l-0.055,0l0,0.17l-0.055,0l0,0.228l-0.055,0l0,0.228l-0.055,0l0,0.228l-0.055,0l0,0.17l-0.056,0l0,0.228l-0.055,0l0,0.228l-0.055,0l0,0.227l-0.055,0l0,0.228l-0.055,0l0,0.228l0.055,0l0,0.057l0.11,0l0,0.057l0.166,0l0,0.057l0.11,0l0,0.057l0.11,0l0,0.056l0.166,0l0,0.057l0.11,0l0,0.057l0.11,0l0,0.057l0.166,0l0,0.057l0.11,0l0,0.057l0.11,0l0,0.057l0.166,0l0,0.057l0.165,0l0,0.057l0.166,0l0,0.057l0.11,0l0,0.057l0.165,0l0,0.057l0.166,0l0,0.057l0.11,0l0,0.057l0.166,0l0,0.057l0.165,0l0,0.057l0.165,0l0,0.057l0.221,0l0,0.056l0.166,0l0,0.057l0.165,0l0,0.057l0.221,0l0,0.057l0.165,0l0,0.057l0.166,0l0,0.057l0.22,0l0,0.057l0.221,0l0,0.057l0.22,0l0,0.057l0.221,0l0,0.057l0.22,0l0,0.057l0.221,0l0,0.057l0.22,0l0,0.057l0.331,0l0,0.056l0.331,0l0,0.057l0.331,0l0,0.057l0.331,0l0,0.057l0.276,0l0,0.057l0.331,0l0,0.057l0.33,0l0,0.057l0.607,0l0,0.057l0.607,0l0,0.057l0.662,0Zm2.04,0l0,0.057l0.772,0l0,-0.057l0.772,0l0,-0.057l0.441,0l0,-0.057l0.441,0l0,-0.057l0.442,0l0,-0.057l0.22,0l0,-0.057l0.276,0l0,-0.057l0.276,0l0,-0.057l0.275,0l0,-0.057l0.276,0l0,-0.056l0.221,0l0,-0.057l0.165,0l0,-0.057l0.165,0l0,-0.057l0.221,0l0,-0.057l0.165,0l0,-0.057l0.221,0l0,-0.057l0.166,0l0,-0.057l0.165,0l0,-0.057l0.11,0l0,-0.057l0.166,0l0,-0.057l0.11,0l0,-0.057l0.165,0l0,-0.057l0.111,0l0,-0.056l0.165,0l0,-0.057l0.11,0l0,-0.057l0.166,0l0,-0.057l0.11,0l0,-0.057l0.11,0l0,-0.057l0.111,0l0,-0.057l0.11,0l0,-0.057l0.11,0l0,-0.057l0.111,0l0,-0.057l0.055,0l0,-0.057l0.11,0l0,-0.057l0.11,0l0,-0.057l0.111,0l0,-0.057l0.11,0l0,-0.057l0.055,0l0,-0.114l0.055,0l0,-0.455l0.055,0l0,-0.398l0.056,0l0,-0.968l0.055,0l0,-0.74l-0.055,0l0,-0.854l-0.056,0l0,-0.911l-0.055,0l0,-0.342l-0.055,0l0,-0.284l-0.055,0l0,-0.285l-0.055,0l0,-0.342l-0.055,0l0,-0.284l-0.055,0l0,-0.285l-0.056,0l0,-0.284l-0.055,0l0,-0.285l-0.055,0l0,-0.171l-0.055,0l0,-0.171l-0.055,0l0,-0.17l-0.055,0l0,-0.171l-0.056,0l0,-0.171l-0.055,0l0,-0.228l-0.055,0l0,-0.17l-0.055,0l0,-0.171l-0.055,0l0,-0.171l-0.055,0l0,-0.171l-0.055,0l0,-0.171l-0.056,0l0,-0.171l-0.055,0l0,-0.17l-0.055,0l0,-0.114l-0.055,0l0,-0.114l-0.055,0l0,-0.171l-0.055,0l0,-0.114l-0.056,0l0,-0.113l-0.055,0l0,-0.114l-0.055,0l0,-0.171l-0.055,0l0,-0.114l-0.055,0l0,-0.114l-0.055,0l0,-0.114l-0.055,0l0,-0.17l-0.055,0l0,-0.114l-0.056,0l0,-0.114l-0.055,0l0,-0.171l-0.055,0l0,-0.114l-0.055,0l0,-0.057l-0.11,0l0,0.057l-0.111,0l0,0.057l-0.165,0l0,0.057l-0.11,0l0,0.057l-0.111,0l0,0.057l-0.11,0l0,0.057l-0.11,0l0,0.057l-0.111,0l0,0.057l-0.11,0l0,0.057l-0.11,0l0,0.057l-0.11,0l0,0.057l-0.166,0l0,0.056l-0.165,0l0,0.057l-0.166,0l0,0.057l-0.165,0l0,0.057l-0.166,0l0,0.057l-0.165,0l0,0.057l-0.165,0l0,0.057l-0.166,0l0,0.057l-0.276,0l0,0.057l-0.22,0l0,0.057l-0.276,0l0,0.057l-0.221,0l0,0.057l-0.275,0l0,0.057l-0.386,0l0,0.056l-0.442,0l0,0.057l-0.496,0l0,0.057l-0.22,0l0,0.626l0.055,0l0,2.335l-0.055,0l0,2.049l-0.055,0l0,1.082l-0.056,0l0,0.968l-0.055,0l0,0.626l-0.055,0l0,0.569l-0.055,0l0,0.626l-0.055,0l0,0.569l-0.055,0l0,0.399l-0.055,0l0,0.456l-0.056,0l0,0.398l-0.055,0l0,0.399l-0.055,0l0,0.398l-0.055,0l0,0.114Zm-13.345,-3.359l0,0.057l0.11,0l0,-0.171l0.055,0l0,-0.227l0.055,0l0,-0.171l0.055,0l0,-0.228l0.055,0l0,-0.228l0.056,0l0,-0.171l0.055,0l0,-0.227l0.055,0l0,-0.171l0.055,0l0,-0.228l0.055,0l0,-0.228l0.055,0l0,-0.17l0.055,0l0,-0.171l0.056,0l0,-0.171l0.055,0l0,-0.171l0.055,0l0,-0.17l0.055,0l0,-0.171l0.055,0l0,-0.171l0.055,0l0,-0.171l0.055,0l0,-0.17l0.055,0l0,-0.171l0.056,0l0,-0.171l0.055,0l0,-0.171l0.055,0l0,-0.171l0.055,0l0,-0.171l0.055,0l0,-0.17l0.055,0l0,-0.114l0.056,0l0,-0.171l0.055,0l0,-0.114l0.055,0l0,-0.171l0.055,0l0,-0.113l0.055,0l0,-0.171l0.055,0l0,-0.114l0.055,0l0,-0.171l0.056,0l0,-0.114l0.055,0l0,-0.17l0.055,0l0,-0.114l0.055,0l0,-0.171l0.055,0l0,-0.114l0.055,0l0,-0.171l0.056,0l0,-0.114l0.055,0l0,-0.17l0.055,0l0,-0.114l0.055,0l0,-0.114l0.055,0l0,-0.114l0.055,0l0,-0.171l0.055,0l0,-0.114l0.056,0l0,-0.114l0.055,0l0,-0.113l0.055,0l0,-0.114l0.055,0l0,-0.114l0.055,0l0,-0.171l0.055,0l0,-0.114l0.055,0l0,-0.114l0.056,0l0,-0.113l0.055,0l0,-0.114l0.055,0l0,-0.171l0.055,0l0,-0.114l0.055,0l0,-0.114l0.055,0l0,-0.114l0.055,0l0,-0.113l0.056,0l0,-0.114l0.055,0l0,-0.114l0.055,0l0,-0.114l0.055,0l0,-0.114l0.055,0l0,-0.114l0.055,0l0,-0.114l0.055,0l0,-0.113l0.056,0l0,-0.114l0.055,0l0,-0.114l0.055,0l0,-0.114l0.055,0l0,-0.114l0.055,0l0,-0.114l0.055,0l0,-0.171l-0.055,0l0,-0.057l-0.11,0l0,-0.057l-0.11,0l0,-0.056l-0.056,0l0,-0.057l-0.11,0l0,-0.057l-0.055,0l0,-0.057l-0.11,0l0,-0.057l-0.055,0l0,-0.057l-0.111,0l0,-0.057l-0.055,0l0,-0.057l-0.11,0l0,-0.057l-0.055,0l0,-0.057l-0.111,0l0,-0.057l-0.11,0l0,-0.057l-0.055,0l0,-0.057l-0.055,0l0,-0.056l-0.11,0l0,-0.057l-0.056,0l0,-0.057l-0.055,0l0,-0.057l-0.055,0l0,-0.057l-0.055,0l0,-0.057l-0.11,0l0,-0.057l-0.055,0l0,-0.057l-0.056,0l0,-0.057l-0.055,0l0,-0.057l-0.055,0l0,-0.057l-0.11,0l0,-0.057l-0.055,0l0,-0.057l-0.056,0l0,-0.056l-0.055,0l0,-0.057l-0.055,0l0,-0.057l-0.11,0l0,-0.057l-0.055,0l0,-0.057l-0.055,0l0,-0.057l-0.056,0l0,-0.057l-0.055,0l0,-0.114l-0.055,0l0,-0.057l-0.055,0l0,-0.057l-0.055,0l0,-0.057l-0.055,0l0,-0.057l-0.056,0l0,-0.057l-0.055,0l0,-0.057l-0.055,0l0,-0.056l-0.055,0l0,-0.057l-0.055,0l0,-0.057l-0.055,0l0,-0.057l-0.055,0l0,-0.057l-0.055,0l0,-0.057l-0.056,0l0,-0.114l-0.055,0l0,-0.057l-0.055,0l0,-0.057l-0.055,0l0,-0.114l-0.055,0l0,-0.057l-0.055,0l0,-0.114l-0.055,0l0,-0.056l-0.056,0l0,-0.114l-0.055,0l0,-0.057l-0.055,0l0,-0.057l-0.055,0l0,-0.114l-0.055,0l0,-0.057l-0.055,0l0,-0.114l-0.055,0l0,-0.057l-0.056,0l0,-0.114l-0.055,0l0,-0.056l-0.055,0l0,0.056l-0.055,0l0,0.057l-0.055,0l0,0.057l-0.055,0l0,0.057l-0.111,0l0,0.057l-0.055,0l0,0.057l-0.055,0l0,0.057l-0.11,0l0,0.057l-0.055,0l0,0.057l-0.056,0l0,0.057l-0.11,0l0,0.057l-0.055,0l0,0.057l-0.055,0l0,0.057l-0.055,0l0,0.056l-0.111,0l0,0.057l-0.055,0l0,0.057l-0.055,0l0,0.057l-0.055,0l0,0.057l-0.055,0l0,0.057l-0.055,0l0,0.057l-0.056,0l0,0.057l-0.11,0l0,0.057l-0.055,0l0,0.057l-0.055,0l0,0.057l-0.055,0l0,0.057l-0.055,0l0,0.057l-0.055,0l0,0.057l-0.056,0l0,0.057l-0.055,0l0,0.056l-0.11,0l0,0.057l-0.055,0l0,0.057l-0.055,0l0,0.057l-0.055,0l0,0.057l-0.056,0l0,0.057l-0.055,0l0,0.114l-0.055,0l0,0.057l-0.055,0l0,0.057l-0.055,0l0,0.057l-0.055,0l0,0.057l-0.055,0l0,0.057l-0.056,0l0,0.057l-0.055,0l0,0.057l-0.055,0l0,0.056l-0.055,0l0,0.057l-0.055,0l0,0.057l-0.055,0l0,0.057l-0.055,0l0,0.057l-0.056,0l0,0.057l-0.055,0l0,0.057l-0.055,0l0,0.114l-0.055,0l0,0.057l-0.055,0l0,0.057l-0.055,0l0,0.057l-0.056,0l0,0.113l-0.055,0l0,0.057l-0.055,0l0,0.057l-0.055,0l0,0.057l-0.055,0l0,0.057l-0.055,0l0,0.114l-0.055,0l0,0.057l-0.056,0l0,0.057l-0.055,0l0,0.057l-0.055,0l0,0.114l-0.055,0l0,0.057l-0.055,0l0,0.113l-0.055,0l0,0.057l-0.056,0l0,0.114l-0.055,0l0,0.057l-0.055,0l0,0.114l-0.055,0l0,0.057l-0.055,0l0,0.057l-0.055,0l0,0.114l-0.055,0l0,0.057l-0.056,0l0,0.114l-0.055,0l0,0.057l-0.055,0l0,0.113l-0.055,0l0,0.114l-0.055,0l0,0.057l-0.055,0l0,0.114l-0.055,0l0,0.114l-0.055,0l0,0.114l-0.056,0l0,0.114l-0.055,0l0,0.057l-0.055,0l0,0.113l-0.055,0l0,0.114l-0.055,0l0,0.114l-0.055,0l0,0.114l-0.055,0l0,0.114l-0.056,0l0,0.114l-0.055,0l0,0.17l-0.055,0l0,0.114l-0.055,0l0,0.114l-0.055,0l0,0.171l-0.055,0l0,0.114l-0.056,0l0,0.114l-0.055,0l0,0.17l-0.055,0l0,0.171l-0.055,0l0,0.171l-0.055,0l0,0.228l-0.055,0l0,0.171l-0.055,0l0,0.17l-0.056,0l0,0.228l0.056,0l0,0.114l0.055,0l0,0.114l0.055,0l0,0.114l0.055,0l0,0.17l0.055,0l0,0.114l0.055,0l0,0.114l0.055,0l0,0.114l0.056,0l0,0.114l0.055,0l0,0.114l0.055,0l0,0.057l0.055,0l0,0.113l0.055,0l0,0.057l0.055,0l0,0.114l0.056,0l0,0.114l0.055,0l0,0.057l0.055,0l0,0.114l0.055,0l0,0.114l0.055,0l0,0.057l0.055,0l0,0.113l0.055,0l0,0.057l0.056,0l0,0.057l0.055,0l0,0.057l0.055,0l0,0.114l0.055,0l0,0.057l0.055,0l0,0.057l0.055,0l0,0.057l0.055,0l0,0.114l0.055,0l0,0.057l0.056,0l0,0.057l0.055,0l0,0.057l0.055,0l0,0.114l0.055,0l0,0.056l0.055,0l0,0.057l0.055,0l0,0.057l0.055,0l0,0.057l0.056,0l0,0.057l0.055,0l0,0.057l0.055,0l0,0.057l0.055,0l0,0.057l0.055,0l0,0.057l0.055,0l0,0.057l0.056,0l0,0.057l0.055,0l0,0.057l0.055,0l0,0.057l0.055,0l0,0.056l0.055,0l0,0.057l0.055,0l0,0.057l0.055,0l0,0.057l0.056,0l0,0.057l0.055,0l0,0.057l0.055,0l0,0.057l0.055,0l0,0.057l0.055,0l0,0.057l0.055,0l0,0.057l0.111,0l0,0.057l0.055,0l0,0.057l0.055,0l0,0.057l0.055,0l0,0.056l0.055,0l0,0.057l0.111,0l0,0.057l0.055,0l0,0.057l0.055,0l0,0.057l0.055,0l0,0.057l0.11,0l0,0.057l0.055,0l0,0.057l0.056,0l0,0.057l0.055,0l0,0.057l0.11,0l0,0.057l0.055,0l0,0.057l0.055,0l0,0.057l0.055,0l0,0.057l0.056,0l0,0.057l0.11,0l0,0.056l0.055,0l0,0.057l0.055,0l0,0.057l0.11,0l0,0.057l0.055,0l0,0.057l0.111,0l0,0.057l0.11,0l0,0.057l0.055,0l0,0.057l0.111,0l0,0.057l0.055,0l0,0.057l0.11,0l0,0.057l0.055,0l0,0.057l0.11,0l0,0.057l0.111,0l0,0.057l0.055,0l0,0.057l0.11,0l0,0.056l0.055,0l0,0.057l0.111,0l0,0.057l0.055,0l0,0.057l0.11,0l0,0.057l0.11,0l0,0.057l0.056,0Zm12.076,-10.019l0,0.057l0.221,0l0,-0.114l-0.055,0l0,-0.797l-0.055,0l0,-0.74l-0.055,0l0,-0.74l-0.056,0l0,-0.513l-0.055,0l0,-0.455l-0.055,0l0,-0.513l-0.055,0l0,-0.455l-0.055,0l0,-0.399l-0.055,0l0,-0.341l-0.055,0l0,-0.342l-0.056,0l0,-0.341l-0.055,0l0,-0.342l-0.055,0l0,-0.342l-0.055,0l0,-0.284l-0.055,0l0,-0.285l-0.055,0l0,-0.228l-0.055,0l0,-0.284l-0.055,0l0,-0.228l-0.056,0l0,-0.284l-0.055,0l0,-0.171l-0.055,0l0,0.057l-0.055,0l0,0.057l-0.055,0l0,0.057l-0.055,0l0,0.056l-0.055,0l0,0.114l-0.056,0l0,0.057l-0.055,0l0,0.057l-0.055,0l0,0.057l-0.055,0l0,0.057l-0.055,0l0,0.057l-0.055,0l0,0.057l-0.056,0l0,0.114l-0.055,0l0,0.057l-0.055,0l0,0.057l-0.055,0l0,0.056l-0.055,0l0,0.057l-0.055,0l0,0.057l-0.055,0l0,0.057l-0.056,0l0,0.057l-0.055,0l0,0.114l-0.055,0l0,0.057l-0.055,0l0,0.057l-0.055,0l0,0.057l-0.055,0l0,0.114l-0.056,0l0,0.057l-0.055,0l0,0.056l-0.055,0l0,0.114l-0.055,0l0,0.057l-0.055,0l0,0.057l-0.055,0l0,0.057l-0.055,0l0,0.114l-0.056,0l0,0.057l-0.055,0l0,0.057l-0.055,0l0,0.114l-0.055,0l0,0.057l-0.055,0l0,0.057l-0.055,0l0,0.114l-0.055,0l0,0.056l-0.056,0l0,0.057l-0.055,0l0,0.057l-0.055,0l0,0.114l-0.055,0l0,0.057l-0.055,0l0,0.057l-0.055,0l0,0.114l-0.055,0l0,0.057l-0.055,0l0,0.114l-0.056,0l0,0.057l-0.055,0l0,0.113l-0.055,0l0,0.057l-0.055,0l0,0.114l-0.055,0l0,0.057l-0.055,0l0,0.114l-0.055,0l0,0.057l-0.056,0l0,0.114l-0.055,0l0,0.057l-0.055,0l0,0.057l-0.055,0l0,0.113l-0.055,0l0,0.057l-0.055,0l0,0.114l-0.056,0l0,0.057l-0.055,0l0,0.114l-0.055,0l0,0.057l-0.055,0l0,0.114l-0.055,0l0,0.057l-0.055,0l0,0.114l-0.055,0l0,0.057l-0.056,0l0,0.113l-0.055,0l0,0.114l-0.055,0l0,0.057l-0.055,0l0,0.114l-0.055,0l0,0.114l-0.055,0l0,0.057l-0.056,0l0,0.114l-0.055,0l0,0.114l-0.055,0l0,0.057l-0.055,0l0,0.113l-0.055,0l0,0.114l-0.055,0l0,0.057l-0.055,0l0,0.114l-0.056,0l0,0.114l-0.055,0l0,0.057l-0.055,0l0,0.114l-0.055,0l0,0.057l-0.055,0l0,0.113l-0.055,0l0,0.114l-0.055,0l0,0.057l0.11,0l0,0.057l0.11,0l0,0.057l0.166,0l0,0.057l0.165,0l0,0.057l0.11,0l0,0.057l0.166,0l0,0.057l0.165,0l0,0.057l0.111,0l0,0.057l0.165,0l0,0.057l0.165,0l0,0.056l0.111,0l0,0.057l0.22,0l0,0.057l0.221,0l0,0.057l0.165,0l0,0.057l0.221,0l0,0.057l0.22,0l0,0.057l0.221,0l0,0.057l0.165,0l0,0.057l0.221,0l0,0.057l0.276,0l0,0.057l0.331,0l0,0.057l0.331,0l0,0.057l0.331,0l0,0.057l0.551,0l0,0.057l0.606,0Zm1.876,-0.057l0,0.057l0.33,0l0,-0.057l0.497,0l0,-0.057l0.441,0l0,-0.057l0.22,0l0,-0.057l0.276,0l0,-0.057l0.221,0l0,-0.057l0.276,0l0,-0.057l0.22,0l0,-0.057l0.166,0l0,-0.057l0.165,0l0,-0.057l0.165,0l0,-0.057l0.166,0l0,-0.057l0.165,0l0,-0.057l0.166,0l0,-0.057l0.165,0l0,-0.056l0.11,0l0,-0.057l0.111,0l0,-0.057l0.11,0l0,-0.057l0.11,0l0,-0.057l0.111,0l0,-0.057l0.11,0l0,-0.057l0.11,0l0,-0.057l0.11,0l0,-0.057l0.111,0l0,-0.057l-0.055,0l0,-0.114l-0.056,0l0,-0.057l-0.055,0l0,-0.113l-0.055,0l0,-0.057l-0.055,0l0,-0.114l-0.055,0l0,-0.057l-0.055,0l0,-0.114l-0.055,0l0,-0.114l-0.056,0l0,-0.057l-0.055,0l0,-0.114l-0.055,0l0,-0.056l-0.055,0l0,-0.114l-0.055,0l0,-0.057l-0.055,0l0,-0.114l-0.055,0l0,-0.057l-0.056,0l0,-0.057l-0.055,0l0,-0.114l-0.055,0l0,-0.057l-0.055,0l0,-0.114l-0.055,0l0,-0.057l-0.055,0l0,-0.057l-0.056,0l0,-0.113l-0.055,0l0,-0.057l-0.055,0l0,-0.057l-0.055,0l0,-0.114l-0.055,0l0,-0.057l-0.055,0l0,-0.057l-0.055,0l0,-0.114l-0.055,0l0,-0.057l-0.056,0l0,-0.057l-0.055,0l0,-0.114l-0.055,0l0,-0.057l-0.055,0l0,-0.056l-0.055,0l0,-0.114l-0.055,0l0,-0.057l-0.055,0l0,-0.057l-0.056,0l0,-0.057l-0.055,0l0,-0.057l-0.055,0l0,-0.057l-0.055,0l0,-0.057l-0.055,0l0,-0.114l-0.055,0l0,-0.057l-0.055,0l0,-0.057l-0.056,0l0,-0.056l-0.055,0l0,-0.057l-0.055,0l0,-0.057l-0.055,0l0,-0.057l-0.055,0l0,-0.114l-0.055,0l0,-0.057l-0.056,0l0,-0.057l-0.055,0l0,-0.057l-0.055,0l0,-0.057l-0.055,0l0,-0.057l-0.055,0l0,-0.057l-0.055,0l0,-0.057l-0.055,0l0,-0.057l-0.056,0l0,-0.056l-0.055,0l0,-0.057l-0.055,0l0,-0.057l-0.055,0l0,-0.057l-0.055,0l0,-0.057l-0.055,0l0,-0.057l-0.055,0l0,-0.057l-0.056,0l0,-0.057l-0.055,0l0,-0.057l-0.055,0l0,-0.057l-0.055,0l0,-0.057l-0.055,0l0,-0.057l-0.055,0l0,-0.057l-0.056,0l0,-0.057l-0.055,0l0,-0.057l-0.055,0l0,-0.057l-0.055,0l0,-0.056l-0.055,0l0,-0.057l-0.055,0l0,-0.057l-0.055,0l0,-0.057l-0.055,0l0,-0.057l-0.056,0l0,-0.057l-0.055,0l0,-0.057l-0.11,0l0,-0.057l-0.055,0l0,-0.057l-0.055,0l0,-0.057l-0.055,0l0,-0.057l-0.111,0l0,-0.057l-0.055,0l0,-0.057l-0.055,0l0,-0.056l-0.055,0l0,-0.057l-0.055,0l0,-0.057l-0.111,0l0,-0.057l-0.055,0l0,-0.057l-0.055,0l0,-0.057l-0.055,0l0,-0.057l-0.11,0l0,-0.057l-0.056,0l0,-0.057l-0.055,0l0,-0.057l-0.055,0l0,-0.057l-0.055,0l0,-0.057l-0.055,0l0,0.057l0.055,0l0,0.285l0.055,0l0,0.285l0.055,0l0,0.284l0.055,0l0,0.285l0.056,0l0,0.284l0.055,0l0,0.285l0.055,0l0,0.399l0.055,0l0,0.341l0.055,0l0,0.399l0.055,0l0,0.398l0.056,0l0,0.342l0.055,0l0,0.512l0.055,0l0,0.569l0.055,0l0,0.513l0.055,0l0,0.512l0.055,0l0,0.797l0.055,0l0,0.797l0.056,0l0,0.456Zm-20.019,-0.854l0,0.057l0.056,0l0,-0.057l0.055,0l0,-0.114l0.055,0l0,-0.057l0.055,0l0,-0.114l0.055,0l0,-0.057l0.055,0l0,-0.114l0.055,0l0,-0.057l0.056,0l0,-0.114l0.055,0l0,-0.056l0.055,0l0,-0.114l0.055,0l0,-0.057l0.055,0l0,-0.114l0.055,0l0,-0.057l0.056,0l0,-0.114l0.055,0l0,-0.057l0.055,0l0,-0.057l0.055,0l0,-0.057l0.055,0l0,-0.113l0.055,0l0,-0.057l0.055,0l0,-0.057l0.056,0l0,-0.057l0.055,0l0,-0.114l0.055,0l0,-0.057l0.055,0l0,-0.057l0.055,0l0,-0.057l0.055,0l0,-0.057l0.055,0l0,-0.114l0.055,0l0,-0.057l0.056,0l0,-0.057l0.055,0l0,-0.057l0.055,0l0,-0.056l0.055,0l0,-0.114l0.055,0l0,-0.057l0.055,0l0,-0.057l0.055,0l0,-0.057l0.056,0l0,-0.057l0.055,0l0,-0.057l0.055,0l0,-0.057l0.055,0l0,-0.057l0.055,0l0,-0.057l0.055,0l0,-0.057l0.056,0l0,-0.057l0.055,0l0,-0.057l0.055,0l0,-0.057l0.055,0l0,-0.056l0.055,0l0,-0.057l0.055,0l0,-0.057l0.055,0l0,-0.057l0.056,0l0,-0.057l0.055,0l0,-0.057l0.055,0l0,-0.057l0.055,0l0,-0.057l0.055,0l0,-0.057l0.055,0l0,-0.057l0.056,0l0,-0.057l0.055,0l0,-0.057l0.11,0l0,-0.057l0.055,0l0,-0.056l0.055,0l0,-0.057l0.055,0l0,-0.057l0.056,0l0,-0.057l0.055,0l0,-0.057l0.055,0l0,-0.057l0.11,0l0,-0.057l0.055,0l0,-0.057l0.055,0l0,-0.057l0.056,0l0,-0.057l0.055,0l0,-0.057l0.055,0l0,-0.057l0.11,0l0,-0.057l0.055,0l0,-0.057l0.055,0l0,-0.056l0.056,0l0,-0.057l0.11,0l0,-0.057l0.055,0l0,-0.057l0.055,0l0,-0.057l0.11,0l0,-0.057l0.055,0l0,-0.057l0.056,0l0,-0.057l0.11,0l0,-0.057l0.055,0l0,-0.057l0.055,0l0,-0.057l0.111,0l0,-0.057l0.055,0l0,-0.057l0.055,0l0,-0.057l0.11,0l0,-0.057l0.055,0l0,-0.057l0.055,0l0,-0.341l-0.055,0l0,-0.399l-0.055,0l0,-0.398l-0.055,0l0,-0.114l0.055,0l0,-0.569l0.055,0l0,-0.626l0.055,0l0,-0.057l-0.055,0l0,0.057l-0.11,0l0,0.057l-0.055,0l0,0.057l-0.055,0l0,0.056l-0.055,0l0,0.057l-0.056,0l0,0.057l-0.055,0l0,0.057l-0.11,0l0,0.057l-0.055,0l0,0.057l-0.055,0l0,0.057l-0.056,0l0,0.057l-0.055,0l0,0.057l-0.055,0l0,0.057l-0.055,0l0,0.057l-0.055,0l0,0.057l-0.055,0l0,0.057l-0.055,0l0,0.057l-0.055,0l0,0.056l-0.056,0l0,0.057l-0.055,0l0,0.057l-0.055,0l0,0.057l-0.055,0l0,0.057l-0.055,0l0,0.057l-0.055,0l0,0.057l-0.055,0l0,0.057l-0.056,0l0,0.057l-0.055,0l0,0.057l-0.055,0l0,0.057l-0.055,0l0,0.057l-0.055,0l0,0.057l-0.055,0l0,0.056l-0.055,0l0,0.057l-0.056,0l0,0.057l-0.055,0l0,0.057l-0.055,0l0,0.114l-0.055,0l0,0.057l-0.055,0l0,0.057l-0.055,0l0,0.057l-0.055,0l0,0.057l-0.056,0l0,0.057l-0.055,0l0,0.114l-0.055,0l0,0.056l-0.055,0l0,0.057l-0.055,0l0,0.057l-0.055,0l0,0.057l-0.056,0l0,0.114l-0.055,0l0,0.057l-0.055,0l0,0.114l-0.055,0l0,0.057l-0.055,0l0,0.057l-0.055,0l0,0.114l-0.055,0l0,0.057l-0.056,0l0,0.114l-0.055,0l0,0.056l-0.055,0l0,0.057l-0.055,0l0,0.114l-0.055,0l0,0.057l-0.055,0l0,0.114l-0.056,0l0,0.057l-0.055,0l0,0.114l-0.055,0l0,0.114l-0.055,0l0,0.057l-0.055,0l0,0.113l-0.055,0l0,0.057l-0.055,0l0,0.114l-0.056,0l0,0.114l-0.055,0l0,0.057l-0.055,0l0,0.114l-0.055,0l0,0.114l-0.055,0l0,0.114l-0.055,0l0,0.113l-0.055,0l0,0.114l-0.055,0l0,0.057l-0.056,0l0,0.114l-0.055,0l0,0.114l-0.055,0l0,0.114l-0.055,0l0,0.114l-0.055,0l0,0.114l-0.055,0l0,0.113l-0.055,0l0,0.171l-0.056,0l0,0.114l-0.055,0l0,0.114l-0.055,0l0,0.171l-0.055,0l0,0.114l-0.055,0l0,0.17l-0.055,0l0,0.114l-0.056,0l0,0.171l-0.055,0l0,0.114l-0.055,0l0,0.171l-0.055,0l0,0.17l-0.055,0l0,0.228l-0.055,0l0,0.171l-0.055,0l0,0.171l-0.056,0Zm10.975,-1.31l0,0.057l0.055,0l0,-0.114l0.055,0l0,-0.113l0.055,0l0,-0.057l0.055,0l0,-0.114l0.055,0l0,-0.114l0.055,0l0,-0.057l0.056,0l0,-0.114l0.055,0l0,-0.114l0.055,0l0,-0.057l0.055,0l0,-0.114l0.055,0l0,-0.113l0.055,0l0,-0.057l0.056,0l0,-0.114l0.055,0l0,-0.114l0.055,0l0,-0.057l0.055,0l0,-0.114l0.055,0l0,-0.114l0.055,0l0,-0.057l0.055,0l0,-0.114l0.056,0l0,-0.113l0.055,0l0,-0.057l0.055,0l0,-0.114l0.055,0l0,-0.057l0.055,0l0,-0.114l0.055,0l0,-0.057l0.055,0l0,-0.114l0.055,0l0,-0.057l0.056,0l0,-0.113l0.055,0l0,-0.057l0.055,0l0,-0.114l0.055,0l0,-0.057l0.055,0l0,-0.114l0.055,0l0,-0.057l0.055,0l0,-0.114l0.056,0l0,-0.057l0.055,0l0,-0.114l0.055,0l0,-0.057l0.055,0l0,-0.113l0.055,0l0,-0.057l0.055,0l0,-0.114l0.055,0l0,-0.057l0.056,0l0,-0.057l0.055,0l0,-0.114l0.055,0l0,-0.057l0.055,0l0,-0.057l0.055,0l0,-0.114l0.055,0l0,-0.057l0.056,0l0,-0.057l0.055,0l0,-0.113l0.055,0l0,-0.057l0.055,0l0,-0.057l0.055,0l0,-0.114l0.055,0l0,-0.057l0.055,0l0,-0.057l0.056,0l0,-0.114l0.055,0l0,-0.057l0.055,0l0,-0.057l0.055,0l0,-0.114l0.055,0l0,-0.056l0.055,0l0,-0.114l0.056,0l0,-0.057l0.055,0l0,-0.057l0.055,0l0,-0.057l0.055,0l0,-0.057l0.055,0l0,-0.114l0.055,0l0,-0.057l0.055,0l0,-0.057l0.056,0l0,-0.057l0.055,0l0,-0.057l0.055,0l0,-0.113l0.055,0l0,-0.057l0.055,0l0,-0.057l0.055,0l0,-0.057l0.055,0l0,-0.057l0.055,0l0,-0.114l0.056,0l0,-0.057l0.055,0l0,-0.057l0.055,0l0,-0.057l0.055,0l0,-0.057l0.055,0l0,-0.114l-0.11,0l0,0.057l-0.331,0l0,0.057l-0.276,0l0,0.057l-0.275,0l0,0.057l-0.331,0l0,0.057l-0.221,0l0,0.057l-0.22,0l0,0.057l-0.221,0l0,0.057l-0.221,0l0,0.057l-0.22,0l0,0.057l-0.166,0l0,0.057l-0.22,0l0,0.057l-0.221,0l0,0.057l-0.165,0l0,0.056l-0.166,0l0,0.057l-0.165,0l0,0.057l-0.165,0l0,0.057l-0.166,0l0,0.057l-0.165,0l0,0.057l-0.166,0l0,0.057l-0.165,0l0,0.057l-0.111,0l0,0.057l-0.165,0l0,0.057l-0.11,0l0,0.057l-0.166,0l0,0.057l-0.11,0l0,0.057l-0.166,0l0,0.056l-0.11,0l0,0.057l-0.165,0l0,0.057l-0.111,0l0,0.057l-0.165,0l0,0.057l-0.11,0l0,0.057l-0.111,0l0,0.057l-0.11,0l0,0.057l-0.11,0l0,0.057l-0.11,0l0,0.057l-0.111,0l0,0.057l-0.11,0l0,0.057l-0.11,0l0,0.057l-0.111,0l0,0.056l-0.11,0l0,0.057l-0.11,0l0,0.057l-0.11,0l0,0.057l-0.111,0l0,0.057l-0.11,0l0,0.057l-0.055,0l0,0.057l-0.111,0l0,0.057l-0.11,0l0,0.057l-0.11,0l0,0.057l-0.11,0l0,0.057l-0.056,0l0,0.057l-0.11,0l0,0.057l-0.055,0l0,0.057l0.055,0l0,0.114l0.055,0l0,0.056l0.055,0l0,0.114l0.056,0l0,0.057l0.055,0l0,0.114l0.055,0l0,0.114l0.055,0l0,0.057l0.055,0l0,0.114l0.055,0l0,0.057l0.055,0l0,0.114l0.056,0l0,0.056l0.055,0l0,0.057l0.055,0l0,0.057l0.055,0l0,0.057l0.055,0l0,0.057l0.055,0l0,0.057l0.056,0l0,0.057l0.055,0l0,0.114l0.055,0l0,0.057l0.055,0l0,0.057l0.055,0l0,0.057l0.055,0l0,0.057l0.055,0l0,0.056l0.056,0l0,0.057l0.055,0l0,0.057l0.055,0l0,0.057l0.055,0l0,0.057l0.055,0l0,0.057l0.055,0l0,0.057l0.055,0l0,0.057l0.111,0l0,0.057l0.055,0l0,0.057l0.055,0l0,0.057l0.055,0l0,0.057l0.055,0l0,0.057l0.111,0l0,0.057l0.055,0l0,0.057l0.055,0l0,0.056l0.055,0l0,0.057l0.11,0l0,0.057l0.055,0l0,0.057l0.056,0l0,0.057l0.055,0l0,0.057l0.11,0l0,0.057l0.055,0l0,0.057l0.11,0l0,0.057l0.111,0l0,0.057l0.055,0l0,0.057l0.11,0l0,0.057l0.055,0l0,0.057l0.111,0l0,0.057l0.055,0l0,0.057l0.11,0l0,0.056l0.055,0l0,0.057l0.111,0Zm-4.136,-5.294l0,0.057l0.055,0l0,-0.057l0.11,0l0,-0.057l0.11,0l0,-0.057l0.11,0l0,-0.057l0.111,0l0,-0.057l0.11,0l0,-0.057l0.055,0l0,-0.057l0.111,0l0,-0.057l0.11,0l0,-0.056l0.11,0l0,-0.057l0.11,0l0,-0.057l0.111,0l0,-0.057l0.11,0l0,-0.057l0.11,0l0,-0.057l0.111,0l0,-0.057l0.11,0l0,-0.057l0.165,0l0,-0.057l0.111,0l0,-0.057l0.11,0l0,-0.057l0.11,0l0,-0.057l0.111,0l0,-0.057l0.11,0l0,-0.057l0.165,0l0,-0.056l0.111,0l0,-0.057l0.165,0l0,-0.057l0.11,0l0,-0.057l0.166,0l0,-0.057l0.11,0l0,-0.057l0.165,0l0,-0.057l0.111,0l0,-0.057l0.165,0l0,-0.057l0.166,0l0,-0.057l0.165,0l0,-0.057l0.166,0l0,-0.057l0.165,0l0,-0.057l0.165,0l0,-0.057l0.166,0l0,-0.057l0.165,0l0,-0.057l0.166,0l0,-0.056l0.22,0l0,-0.057l0.166,0l0,-0.057l0.22,0l0,-0.057l0.221,0l0,-0.057l0.22,0l0,-0.057l0.166,0l0,-0.057l0.22,0l0,-0.057l0.276,0l0,-0.057l0.276,0l0,-0.057l0.276,0l0,-0.057l0.276,0l0,-0.057l0.275,0l0,-0.057l-0.165,0l0,-0.056l-0.166,0l0,-0.057l-0.22,0l0,-0.057l-0.166,0l0,-0.057l-0.22,0l0,-0.057l-0.166,0l0,-0.057l-0.165,0l0,-0.057l-0.221,0l0,-0.057l-0.276,0l0,-0.057l-0.33,0l0,-0.057l-0.386,0l0,-0.057l-0.386,0l0,-0.057l-1.986,0l0,0.057l-0.331,0l0,0.057l-0.275,0l0,0.057l-0.276,0l0,0.057l-0.276,0l0,0.057l-0.22,0l0,0.057l-0.055,0l0,0.057l-0.056,0l0,0.057l-0.11,0l0,0.057l-0.055,0l0,0.057l-0.055,0l0,0.057l-0.055,0l0,0.056l-0.056,0l0,0.057l-0.055,0l0,0.057l-0.055,0l0,0.057l-0.055,0l0,0.057l-0.055,0l0,0.114l-0.055,0l0,0.057l-0.055,0l0,0.057l-0.056,0l0,0.057l-0.055,0l0,0.114l-0.055,0l0,0.057l-0.055,0l0,0.113l-0.055,0l0,0.114l-0.055,0l0,0.057l-0.056,0l0,0.114l-0.055,0l0,0.114l-0.055,0l0,0.114l-0.055,0l0,0.171l-0.055,0l0,0.227l-0.055,0l0,0.171l-0.055,0l0,0.854l-0.055,0l0,0.114Zm16.709,-2.733l0,0.057l0.11,0l0,-0.057l-0.055,0l0,-0.057l-0.11,0l0,-0.057l-0.111,0l0,-0.056l-0.055,0l0,-0.057l-0.11,0l0,-0.057l-0.11,0l0,-0.057l-0.055,0l0,-0.057l-0.111,0l0,-0.057l-0.11,0l0,-0.057l-0.055,0l0,-0.057l-0.11,0l0,-0.057l-0.166,0l0,-0.057l-0.11,0l0,-0.057l-0.11,0l0,-0.057l-0.111,0l0,-0.057l-0.11,0l0,-0.057l-0.11,0l0,-0.056l-0.111,0l0,-0.057l-0.165,0l0,-0.057l-0.11,0l0,-0.057l-0.111,0l0,0.057l-0.11,0l0,0.057l-0.165,0l0,0.057l-0.166,0l0,0.056l-0.11,0l0,0.057l-0.111,0l0,0.057l-0.11,0l0,0.057l-0.11,0l0,0.057l-0.11,0l0,0.057l-0.055,0l0,0.057l-0.111,0l0,0.057l-0.11,0l0,0.057l0.276,0l0,0.057l0.551,0l0,0.057l0.607,0l0,0.057l0.496,0l0,0.057l0.276,0l0,0.057l0.276,0l0,0.056l0.33,0l0,0.057l0.276,0l0,0.057l0.276,0Zm-5.57,-1.024l0,0.057l0.055,0l0,-0.057l0.055,0l0,-0.057l0.111,0l0,-0.057l0.055,0l0,-0.057l0.055,0l0,-0.057l0.11,0l0,-0.057l0.055,0l0,-0.057l0.111,0l0,-0.057l0.055,0l0,-0.057l0.11,0l0,-0.057l0.055,0l0,-0.057l0.111,0l0,-0.057l0.11,0l0,-0.056l0.055,0l0,-0.057l0.11,0l0,-0.057l0.111,0l0,-0.057l-0.276,0l0,-0.057l-0.276,0l0,-0.057l-0.276,0l0,-0.057l-0.331,0l0,-0.057l-0.386,0l0,-0.057l-0.33,0l0,0.114l0.055,0l0,0.114l0.055,0l0,0.057l0.055,0l0,0.114l0.055,0l0,0.113l0.055,0l0,0.114l0.055,0l0,0.114l0.056,0l0,0.114l0.055,0l0,0.114l0.055,0l0,0.114l0.055,0l0,0.057Zm-2.04,-0.456l0,0.057l0.055,0l0,-0.057l-0.055,0l0,-0.057l-0.056,0l0,-0.114l-0.055,0l0,-0.113l-0.055,0l0,-0.057l-0.055,0l0,-0.057l-0.055,0l0,-0.057l-0.055,0l0,-0.114l-0.055,0l0,-0.057l-0.111,0l0,-0.057l-0.055,0l0,-0.057l-0.055,0l0,-0.057l-0.165,0l0,-0.057l-0.331,0l0,0.057l-0.938,0l0,0.057l-0.165,0l0,0.057l0.22,0l0,0.057l0.166,0l0,0.057l0.221,0l0,0.057l0.22,0l0,0.057l0.166,0l0,0.057l0.165,0l0,0.057l0.165,0l0,0.057l0.111,0l0,0.057l0.165,0l0,0.056l0.165,0l0,0.057l0.166,0l0,0.057l0.11,0l0,0.057" style="fill:url(#_Radial2);fill-rule:nonzero;"/><g><path id="path60-5" d="M41.5,68.371l6.724,0l0,1.424l-2.47,0l0,7.143l-1.784,0l0,-7.143l-2.47,0l0,-1.424" style="fill:#1b2f50;fill-rule:nonzero;"/><path id="path62-2" d="M49.169,76.938l0,-8.566l1.782,0l0,3.38l3.138,0l0,-3.38l1.803,0l0,8.566l-1.781,0l0,-3.762l-3.16,0l0,3.762l-1.782,0" style="fill:#1b2f50;fill-rule:nonzero;"/><path id="path64-7" d="M57.344,68.371l5.563,0l0,1.424l-3.781,0l0,2.005l3.542,0l0,1.424l-3.542,0l0,2.29l3.908,0l0,1.424l-5.69,0l0,-8.567" style="fill:#1b2f50;fill-rule:nonzero;"/><path id="path66-6" d="M71.761,68.371l2.009,0l1.448,6.443l0.023,0l1.335,-6.443l1.701,0l-2.115,8.567l-1.977,0l-1.494,-6.526l-0.023,0l-1.611,6.526l-2.021,0l-2.024,-8.567l1.84,0l1.276,6.443l0.023,0l1.61,-6.443" style="fill:#1b2f50;fill-rule:nonzero;"/><path id="path68-1" d="M80.776,72.656c0,1.469 0.334,3.131 2.094,3.131c1.758,0 2.091,-1.662 2.091,-3.131c0,-1.473 -0.333,-3.135 -2.091,-3.135c-1.76,0 -2.094,1.662 -2.094,3.135m-1.894,0c0,-2.528 1.24,-4.464 3.988,-4.464c2.745,0 3.986,1.936 3.986,4.464c0,2.527 -1.241,4.459 -3.986,4.459c-2.748,0 -3.988,-1.932 -3.988,-4.459" style="fill:#1b2f50;fill-rule:nonzero;"/><path id="path70-4" d="M89.816,72.062l1.493,0c0.781,-0.014 1.24,-0.415 1.24,-1.176c0,-0.758 -0.459,-1.078 -1.24,-1.091l-1.493,0l0,2.267Zm0,4.877l-1.784,0l0,-8.568l3.528,0c1.426,0.012 2.885,0.485 2.885,2.231c0,1.114 -0.7,1.851 -1.723,2.076l0,0.024c1.367,0.154 1.367,1.02 1.517,2.208c0.081,0.546 0.15,1.554 0.482,2.029l-1.965,0c-0.149,-0.76 -0.23,-1.531 -0.31,-2.303c-0.046,-0.474 -0.162,-1.127 -0.746,-1.151l-1.884,0l0,3.454" style="fill:#1b2f50;fill-rule:nonzero;"/><path id="path72-2" d="M95.807,76.938l0,-8.566l1.781,0l0,7.142l3.598,0l0,1.424l-5.379,0" style="fill:#1b2f50;fill-rule:nonzero;"/><path id="path74-3" d="M103.933,75.514l0.921,0c2.116,0.024 2.426,-1.495 2.426,-2.858c0,-1.366 -0.31,-2.884 -2.426,-2.861l-0.921,0l0,5.719Zm-1.78,-7.143l2.828,0c2.585,-0.022 4.195,1.304 4.195,4.285c0,2.977 -1.61,4.305 -4.195,4.282l-2.828,0l0,-8.567" style="fill:#1b2f50;fill-rule:nonzero;"/><path id="path76-2" d="M116.858,71.813c0.748,0 1.16,-0.321 1.16,-1.009c0,-0.689 -0.412,-1.009 -1.16,-1.009l-1.392,0l0,2.018l1.392,0Zm0,3.701c0.838,0 1.412,-0.155 1.412,-1.139c0,-0.985 -0.574,-1.139 -1.412,-1.139l-1.392,0l0,2.278l1.392,0Zm-3.172,1.424l0,-8.567l3.114,0c1.482,-0.094 3.001,0.547 3.001,2.219c0,0.937 -0.633,1.59 -1.461,1.874l0,0.024c1.048,0.227 1.827,0.974 1.827,2.231c0,1.697 -2.069,2.314 -3.343,2.219l-3.138,0" style="fill:#1b2f50;fill-rule:nonzero;"/><path id="path78-2" d="M125.885,73.699l-1.138,-3.654l-0.023,0l-1.217,3.654l2.378,0Zm-5.161,3.239l2.999,-8.567l2.115,0l2.884,8.567l-1.791,0l-0.597,-1.816l-3.288,0l-0.622,1.816l-1.7,0" style="fill:#1b2f50;fill-rule:nonzero;"/><path id="path80-1" d="M134.601,76.938l-3.276,-7.12l-0.022,0.024l0,7.096l-1.667,0l0,-8.566l2.642,0l3.162,6.739l0.023,-0.024l0,-6.715l1.666,0l0,8.566l-2.528,0" style="fill:#1b2f50;fill-rule:nonzero;"/><path id="path82-6" d="M140.374,72.074l0.023,0l2.758,-3.703l2.08,0l-3.046,3.832l3.311,4.735l-2.218,0l-2.885,-4.366l-0.023,0l0,4.366l-1.781,0l0,-8.567l1.781,0l0,3.703" style="fill:#1b2f50;fill-rule:nonzero;"/></g></g></g><defs><radialGradient id="_Radial2" cx="0" cy="0" r="1" gradientUnits="userSpaceOnUse" gradientTransform="matrix(28.8529,0,0,29.7858,110.655,35.2009)"><stop offset="0" style="stop-color:#fff;stop-opacity:1"/><stop offset="0.51" style="stop-color:#52afe6;stop-opacity:1"/><stop offset="0.54" style="stop-color:#52afe6;stop-opacity:1"/><stop offset="0.95" style="stop-color:#1b2f50;stop-opacity:1"/><stop offset="1" style="stop-color:#1b2f50;stop-opacity:1"/></radialGradient></defs></svg>