<svg width="184px" height="52px" viewBox="0 0 1132 320" version="1.1" xmlns="http://www.w3.org/2000/svg" xmlns:xlink="http://www.w3.org/1999/xlink" xml:space="preserve" xmlns:serif="http://www.serif.com/" style="fill-rule:evenodd;clip-rule:evenodd;stroke-linejoin:round;stroke-miterlimit:2;"><rect id="Artboard1" x="0" y="10" width="1132" height="281" style="fill:none;"/><g><g><path d="M818.481,196.791c15.829,0 26.94,-8.161 26.94,-22.704l0,-0.209c0,-12.765 -8.386,-18.101 -23.271,-21.972c-12.685,-3.243 -15.83,-4.813 -15.83,-9.626l0,-0.209c0,-3.557 3.25,-6.382 9.435,-6.382c6.185,0 12.579,2.72 19.079,7.219l8.386,-12.137c-7.443,-5.963 -16.563,-9.311 -27.255,-9.311c-14.991,-0 -25.683,8.788 -25.683,22.076l0,0.209c0,14.543 9.539,18.624 24.32,22.39c12.265,3.139 14.781,5.232 14.781,9.312l0,0.209c0,4.29 -3.984,6.906 -10.588,6.906c-8.386,0 -15.305,-3.453 -21.909,-8.894l-9.539,11.405c8.805,7.847 20.022,11.718 31.134,11.718Z" style="fill:#ff8200;fill-rule:nonzero;"/><path d="M874.465,195.745l16.144,0l0,-58.382l22.328,0l0,-14.857l-60.8,-0l0,14.857l22.328,0l0,58.382Z" style="fill:#ff8200;fill-rule:nonzero;"/><path d="M908.551,195.745l16.458,0l6.709,-16.427l31.029,-0l6.709,16.427l16.877,0l-31.448,-73.762l-14.886,-0l-31.448,73.762Zm28.932,-30.656l9.749,-23.75l9.749,23.75l-19.498,0Z" style="fill:#ff8200;fill-rule:nonzero;"/><path d="M1028.28,197c13.418,0 23.796,-5.231 31.343,-11.613l0,-31.807l-31.868,0l0,13.915l16.249,0l0,10.463c-4.088,2.93 -9.33,4.394 -15.2,4.394c-12.999,0 -22.224,-9.834 -22.224,-23.227l0,-0.209c0,-12.451 9.33,-22.809 21.071,-22.809c8.491,0 13.523,2.721 19.183,7.429l10.169,-12.241c-7.653,-6.487 -15.62,-10.045 -28.828,-10.045c-22.224,0 -38.472,17.055 -38.472,37.875l0,0.21c0,21.657 15.724,37.665 38.577,37.665Z" style="fill:#ff8200;fill-rule:nonzero;"/><path d="M1075.14,195.745l55.873,0l0,-14.334l-39.834,0l0,-15.38l34.593,0l0,-14.334l-34.593,0l0,-14.857l39.31,-0l0,-14.334l-55.349,-0l0,73.239Z" style="fill:#ff8200;fill-rule:nonzero;"/></g><g><path d="M628.364,197c22.599,0 39.026,-17.054 39.026,-37.875l0,-0.209c0,-20.821 -16.218,-37.666 -38.817,-37.666c-22.6,-0 -39.026,17.054 -39.026,37.875l0,0.209c0,20.821 16.217,37.666 38.817,37.666Zm0.209,-14.857c-12.974,-0 -22.181,-10.463 -22.181,-23.018l0,-0.209c0,-12.556 8.998,-22.809 21.972,-22.809c12.973,-0 22.181,10.463 22.181,23.018l0,0.209c0,12.555 -8.998,22.809 -21.972,22.809Z" style="fill:#ff8200;fill-rule:nonzero;"/><path d="M681.724,195.745l15.903,0l0,-46.56l35.469,46.56l13.706,0l0,-73.24l-15.904,-0l0,45.095l-34.317,-45.095l-14.857,-0l0,73.24Z" style="fill:#ff8200;fill-rule:nonzero;"/><rect x="225" y="122.302" width="16.233" height="73.646" style="fill:#ff8200;"/><path d="M258.624,195.948l28.778,-0c23.19,-0 39.212,-16.097 39.212,-36.823l0,-0.21c0,-20.727 -16.022,-36.613 -39.212,-36.613l-28.778,0l0,73.646Zm28.778,-59.022c13.281,0 22.241,9.153 22.241,22.199l0,0.21c0,13.046 -8.96,21.989 -22.241,21.989l-12.544,0l0,-44.398l12.544,-0Z" style="fill:#ff8200;fill-rule:nonzero;"/><path d="M341.053,195.948l56.184,-0l-0,-14.414l-40.056,-0l-0,-15.465l34.785,0l-0,-14.414l-34.785,-0l0,-14.939l39.529,-0l0,-14.414l-55.657,-0l0,73.646Z" style="fill:#ff8200;fill-rule:nonzero;"/><path d="M405.35,195.948l16.55,-0l6.746,-16.518l31.202,0l6.746,16.518l16.971,-0l-31.623,-74.172l-14.968,-0l-31.624,74.172Zm29.094,-30.826l9.803,-23.882l9.803,23.882l-19.606,0Z" style="fill:#ff8200;fill-rule:nonzero;"/><path d="M520.142,197c15.917,0 27.09,-8.206 27.09,-22.83l0,-0.211c0,-12.835 -8.433,-18.201 -23.401,-22.093c-12.755,-3.262 -15.917,-4.84 -15.917,-9.68l0,-0.21c0,-3.577 3.268,-6.418 9.487,-6.418c6.219,0 12.649,2.736 19.185,7.26l8.433,-12.205c-7.484,-5.996 -16.655,-9.363 -27.407,-9.363c-15.074,0 -25.826,8.837 -25.826,22.199l0,0.21c0,14.624 9.593,18.727 24.456,22.515c12.333,3.156 14.862,5.26 14.862,9.363l0,0.211c0,4.313 -4.005,6.944 -10.646,6.944c-8.433,0 -15.39,-3.472 -22.031,-8.943l-9.592,11.468c8.854,7.89 20.133,11.783 31.307,11.783Z" style="fill:#ff8200;fill-rule:nonzero;"/></g><circle cx="90" cy="277" r="15" style="fill:#ff8200;"/><path d="M77.058,241.068c-43.553,-6.28 -77.058,-43.792 -77.058,-89.068c0,-49.672 40.327,-90 90,-90c49.673,0 90,40.328 90,90c0,45.276 -33.505,82.788 -77.058,89.068c1.028,-1.988 1.723,-4.221 2.058,-6.568c1.17,-8.192 5.743,-40.199 7.5,-52.5c1.757,-12.293 -10.082,-22.5 -22.5,-22.5c-12.418,0 -24.256,10.207 -22.5,22.5c1.75,12.248 6.296,44.073 7.5,52.5c0.335,2.347 1.03,4.58 2.058,6.568Zm12.942,-119.068c8.279,0 15,6.722 15,15c0,8.278 -6.721,15 -15,15c-8.278,0 -15,-6.722 -15,-15c0,-8.278 6.722,-15 15,-15Z" style="fill:#ff8200;"/></g></svg>