<?xml version="1.0" encoding="UTF-8" standalone="no"?><!DOCTYPE svg PUBLIC "-//W3C//DTD SVG 1.1//EN" "http://www.w3.org/Graphics/SVG/1.1/DTD/svg11.dtd"><svg width="100%" height="100%" viewBox="0 0 750 500" version="1.1" xmlns="http://www.w3.org/2000/svg" xmlns:xlink="http://www.w3.org/1999/xlink" xml:space="preserve" xmlns:serif="http://www.serif.com/" style="fill-rule:evenodd;clip-rule:evenodd;stroke-linejoin:round;stroke-miterlimit:2;"><g id="spain"><rect x="0" y="0" width="750" height="500" style="fill:#c60b1e;"/><rect x="0" y="125" width="750" height="250" style="fill:#ffc400;"/></g><g id="uk"><rect x="-0.005" y="0" width="749.985" height="499.998" style="fill:#fff;"/><path d="M-0.005,0l0,38.868l191.681,127.796l58.305,-0.001l-249.986,-166.663Zm329.993,0l0,199.983l-329.993,0l0,99.934l329.993,0l0,200.083l89.995,0l0,-200.083l329.994,0l0,-99.934l-329.994,0l0,-199.983l-89.995,0Zm361.673,0l-241.69,161.124l0,5.539l50.003,0l249.985,-166.663l-58.298,0Zm-442.311,333.332l-249.37,166.666l58.308,0l241.675,-161.132l0,-5.534l-50.613,0Zm250.63,0l249.985,166.666l0,-38.871l-191.651,-127.795l-58.334,0Z" style="fill:#c8102e;fill-rule:nonzero;"/><path d="M87.743,0l212.246,141.67l0,-141.67l-212.246,0Zm362.243,0l0,141.693l212.545,-141.693l-212.545,0Zm-449.991,58.308l0,108.343l162.537,0.013l-162.537,-108.356Zm749.985,0.004l-162.522,108.351l162.522,0l0,-108.351Zm-749.985,275.015l0,108.368l162.522,-108.368l-162.522,0Zm587.523,0l162.462,109.6l0,-109.6l-162.462,0Zm-137.531,24.977l0,141.69l212.546,0l-212.546,-141.69Zm-149.997,0.007l-212.53,141.682l212.53,0l0,-141.682Z" style="fill:#012169;fill-rule:nonzero;"/></g><g><rect x="0" y="0" width="250" height="500" style="fill:#009246;"/><rect x="250" y="0" width="250" height="500" style="fill:#fff;"/><rect x="500" y="0" width="250" height="500" style="fill:#ce2b37;"/></g><g><rect x="0" y="0" width="750" height="500" style="fill:#ed2939;"/><rect x="0" y="0" width="500" height="500" style="fill:#fff;"/><rect x="0" y="0" width="250" height="500" style="fill:#002395;"/></g></svg>