<?xml version="1.0" encoding="UTF-8" standalone="no"?>
<!DOCTYPE svg PUBLIC "-//W3C//DTD SVG 1.1//EN" "http://www.w3.org/Graphics/SVG/1.1/DTD/svg11.dtd">
<svg width="100%" height="100%" viewBox="0 0 1920 1080" version="1.1" xmlns="http://www.w3.org/2000/svg" xmlns:xlink="http://www.w3.org/1999/xlink" xml:space="preserve" xmlns:serif="http://www.serif.com/" style="fill-rule:evenodd;clip-rule:evenodd;stroke-linejoin:round;stroke-miterlimit:2;">
    <rect x="0" y="0" width="1920" height="1080" style="fill:rgb(167,134,211);"/>
    <g transform="matrix(1,0,0,1,67.8541,39.7454)">
        <g transform="matrix(0.319425,0,0,0.319425,571.497,180.404)">
            <path d="M1022.64,594.574C1081.27,594.574 1137,607.445 1187.07,630.584L1219.73,611.835C1160.81,580.81 1093.7,563.251 1022.64,563.251C788.207,563.251 597.444,754.014 597.444,988.451C597.444,1075.8 623.93,1157.04 669.241,1224.67L685.46,1191.57L685.46,1191.49C649.524,1132.19 628.841,1062.7 628.841,988.451C628.841,771.276 805.468,594.574 1022.64,594.574ZM1379.54,757.586L1363.18,790.769C1397.03,848.95 1416.45,916.506 1416.45,988.451C1416.45,1205.55 1239.82,1382.25 1022.64,1382.25C966.025,1382.25 912.085,1370.2 863.352,1348.55L831.806,1368.27C889.244,1397.21 954.047,1413.58 1022.64,1413.58C1257.08,1413.58 1447.77,1222.89 1447.77,988.451C1447.77,903.411 1422.7,824.1 1379.54,757.586Z" style="fill:white;fill-opacity:0.18;fill-rule:nonzero;"/>
        </g>
        <g transform="matrix(0.319425,0,0,0.319425,571.497,180.404)">
            <path d="M473.51,1005.53L792.718,981.823L768.893,1027.48L473.51,1005.53Z" style="fill:white;fill-opacity:0.18;"/>
        </g>
        <g transform="matrix(0.319425,0,0,0.319425,571.497,180.404)">
            <path d="M1571.75,1005.53L1244.56,1029.85L1268.53,983.004L1571.75,1005.53Z" style="fill:white;fill-opacity:0.18;"/>
        </g>
        <g transform="matrix(0.319425,0,0,0.319425,571.497,180.404)">
            <path d="M1043.01,730.49L1000.2,758.378L1022.65,456.398L1043.01,730.49Z" style="fill:white;fill-opacity:0.18;"/>
        </g>
        <g transform="matrix(0.319425,0,0,0.319425,571.497,180.404)">
            <path d="M1046.61,1231.94L1022.65,1554.67L1000.84,1261.24L1046.61,1231.94Z" style="fill:white;fill-opacity:0.18;"/>
        </g>
        <g transform="matrix(0.319425,0,0,0.319425,571.497,180.404)">
            <path d="M761.835,744.722L873.471,840.916L862.408,848.118L858.087,856.416L761.835,744.722Z" style="fill:white;fill-opacity:0.18;"/>
        </g>
        <g transform="matrix(0.319425,0,0,0.319425,571.497,180.404)">
            <path d="M1283.43,1266.34L1159.63,1159.66L1180.18,1146.5L1283.43,1266.34Z" style="fill:white;fill-opacity:0.18;"/>
        </g>
        <g transform="matrix(0.319425,0,0,0.319425,571.497,180.404)">
            <path d="M1172.91,1080.89L1071.45,989.043L1132.67,871.631L1020.81,943.189L914.91,847.314L1484.72,482.766L1172.91,1080.89Z" style="fill:white;fill-opacity:0.18;"/>
        </g>
        <g transform="matrix(0.319425,0,0,0.319425,571.497,180.404)">
            <path d="M872.365,903.764L973.818,995.607L912.605,1113.02L1024.46,1041.46L1130.36,1137.33L560.556,1501.88L872.365,903.764Z" style="fill:white;fill-opacity:0.18;"/>
        </g>
        <g transform="matrix(0.319425,0,0,0.319425,571.497,180.404)">
            <path d="M1012.04,353.263L1044.63,402.574L1044.63,352.805C1044.63,349.572 1045.33,347.147 1046.72,345.529C1048.11,343.912 1049.98,343.104 1052.34,343.104C1054.77,343.104 1056.69,343.912 1058.1,345.529C1059.51,347.147 1060.21,349.572 1060.21,352.805L1060.21,418.611C1060.21,425.954 1057.17,429.625 1051.08,429.625C1049.56,429.625 1048.19,429.406 1046.97,428.969C1045.75,428.531 1044.61,427.839 1043.55,426.885C1042.48,425.937 1041.49,424.823 1040.58,423.548C1039.67,422.274 1038.75,420.971 1037.84,419.637L1006.05,370.898L1006.05,419.924C1006.05,423.121 1005.31,425.537 1003.82,427.172C1002.34,428.806 1000.44,429.625 998.119,429.625C995.722,429.625 993.801,428.798 992.355,427.144C990.909,425.487 990.186,423.081 990.186,419.924L990.186,355.373C990.186,352.636 990.489,350.486 991.097,348.925C991.82,347.212 993.019,345.814 994.693,344.731C996.366,343.644 998.176,343.104 1000.12,343.104C1001.64,343.104 1002.94,343.352 1004.02,343.844C1005.11,344.34 1006.06,345.006 1006.88,345.844C1007.7,346.68 1008.53,347.766 1009.39,349.097C1010.24,350.427 1011.13,351.818 1012.04,353.263Z" style="fill:white;fill-opacity:0.18;fill-rule:nonzero;"/>
        </g>
        <g transform="matrix(0.319425,0,0,0.319425,571.497,180.404)">
            <path d="M1062.45,1633.02C1062.45,1638.08 1061.15,1642.63 1058.55,1646.67C1055.94,1650.7 1052.12,1653.86 1047.1,1656.14C1042.08,1658.42 1036.12,1659.56 1029.24,1659.56C1020.98,1659.56 1014.17,1658 1008.8,1654.88C1005,1652.64 1001.91,1649.64 999.532,1645.9C997.154,1642.15 995.965,1638.5 995.965,1634.96C995.965,1632.91 996.679,1631.15 998.105,1629.68C999.532,1628.22 1001.35,1627.49 1003.55,1627.49C1005.34,1627.49 1006.86,1628.06 1008.09,1629.2C1009.33,1630.34 1010.39,1632.04 1011.26,1634.28C1012.32,1636.94 1013.48,1639.17 1014.71,1640.96C1015.95,1642.75 1017.69,1644.22 1019.93,1645.38C1022.18,1646.54 1025.13,1647.12 1028.78,1647.12C1033.8,1647.12 1037.88,1645.95 1041.02,1643.61C1044.16,1641.27 1045.73,1638.35 1045.73,1634.85C1045.73,1632.07 1044.88,1629.82 1043.19,1628.09C1041.5,1626.36 1039.31,1625.03 1036.63,1624.12C1033.94,1623.21 1030.36,1622.24 1025.87,1621.21C1019.86,1619.8 1014.83,1618.16 1010.77,1616.27C1006.72,1614.39 1003.51,1611.82 1001.13,1608.57C998.753,1605.31 997.563,1601.27 997.563,1596.44C997.563,1591.84 998.817,1587.75 1001.33,1584.17C1003.84,1580.59 1007.47,1577.84 1012.23,1575.92C1016.99,1574 1022.58,1573.04 1029.01,1573.04C1034.15,1573.04 1038.59,1573.68 1042.33,1574.95C1046.08,1576.23 1049.19,1577.92 1051.67,1580.03C1054.14,1582.14 1055.95,1584.36 1057.09,1586.68C1058.23,1589 1058.8,1591.27 1058.8,1593.47C1058.8,1595.49 1058.09,1597.31 1056.66,1598.92C1055.23,1600.54 1053.46,1601.35 1051.32,1601.35C1049.39,1601.35 1047.91,1600.86 1046.9,1599.89C1045.89,1598.92 1044.8,1597.33 1043.62,1595.13C1042.1,1591.97 1040.27,1589.51 1038.14,1587.74C1036.01,1585.97 1032.59,1585.08 1027.87,1585.08C1023.49,1585.08 1019.96,1586.04 1017.28,1587.97C1014.6,1589.89 1013.26,1592.2 1013.26,1594.9C1013.26,1596.58 1013.71,1598.02 1014.63,1599.24C1015.54,1600.45 1016.79,1601.5 1018.4,1602.38C1019.99,1603.25 1021.61,1603.94 1023.25,1604.43C1024.88,1604.93 1027.58,1605.65 1031.35,1606.6C1036.07,1607.7 1040.34,1608.92 1044.16,1610.25C1047.99,1611.58 1051.24,1613.2 1053.92,1615.1C1056.6,1617.01 1058.69,1619.41 1060.2,1622.32C1061.7,1625.23 1062.45,1628.8 1062.45,1633.02Z" style="fill:white;fill-opacity:0.18;fill-rule:nonzero;"/>
        </g>
        <g transform="matrix(0.319425,0,0,0.319425,571.497,180.404)">
            <path d="M406.056,1030.18L392.532,980.016L378.834,1030.18C377.767,1033.99 376.923,1036.72 376.293,1038.37C375.666,1040.03 374.571,1041.51 373.013,1042.82C371.451,1044.14 369.378,1044.79 366.792,1044.79C364.699,1044.79 362.977,1044.4 361.627,1043.62C360.277,1042.84 359.182,1041.74 358.344,1040.31C357.508,1038.89 356.821,1037.19 356.29,1035.23C355.758,1033.27 355.283,1031.46 354.863,1029.78L340.937,973.452C340.101,970.18 339.682,967.688 339.682,965.974C339.682,963.808 340.442,961.979 341.964,960.497C343.486,959.011 345.371,958.271 347.616,958.271C350.697,958.271 352.77,959.261 353.837,961.239C354.9,963.217 355.834,966.09 356.633,969.857L367.591,1018.71L379.861,972.997C380.775,969.494 381.591,966.832 382.317,965.007C383.037,963.177 384.218,961.599 385.853,960.269C387.49,958.938 389.716,958.271 392.532,958.271C395.385,958.271 397.602,958.966 399.18,960.353C400.758,961.743 401.853,963.257 402.461,964.891C403.071,966.529 403.89,969.229 404.917,972.997L417.301,1018.71L428.259,969.857C428.792,967.308 429.295,965.31 429.771,963.864C430.246,962.418 431.065,961.124 432.227,959.982C433.386,958.842 435.068,958.271 437.277,958.271C439.483,958.271 441.356,959.003 442.898,960.468C444.44,961.934 445.211,963.769 445.211,965.974C445.211,967.536 444.791,970.029 443.953,973.452L430.029,1029.78C429.075,1033.59 428.288,1036.37 427.66,1038.14C427.033,1039.91 425.967,1041.46 424.465,1042.79C422.959,1044.13 420.838,1044.79 418.1,1044.79C415.512,1044.79 413.439,1044.15 411.88,1042.85C410.319,1041.56 409.233,1040.11 408.625,1038.49C408.017,1036.87 407.162,1034.1 406.056,1030.18Z" style="fill:white;fill-opacity:0.18;fill-rule:nonzero;"/>
        </g>
        <g transform="matrix(0.319425,0,0,0.319425,571.497,180.404)">
            <path d="M1658.62,972.766L1620.44,972.766L1620.44,993.312L1655.6,993.312C1658.18,993.312 1660.11,993.895 1661.39,995.054C1662.66,996.216 1663.3,997.746 1663.3,999.648C1663.3,1001.55 1662.67,1003.1 1661.42,1004.3C1660.16,1005.5 1658.22,1006.1 1655.6,1006.1L1620.44,1006.1L1620.44,1029.9L1659.93,1029.9C1662.6,1029.9 1664.6,1030.52 1665.96,1031.75C1667.3,1032.99 1667.98,1034.63 1667.98,1036.69C1667.98,1038.67 1667.3,1040.27 1665.96,1041.51C1664.6,1042.75 1662.6,1043.37 1659.93,1043.37L1613.88,1043.37C1610.19,1043.37 1607.53,1042.55 1605.91,1040.91C1604.3,1039.28 1603.49,1036.63 1603.49,1032.98L1603.49,970.085C1603.49,967.651 1603.85,965.662 1604.57,964.12C1605.3,962.578 1606.43,961.459 1607.97,960.753C1609.51,960.049 1611.48,959.697 1613.88,959.697L1658.62,959.697C1661.32,959.697 1663.33,960.297 1664.64,961.495C1665.96,962.694 1666.61,964.264 1666.61,966.205C1666.61,968.183 1665.96,969.77 1664.64,970.968C1663.33,972.167 1661.32,972.766 1658.62,972.766Z" style="fill:white;fill-opacity:0.18;fill-rule:nonzero;"/>
        </g>
        <g transform="matrix(0.319425,0,0,0.319425,571.497,180.404)">
            <path d="M433.812,873.294C480.887,632.099 672.713,442.133 914.942,398.049L914.942,381.843C663.89,426.304 465.028,623.275 417.554,873.294L433.812,873.294Z" style="fill:white;fill-opacity:0.18;fill-rule:nonzero;"/>
        </g>
        <g transform="matrix(0.319425,0,0,0.319425,571.497,180.404)">
            <path d="M1614.59,1086.39C1575.67,1322.29 1398.8,1512.2 1169.82,1570.19L1169.82,1586.73C1407.67,1528.19 1591.53,1331.15 1630.82,1086.39L1614.59,1086.39Z" style="fill:white;fill-opacity:0.18;fill-rule:nonzero;"/>
        </g>
    </g>
</svg>
