<?xml version="1.0" encoding="UTF-8" standalone="no"?>
<!DOCTYPE svg PUBLIC "-//W3C//DTD SVG 1.1//EN" "http://www.w3.org/Graphics/SVG/1.1/DTD/svg11.dtd">
<svg width="100%" height="100%" viewBox="0 0 1920 1080" version="1.1" xmlns="http://www.w3.org/2000/svg" xmlns:xlink="http://www.w3.org/1999/xlink" xml:space="preserve" xmlns:serif="http://www.serif.com/" style="fill-rule:evenodd;clip-rule:evenodd;stroke-linecap:round;stroke-linejoin:round;stroke-miterlimit:1.5;">
    <g transform="matrix(1,0,0,1,-2040,-4800)">
        <g transform="matrix(1,0,0,1,-4080,-1)">
            <g id="faits-emotions-actions.fr" transform="matrix(1,0,0,1,6120,4801)">
                <rect x="0" y="0" width="1920" height="1080" style="fill:none;"/>
                <g transform="matrix(1,0,0,1,-260,0)">
                    <g transform="matrix(9.18485e-17,1.5,-1.5,9.18485e-17,9070,-2970)">
                        <path d="M2340,5100L2480,5380L2200,5380L2340,5100Z" style="fill:rgb(252,109,8);stroke:rgb(252,109,8);stroke-width:3.33px;"/>
                    </g>
                    <path d="M960,520L500,520L500,80L960,310L960,520ZM1000,330L1420,540L1000,750L1000,330ZM960,770L500,1000L500,560L960,560L960,770Z" style="fill:none;stroke:rgb(252,109,8);stroke-width:5px;"/>
                    <g transform="matrix(1,0,0,1,-1278.62,-4656.48)">
                        <g transform="matrix(48,0,0,48,1855.07,5091.85)">
                            <rect x="0.091" y="-0.7" width="0.154" height="0.7" style="fill-rule:nonzero;"/>
                        </g>
                        <g transform="matrix(48,0,0,48,1871.2,5091.85)">
                            <path d="M0.068,-0L0.22,-0L0.22,-0.299C0.22,-0.371 0.257,-0.408 0.315,-0.408C0.373,-0.408 0.407,-0.371 0.407,-0.299L0.407,-0L0.559,-0L0.559,-0.347C0.559,-0.47 0.492,-0.546 0.377,-0.546C0.3,-0.546 0.255,-0.505 0.22,-0.46L0.22,-0.536L0.068,-0.536L0.068,-0Z" style="fill-rule:nonzero;"/>
                        </g>
                        <g transform="matrix(48,0,0,48,1901.1,5091.85)">
                            <path d="M0.094,-0L0.246,-0L0.246,-0.406L0.367,-0.406L0.367,-0.53L0.244,-0.53L0.244,-0.551C0.244,-0.591 0.264,-0.609 0.299,-0.609C0.325,-0.609 0.346,-0.604 0.368,-0.596L0.368,-0.722C0.34,-0.731 0.308,-0.737 0.26,-0.737C0.206,-0.737 0.165,-0.723 0.137,-0.695C0.109,-0.667 0.094,-0.624 0.094,-0.565L0.094,-0.531L0.031,-0.531L0.031,-0.406L0.094,-0.406L0.094,-0Z" style="fill-rule:nonzero;"/>
                        </g>
                        <g transform="matrix(48,0,0,48,1918.96,5091.85)">
                            <path d="M0.331,0.012C0.498,0.012 0.622,-0.113 0.622,-0.267L0.622,-0.269C0.622,-0.423 0.499,-0.546 0.333,-0.546C0.166,-0.546 0.042,-0.421 0.042,-0.267L0.042,-0.265C0.042,-0.111 0.165,0.012 0.331,0.012ZM0.333,-0.119C0.249,-0.119 0.192,-0.188 0.192,-0.267L0.192,-0.269C0.192,-0.348 0.244,-0.415 0.331,-0.415C0.415,-0.415 0.472,-0.346 0.472,-0.267L0.472,-0.265C0.472,-0.186 0.42,-0.119 0.333,-0.119Z" style="fill-rule:nonzero;"/>
                        </g>
                        <g transform="matrix(48,0,0,48,1950.83,5091.85)">
                            <path d="M0.068,-0L0.22,-0L0.22,-0.198C0.22,-0.326 0.282,-0.387 0.383,-0.387L0.391,-0.387L0.391,-0.546C0.301,-0.55 0.251,-0.502 0.22,-0.428L0.22,-0.536L0.068,-0.536L0.068,-0Z" style="fill-rule:nonzero;"/>
                        </g>
                        <g transform="matrix(48,0,0,48,1970.9,5091.85)">
                            <path d="M0.068,-0L0.22,-0L0.22,-0.299C0.22,-0.371 0.255,-0.408 0.312,-0.408C0.369,-0.408 0.401,-0.371 0.401,-0.299L0.401,-0L0.553,-0L0.553,-0.299C0.553,-0.371 0.588,-0.408 0.645,-0.408C0.702,-0.408 0.734,-0.371 0.734,-0.299L0.734,-0L0.886,-0L0.886,-0.349C0.886,-0.478 0.818,-0.546 0.705,-0.546C0.632,-0.546 0.576,-0.516 0.529,-0.461C0.501,-0.515 0.448,-0.546 0.378,-0.546C0.301,-0.546 0.255,-0.505 0.22,-0.46L0.22,-0.536L0.068,-0.536L0.068,-0Z" style="fill-rule:nonzero;"/>
                        </g>
                        <g transform="matrix(48,0,0,48,2016.5,5091.85)">
                            <path d="M0.22,0.01C0.294,0.01 0.345,-0.017 0.382,-0.058L0.382,-0L0.529,-0L0.529,-0.311C0.529,-0.383 0.511,-0.442 0.471,-0.482C0.433,-0.52 0.373,-0.542 0.29,-0.542C0.199,-0.542 0.141,-0.525 0.082,-0.499L0.12,-0.383C0.169,-0.401 0.21,-0.412 0.268,-0.412C0.344,-0.412 0.383,-0.377 0.383,-0.314L0.383,-0.305C0.345,-0.318 0.306,-0.327 0.252,-0.327C0.125,-0.327 0.036,-0.273 0.036,-0.156L0.036,-0.154C0.036,-0.048 0.119,0.01 0.22,0.01ZM0.266,-0.095C0.217,-0.095 0.183,-0.119 0.183,-0.16L0.183,-0.162C0.183,-0.21 0.223,-0.236 0.288,-0.236C0.325,-0.236 0.359,-0.228 0.385,-0.216L0.385,-0.189C0.385,-0.134 0.337,-0.095 0.266,-0.095Z" style="fill-rule:nonzero;"/>
                        </g>
                        <g transform="matrix(48,0,0,48,2044.67,5091.85)">
                            <path d="M0.249,0.009C0.3,0.009 0.337,-0.003 0.369,-0.022L0.369,-0.144C0.347,-0.132 0.322,-0.125 0.294,-0.125C0.26,-0.125 0.245,-0.142 0.245,-0.177L0.245,-0.406L0.371,-0.406L0.371,-0.536L0.245,-0.536L0.245,-0.673L0.093,-0.673L0.093,-0.536L0.029,-0.536L0.029,-0.406L0.093,-0.406L0.093,-0.152C0.093,-0.028 0.156,0.009 0.249,0.009Z" style="fill-rule:nonzero;"/>
                        </g>
                        <g transform="matrix(48,0,0,48,2064.59,5091.85)">
                            <path d="M0.071,-0.595L0.231,-0.595L0.231,-0.73L0.071,-0.73L0.071,-0.595ZM0.075,-0L0.227,-0L0.227,-0.536L0.075,-0.536L0.075,-0Z" style="fill-rule:nonzero;"/>
                        </g>
                        <g transform="matrix(48,0,0,48,2079.09,5091.85)">
                            <path d="M0.331,0.012C0.498,0.012 0.622,-0.113 0.622,-0.267L0.622,-0.269C0.622,-0.423 0.499,-0.546 0.333,-0.546C0.166,-0.546 0.042,-0.421 0.042,-0.267L0.042,-0.265C0.042,-0.111 0.165,0.012 0.331,0.012ZM0.333,-0.119C0.249,-0.119 0.192,-0.188 0.192,-0.267L0.192,-0.269C0.192,-0.348 0.244,-0.415 0.331,-0.415C0.415,-0.415 0.472,-0.346 0.472,-0.267L0.472,-0.265C0.472,-0.186 0.42,-0.119 0.333,-0.119Z" style="fill-rule:nonzero;"/>
                        </g>
                        <g transform="matrix(48,0,0,48,2110.96,5091.85)">
                            <path d="M0.068,-0L0.22,-0L0.22,-0.299C0.22,-0.371 0.257,-0.408 0.315,-0.408C0.373,-0.408 0.407,-0.371 0.407,-0.299L0.407,-0L0.559,-0L0.559,-0.347C0.559,-0.47 0.492,-0.546 0.377,-0.546C0.3,-0.546 0.255,-0.505 0.22,-0.46L0.22,-0.536L0.068,-0.536L0.068,-0Z" style="fill-rule:nonzero;"/>
                        </g>
                    </g>
                    <g transform="matrix(1,0,0,1,-1318.43,-4416.48)">
                        <g transform="matrix(48,0,0,48,1935.04,5091.85)">
                            <path d="M0.084,-0L0.617,-0L0.617,-0.137L0.237,-0.137L0.237,-0.284L0.567,-0.284L0.567,-0.421L0.237,-0.421L0.237,-0.563L0.612,-0.563L0.612,-0.7L0.084,-0.7L0.084,-0ZM0.288,-0.755L0.404,-0.755L0.54,-0.855L0.409,-0.912L0.288,-0.755Z" style="fill-rule:nonzero;"/>
                        </g>
                        <g transform="matrix(48,0,0,48,1967.2,5091.85)">
                            <path d="M0.068,-0L0.22,-0L0.22,-0.299C0.22,-0.371 0.255,-0.408 0.312,-0.408C0.369,-0.408 0.401,-0.371 0.401,-0.299L0.401,-0L0.553,-0L0.553,-0.299C0.553,-0.371 0.588,-0.408 0.645,-0.408C0.702,-0.408 0.734,-0.371 0.734,-0.299L0.734,-0L0.886,-0L0.886,-0.349C0.886,-0.478 0.818,-0.546 0.705,-0.546C0.632,-0.546 0.576,-0.516 0.529,-0.461C0.501,-0.515 0.448,-0.546 0.378,-0.546C0.301,-0.546 0.255,-0.505 0.22,-0.46L0.22,-0.536L0.068,-0.536L0.068,-0Z" style="fill-rule:nonzero;"/>
                        </g>
                        <g transform="matrix(48,0,0,48,2012.8,5091.85)">
                            <path d="M0.331,0.012C0.498,0.012 0.622,-0.113 0.622,-0.267L0.622,-0.269C0.622,-0.423 0.499,-0.546 0.333,-0.546C0.166,-0.546 0.042,-0.421 0.042,-0.267L0.042,-0.265C0.042,-0.111 0.165,0.012 0.331,0.012ZM0.333,-0.119C0.249,-0.119 0.192,-0.188 0.192,-0.267L0.192,-0.269C0.192,-0.348 0.244,-0.415 0.331,-0.415C0.415,-0.415 0.472,-0.346 0.472,-0.267L0.472,-0.265C0.472,-0.186 0.42,-0.119 0.333,-0.119Z" style="fill-rule:nonzero;"/>
                        </g>
                        <g transform="matrix(48,0,0,48,2044.67,5091.85)">
                            <path d="M0.249,0.009C0.3,0.009 0.337,-0.003 0.369,-0.022L0.369,-0.144C0.347,-0.132 0.322,-0.125 0.294,-0.125C0.26,-0.125 0.245,-0.142 0.245,-0.177L0.245,-0.406L0.371,-0.406L0.371,-0.536L0.245,-0.536L0.245,-0.673L0.093,-0.673L0.093,-0.536L0.029,-0.536L0.029,-0.406L0.093,-0.406L0.093,-0.152C0.093,-0.028 0.156,0.009 0.249,0.009Z" style="fill-rule:nonzero;"/>
                        </g>
                        <g transform="matrix(48,0,0,48,2064.59,5091.85)">
                            <path d="M0.071,-0.595L0.231,-0.595L0.231,-0.73L0.071,-0.73L0.071,-0.595ZM0.075,-0L0.227,-0L0.227,-0.536L0.075,-0.536L0.075,-0Z" style="fill-rule:nonzero;"/>
                        </g>
                        <g transform="matrix(48,0,0,48,2079.09,5091.85)">
                            <path d="M0.331,0.012C0.498,0.012 0.622,-0.113 0.622,-0.267L0.622,-0.269C0.622,-0.423 0.499,-0.546 0.333,-0.546C0.166,-0.546 0.042,-0.421 0.042,-0.267L0.042,-0.265C0.042,-0.111 0.165,0.012 0.331,0.012ZM0.333,-0.119C0.249,-0.119 0.192,-0.188 0.192,-0.267L0.192,-0.269C0.192,-0.348 0.244,-0.415 0.331,-0.415C0.415,-0.415 0.472,-0.346 0.472,-0.267L0.472,-0.265C0.472,-0.186 0.42,-0.119 0.333,-0.119Z" style="fill-rule:nonzero;"/>
                        </g>
                        <g transform="matrix(48,0,0,48,2110.96,5091.85)">
                            <path d="M0.068,-0L0.22,-0L0.22,-0.299C0.22,-0.371 0.257,-0.408 0.315,-0.408C0.373,-0.408 0.407,-0.371 0.407,-0.299L0.407,-0L0.559,-0L0.559,-0.347C0.559,-0.47 0.492,-0.546 0.377,-0.546C0.3,-0.546 0.255,-0.505 0.22,-0.46L0.22,-0.536L0.068,-0.536L0.068,-0Z" style="fill-rule:nonzero;"/>
                        </g>
                    </g>
                    <g transform="matrix(1,0,0,1,-901.697,-4536.81)">
                        <g transform="matrix(48,0,0,48,1980.54,5091.85)">
                            <path d="M0.024,-0L0.181,-0L0.245,-0.157L0.541,-0.157L0.605,-0L0.766,-0L0.466,-0.705L0.324,-0.705L0.024,-0ZM0.3,-0.293L0.393,-0.52L0.486,-0.293L0.3,-0.293Z" style="fill:white;fill-rule:nonzero;"/>
                        </g>
                        <g transform="matrix(48,0,0,48,2017.26,5091.85)">
                            <path d="M0.321,0.012C0.428,0.012 0.488,-0.029 0.54,-0.086L0.451,-0.176C0.414,-0.141 0.379,-0.119 0.328,-0.119C0.245,-0.119 0.192,-0.185 0.192,-0.267L0.192,-0.269C0.192,-0.348 0.246,-0.415 0.322,-0.415C0.376,-0.415 0.41,-0.392 0.444,-0.356L0.537,-0.456C0.487,-0.512 0.424,-0.546 0.323,-0.546C0.159,-0.546 0.042,-0.42 0.042,-0.267L0.042,-0.265C0.042,-0.112 0.16,0.012 0.321,0.012Z" style="fill:white;fill-rule:nonzero;"/>
                        </g>
                        <g transform="matrix(48,0,0,48,2044.67,5091.85)">
                            <path d="M0.249,0.009C0.3,0.009 0.337,-0.003 0.369,-0.022L0.369,-0.144C0.347,-0.132 0.322,-0.125 0.294,-0.125C0.26,-0.125 0.245,-0.142 0.245,-0.177L0.245,-0.406L0.371,-0.406L0.371,-0.536L0.245,-0.536L0.245,-0.673L0.093,-0.673L0.093,-0.536L0.029,-0.536L0.029,-0.406L0.093,-0.406L0.093,-0.152C0.093,-0.028 0.156,0.009 0.249,0.009Z" style="fill:white;fill-rule:nonzero;"/>
                        </g>
                        <g transform="matrix(48,0,0,48,2064.59,5091.85)">
                            <path d="M0.071,-0.595L0.231,-0.595L0.231,-0.73L0.071,-0.73L0.071,-0.595ZM0.075,-0L0.227,-0L0.227,-0.536L0.075,-0.536L0.075,-0Z" style="fill:white;fill-rule:nonzero;"/>
                        </g>
                        <g transform="matrix(48,0,0,48,2079.09,5091.85)">
                            <path d="M0.331,0.012C0.498,0.012 0.622,-0.113 0.622,-0.267L0.622,-0.269C0.622,-0.423 0.499,-0.546 0.333,-0.546C0.166,-0.546 0.042,-0.421 0.042,-0.267L0.042,-0.265C0.042,-0.111 0.165,0.012 0.331,0.012ZM0.333,-0.119C0.249,-0.119 0.192,-0.188 0.192,-0.267L0.192,-0.269C0.192,-0.348 0.244,-0.415 0.331,-0.415C0.415,-0.415 0.472,-0.346 0.472,-0.267L0.472,-0.265C0.472,-0.186 0.42,-0.119 0.333,-0.119Z" style="fill:white;fill-rule:nonzero;"/>
                        </g>
                        <g transform="matrix(48,0,0,48,2110.96,5091.85)">
                            <path d="M0.068,-0L0.22,-0L0.22,-0.299C0.22,-0.371 0.257,-0.408 0.315,-0.408C0.373,-0.408 0.407,-0.371 0.407,-0.299L0.407,-0L0.559,-0L0.559,-0.347C0.559,-0.47 0.492,-0.546 0.377,-0.546C0.3,-0.546 0.255,-0.505 0.22,-0.46L0.22,-0.536L0.068,-0.536L0.068,-0Z" style="fill:white;fill-rule:nonzero;"/>
                        </g>
                    </g>
                </g>
                <g transform="matrix(1,0,0,1,-2080,-4830)">
                    <circle cx="3520" cy="5370" r="240" style="fill:none;stroke:rgb(252,109,8);stroke-width:5px;"/>
                </g>
                <g transform="matrix(1,0,0,1,-557.129,-4558.45)">
                    <g transform="matrix(48,0,0,48,1861.22,5091.85)">
                        <path d="M0.424,0.012C0.64,0.012 0.797,-0.151 0.797,-0.35L0.797,-0.352C0.797,-0.551 0.642,-0.712 0.426,-0.712C0.21,-0.712 0.053,-0.549 0.053,-0.35L0.053,-0.348C0.053,-0.149 0.208,0.012 0.424,0.012ZM0.426,-0.13C0.302,-0.13 0.214,-0.23 0.214,-0.35L0.214,-0.352C0.214,-0.472 0.3,-0.57 0.424,-0.57C0.548,-0.57 0.636,-0.47 0.636,-0.35L0.636,-0.348C0.636,-0.228 0.55,-0.13 0.426,-0.13Z" style="fill-rule:nonzero;"/>
                    </g>
                    <g transform="matrix(48,0,0,48,1902.02,5091.85)">
                        <path d="M0.387,0.01C0.514,0.01 0.631,-0.088 0.631,-0.267L0.631,-0.269C0.631,-0.448 0.512,-0.546 0.387,-0.546C0.308,-0.546 0.257,-0.509 0.22,-0.459L0.22,-0.73L0.068,-0.73L0.068,-0L0.22,-0L0.22,-0.07C0.256,-0.027 0.306,0.01 0.387,0.01ZM0.348,-0.119C0.277,-0.119 0.218,-0.178 0.218,-0.267L0.218,-0.269C0.218,-0.358 0.277,-0.417 0.348,-0.417C0.419,-0.417 0.479,-0.358 0.479,-0.269L0.479,-0.267C0.479,-0.177 0.419,-0.119 0.348,-0.119Z" style="fill-rule:nonzero;"/>
                    </g>
                    <g transform="matrix(48,0,0,48,1934.42,5091.85)">
                        <path d="M0.071,-0.595L0.231,-0.595L0.231,-0.73L0.071,-0.73L0.071,-0.595ZM0.055,0.163C0.167,0.163 0.227,0.109 0.227,-0.009L0.227,-0.536L0.075,-0.536L0.075,-0.021C0.075,0.024 0.053,0.041 0.021,0.041C0.01,0.041 0.001,0.04 -0.011,0.038L-0.011,0.157C0.01,0.161 0.027,0.163 0.055,0.163Z" style="fill-rule:nonzero;"/>
                    </g>
                    <g transform="matrix(48,0,0,48,1948.91,5091.85)">
                        <path d="M0.322,0.012C0.419,0.012 0.491,-0.026 0.541,-0.088L0.454,-0.165C0.412,-0.126 0.375,-0.11 0.324,-0.11C0.256,-0.11 0.208,-0.146 0.193,-0.215L0.566,-0.215C0.567,-0.229 0.568,-0.243 0.568,-0.255C0.568,-0.407 0.486,-0.546 0.307,-0.546C0.151,-0.546 0.042,-0.42 0.042,-0.267L0.042,-0.265C0.042,-0.101 0.161,0.012 0.322,0.012ZM0.191,-0.31C0.203,-0.379 0.244,-0.424 0.307,-0.424C0.371,-0.424 0.411,-0.378 0.42,-0.31L0.191,-0.31Z" style="fill-rule:nonzero;"/>
                    </g>
                    <g transform="matrix(48,0,0,48,1978.34,5091.85)">
                        <path d="M0.321,0.012C0.428,0.012 0.488,-0.029 0.54,-0.086L0.451,-0.176C0.414,-0.141 0.379,-0.119 0.328,-0.119C0.245,-0.119 0.192,-0.185 0.192,-0.267L0.192,-0.269C0.192,-0.348 0.246,-0.415 0.322,-0.415C0.376,-0.415 0.41,-0.392 0.444,-0.356L0.537,-0.456C0.487,-0.512 0.424,-0.546 0.323,-0.546C0.159,-0.546 0.042,-0.42 0.042,-0.267L0.042,-0.265C0.042,-0.112 0.16,0.012 0.321,0.012Z" style="fill-rule:nonzero;"/>
                    </g>
                    <g transform="matrix(48,0,0,48,2005.74,5091.85)">
                        <path d="M0.249,0.009C0.3,0.009 0.337,-0.003 0.369,-0.022L0.369,-0.144C0.347,-0.132 0.322,-0.125 0.294,-0.125C0.26,-0.125 0.245,-0.142 0.245,-0.177L0.245,-0.406L0.371,-0.406L0.371,-0.536L0.245,-0.536L0.245,-0.673L0.093,-0.673L0.093,-0.536L0.029,-0.536L0.029,-0.406L0.093,-0.406L0.093,-0.152C0.093,-0.028 0.156,0.009 0.249,0.009Z" style="fill-rule:nonzero;"/>
                    </g>
                    <g transform="matrix(48,0,0,48,2025.66,5091.85)">
                        <path d="M0.071,-0.595L0.231,-0.595L0.231,-0.73L0.071,-0.73L0.071,-0.595ZM0.075,-0L0.227,-0L0.227,-0.536L0.075,-0.536L0.075,-0Z" style="fill-rule:nonzero;"/>
                    </g>
                    <g transform="matrix(48,0,0,48,2040.16,5091.85)">
                        <path d="M0.094,-0L0.246,-0L0.246,-0.406L0.367,-0.406L0.367,-0.53L0.244,-0.53L0.244,-0.551C0.244,-0.591 0.264,-0.609 0.299,-0.609C0.325,-0.609 0.346,-0.604 0.368,-0.596L0.368,-0.722C0.34,-0.731 0.308,-0.737 0.26,-0.737C0.206,-0.737 0.165,-0.723 0.137,-0.695C0.109,-0.667 0.094,-0.624 0.094,-0.565L0.094,-0.531L0.031,-0.531L0.031,-0.406L0.094,-0.406L0.094,-0Z" style="fill-rule:nonzero;"/>
                    </g>
                    <g transform="matrix(48,0,0,48,2072.9,5091.85)">
                        <path d="M0.288,0.01C0.367,0.01 0.418,-0.027 0.455,-0.077L0.455,-0L0.607,-0L0.607,-0.73L0.455,-0.73L0.455,-0.466C0.419,-0.509 0.369,-0.546 0.288,-0.546C0.161,-0.546 0.044,-0.448 0.044,-0.269L0.044,-0.267C0.044,-0.088 0.163,0.01 0.288,0.01ZM0.327,-0.119C0.256,-0.119 0.196,-0.178 0.196,-0.267L0.196,-0.269C0.196,-0.359 0.256,-0.417 0.327,-0.417C0.398,-0.417 0.457,-0.358 0.457,-0.269L0.457,-0.267C0.457,-0.178 0.398,-0.119 0.327,-0.119Z" style="fill-rule:nonzero;"/>
                    </g>
                    <g transform="matrix(48,0,0,48,2105.3,5091.85)">
                        <path d="M0.322,0.012C0.419,0.012 0.491,-0.026 0.541,-0.088L0.454,-0.165C0.412,-0.126 0.375,-0.11 0.324,-0.11C0.256,-0.11 0.208,-0.146 0.193,-0.215L0.566,-0.215C0.567,-0.229 0.568,-0.243 0.568,-0.255C0.568,-0.407 0.486,-0.546 0.307,-0.546C0.151,-0.546 0.042,-0.42 0.042,-0.267L0.042,-0.265C0.042,-0.101 0.161,0.012 0.322,0.012ZM0.191,-0.31C0.203,-0.379 0.244,-0.424 0.307,-0.424C0.371,-0.424 0.411,-0.378 0.42,-0.31L0.191,-0.31Z" style="fill-rule:nonzero;"/>
                    </g>
                    <g transform="matrix(48,0,0,48,1817.49,5139.85)">
                        <path d="M0.249,0.009C0.3,0.009 0.337,-0.003 0.369,-0.022L0.369,-0.144C0.347,-0.132 0.322,-0.125 0.294,-0.125C0.26,-0.125 0.245,-0.142 0.245,-0.177L0.245,-0.406L0.371,-0.406L0.371,-0.536L0.245,-0.536L0.245,-0.673L0.093,-0.673L0.093,-0.536L0.029,-0.536L0.029,-0.406L0.093,-0.406L0.093,-0.152C0.093,-0.028 0.156,0.009 0.249,0.009Z" style="fill-rule:nonzero;"/>
                    </g>
                    <g transform="matrix(48,0,0,48,1837.41,5139.85)">
                        <path d="M0.068,-0L0.22,-0L0.22,-0.198C0.22,-0.326 0.282,-0.387 0.383,-0.387L0.391,-0.387L0.391,-0.546C0.301,-0.55 0.251,-0.502 0.22,-0.428L0.22,-0.536L0.068,-0.536L0.068,-0Z" style="fill-rule:nonzero;"/>
                    </g>
                    <g transform="matrix(48,0,0,48,1856.27,5139.85)">
                        <path d="M0.22,0.01C0.294,0.01 0.345,-0.017 0.382,-0.058L0.382,-0L0.529,-0L0.529,-0.311C0.529,-0.383 0.511,-0.442 0.471,-0.482C0.433,-0.52 0.373,-0.542 0.29,-0.542C0.199,-0.542 0.141,-0.525 0.082,-0.499L0.12,-0.383C0.169,-0.401 0.21,-0.412 0.268,-0.412C0.344,-0.412 0.383,-0.377 0.383,-0.314L0.383,-0.305C0.345,-0.318 0.306,-0.327 0.252,-0.327C0.125,-0.327 0.036,-0.273 0.036,-0.156L0.036,-0.154C0.036,-0.048 0.119,0.01 0.22,0.01ZM0.266,-0.095C0.217,-0.095 0.183,-0.119 0.183,-0.16L0.183,-0.162C0.183,-0.21 0.223,-0.236 0.288,-0.236C0.325,-0.236 0.359,-0.228 0.385,-0.216L0.385,-0.189C0.385,-0.134 0.337,-0.095 0.266,-0.095Z" style="fill-rule:nonzero;"/>
                    </g>
                    <g transform="matrix(48,0,0,48,1884.69,5139.85)">
                        <path d="M0.068,-0L0.22,-0L0.22,-0.299C0.22,-0.371 0.257,-0.408 0.315,-0.408C0.373,-0.408 0.407,-0.371 0.407,-0.299L0.407,-0L0.559,-0L0.559,-0.347C0.559,-0.47 0.492,-0.546 0.377,-0.546C0.3,-0.546 0.255,-0.505 0.22,-0.46L0.22,-0.536L0.068,-0.536L0.068,-0Z" style="fill-rule:nonzero;"/>
                    </g>
                    <g transform="matrix(48,0,0,48,1914.59,5139.85)">
                        <path d="M0.256,0.01C0.372,0.01 0.461,-0.044 0.461,-0.163L0.461,-0.165C0.461,-0.263 0.374,-0.299 0.299,-0.324C0.241,-0.344 0.19,-0.358 0.19,-0.388L0.19,-0.39C0.19,-0.411 0.209,-0.427 0.246,-0.427C0.285,-0.427 0.338,-0.408 0.391,-0.377L0.449,-0.482C0.391,-0.521 0.317,-0.544 0.249,-0.544C0.141,-0.544 0.053,-0.483 0.053,-0.374L0.053,-0.372C0.053,-0.268 0.138,-0.233 0.213,-0.211C0.272,-0.193 0.324,-0.182 0.324,-0.149L0.324,-0.147C0.324,-0.123 0.304,-0.107 0.26,-0.107C0.21,-0.107 0.149,-0.129 0.091,-0.171L0.026,-0.071C0.097,-0.015 0.181,0.01 0.256,0.01Z" style="fill-rule:nonzero;"/>
                    </g>
                    <g transform="matrix(48,0,0,48,1938.69,5139.85)">
                        <path d="M0.094,-0L0.246,-0L0.246,-0.406L0.367,-0.406L0.367,-0.53L0.244,-0.53L0.244,-0.551C0.244,-0.591 0.264,-0.609 0.299,-0.609C0.325,-0.609 0.346,-0.604 0.368,-0.596L0.368,-0.722C0.34,-0.731 0.308,-0.737 0.26,-0.737C0.206,-0.737 0.165,-0.723 0.137,-0.695C0.109,-0.667 0.094,-0.624 0.094,-0.565L0.094,-0.531L0.031,-0.531L0.031,-0.406L0.094,-0.406L0.094,-0Z" style="fill-rule:nonzero;"/>
                    </g>
                    <g transform="matrix(48,0,0,48,1956.54,5139.85)">
                        <path d="M0.331,0.012C0.498,0.012 0.622,-0.113 0.622,-0.267L0.622,-0.269C0.622,-0.423 0.499,-0.546 0.333,-0.546C0.166,-0.546 0.042,-0.421 0.042,-0.267L0.042,-0.265C0.042,-0.111 0.165,0.012 0.331,0.012ZM0.333,-0.119C0.249,-0.119 0.192,-0.188 0.192,-0.267L0.192,-0.269C0.192,-0.348 0.244,-0.415 0.331,-0.415C0.415,-0.415 0.472,-0.346 0.472,-0.267L0.472,-0.265C0.472,-0.186 0.42,-0.119 0.333,-0.119Z" style="fill-rule:nonzero;"/>
                    </g>
                    <g transform="matrix(48,0,0,48,1988.42,5139.85)">
                        <path d="M0.068,-0L0.22,-0L0.22,-0.198C0.22,-0.326 0.282,-0.387 0.383,-0.387L0.391,-0.387L0.391,-0.546C0.301,-0.55 0.251,-0.502 0.22,-0.428L0.22,-0.536L0.068,-0.536L0.068,-0Z" style="fill-rule:nonzero;"/>
                    </g>
                    <g transform="matrix(48,0,0,48,2008.48,5139.85)">
                        <path d="M0.068,-0L0.22,-0L0.22,-0.299C0.22,-0.371 0.255,-0.408 0.312,-0.408C0.369,-0.408 0.401,-0.371 0.401,-0.299L0.401,-0L0.553,-0L0.553,-0.299C0.553,-0.371 0.588,-0.408 0.645,-0.408C0.702,-0.408 0.734,-0.371 0.734,-0.299L0.734,-0L0.886,-0L0.886,-0.349C0.886,-0.478 0.818,-0.546 0.705,-0.546C0.632,-0.546 0.576,-0.516 0.529,-0.461C0.501,-0.515 0.448,-0.546 0.378,-0.546C0.301,-0.546 0.255,-0.505 0.22,-0.46L0.22,-0.536L0.068,-0.536L0.068,-0Z" style="fill-rule:nonzero;"/>
                    </g>
                    <g transform="matrix(48,0,0,48,2054.08,5139.85)">
                        <path d="M0.22,0.01C0.294,0.01 0.345,-0.017 0.382,-0.058L0.382,-0L0.529,-0L0.529,-0.311C0.529,-0.383 0.511,-0.442 0.471,-0.482C0.433,-0.52 0.373,-0.542 0.29,-0.542C0.199,-0.542 0.141,-0.525 0.082,-0.499L0.12,-0.383C0.169,-0.401 0.21,-0.412 0.268,-0.412C0.344,-0.412 0.383,-0.377 0.383,-0.314L0.383,-0.305C0.345,-0.318 0.306,-0.327 0.252,-0.327C0.125,-0.327 0.036,-0.273 0.036,-0.156L0.036,-0.154C0.036,-0.048 0.119,0.01 0.22,0.01ZM0.266,-0.095C0.217,-0.095 0.183,-0.119 0.183,-0.16L0.183,-0.162C0.183,-0.21 0.223,-0.236 0.288,-0.236C0.325,-0.236 0.359,-0.228 0.385,-0.216L0.385,-0.189C0.385,-0.134 0.337,-0.095 0.266,-0.095Z" style="fill-rule:nonzero;"/>
                    </g>
                    <g transform="matrix(48,0,0,48,2082.26,5139.85)">
                        <path d="M0.249,0.009C0.3,0.009 0.337,-0.003 0.369,-0.022L0.369,-0.144C0.347,-0.132 0.322,-0.125 0.294,-0.125C0.26,-0.125 0.245,-0.142 0.245,-0.177L0.245,-0.406L0.371,-0.406L0.371,-0.536L0.245,-0.536L0.245,-0.673L0.093,-0.673L0.093,-0.536L0.029,-0.536L0.029,-0.406L0.093,-0.406L0.093,-0.152C0.093,-0.028 0.156,0.009 0.249,0.009Z" style="fill-rule:nonzero;"/>
                    </g>
                    <g transform="matrix(48,0,0,48,2102.18,5139.85)">
                        <path d="M0.071,-0.595L0.231,-0.595L0.231,-0.73L0.071,-0.73L0.071,-0.595ZM0.075,-0L0.227,-0L0.227,-0.536L0.075,-0.536L0.075,-0Z" style="fill-rule:nonzero;"/>
                    </g>
                    <g transform="matrix(48,0,0,48,2116.67,5139.85)">
                        <path d="M0.331,0.012C0.498,0.012 0.622,-0.113 0.622,-0.267L0.622,-0.269C0.622,-0.423 0.499,-0.546 0.333,-0.546C0.166,-0.546 0.042,-0.421 0.042,-0.267L0.042,-0.265C0.042,-0.111 0.165,0.012 0.331,0.012ZM0.333,-0.119C0.249,-0.119 0.192,-0.188 0.192,-0.267L0.192,-0.269C0.192,-0.348 0.244,-0.415 0.331,-0.415C0.415,-0.415 0.472,-0.346 0.472,-0.267L0.472,-0.265C0.472,-0.186 0.42,-0.119 0.333,-0.119Z" style="fill-rule:nonzero;"/>
                    </g>
                    <g transform="matrix(48,0,0,48,2148.54,5139.85)">
                        <path d="M0.068,-0L0.22,-0L0.22,-0.299C0.22,-0.371 0.257,-0.408 0.315,-0.408C0.373,-0.408 0.407,-0.371 0.407,-0.299L0.407,-0L0.559,-0L0.559,-0.347C0.559,-0.47 0.492,-0.546 0.377,-0.546C0.3,-0.546 0.255,-0.505 0.22,-0.46L0.22,-0.536L0.068,-0.536L0.068,-0Z" style="fill-rule:nonzero;"/>
                    </g>
                </g>
            </g>
        </g>
    </g>
</svg>
