<?xml version="1.0" encoding="UTF-8" standalone="no"?><!DOCTYPE svg PUBLIC "-//W3C//DTD SVG 1.1//EN" "http://www.w3.org/Graphics/SVG/1.1/DTD/svg11.dtd"><svg width="100%" height="100%" viewBox="0 0 500 500" version="1.1" xmlns="http://www.w3.org/2000/svg" xmlns:xlink="http://www.w3.org/1999/xlink" xml:space="preserve" xmlns:serif="http://www.serif.com/" style="fill-rule:evenodd;clip-rule:evenodd;stroke-linejoin:round;stroke-miterlimit:2;"><g><clipPath id="_clip1"><rect id="path40-1" x="172.239" y="137.068" width="167.649" height="173.071"/></clipPath><g clip-path="url(#_clip1)"><path d="M251.949,310.242l0,-0.273l-4.242,0l0,-0.274l-2.121,0l0,-0.274l-2.121,0l0,-0.273l-1.856,0l0,-0.274l-1.061,0l0,-0.274l-1.325,0l0,-0.274l-1.326,0l0,-0.273l-1.326,0l0,-0.274l-1.06,0l0,-0.274l-1.061,0l0,-0.273l-0.795,0l0,-0.274l-1.061,0l0,-0.274l-0.795,0l0,-0.273l-0.795,0l0,-0.274l-1.061,0l0,-0.274l-0.795,0l0,-0.274l-0.796,0l0,-0.273l-0.53,0l0,-0.274l-0.795,0l0,-0.274l-0.796,0l0,-0.273l-0.53,0l0,-0.274l-0.795,0l0,-0.274l-0.531,0l0,-0.273l-0.795,0l0,-0.274l-0.795,0l0,-0.274l-0.531,0l0,-0.274l-0.53,0l0,-0.273l-0.53,0l0,-0.274l-0.53,0l0,-0.274l-0.531,0l0,-0.273l-0.53,0l0,-0.274l-0.53,0l0,-0.274l-0.53,0l0,-0.273l-0.531,0l0,-0.274l-0.795,0l0,-0.274l-0.53,0l0,-0.273l-0.265,0l0,-0.274l-0.531,0l0,-0.274l-0.53,0l0,-0.274l-0.265,0l0,-0.273l-0.53,0l0,-0.274l-0.53,0l0,-0.274l-0.531,0l0,-0.273l-0.265,0l0,-0.274l-0.53,0l0,-0.274l-0.53,0l0,-0.273l-0.531,0l0,-0.274l-0.265,0l0,-0.274l-0.53,0l0,-0.274l-0.265,0l0,-0.273l-0.53,0l0,-0.274l-0.265,0l0,-0.274l-0.531,0l0,-0.273l-0.265,0l0,-0.274l-0.265,0l0,-0.274l-0.53,0l0,-0.273l-0.265,0l0,-0.274l-0.531,0l0,-0.274l-0.265,0l0,-0.274l-0.53,0l0,-0.273l-0.265,0l0,-0.274l-0.53,0l0,-0.274l-0.265,0l0,-0.273l-0.266,0l0,-0.274l-0.265,0l0,-0.274l-0.53,0l0,-0.273l-0.265,0l0,-0.274l-0.265,0l0,-0.274l-0.265,0l0,-0.273l-0.531,0l0,-0.274l-0.265,0l0,-0.274l-0.265,0l0,-0.274l-0.265,0l0,-0.273l-0.265,0l0,-0.274l-0.53,0l0,-0.274l-0.265,0l0,-0.273l-0.266,0l0,-0.274l-0.265,0l0,-0.274l-0.265,0l0,-0.273l-0.53,0l0,-0.274l-0.265,0l0,-0.274l-0.265,0l0,-0.274l-0.265,0l0,-0.273l-0.266,0l0,-0.274l-0.265,0l0,-0.274l-0.265,0l0,-0.273l-0.265,0l0,-0.274l-0.265,0l0,-0.274l-0.265,0l0,-0.273l-0.265,0l0,-0.274l-0.265,0l0,-0.274l-0.266,0l0,-0.274l-0.265,0l0,-0.273l-0.265,0l0,-0.274l-0.265,0l0,-0.274l-0.265,0l0,-0.273l-0.265,0l0,-0.274l-0.265,0l0,-0.274l-0.265,0l0,-0.273l-0.266,0l0,-0.274l-0.265,0l0,-0.274l-0.265,0l0,-0.273l-0.265,0l0,-0.548l-0.265,0l0,-0.274l-0.265,0l0,-0.273l-0.265,0l0,-0.274l-0.266,0l0,-0.274l-0.265,0l0,-0.273l-0.265,0l0,-0.274l-0.265,0l0,-0.274l-0.265,0l0,-0.273l-0.265,0l0,-0.548l-0.265,0l0,-0.274l-0.265,0l0,-0.273l-0.266,0l0,-0.548l-0.265,0l0,-0.273l-0.265,0l0,-0.274l-0.265,0l0,-0.274l-0.265,0l0,-0.547l-0.265,0l0,-0.274l-0.265,0l0,-0.274l-0.265,0l0,-0.547l-0.266,0l0,-0.274l-0.265,0l0,-0.273l-0.265,0l0,-0.548l-0.265,0l0,-0.273l-0.265,0l0,-0.274l-0.265,0l0,-0.547l-0.265,0l0,-0.274l-0.265,0l0,-0.548l-0.266,0l0,-0.273l-0.265,0l0,-0.548l-0.265,0l0,-0.273l-0.265,0l0,-0.548l-0.265,0l0,-0.547l-0.265,0l0,-0.274l-0.265,0l0,-0.547l-0.265,0l0,-0.274l-0.266,0l0,-0.547l-0.265,0l0,-0.274l-0.265,0l0,-0.547l-0.265,0l0,-0.548l-0.265,0l0,-0.547l-0.265,0l0,-0.548l-0.265,0l0,-0.273l-0.265,0l0,-0.548l-0.266,0l0,-0.547l-0.265,0l0,-0.547l-0.265,0l0,-0.548l-0.265,0l0,-0.547l-0.265,0l0,-0.274l-0.265,0l0,-0.547l-0.265,0l0,-0.548l-0.265,0l0,-0.821l-0.266,0l0,-0.547l-0.265,0l0,-0.548l-0.265,0l0,-0.547l-0.265,0l0,-0.821l-0.265,0l0,-0.548l-0.265,0l0,-0.547l-0.265,0l0,-0.547l-0.265,0l0,-0.821l-0.266,0l0,-0.548l-0.265,0l0,-0.821l-0.265,0l0,-0.821l-0.265,0l0,-0.821l-0.265,0l0,-0.821l-0.265,0l0,-0.548l-0.265,0l0,-0.821l-0.265,0l0,-0.821l-0.266,0l0,-0.821l-0.265,0l0,-1.095l-0.265,0l0,-0.821l-0.265,0l0,-1.094l-0.265,0l0,-1.095l-0.265,0l0,-1.095l-0.265,0l0,-1.095l-0.265,0l0,-1.368l-0.266,0l0,-1.643l-0.265,0l0,-1.368l-0.265,0l0,-1.642l-0.265,0l0,-1.916l-0.265,0l0,-2.737l-0.265,0l0,-3.284l-0.265,0l0,-8.759l0.265,0l0,-5.2l0.265,0l0,-1.916l0.265,0l0,-1.642l0.265,0l0,-1.916l0.265,0l0,-1.916l0.265,0l0,-1.642l0.266,0l0,-0.821l0.265,0l0,-1.095l0.265,0l0,-1.095l0.265,0l0,-1.094l0.265,0l0,-1.095l0.265,0l0,-1.095l0.265,0l0,-1.095l0.265,0l0,-0.821l0.266,0l0,-0.821l0.265,0l0,-0.821l0.265,0l0,-0.547l0.265,0l0,-0.821l0.265,0l0,-0.822l0.265,0l0,-0.547l0.265,0l0,-0.821l0.265,0l0,-0.821l0.266,0l0,-0.821l0.265,0l0,-0.548l0.265,0l0,-0.821l0.265,0l0,-0.547l0.265,0l0,-0.548l0.265,0l0,-0.547l0.265,0l0,-0.547l0.265,0l0,-0.548l0.266,0l0,-0.547l0.265,0l0,-0.547l0.265,0l0,-0.548l0.265,0l0,-0.547l0.265,0l0,-0.548l0.265,0l0,-0.547l0.265,0l0,-0.547l0.265,0l0,-0.548l0.266,0l0,-0.547l0.265,0l0,-0.548l0.265,0l0,-0.273l0.265,0l0,-0.548l0.265,0l0,-0.547l0.265,0l0,-0.274l0.265,0l0,-0.547l0.265,0l0,-0.274l0.266,0l0,-0.547l0.265,0l0,-0.548l0.265,0l0,-0.273l0.265,0l0,-0.548l0.265,0l0,-0.547l0.265,0l0,-0.274l0.265,0l0,-0.547l0.265,0l0,-0.274l0.266,0l0,-0.547l0.265,0l0,-0.274l0.265,0l0,-0.274l0.265,0l0,-0.547l0.265,0l0,-0.274l0.265,0l0,-0.274l0.265,0l0,-0.547l0.265,0l0,-0.274l0.266,0l0,-0.547l0.265,0l0,-0.274l0.265,0l0,-0.273l0.265,0l0,-0.548l0.265,0l0,-0.274l0.265,0l0,-0.273l0.265,0l0,-0.548l0.265,0l0,-0.273l0.266,0l0,-0.274l0.265,0l0,-0.274l0.265,0l0,-0.547l0.265,0l0,-0.274l0.265,0l0,-0.273l0.265,0l0,-0.274l0.265,0l0,-0.274l0.265,0l0,-0.274l0.266,0l0,-0.273l0.265,0l0,-0.274l0.265,0l0,-0.274l0.265,0l0,-0.273l0.265,0l0,-0.548l0.265,0l0,-0.273l0.265,0l0,-0.274l0.266,0l0,-0.274l0.265,0l0,-0.274l0.265,0l0,-0.273l0.265,0l0,-0.274l0.265,0l0,-0.274l0.265,0l0,-0.273l0.265,0l0,-0.274l0.265,0l0,-0.274l0.266,0l0,-0.273l0.265,0l0,-0.274l0.265,0l0,-0.274l0.265,0l0,-0.274l0.265,0l0,-0.273l0.265,0l0,-0.274l0.265,0l0,-0.274l0.265,0l0,-0.273l0.266,0l0,-0.274l0.53,0l0,-0.274l0.265,0l0,-0.273l0.265,0l0,-0.274l0.265,0l0,-0.274l0.265,0l0,-0.273l0.265,0l0,-0.274l0.266,0l0,-0.274l0.265,0l0,-0.274l0.265,0l0,-0.273l0.265,0l0,-0.274l0.53,0l0,-0.274l0.265,0l0,-0.273l0.265,0l0,-0.274l0.266,0l0,-0.274l0.53,0l0,-0.273l0.265,0l0,-0.274l0.265,0l0,-0.274l0.53,0l0,-0.274l0.265,0l0,-0.273l0.266,0l0,-0.274l0.53,0l0,-0.274l0.265,0l0,-0.273l0.265,0l0,-0.274l0.53,0l0,-0.274l0.265,0l0,-0.273l0.266,0l0,-0.274l0.53,0l0,-0.274l0.265,0l0,-0.274l0.265,0l0,-0.273l0.53,0l0,-0.274l0.531,0l0,-0.274l0.265,0l0,-0.273l0.53,0l0,-0.274l0.53,0l0,-0.274l0.265,0l0,-0.273l0.531,0l0,-0.274l0.265,0l0,-0.274l0.53,0l0,-0.273l0.53,0l0,-0.274l0.265,0l0,-0.274l0.531,0l0,-0.274l0.53,0l0,-0.273l0.265,0l0,-0.274l0.53,0l0,-0.274l0.53,0l0,-0.273l0.266,0l0,-0.274l0.795,0l0,-0.274l0.53,0l0,-0.273l0.53,0l0,-0.274l0.531,0l0,-0.274l0.53,0l0,-0.274l0.53,0l0,-0.273l0.53,0l0,-0.274l0.531,0l0,-0.274l0.53,0l0,-0.273l0.53,0l0,-0.274l0.53,0l0,-0.274l0.531,0l0,-0.273l0.795,0l0,-0.274l0.53,0l0,-0.274l0.796,0l0,-0.274l0.795,0l0,-0.273l0.53,0l0,-0.274l0.796,0l0,-0.274l0.795,0l0,-0.273l0.795,0l0,-0.274l0.531,0l0,-0.274l0.795,0l0,-0.273l0.795,0l0,-0.274l0.796,0l0,-0.274l1.06,0l0,-0.273l1.061,0l0,-0.274l1.06,0l0,-0.274l1.061,0l0,-0.274l1.06,0l0,-0.273l0.796,0l0,-0.274l1.06,0l0,-0.274l1.591,0l0,-0.273l1.856,0l0,-0.274l1.591,0l0,-0.274l1.856,0l0,-0.273l1.59,0l0,-0.274l5.038,0l0,-0.274l8.219,0l0,0.274l5.567,0l0,0.274l1.856,0l0,0.273l1.856,0l0,0.274l1.856,0l0,0.274l1.856,0l0,0.273l1.856,0l0,0.274l1.06,0l0,0.274l1.061,0l0,0.273l1.06,0l0,0.274l1.061,0l0,0.274l1.06,0l0,0.274l1.061,0l0,0.273l1.06,0l0,0.274l1.061,0l0,0.274l0.795,0l0,0.273l0.795,0l0,0.274l0.531,0l0,0.274l0.795,0l0,0.273l0.795,0l0,0.274l0.531,0l0,0.274l0.795,0l0,0.273l0.795,0l0,0.274l0.531,0l0,0.274l0.795,0l0,0.274l0.795,0l0,0.273l0.531,0l0,0.274l0.53,0l0,0.274l0.53,0l0,0.273l0.53,0l0,0.274l0.531,0l0,0.274l0.53,0l0,0.273l0.53,0l0,0.274l0.265,0l0,0.274l0.531,0l0,0.274l0.53,0l0,0.273l0.53,0l0,0.274l0.53,0l0,0.274l0.531,0l0,0.273l0.53,0l0,0.274l0.53,0l0,0.274l0.53,0l0,0.273l0.265,0l0,0.274l0.266,0l0,0.274l0.53,0l0,0.274l0.265,0l0,0.273l0.53,0l0,0.274l0.265,0l0,0.274l0.531,0l0,0.273l0.265,0l0,0.274l0.265,0l0,0.274l0.53,0l0,0.273l0.265,0l0,0.274l0.53,0l0,0.274l0.266,0l0,0.273l0.53,0l0,0.274l0.265,0l0,0.274l0.53,0l0,0.274l0.265,0l0,0.273l0.265,0l0,0.274l0.266,0l0,0.274l0.265,0l0,0.273l0.265,0l0,0.274l0.265,0l0,0.274l0.53,0l0,0.273l0.265,0l0,0.274l0.265,0l0,0.274l0.266,0l0,0.274l0.265,0l0,0.273l0.265,0l0,0.274l0.265,0l0,0.274l0.265,0l0,0.273l0.265,0l0,0.274l0.265,0l0,0.274l0.265,0l0,0.273l0.266,0l0,0.274l0.53,0l0,0.274l0.265,0l0,0.274l0.265,0l0,0.273l0.265,0l0,0.274l0.265,0l0,0.547l0.265,0l0,0.274l0.266,0l0,0.274l0.265,0l0,0.273l0.265,0l0,0.274l0.265,0l0,0.547l0.265,0l0,0.274l0.265,0l0,0.274l0.265,0l0,0.274l0.265,0l0,0.547l0.266,0l0,0.274l0.265,0l0,0.273l0.265,0l0,0.274l0.265,0l0,0.274l0.265,0l0,0.547l0.265,0l0,0.274l0.265,0l0,0.274l0.265,0l0,0.273l0.266,0l0,0.548l0.265,0l0,0.547l0.265,0l0,0.547l0.265,0l0,2.464l-0.265,0l0,0.821l-0.265,0l0,0.273l-0.265,0l0,0.274l-0.266,0l0,0.548l-0.265,0l0,0.273l-0.53,0l0,0.274l-0.53,0l0,0.274l-1.061,0l0,0.273l-0.53,0l0,-0.273l-1.326,0l0,-0.274l-0.795,0l0,-0.274l-0.53,0l0,-0.273l-0.53,0l0,-0.274l-0.531,0l0,-0.274l-0.53,0l0,-0.274l-0.795,0l0,-0.273l-0.531,0l0,-0.274l-0.53,0l0,-0.274l-0.53,0l0,-0.273l-0.53,0l0,-0.274l-0.531,0l0,-0.274l-0.53,0l0,-0.273l-0.53,0l0,-0.274l-0.795,0l0,-0.274l-0.796,0l0,-0.273l-0.795,0l0,-0.274l-0.796,0l0,-0.274l-0.795,0l0,-0.274l-0.795,0l0,-0.273l-0.796,0l0,-0.274l-0.795,0l0,-0.274l-0.795,0l0,-0.273l-0.796,0l0,-0.274l-1.325,0l0,-0.274l-1.326,0l0,-0.273l-1.326,0l0,-0.274l-1.06,0l0,-0.274l-1.326,0l0,-0.274l-1.325,0l0,-0.273l-1.856,0l0,-0.274l-2.386,0l0,-0.274l-2.387,0l0,-0.273l-1.59,0l0,0.273l0.265,0l0,0.274l0.53,0l0,0.274l0.265,0l0,0.273l0.265,0l0,0.274l0.265,0l0,0.274l0.266,0l0,0.274l0.53,0l0,0.273l0.265,0l0,0.274l0.265,0l0,0.274l0.265,0l0,0.273l0.265,0l0,0.274l0.265,0l0,0.274l0.531,0l0,0.273l0.265,0l0,0.274l0.265,0l0,0.274l0.265,0l0,0.274l0.265,0l0,0.273l0.53,0l0,0.274l0.266,0l0,0.274l0.265,0l0,0.273l0.265,0l0,0.274l0.265,0l0,0.274l0.265,0l0,0.273l0.265,0l0,0.274l0.265,0l0,0.274l0.265,0l0,0.273l0.266,0l0,0.274l0.265,0l0,0.274l0.265,0l0,0.274l0.265,0l0,0.273l0.265,0l0,0.274l0.265,0l0,0.274l0.265,0l0,0.273l0.265,0l0,0.274l0.266,0l0,0.274l0.265,0l0,0.273l0.265,0l0,0.274l0.265,0l0,0.274l0.265,0l0,0.274l0.265,0l0,0.273l0.265,0l0,0.274l0.265,0l0,0.274l0.266,0l0,0.273l0.265,0l0,0.548l0.265,0l0,0.273l0.265,0l0,0.274l0.265,0l0,0.274l0.265,0l0,0.274l0.265,0l0,0.273l0.265,0l0,0.548l0.266,0l0,0.273l0.265,0l0,0.274l0.265,0l0,0.274l0.265,0l0,0.273l0.265,0l0,0.274l0.265,0l0,0.274l0.265,0l0,0.547l0.265,0l0,0.274l0.266,0l0,0.274l0.265,0l0,0.273l0.265,0l0,0.274l0.265,0l0,0.274l0.265,0l0,0.547l0.265,0l0,0.274l0.265,0l0,0.273l0.265,0l0,0.548l0.266,0l0,0.274l0.265,0l0,0.273l0.265,0l0,0.548l0.265,0l0,0.273l0.265,0l0,0.274l0.265,0l0,0.547l0.265,0l0,0.274l0.265,0l0,0.274l0.266,0l0,0.547l0.265,0l0,0.274l0.265,0l0,0.274l0.265,0l0,0.547l0.265,0l0,0.274l0.265,0l0,0.547l0.265,0l0,0.274l0.265,0l0,0.273l0.266,0l0,0.548l0.265,0l0,0.274l0.265,0l0,0.547l0.265,0l0,0.274l0.265,0l0,0.547l0.265,0l0,0.274l0.265,0l0,0.547l0.265,0l0,0.274l0.266,0l0,0.547l0.265,0l0,0.548l0.265,0l0,0.273l0.265,0l0,0.548l0.265,0l0,0.273l0.265,0l0,0.548l0.265,0l0,-0.274l0.265,0l0,-0.274l0.266,0l0,-0.273l0.265,0l0,-0.274l0.265,0l0,-0.274l0.265,0l0,-0.273l0.265,0l0,-0.274l0.265,0l0,-0.547l0.265,0l0,-0.274l0.265,0l0,-0.274l0.266,0l0,-0.547l0.265,0l0,-0.274l0.265,0l0,-0.547l0.265,0l0,-0.274l0.265,0l0,-0.547l0.265,0l0,-0.274l0.265,0l0,-0.548l0.265,0l0,-0.547l0.266,0l0,-0.821l0.265,0l0,-0.547l0.265,0l0,-0.548l0.265,0l0,-0.821l0.265,0l0,-0.821l0.265,0l0,-1.095l0.265,0l0,-1.095l0.265,0l0,-0.547l0.266,0l0,-0.821l0.265,0l0,-0.274l0.265,0l0,-0.273l0.265,0l0,-0.274l0.265,0l0,-0.274l0.795,0l0,-0.274l0.531,0l0,-0.273l2.386,0l0,0.273l0.53,0l0,0.274l0.53,0l0,0.274l0.266,0l0,0.274l0.265,0l0,0.273l0.265,0l0,0.274l0.265,0l0,0.547l0.265,0l0,0.548l0.265,0l0,3.01l-0.265,0l0,0.822l-0.265,0l0,1.094l-0.265,0l0,1.095l-0.265,0l0,0.821l-0.265,0l0,0.821l-0.266,0l0,0.548l-0.265,0l0,0.547l-0.265,0l0,0.547l-0.265,0l0,0.548l-0.265,0l0,0.547l-0.265,0l0,0.548l-0.265,0l0,0.547l-0.266,0l0,0.547l-0.265,0l0,0.548l-0.265,0l0,0.274l-0.265,0l0,0.273l-0.265,0l0,0.548l-0.265,0l0,0.273l-0.265,0l0,0.274l-0.265,0l0,0.547l-0.266,0l0,0.274l-0.265,0l0,0.547l-0.265,0l0,0.274l-0.265,0l0,0.274l-0.265,0l0,0.274l-0.265,0l0,0.273l-0.265,0l0,0.274l-0.265,0l0,0.274l-0.266,0l0,0.273l-0.265,0l0,0.274l-0.265,0l0,0.274l-0.265,0l0,0.273l-0.265,0l0,0.274l-0.265,0l0,0.274l-0.265,0l0,0.274l-0.265,0l0,0.273l-0.266,0l0,0.274l-0.265,0l0,0.274l-0.265,0l0,0.273l0.265,0l0,0.821l0.265,0l0,0.548l0.266,0l0,0.547l0.265,0l0,0.548l0.265,0l0,0.821l0.265,0l0,0.547l0.265,0l0,0.547l0.265,0l0,0.548l0.265,0l0,0.547l0.265,0l0,0.821l0.266,0l0,0.548l0.265,0l0,0.547l0.265,0l0,0.548l0.265,0l0,0.821l0.265,0l0,0.547l0.265,0l0,0.547l0.265,0l0,0.548l0.265,0l0,0.547l0.266,0l0,0.821l0.265,0l0,0.821l0.265,0l0,0.821l0.265,0l0,0.822l0.265,0l0,0.821l0.265,0l0,1.094l0.265,0l0,0.822l0.265,0l0,0.821l0.266,0l0,0.821l0.265,0l0,0.821l0.265,0l0,0.821l0.265,0l0,0.821l0.265,0l0,0.821l0.265,0l0,0.821l0.265,0l0,1.369l0.266,0l0,1.368l0.265,0l0,1.369l0.265,0l0,1.368l0.265,0l0,1.369l0.265,0l0,1.368l0.265,0l0,1.369l0.265,0l0,1.368l0.265,0l0,1.642l0.266,0l0,4.106l0.265,0l0,4.105l0.265,0l0,6.843l0.265,0l0,-0.274l0.265,0l0,-0.548l0.265,0l0,-0.273l0.265,0l0,-0.274l0.265,0l0,-0.547l0.266,0l0,-0.274l0.265,0l0,-0.274l0.265,0l0,-0.547l0.265,0l0,-0.274l0.265,0l0,-0.547l0.265,0l0,-0.274l0.265,0l0,-0.274l0.265,0l0,-0.821l0.266,0l0,-0.547l0.265,0l0,-0.547l0.265,0l0,-0.548l0.265,0l0,-0.821l0.265,0l0,-0.547l0.265,0l0,-0.548l0.265,0l0,-0.547l0.265,0l0,-0.821l0.266,0l0,-1.369l0.265,0l0,-1.642l0.265,0l0,-1.368l0.265,0l0,-1.643l0.265,0l0,-1.368l0.265,0l0,-1.369l0.265,0l0,-4.105l0.265,0l0,-4.379l0.266,0l0,-2.737l-0.266,0l0,-5.474l-0.265,0l0,-2.463l-0.265,0l0,-1.643l-0.265,0l0,-1.915l-0.265,0l0,-1.916l-0.265,0l0,-1.369l-0.265,0l0,-1.095l-0.265,0l0,-0.821l-0.266,0l0,-1.094l-0.265,0l0,-1.095l-0.265,0l0,-1.095l-0.265,0l0,-1.095l-0.265,0l0,-0.821l-0.265,0l0,-0.821l-0.265,0l0,-0.821l-0.265,0l0,-0.821l-0.266,0l0,-0.548l-0.265,0l0,-0.821l-0.265,0l0,-0.821l-0.265,0l0,-0.821l-0.265,0l0,-0.547l-0.265,0l0,-0.821l-0.265,0l0,-1.095l-0.265,0l0,-1.369l0.265,0l0,-1.094l0.265,0l0,-0.548l0.265,0l0,-0.273l0.265,0l0,-0.548l0.53,0l0,-0.274l0.265,0l0,-0.273l0.266,0l0,-0.274l1.06,0l0,-0.274l1.856,0l0,0.274l0.795,0l0,0.274l0.531,0l0,0.273l0.265,0l0,0.274l0.265,0l0,0.274l0.265,0l0,0.274l0.265,0l0,0.547l0.265,0l0,0.274l0.265,0l0,0.821l0.265,0l0,0.821l0.266,0l0,0.821l0.265,0l0,0.547l0.265,0l0,0.821l0.265,0l0,0.822l0.265,0l0,0.547l0.265,0l0,0.821l0.265,0l0,0.821l0.265,0l0,0.821l0.266,0l0,0.821l0.265,0l0,1.095l0.265,0l0,1.095l0.265,0l0,1.095l0.265,0l0,0.821l0.265,0l0,1.094l0.265,0l0,1.095l0.265,0l0,1.095l0.266,0l0,1.642l0.265,0l0,1.642l0.265,0l0,1.916l0.265,0l0,1.916l0.265,0l0,1.642l0.265,0l0,5.201l0.265,0l0,7.663l-0.265,0l0,5.474l-0.265,0l0,1.642l-0.265,0l0,1.916l-0.265,0l0,1.642l-0.265,0l0,1.642l-0.265,0l0,1.916l-0.266,0l0,1.369l-0.265,0l0,1.095l-0.265,0l0,0.821l-0.265,0l0,1.095l-0.265,0l0,0.821l-0.265,0l0,1.094l-0.265,0l0,0.821l-0.265,0l0,0.822l-0.266,0l0,1.094l-0.265,0l0,0.821l-0.265,0l0,0.822l-0.265,0l0,0.821l-0.265,0l0,0.547l-0.265,0l0,0.821l-0.265,0l0,0.548l-0.265,0l0,0.821l-0.266,0l0,0.547l-0.265,0l0,0.821l-0.265,0l0,0.547l-0.265,0l0,0.822l-0.265,0l0,0.547l-0.265,0l0,0.547l-0.265,0l0,0.548l-0.265,0l0,0.547l-0.266,0l0,0.548l-0.265,0l0,0.547l-0.265,0l0,0.547l-0.265,0l0,0.548l-0.265,0l0,0.547l-0.265,0l0,0.548l-0.265,0l0,0.547l-0.265,0l0,0.547l-0.266,0l0,0.548l-0.265,0l0,0.547l-0.265,0l0,0.274l-0.265,0l0,0.547l-0.265,0l0,0.548l-0.265,0l0,0.273l-0.265,0l0,0.548l-0.265,0l0,0.547l-0.266,0l0,0.274l-0.265,0l0,0.547l-0.265,0l0,0.274l-0.265,0l0,0.547l-0.265,0l0,0.548l-0.265,0l0,0.273l-0.265,0l0,0.548l-0.265,0l0,0.273l-0.266,0l0,0.548l-0.265,0l0,0.274l-0.265,0l0,0.273l-0.265,0l0,0.548l-0.265,0l0,0.273l-0.265,0l0,0.274l-0.265,0l0,0.547l-0.265,0l0,0.274l-0.266,0l0,0.547l-0.265,0l0,0.274l-0.265,0l0,0.274l-0.265,0l0,0.547l-0.265,0l0,0.274l-0.265,0l0,0.274l-0.265,0l0,0.547l-0.265,0l0,0.274l-0.266,0l0,0.273l-0.265,0l0,0.274l-0.265,0l0,0.274l-0.265,0l0,0.274l-0.265,0l0,0.547l-0.265,0l0,0.274l-0.265,0l0,0.273l-0.266,0l0,0.274l-0.265,0l0,0.274l-0.265,0l0,0.273l-0.265,0l0,0.274l-0.265,0l0,0.274l-0.265,0l0,0.547l-0.265,0l0,0.274l-0.265,0l0,0.274l-0.266,0l0,0.273l-0.265,0l0,0.274l-0.265,0l0,0.274l-0.265,0l0,0.273l-0.265,0l0,0.274l-0.265,0l0,0.274l-0.265,0l0,0.273l-0.265,0l0,0.274l-0.266,0l0,0.274l-0.265,0l0,0.274l-0.265,0l0,0.273l-0.265,0l0,0.274l-0.265,0l0,0.274l-0.265,0l0,0.273l-0.265,0l0,0.274l-0.265,0l0,0.274l-0.266,0l0,0.273l-0.265,0l0,0.274l-0.265,0l0,0.274l-0.53,0l0,0.274l-0.265,0l0,0.273l-0.265,0l0,0.274l-0.265,0l0,0.274l-0.266,0l0,0.273l-0.265,0l0,0.274l-0.53,0l0,0.274l-0.265,0l0,0.273l-0.265,0l0,0.274l-0.265,0l0,0.274l-0.531,0l0,0.274l-0.265,0l0,0.273l-0.265,0l0,0.274l-0.265,0l0,0.274l-0.53,0l0,0.273l-0.265,0l0,0.274l-0.265,0l0,0.274l-0.266,0l0,0.273l-0.265,0l0,0.274l-0.53,0l0,0.274l-0.265,0l0,0.273l-0.265,0l0,0.274l-0.53,0l0,0.274l-0.266,0l0,0.274l-0.53,0l0,0.273l-0.265,0l0,0.274l-0.53,0l0,0.274l-0.265,0l0,0.273l-0.531,0l0,0.274l-0.265,0l0,0.274l-0.53,0l0,0.273l-0.265,0l0,0.274l-0.53,0l0,0.274l-0.531,0l0,0.274l-0.265,0l0,0.273l-0.53,0l0,0.274l-0.265,0l0,0.274l-0.53,0l0,0.273l-0.531,0l0,0.274l-0.265,0l0,0.274l-0.53,0l0,0.273l-0.53,0l0,0.274l-0.53,0l0,0.274l-0.531,0l0,0.274l-0.53,0l0,0.273l-0.53,0l0,0.274l-0.53,0l0,0.274l-0.531,0l0,0.273l-0.265,0l0,0.274l-0.53,0l0,0.274l-0.53,0l0,0.273l-0.796,0l0,0.274l-0.53,0l0,0.274l-0.53,0l0,0.273l-0.796,0l0,0.274l-0.53,0l0,0.274l-0.53,0l0,0.274l-0.53,0l0,0.273l-0.796,0l0,0.274l-0.53,0l0,0.274l-0.795,0l0,0.273l-0.796,0l0,0.274l-0.795,0l0,0.274l-0.795,0l0,0.273l-0.531,0l0,0.274l-0.795,0l0,0.274l-0.795,0l0,0.274l-0.796,0l0,0.273l-1.06,0l0,0.274l-1.061,0l0,0.274l-0.795,0l0,0.273l-1.061,0l0,0.274l-1.06,0l0,0.274l-1.061,0l0,0.273l-1.325,0l0,0.274l-1.591,0l0,0.274l-1.326,0l0,0.274l-1.325,0l0,0.273l-2.387,0l0,0.274l-2.386,0l0,0.274l-3.711,0l0,0.273l-8.484,0Zm3.181,-8.484l0,0.273l0.795,0l0,-0.273l0.796,0l0,-0.274l0.53,0l0,-0.274l0.53,0l0,-0.273l0.265,0l0,-0.274l0.266,0l0,-0.274l0.265,0l0,-0.273l0.265,0l0,-0.548l0.265,0l0,-0.274l0.265,0l0,-0.273l0.265,0l0,-0.548l0.265,0l0,-0.547l0.265,0l0,-0.274l0.266,0l0,-0.547l0.265,0l0,-0.548l0.265,0l0,-0.547l0.265,0l0,-0.547l0.265,0l0,-0.548l0.265,0l0,-0.547l0.265,0l0,-0.821l0.265,0l0,-0.548l0.266,0l0,-0.547l0.265,0l0,-0.821l0.265,0l0,-0.821l0.265,0l0,-0.548l0.265,0l0,-0.821l0.265,0l0,-0.821l0.265,0l0,-0.821l0.265,0l0,-0.821l0.266,0l0,-1.095l0.265,0l0,-0.821l0.265,0l0,-0.821l0.265,0l0,-1.095l0.265,0l0,-1.094l0.265,0l0,-1.095l0.265,0l0,-1.095l0.265,0l0,-1.095l0.266,0l0,-0.274l-2.121,0l0,-0.273l-2.917,0l0,-0.274l-2.651,0l0,-0.274l-2.916,0l0,-0.273l-1.591,0l0,-0.274l-1.591,0l0,-0.274l-1.591,0l0,-0.273l-1.325,0l0,-0.274l-1.591,0l0,-0.274l-1.591,0l0,-0.274l-1.591,0l0,-0.273l-1.06,0l0,-0.274l-1.061,0l0,-0.274l-1.06,0l0,-0.273l-1.061,0l0,-0.274l-1.06,0l0,-0.274l-1.326,0l0,-0.273l-0.795,0l0,-0.274l-1.061,0l0,-0.274l-0.795,0l0,-0.273l-0.795,0l0,-0.274l-1.061,0l0,-0.274l-0.795,0l0,-0.274l-1.061,0l0,-0.273l-0.795,0l0,-0.274l-0.796,0l0,-0.274l-0.795,0l0,-0.273l-0.53,0l0,-0.274l-0.796,0l0,-0.274l-0.795,0l0,-0.273l-0.795,0l0,-0.274l-0.796,0l0,-0.274l-0.795,0l0,-0.274l-0.53,0l0,-0.273l-0.796,0l0,-0.274l-0.53,0l0,-0.274l-0.795,0l0,-0.273l-0.531,0l0,-0.274l-0.53,0l0,-0.274l-0.795,0l0,-0.273l-0.53,0l0,-0.274l-0.796,0l0,-0.274l-0.53,0l0,-0.274l-0.53,0l0,2.19l-0.265,0l0,2.19l-0.266,0l0,3.558l-0.265,0l0,7.39l0.265,0l0,2.736l0.266,0l0,1.369l0.265,0l0,1.368l0.265,0l0,0.822l0.265,0l0,0.821l0.265,0l0,0.547l0.265,0l0,0.821l0.265,0l0,0.548l0.265,0l0,0.273l0.266,0l0,0.274l0.265,0l0,0.547l0.265,0l0,0.274l0.265,0l0,0.274l0.265,0l0,0.273l0.265,0l0,0.274l0.53,0l0,0.274l0.266,0l0,0.273l0.53,0l0,0.274l0.265,0l0,0.274l0.53,0l0,0.274l0.796,0l0,0.273l0.53,0l0,0.274l0.795,0l0,0.274l0.53,0l0,0.273l0.531,0l0,0.274l0.795,0l0,0.274l0.53,0l0,0.273l0.796,0l0,0.274l0.53,0l0,0.274l0.53,0l0,0.274l0.796,0l0,0.273l0.795,0l0,0.274l1.06,0l0,0.274l0.796,0l0,0.273l1.06,0l0,0.274l0.796,0l0,0.274l1.06,0l0,0.273l0.796,0l0,0.274l0.795,0l0,0.274l1.326,0l0,0.274l1.325,0l0,0.273l1.591,0l0,0.274l1.591,0l0,0.274l1.325,0l0,0.273l1.591,0l0,0.274l3.977,0l0,0.274l4.242,0Zm12.726,-1.095l0,0.274l0.795,0l0,-0.274l1.061,0l0,-0.274l1.326,0l0,-0.273l1.06,0l0,-0.274l1.326,0l0,-0.274l1.325,0l0,-0.274l1.061,0l0,-0.273l1.06,0l0,-0.274l0.796,0l0,-0.274l0.795,0l0,-0.273l0.796,0l0,-0.274l0.795,0l0,-0.274l0.53,0l0,-0.273l0.796,0l0,-0.274l0.795,0l0,-0.274l0.795,0l0,-0.274l0.796,0l0,-0.273l0.795,0l0,-0.274l0.795,0l0,-0.274l0.531,0l0,-0.273l0.53,0l0,-0.274l0.53,0l0,-0.274l0.53,0l0,-0.273l0.531,0l0,-0.274l0.53,0l0,-0.274l0.53,0l0,-0.274l0.53,0l0,-0.273l0.531,0l0,-0.274l0.53,0l0,-0.274l0.53,0l0,-0.273l0.53,0l0,-0.274l0.531,0l0,-0.274l0.53,0l0,-0.273l0.53,0l0,-0.274l0.53,0l0,-0.274l0.266,0l0,-0.273l0.53,0l0,-0.274l0.265,0l0,-0.274l0.53,0l0,-0.274l0.265,0l0,-0.273l0.531,0l0,-0.274l0.265,0l0,-0.274l0.53,0l0,-0.273l0.265,0l0,-0.274l0.53,0l0,-0.274l0.531,0l0,-0.273l0.265,0l0,-0.274l0.53,0l0,-0.274l0.265,0l0,-0.274l0.53,0l0,-0.273l0.265,0l0,-0.274l0.531,0l0,-0.274l0.265,0l0,-0.273l0.265,0l0,-0.274l0.265,0l0,-0.274l0.265,0l0,-0.273l0.53,0l0,-0.274l0.266,0l0,-0.274l0.265,0l0,-0.274l0.265,0l0,-0.273l0.265,0l0,-0.274l0.265,0l0,-0.274l0.265,0l0,-0.273l0.265,0l0,-0.274l0.265,0l0,-0.274l0.266,0l0,-0.273l0.265,0l0,-0.274l0.265,0l0,-0.274l0.265,0l0,-0.547l0.265,0l0,-0.274l0.265,0l0,-0.274l0.265,0l0,-0.273l0.265,0l0,-0.274l0.266,0l0,-0.547l0.265,0l0,-0.274l0.265,0l0,-0.274l0.265,0l0,-0.547l0.265,0l0,-0.274l0.265,0l0,-0.547l0.265,0l0,-0.274l0.265,0l0,-0.547l0.266,0l0,-0.548l0.265,0l0,-0.273l0.265,0l0,-0.548l0.265,0l0,-0.274l0.265,0l0,-0.547l0.265,0l0,-0.547l0.265,0l0,-0.548l0.265,0l0,-0.547l0.266,0l0,-0.547l0.265,0l0,-0.822l0.265,0l0,-0.547l0.265,0l0,-0.274l-0.53,0l0,0.274l-0.796,0l0,0.274l-0.53,0l0,0.273l-0.795,0l0,0.274l-0.796,0l0,0.274l-0.53,0l0,0.274l-0.795,0l0,0.273l-0.531,0l0,0.274l-0.795,0l0,0.274l-0.795,0l0,0.273l-1.061,0l0,0.274l-0.795,0l0,0.274l-1.061,0l0,0.273l-0.795,0l0,0.274l-1.061,0l0,0.274l-0.795,0l0,0.273l-1.06,0l0,0.274l-1.326,0l0,0.274l-1.326,0l0,0.274l-1.325,0l0,0.273l-1.326,0l0,0.274l-1.326,0l0,0.274l-1.855,0l0,0.273l-2.387,0l0,0.274l-2.121,0l0,0.274l-2.651,0l0,0.273l-5.568,0l0,0.274l-2.121,0l0,0.821l-0.265,0l0,1.095l-0.265,0l0,1.095l-0.265,0l0,1.368l-0.265,0l0,1.095l-0.265,0l0,1.095l-0.265,0l0,0.821l-0.265,0l0,1.095l-0.266,0l0,0.821l-0.265,0l0,0.821l-0.265,0l0,0.821l-0.265,0l0,1.095l-0.265,0l0,0.821l-0.265,0l0,0.547l-0.265,0l0,0.821l-0.265,0l0,0.821l-0.266,0l0,0.548l-0.265,0l0,0.821l-0.265,0l0,0.547l-0.265,0l0,0.821l-0.265,0l0,0.548l-0.265,0l0,0.547l-0.265,0l0,0.548l-0.265,0l0,0.547l-0.266,0l0,0.547l-0.265,0l0,0.548l-0.265,0l0,0.547l-0.265,0l0,0.274Zm-58.062,-15.327l0,0.274l0.265,0l0,-1.643l-0.265,0l0,-11.495l0.265,0l0,-3.284l0.265,0l0,-1.916l0.265,0l0,-1.642l0.265,0l0,-1.916l0.265,0l0,-0.821l-0.265,0l0,-0.274l-0.265,0l0,-0.274l-0.53,0l0,-0.273l-0.531,0l0,-0.274l-0.53,0l0,-0.274l-0.265,0l0,-0.273l-0.53,0l0,-0.274l-0.53,0l0,-0.274l-0.531,0l0,-0.274l-0.265,0l0,-0.273l-0.53,0l0,-0.274l-0.53,0l0,-0.274l-0.531,0l0,-0.273l-0.265,0l0,-0.274l-0.53,0l0,-0.274l-0.265,0l0,-0.273l-0.53,0l0,-0.274l-0.265,0l0,-0.274l-0.531,0l0,-0.274l-0.265,0l0,-0.273l-0.53,0l0,-0.274l-0.265,0l0,-0.274l-0.53,0l0,-0.273l-0.266,0l0,-0.274l-0.53,0l0,-0.274l-0.265,0l0,-0.273l-0.53,0l0,-0.274l-0.265,0l0,-0.274l-0.265,0l0,-0.273l-0.531,0l0,-0.274l-0.265,0l0,-0.274l-0.265,0l0,-0.274l-0.53,0l0,-0.273l-0.265,0l0,-0.274l-0.265,0l0,-0.274l-0.531,0l0,-0.273l-0.265,0l0,-0.274l-0.265,0l0,-0.274l-0.53,0l0,-0.273l-0.265,0l0,-0.274l-0.265,0l0,-0.274l-0.266,0l0,-0.274l-0.265,0l0,-0.273l-0.265,0l0,-0.274l-0.53,0l0,-0.274l-0.265,0l0,-0.273l-0.265,0l0,-0.274l-0.266,0l0,-0.274l-0.265,0l0,-0.273l-0.265,0l0,-0.274l-0.53,0l0,-0.274l-0.265,0l0,-0.274l-0.265,0l0,-0.273l-0.265,0l0,-0.274l-0.266,0l0,-0.274l-0.265,0l0,-0.273l-0.265,0l0,-0.274l-0.265,0l0,-0.274l-0.265,0l0,-0.273l-0.265,0l0,-0.274l-0.265,0l0,-0.274l-0.265,0l0,-0.273l-0.266,0l0,-0.274l-0.265,0l0,-0.274l-0.265,0l0,-0.274l-0.265,0l0,-0.273l-0.265,0l0,-0.274l-0.265,0l0,-0.274l-0.265,0l0,-0.273l-0.265,0l0,-0.274l-0.266,0l0,-0.274l-0.265,0l0,-0.273l-0.265,0l0,-0.548l-0.265,0l0,-0.274l-0.265,0l0,-0.273l-0.265,0l0,-0.274l-0.265,0l0,-0.547l-0.265,0l0,-0.274l-0.266,0l0,-0.274l-0.265,0l0,-0.273l-0.265,0l0,-0.548l-0.265,0l0,-0.274l-0.265,0l0,-0.273l-0.265,0l0,-0.548l-0.265,0l0,-0.273l-0.265,0l0,-0.274l-0.266,0l0,-0.274l-0.265,0l0,0.548l0.265,0l0,1.642l0.266,0l0,1.916l0.265,0l0,1.642l0.265,0l0,1.368l0.265,0l0,0.822l0.265,0l0,0.821l0.265,0l0,0.821l0.265,0l0,0.821l0.265,0l0,0.821l0.266,0l0,0.821l0.265,0l0,0.821l0.265,0l0,0.821l0.265,0l0,0.548l0.265,0l0,0.821l0.265,0l0,0.547l0.265,0l0,0.547l0.265,0l0,0.822l0.266,0l0,0.547l0.265,0l0,0.547l0.265,0l0,0.821l0.265,0l0,0.548l0.265,0l0,0.547l0.265,0l0,0.274l0.265,0l0,0.547l0.265,0l0,0.548l0.266,0l0,0.547l0.265,0l0,0.547l0.265,0l0,0.548l0.265,0l0,0.547l0.265,0l0,0.548l0.265,0l0,0.547l0.265,0l0,0.274l0.265,0l0,0.547l0.266,0l0,0.548l0.265,0l0,0.273l0.265,0l0,0.548l0.265,0l0,0.273l0.265,0l0,0.548l0.265,0l0,0.273l0.265,0l0,0.548l0.265,0l0,0.547l0.266,0l0,0.274l0.265,0l0,0.547l0.265,0l0,0.274l0.265,0l0,0.547l0.265,0l0,0.274l0.265,0l0,0.274l0.265,0l0,0.547l0.266,0l0,0.274l0.265,0l0,0.274l0.265,0l0,0.547l0.265,0l0,0.274l0.265,0l0,0.273l0.265,0l0,0.548l0.265,0l0,0.273l0.265,0l0,0.274l0.266,0l0,0.548l0.265,0l0,0.273l0.265,0l0,0.274l0.265,0l0,0.274l0.265,0l0,0.273l0.265,0l0,0.274l0.265,0l0,0.274l0.265,0l0,0.547l0.266,0l0,0.274l0.265,0l0,0.273l0.265,0l0,0.274l0.265,0l0,0.274l0.265,0l0,0.274l0.265,0l0,0.273l0.265,0l0,0.274l0.265,0l0,0.547l0.266,0l0,0.274l0.265,0l0,0.274l0.265,0l0,0.273l0.53,0l0,0.274l0.265,0l0,0.274l0.265,0l0,0.274l0.265,0l0,0.273l0.266,0l0,0.274l0.265,0l0,0.274l0.265,0l0,0.273l0.265,0l0,0.274l0.265,0l0,0.274l0.265,0l0,0.273l0.265,0l0,0.274l0.265,0l0,0.274l0.266,0l0,0.274l0.265,0l0,0.273l0.265,0l0,0.274l0.265,0l0,0.274l0.53,0l0,0.273l0.265,0l0,0.274l0.265,0l0,0.274l0.266,0l0,0.273l0.53,0l0,0.274l0.265,0l0,0.274l0.265,0l0,0.273l0.265,0l0,0.274l0.265,0l0,0.274l0.531,0Zm57.002,-15.327l0,0.274l1.59,0l0,-1.095l0.265,0l0,-1.642l0.266,0l0,-1.916l0.265,0l0,-1.916l0.265,0l0,-1.642l0.265,0l0,-1.916l0.265,0l0,-2.737l0.265,0l0,-2.463l0.265,0l0,-2.737l0.265,0l0,-2.464l0.266,0l0,-4.105l0.265,0l0,-4.653l0.265,0l0,-4.927l0.265,0l0,-21.895l-2.651,0l0,-0.274l-3.447,0l0,-0.274l-2.121,0l0,-0.273l-1.591,0l0,-0.274l-1.59,0l0,-0.274l-1.591,0l0,-0.274l-1.591,0l0,-0.273l-1.06,0l0,-0.274l-1.061,0l0,-0.274l-0.795,0l0,-0.273l-1.061,0l0,-0.274l-1.06,0l0,-0.274l-0.796,0l0,-0.273l-1.06,0l0,-0.274l-1.061,0l0,-0.274l-1.06,0l0,-0.273l-0.796,0l0,-0.274l-0.53,0l0,-0.274l-0.795,0l0,-0.274l-0.53,0l0,-0.273l-0.796,0l0,-0.274l-0.795,0l0,-0.274l-0.53,0l0,-0.273l-0.796,0l0,-0.274l-0.53,0l0,-0.274l-0.795,0l0,-0.273l-0.796,0l0,-0.274l-0.53,0l0,-0.274l-0.53,0l0,0.274l-0.265,0l0,0.547l-0.266,0l0,0.548l-0.265,0l0,0.547l-0.265,0l0,0.547l-0.265,0l0,0.548l-0.265,0l0,0.547l-0.265,0l0,0.548l-0.265,0l0,0.547l-0.265,0l0,0.547l-0.266,0l0,0.548l-0.265,0l0,0.273l-0.265,0l0,0.548l-0.265,0l0,0.547l-0.265,0l0,0.821l-0.265,0l0,0.548l-0.265,0l0,0.547l-0.266,0l0,0.548l-0.265,0l0,0.547l-0.265,0l0,0.821l-0.265,0l0,0.547l-0.265,0l0,0.548l-0.265,0l0,0.547l-0.265,0l0,0.548l-0.265,0l0,0.821l-0.266,0l0,0.547l-0.265,0l0,0.547l-0.265,0l0,0.548l-0.265,0l0,0.547l-0.265,0l0,0.821l-0.265,0l0,0.548l-0.265,0l0,0.547l-0.265,0l0,0.548l-0.266,0l0,0.547l-0.265,0l0,0.821l-0.265,0l0,0.547l-0.265,0l0,0.822l-0.265,0l0,0.821l-0.265,0l0,0.547l-0.265,0l0,0.821l-0.265,0l0,0.547l-0.266,0l0,0.822l-0.265,0l0,0.547l-0.265,0l0,0.821l-0.265,0l0,0.547l-0.265,0l0,0.822l-0.265,0l0,0.821l-0.265,0l0,0.547l-0.265,0l0,0.821l-0.266,0l0,0.548l-0.265,0l0,0.821l-0.265,0l0,0.821l-0.265,0l0,0.821l-0.265,0l0,0.821l-0.265,0l0,0.821l-0.265,0l0,0.821l-0.265,0l0,0.821l-0.266,0l0,0.821l-0.265,0l0,0.821l-0.265,0l0,0.821l-0.265,0l0,1.095l-0.265,0l0,0.821l-0.265,0l0,0.821l-0.265,0l0,0.821l-0.265,0l0,1.095l-0.266,0l0,1.095l-0.265,0l0,1.095l-0.265,0l0,0.821l-0.265,0l0,1.095l-0.265,0l0,1.095l-0.265,0l0,1.094l-0.265,0l0,1.095l-0.265,0l0,1.095l0.265,0l0,0.274l0.53,0l0,0.273l0.795,0l0,0.274l0.531,0l0,0.274l0.53,0l0,0.273l0.795,0l0,0.274l0.53,0l0,0.274l0.531,0l0,0.273l0.795,0l0,0.274l0.53,0l0,0.274l0.531,0l0,0.274l0.795,0l0,0.273l0.795,0l0,0.274l0.796,0l0,0.274l0.53,0l0,0.273l0.795,0l0,0.274l0.796,0l0,0.274l0.53,0l0,0.273l0.795,0l0,0.274l0.796,0l0,0.274l0.795,0l0,0.274l1.061,0l0,0.273l0.795,0l0,0.274l0.795,0l0,0.274l1.061,0l0,0.273l0.795,0l0,0.274l0.796,0l0,0.274l1.06,0l0,0.273l1.061,0l0,0.274l1.06,0l0,0.274l1.061,0l0,0.273l1.06,0l0,0.274l1.061,0l0,0.274l1.06,0l0,0.274l1.591,0l0,0.273l1.591,0l0,0.274l1.59,0l0,0.274l1.591,0l0,0.273l1.326,0l0,0.274l1.591,0l0,0.274l1.59,0l0,0.273l2.917,0l0,0.274l2.916,0l0,0.274l3.182,0Zm9.809,0l0,0.274l3.712,0l0,-0.274l3.712,0l0,-0.274l2.121,0l0,-0.274l2.121,0l0,-0.273l2.121,0l0,-0.274l1.06,0l0,-0.274l1.326,0l0,-0.273l1.326,0l0,-0.274l1.325,0l0,-0.274l1.326,0l0,-0.273l1.06,0l0,-0.274l0.796,0l0,-0.274l0.795,0l0,-0.274l1.061,0l0,-0.273l0.795,0l0,-0.274l1.06,0l0,-0.274l0.796,0l0,-0.273l0.795,0l0,-0.274l0.53,0l0,-0.274l0.796,0l0,-0.273l0.53,0l0,-0.274l0.795,0l0,-0.274l0.531,0l0,-0.273l0.795,0l0,-0.274l0.53,0l0,-0.274l0.796,0l0,-0.274l0.53,0l0,-0.273l0.53,0l0,-0.274l0.53,0l0,-0.274l0.531,0l0,-0.273l0.53,0l0,-0.274l0.53,0l0,-0.274l0.265,0l0,-0.273l0.531,0l0,-0.274l0.53,0l0,-0.274l0.53,0l0,-0.274l0.53,0l0,-0.273l0.265,0l0,-0.548l0.266,0l0,-2.189l0.265,0l0,-1.916l0.265,0l0,-4.653l0.265,0l0,-3.558l-0.265,0l0,-4.105l-0.265,0l0,-4.38l-0.265,0l0,-1.642l-0.266,0l0,-1.368l-0.265,0l0,-1.369l-0.265,0l0,-1.642l-0.265,0l0,-1.368l-0.265,0l0,-1.369l-0.265,0l0,-1.368l-0.265,0l0,-1.369l-0.265,0l0,-0.821l-0.266,0l0,-0.821l-0.265,0l0,-0.821l-0.265,0l0,-0.821l-0.265,0l0,-0.821l-0.265,0l0,-1.095l-0.265,0l0,-0.821l-0.265,0l0,-0.821l-0.265,0l0,-0.821l-0.266,0l0,-0.821l-0.265,0l0,-0.822l-0.265,0l0,-0.821l-0.265,0l0,-0.821l-0.265,0l0,-0.547l-0.265,0l0,-0.548l-0.265,0l0,-0.821l-0.265,0l0,-0.547l-0.266,0l0,-0.547l-0.265,0l0,-0.548l-0.265,0l0,-0.821l-0.265,0l0,-0.547l-0.265,0l0,-0.548l-0.265,0l0,-0.547l-0.265,0l0,-0.821l-0.265,0l0,-0.548l-0.266,0l0,-0.547l-0.265,0l0,-0.821l-0.265,0l0,-0.547l-0.265,0l0,-0.274l-0.53,0l0,0.274l-0.53,0l0,0.273l-0.796,0l0,0.274l-0.53,0l0,0.274l-0.53,0l0,0.273l-0.531,0l0,0.274l-0.53,0l0,0.274l-0.53,0l0,0.273l-0.53,0l0,0.274l-0.531,0l0,0.274l-0.53,0l0,0.274l-0.795,0l0,0.273l-0.796,0l0,0.274l-0.795,0l0,0.274l-0.795,0l0,0.273l-0.796,0l0,0.274l-0.795,0l0,0.274l-0.795,0l0,0.273l-0.796,0l0,0.274l-1.325,0l0,0.274l-1.061,0l0,0.273l-1.326,0l0,0.274l-1.06,0l0,0.274l-1.326,0l0,0.274l-1.856,0l0,0.273l-2.121,0l0,0.274l-2.386,0l0,0.274l-1.06,0l0,3.01l0.265,0l0,11.222l-0.265,0l0,9.853l-0.265,0l0,5.2l-0.265,0l0,4.653l-0.266,0l0,3.011l-0.265,0l0,2.737l-0.265,0l0,3.01l-0.265,0l0,2.737l-0.265,0l0,1.916l-0.265,0l0,2.19l-0.265,0l0,1.916l-0.266,0l0,1.916l-0.265,0l0,1.915l-0.265,0l0,0.548Zm-64.16,-16.148l0,0.273l0.53,0l0,-0.821l0.265,0l0,-1.094l0.265,0l0,-0.822l0.265,0l0,-1.094l0.266,0l0,-1.095l0.265,0l0,-0.821l0.265,0l0,-1.095l0.265,0l0,-0.821l0.265,0l0,-1.095l0.265,0l0,-1.095l0.265,0l0,-0.821l0.265,0l0,-0.821l0.266,0l0,-0.821l0.265,0l0,-0.821l0.265,0l0,-0.821l0.265,0l0,-0.821l0.265,0l0,-0.821l0.265,0l0,-0.821l0.265,0l0,-0.821l0.265,0l0,-0.822l0.266,0l0,-0.821l0.265,0l0,-0.821l0.265,0l0,-0.821l0.265,0l0,-0.821l0.265,0l0,-0.821l0.265,0l0,-0.547l0.265,0l0,-0.822l0.265,0l0,-0.547l0.266,0l0,-0.821l0.265,0l0,-0.547l0.265,0l0,-0.821l0.265,0l0,-0.548l0.265,0l0,-0.821l0.265,0l0,-0.547l0.265,0l0,-0.821l0.265,0l0,-0.548l0.266,0l0,-0.821l0.265,0l0,-0.547l0.265,0l0,-0.821l0.265,0l0,-0.548l0.265,0l0,-0.821l0.265,0l0,-0.547l0.265,0l0,-0.548l0.265,0l0,-0.547l0.266,0l0,-0.821l0.265,0l0,-0.548l0.265,0l0,-0.547l0.265,0l0,-0.547l0.265,0l0,-0.548l0.265,0l0,-0.547l0.265,0l0,-0.821l0.265,0l0,-0.548l0.266,0l0,-0.547l0.265,0l0,-0.547l0.265,0l0,-0.548l0.265,0l0,-0.821l0.265,0l0,-0.547l0.265,0l0,-0.548l0.265,0l0,-0.547l0.265,0l0,-0.547l0.266,0l0,-0.548l0.265,0l0,-0.547l0.265,0l0,-0.548l0.265,0l0,-0.547l0.265,0l0,-0.547l0.265,0l0,-0.548l0.265,0l0,-0.547l0.265,0l0,-0.548l0.266,0l0,-0.547l0.265,0l0,-0.547l0.265,0l0,-0.548l0.265,0l0,-0.547l0.265,0l0,-0.821l-0.265,0l0,-0.274l-0.53,0l0,-0.274l-0.531,0l0,-0.273l-0.265,0l0,-0.274l-0.53,0l0,-0.274l-0.265,0l0,-0.273l-0.53,0l0,-0.274l-0.265,0l0,-0.274l-0.531,0l0,-0.274l-0.265,0l0,-0.273l-0.53,0l0,-0.274l-0.265,0l0,-0.274l-0.53,0l0,-0.273l-0.531,0l0,-0.274l-0.265,0l0,-0.274l-0.265,0l0,-0.273l-0.53,0l0,-0.274l-0.265,0l0,-0.274l-0.265,0l0,-0.274l-0.266,0l0,-0.273l-0.265,0l0,-0.274l-0.53,0l0,-0.274l-0.265,0l0,-0.273l-0.265,0l0,-0.274l-0.265,0l0,-0.274l-0.265,0l0,-0.273l-0.531,0l0,-0.274l-0.265,0l0,-0.274l-0.265,0l0,-0.273l-0.265,0l0,-0.274l-0.265,0l0,-0.274l-0.53,0l0,-0.274l-0.266,0l0,-0.273l-0.265,0l0,-0.274l-0.265,0l0,-0.274l-0.265,0l0,-0.547l-0.265,0l0,-0.274l-0.265,0l0,-0.273l-0.265,0l0,-0.274l-0.265,0l0,-0.274l-0.266,0l0,-0.274l-0.265,0l0,-0.273l-0.265,0l0,-0.274l-0.265,0l0,-0.274l-0.265,0l0,-0.273l-0.265,0l0,-0.274l-0.265,0l0,-0.274l-0.265,0l0,-0.273l-0.266,0l0,-0.548l-0.265,0l0,-0.274l-0.265,0l0,-0.273l-0.265,0l0,-0.548l-0.265,0l0,-0.273l-0.265,0l0,-0.548l-0.265,0l0,-0.273l-0.265,0l0,-0.548l-0.266,0l0,-0.273l-0.265,0l0,-0.274l-0.265,0l0,-0.548l-0.265,0l0,-0.273l-0.265,0l0,-0.548l-0.265,0l0,-0.273l-0.265,0l0,-0.548l-0.265,0l0,-0.273l-0.266,0l0,0.273l-0.265,0l0,0.274l-0.265,0l0,0.274l-0.265,0l0,0.273l-0.53,0l0,0.274l-0.265,0l0,0.274l-0.265,0l0,0.273l-0.531,0l0,0.274l-0.265,0l0,0.274l-0.265,0l0,0.274l-0.53,0l0,0.273l-0.265,0l0,0.274l-0.265,0l0,0.274l-0.266,0l0,0.273l-0.53,0l0,0.274l-0.265,0l0,0.274l-0.265,0l0,0.273l-0.265,0l0,0.274l-0.265,0l0,0.274l-0.265,0l0,0.273l-0.266,0l0,0.274l-0.53,0l0,0.274l-0.265,0l0,0.274l-0.265,0l0,0.273l-0.265,0l0,0.274l-0.265,0l0,0.274l-0.265,0l0,0.273l-0.266,0l0,0.274l-0.265,0l0,0.274l-0.53,0l0,0.273l-0.265,0l0,0.274l-0.265,0l0,0.274l-0.265,0l0,0.274l-0.265,0l0,0.273l-0.266,0l0,0.548l-0.265,0l0,0.273l-0.265,0l0,0.274l-0.265,0l0,0.274l-0.265,0l0,0.273l-0.265,0l0,0.274l-0.265,0l0,0.274l-0.265,0l0,0.274l-0.266,0l0,0.273l-0.265,0l0,0.274l-0.265,0l0,0.274l-0.265,0l0,0.273l-0.265,0l0,0.274l-0.265,0l0,0.274l-0.265,0l0,0.273l-0.265,0l0,0.548l-0.266,0l0,0.273l-0.265,0l0,0.274l-0.265,0l0,0.274l-0.265,0l0,0.547l-0.265,0l0,0.274l-0.265,0l0,0.274l-0.265,0l0,0.273l-0.265,0l0,0.274l-0.266,0l0,0.547l-0.265,0l0,0.274l-0.265,0l0,0.274l-0.265,0l0,0.274l-0.265,0l0,0.547l-0.265,0l0,0.274l-0.265,0l0,0.547l-0.266,0l0,0.274l-0.265,0l0,0.547l-0.265,0l0,0.274l-0.265,0l0,0.547l-0.265,0l0,0.274l-0.265,0l0,0.274l-0.265,0l0,0.547l-0.265,0l0,0.274l-0.266,0l0,0.547l-0.265,0l0,0.274l-0.265,0l0,0.547l-0.265,0l0,0.548l-0.265,0l0,0.273l-0.265,0l0,0.548l-0.265,0l0,0.547l-0.265,0l0,0.547l-0.266,0l0,0.548l-0.265,0l0,0.274l-0.265,0l0,0.547l-0.265,0l0,0.547l-0.265,0l0,0.548l-0.265,0l0,0.547l-0.265,0l0,0.547l-0.265,0l0,0.548l-0.266,0l0,0.821l-0.265,0l0,0.547l-0.265,0l0,0.548l-0.265,0l0,0.821l-0.265,0l0,0.547l-0.265,0l0,0.548l-0.265,0l0,0.821l-0.265,0l0,0.821l-0.266,0l0,0.821l-0.265,0l0,1.095l-0.265,0l0,0.821l-0.265,0l0,0.821l-0.265,0l0,1.095l0.265,0l0,0.547l0.265,0l0,0.547l0.265,0l0,0.548l0.265,0l0,0.821l0.266,0l0,0.547l0.265,0l0,0.548l0.265,0l0,0.547l0.265,0l0,0.548l0.265,0l0,0.547l0.265,0l0,0.274l0.265,0l0,0.547l0.265,0l0,0.274l0.266,0l0,0.547l0.265,0l0,0.547l0.265,0l0,0.274l0.265,0l0,0.548l0.265,0l0,0.547l0.265,0l0,0.274l0.265,0l0,0.547l0.265,0l0,0.274l0.266,0l0,0.273l0.265,0l0,0.274l0.265,0l0,0.548l0.265,0l0,0.273l0.265,0l0,0.274l0.265,0l0,0.274l0.265,0l0,0.547l0.265,0l0,0.274l0.266,0l0,0.273l0.265,0l0,0.274l0.265,0l0,0.548l0.265,0l0,0.273l0.265,0l0,0.274l0.265,0l0,0.274l0.265,0l0,0.273l0.265,0l0,0.274l0.266,0l0,0.274l0.265,0l0,0.273l0.265,0l0,0.274l0.265,0l0,0.274l0.265,0l0,0.273l0.265,0l0,0.274l0.265,0l0,0.274l0.266,0l0,0.274l0.265,0l0,0.273l0.265,0l0,0.274l0.265,0l0,0.274l0.265,0l0,0.273l0.265,0l0,0.274l0.265,0l0,0.274l0.265,0l0,0.273l0.266,0l0,0.274l0.265,0l0,0.274l0.265,0l0,0.274l0.53,0l0,0.273l0.265,0l0,0.274l0.265,0l0,0.274l0.265,0l0,0.273l0.266,0l0,0.274l0.53,0l0,0.274l0.265,0l0,0.273l0.265,0l0,0.274l0.265,0l0,0.274l0.53,0l0,0.274l0.266,0l0,0.273l0.265,0l0,0.274l0.265,0l0,0.274l0.53,0l0,0.273l0.265,0l0,0.274l0.265,0l0,0.274l0.265,0l0,0.273l0.266,0l0,0.274l0.53,0l0,0.274l0.265,0l0,0.273l0.265,0l0,0.274l0.53,0l0,0.274l0.265,0l0,0.274l0.531,0l0,0.273l0.53,0l0,0.274l0.265,0l0,0.274l0.53,0l0,0.273l0.265,0l0,0.274l0.531,0l0,0.274l0.265,0l0,0.273l0.53,0l0,0.274l0.53,0l0,0.274l0.265,0l0,0.274l0.531,0l0,0.273l0.265,0l0,0.274l0.53,0l0,0.274l0.265,0l0,0.273l0.53,0l0,0.274l0.531,0l0,0.274l0.265,0Zm58.062,-48.171l0,0.274l1.061,0l0,-0.548l-0.265,0l0,-3.831l-0.265,0l0,-3.558l-0.266,0l0,-3.558l-0.265,0l0,-2.464l-0.265,0l0,-2.189l-0.265,0l0,-2.464l-0.265,0l0,-2.189l-0.265,0l0,-1.916l-0.265,0l0,-1.642l-0.265,0l0,-1.642l-0.266,0l0,-1.643l-0.265,0l0,-1.642l-0.265,0l0,-1.642l-0.265,0l0,-1.368l-0.265,0l0,-1.369l-0.265,0l0,-1.095l-0.265,0l0,-1.368l-0.265,0l0,-1.095l-0.266,0l0,-1.368l-0.265,0l0,-0.822l-0.265,0l0,0.274l-0.265,0l0,0.274l-0.265,0l0,0.274l-0.265,0l0,0.273l-0.265,0l0,0.548l-0.265,0l0,0.273l-0.266,0l0,0.274l-0.265,0l0,0.274l-0.265,0l0,0.273l-0.265,0l0,0.274l-0.265,0l0,0.274l-0.265,0l0,0.547l-0.265,0l0,0.274l-0.265,0l0,0.274l-0.266,0l0,0.273l-0.265,0l0,0.274l-0.265,0l0,0.274l-0.265,0l0,0.273l-0.265,0l0,0.274l-0.265,0l0,0.547l-0.265,0l0,0.274l-0.265,0l0,0.274l-0.266,0l0,0.274l-0.265,0l0,0.547l-0.265,0l0,0.274l-0.265,0l0,0.273l-0.265,0l0,0.548l-0.265,0l0,0.273l-0.265,0l0,0.274l-0.265,0l0,0.274l-0.266,0l0,0.547l-0.265,0l0,0.274l-0.265,0l0,0.274l-0.265,0l0,0.547l-0.265,0l0,0.274l-0.265,0l0,0.273l-0.265,0l0,0.548l-0.265,0l0,0.273l-0.266,0l0,0.274l-0.265,0l0,0.274l-0.265,0l0,0.547l-0.265,0l0,0.274l-0.265,0l0,0.274l-0.265,0l0,0.547l-0.265,0l0,0.274l-0.265,0l0,0.547l-0.266,0l0,0.274l-0.265,0l0,0.547l-0.265,0l0,0.274l-0.265,0l0,0.547l-0.265,0l0,0.274l-0.265,0l0,0.547l-0.265,0l0,0.274l-0.265,0l0,0.548l-0.266,0l0,0.273l-0.265,0l0,0.274l-0.265,0l0,0.547l-0.265,0l0,0.274l-0.265,0l0,0.547l-0.265,0l0,0.274l-0.265,0l0,0.547l-0.265,0l0,0.274l-0.266,0l0,0.548l-0.265,0l0,0.273l-0.265,0l0,0.548l-0.265,0l0,0.273l-0.265,0l0,0.548l-0.265,0l0,0.547l-0.265,0l0,0.274l-0.265,0l0,0.547l-0.266,0l0,0.548l-0.265,0l0,0.273l-0.265,0l0,0.548l-0.265,0l0,0.547l-0.265,0l0,0.274l-0.265,0l0,0.547l-0.265,0l0,0.548l-0.265,0l0,0.273l-0.266,0l0,0.548l-0.265,0l0,0.547l-0.265,0l0,0.274l-0.265,0l0,0.547l-0.265,0l0,0.274l-0.265,0l0,0.547l-0.265,0l0,0.548l-0.265,0l0,0.273l0.53,0l0,0.274l0.53,0l0,0.274l0.795,0l0,0.273l0.796,0l0,0.274l0.53,0l0,0.274l0.795,0l0,0.274l0.796,0l0,0.273l0.53,0l0,0.274l0.795,0l0,0.274l0.796,0l0,0.273l0.53,0l0,0.274l1.061,0l0,0.274l1.06,0l0,0.273l0.795,0l0,0.274l1.061,0l0,0.274l1.06,0l0,0.273l1.061,0l0,0.274l0.795,0l0,0.274l1.061,0l0,0.274l1.325,0l0,0.273l1.591,0l0,0.274l1.591,0l0,0.274l1.591,0l0,0.273l2.651,0l0,0.274l2.916,0Zm9.015,-0.274l0,0.274l1.59,0l0,-0.274l2.387,0l0,-0.273l2.121,0l0,-0.274l1.06,0l0,-0.274l1.326,0l0,-0.273l1.06,0l0,-0.274l1.326,0l0,-0.274l1.06,0l0,-0.274l0.796,0l0,-0.273l0.795,0l0,-0.274l0.795,0l0,-0.274l0.796,0l0,-0.273l0.795,0l0,-0.274l0.796,0l0,-0.274l0.795,0l0,-0.273l0.53,0l0,-0.274l0.53,0l0,-0.274l0.531,0l0,-0.273l0.53,0l0,-0.274l0.53,0l0,-0.274l0.53,0l0,-0.274l0.531,0l0,-0.273l0.53,0l0,-0.274l0.53,0l0,-0.274l-0.265,0l0,-0.547l-0.265,0l0,-0.274l-0.265,0l0,-0.547l-0.265,0l0,-0.274l-0.265,0l0,-0.547l-0.266,0l0,-0.274l-0.265,0l0,-0.547l-0.265,0l0,-0.548l-0.265,0l0,-0.273l-0.265,0l0,-0.548l-0.265,0l0,-0.273l-0.265,0l0,-0.548l-0.265,0l0,-0.274l-0.266,0l0,-0.547l-0.265,0l0,-0.274l-0.265,0l0,-0.273l-0.265,0l0,-0.548l-0.265,0l0,-0.273l-0.265,0l0,-0.548l-0.265,0l0,-0.274l-0.265,0l0,-0.273l-0.266,0l0,-0.548l-0.265,0l0,-0.273l-0.265,0l0,-0.274l-0.265,0l0,-0.547l-0.265,0l0,-0.274l-0.265,0l0,-0.274l-0.265,0l0,-0.547l-0.265,0l0,-0.274l-0.266,0l0,-0.274l-0.265,0l0,-0.547l-0.265,0l0,-0.274l-0.265,0l0,-0.273l-0.265,0l0,-0.548l-0.265,0l0,-0.273l-0.265,0l0,-0.274l-0.265,0l0,-0.274l-0.266,0l0,-0.274l-0.265,0l0,-0.273l-0.265,0l0,-0.274l-0.265,0l0,-0.547l-0.265,0l0,-0.274l-0.265,0l0,-0.274l-0.265,0l0,-0.273l-0.265,0l0,-0.274l-0.266,0l0,-0.274l-0.265,0l0,-0.274l-0.265,0l0,-0.547l-0.265,0l0,-0.274l-0.265,0l0,-0.273l-0.265,0l0,-0.274l-0.265,0l0,-0.274l-0.265,0l0,-0.273l-0.266,0l0,-0.274l-0.265,0l0,-0.274l-0.265,0l0,-0.274l-0.265,0l0,-0.273l-0.265,0l0,-0.274l-0.265,0l0,-0.274l-0.265,0l0,-0.273l-0.265,0l0,-0.274l-0.266,0l0,-0.274l-0.265,0l0,-0.273l-0.265,0l0,-0.274l-0.265,0l0,-0.274l-0.265,0l0,-0.273l-0.265,0l0,-0.274l-0.265,0l0,-0.274l-0.265,0l0,-0.274l-0.266,0l0,-0.273l-0.265,0l0,-0.274l-0.265,0l0,-0.274l-0.265,0l0,-0.273l-0.265,0l0,-0.274l-0.265,0l0,-0.274l-0.265,0l0,-0.273l-0.265,0l0,-0.274l-0.266,0l0,-0.274l-0.265,0l0,-0.274l-0.53,0l0,-0.273l-0.265,0l0,-0.274l-0.265,0l0,-0.274l-0.265,0l0,-0.273l-0.531,0l0,-0.274l-0.265,0l0,-0.274l-0.265,0l0,-0.273l-0.265,0l0,-0.274l-0.265,0l0,-0.274l-0.53,0l0,-0.274l-0.266,0l0,-0.273l-0.265,0l0,-0.274l-0.265,0l0,-0.274l-0.53,0l0,-0.273l-0.265,0l0,-0.274l-0.265,0l0,-0.274l-0.265,0l0,-0.273l-0.266,0l0,-0.274l-0.265,0l0,0.274l0.265,0l0,1.368l0.266,0l0,1.369l0.265,0l0,1.368l0.265,0l0,1.369l0.265,0l0,1.368l0.265,0l0,1.369l0.265,0l0,1.915l0.265,0l0,1.643l0.265,0l0,1.915l0.266,0l0,1.916l0.265,0l0,1.643l0.265,0l0,2.463l0.265,0l0,2.737l0.265,0l0,2.463l0.265,0l0,2.463l0.265,0l0,3.832l0.266,0l0,3.832l0.265,0l0,2.189Zm-96.241,-4.105l0,0.274l0.265,0l0,-0.274l0.265,0l0,-0.547l0.265,0l0,-0.274l0.265,0l0,-0.548l0.266,0l0,-0.273l0.265,0l0,-0.548l0.265,0l0,-0.273l0.265,0l0,-0.548l0.265,0l0,-0.273l0.265,0l0,-0.548l0.265,0l0,-0.274l0.265,0l0,-0.547l0.266,0l0,-0.274l0.265,0l0,-0.547l0.265,0l0,-0.274l0.265,0l0,-0.273l0.265,0l0,-0.274l0.265,0l0,-0.547l0.265,0l0,-0.274l0.265,0l0,-0.274l0.266,0l0,-0.274l0.265,0l0,-0.547l0.265,0l0,-0.274l0.265,0l0,-0.273l0.265,0l0,-0.274l0.265,0l0,-0.274l0.265,0l0,-0.547l0.265,0l0,-0.274l0.266,0l0,-0.274l0.265,0l0,-0.273l0.265,0l0,-0.274l0.265,0l0,-0.547l0.265,0l0,-0.274l0.265,0l0,-0.274l0.265,0l0,-0.273l0.265,0l0,-0.274l0.266,0l0,-0.274l0.265,0l0,-0.274l0.265,0l0,-0.273l0.265,0l0,-0.274l0.265,0l0,-0.274l0.265,0l0,-0.273l0.265,0l0,-0.274l0.266,0l0,-0.274l0.265,0l0,-0.273l0.265,0l0,-0.274l0.265,0l0,-0.274l0.265,0l0,-0.273l0.265,0l0,-0.274l0.265,0l0,-0.274l0.265,0l0,-0.274l0.266,0l0,-0.273l0.265,0l0,-0.274l0.265,0l0,-0.274l0.265,0l0,-0.273l0.265,0l0,-0.274l0.53,0l0,-0.274l0.265,0l0,-0.273l0.266,0l0,-0.274l0.265,0l0,-0.274l0.265,0l0,-0.274l0.265,0l0,-0.273l0.265,0l0,-0.274l0.53,0l0,-0.274l0.265,0l0,-0.273l0.266,0l0,-0.274l0.265,0l0,-0.274l0.265,0l0,-0.273l0.265,0l0,-0.274l0.53,0l0,-0.274l0.265,0l0,-0.274l0.265,0l0,-0.273l0.266,0l0,-0.274l0.53,0l0,-0.274l0.265,0l0,-0.273l0.265,0l0,-0.274l0.53,0l0,-0.274l0.265,0l0,-0.273l0.266,0l0,-0.274l0.53,0l0,-0.274l0.265,0l0,-0.273l0.265,0l0,-0.274l0.53,0l0,-0.274l0.265,0l0,-0.274l0.266,0l0,-0.273l0.53,0l0,-0.274l0.265,0l0,-0.274l0.265,0l0,-1.642l-0.265,0l0,-1.916l-0.265,0l0,-1.916l-0.265,0l0,-0.547l0.265,0l0,-2.737l0.265,0l0,-3.011l0.265,0l0,-0.273l-0.265,0l0,0.273l-0.53,0l0,0.274l-0.265,0l0,0.274l-0.266,0l0,0.273l-0.265,0l0,0.274l-0.265,0l0,0.274l-0.265,0l0,0.274l-0.53,0l0,0.273l-0.265,0l0,0.274l-0.265,0l0,0.274l-0.266,0l0,0.273l-0.265,0l0,0.274l-0.265,0l0,0.274l-0.265,0l0,0.273l-0.265,0l0,0.274l-0.265,0l0,0.274l-0.265,0l0,0.274l-0.265,0l0,0.273l-0.266,0l0,0.274l-0.265,0l0,0.274l-0.265,0l0,0.273l-0.265,0l0,0.274l-0.265,0l0,0.274l-0.265,0l0,0.273l-0.265,0l0,0.274l-0.265,0l0,0.274l-0.266,0l0,0.273l-0.265,0l0,0.274l-0.265,0l0,0.274l-0.265,0l0,0.274l-0.265,0l0,0.273l-0.265,0l0,0.274l-0.265,0l0,0.274l-0.265,0l0,0.273l-0.266,0l0,0.548l-0.265,0l0,0.273l-0.265,0l0,0.274l-0.265,0l0,0.274l-0.265,0l0,0.274l-0.265,0l0,0.273l-0.265,0l0,0.548l-0.265,0l0,0.273l-0.266,0l0,0.274l-0.265,0l0,0.274l-0.265,0l0,0.273l-0.265,0l0,0.548l-0.265,0l0,0.274l-0.265,0l0,0.547l-0.265,0l0,0.274l-0.265,0l0,0.273l-0.266,0l0,0.548l-0.265,0l0,0.273l-0.265,0l0,0.548l-0.265,0l0,0.273l-0.265,0l0,0.274l-0.265,0l0,0.548l-0.265,0l0,0.273l-0.266,0l0,0.548l-0.265,0l0,0.273l-0.265,0l0,0.548l-0.265,0l0,0.547l-0.265,0l0,0.274l-0.265,0l0,0.547l-0.265,0l0,0.274l-0.265,0l0,0.547l-0.266,0l0,0.548l-0.265,0l0,0.273l-0.265,0l0,0.548l-0.265,0l0,0.547l-0.265,0l0,0.548l-0.265,0l0,0.547l-0.265,0l0,0.547l-0.265,0l0,0.274l-0.266,0l0,0.547l-0.265,0l0,0.548l-0.265,0l0,0.547l-0.265,0l0,0.548l-0.265,0l0,0.547l-0.265,0l0,0.547l-0.265,0l0,0.822l-0.265,0l0,0.547l-0.266,0l0,0.547l-0.265,0l0,0.821l-0.265,0l0,0.548l-0.265,0l0,0.821l-0.265,0l0,0.547l-0.265,0l0,0.821l-0.265,0l0,0.548l-0.265,0l0,0.821l-0.266,0l0,0.821l-0.265,0l0,1.095l-0.265,0l0,0.821l-0.265,0l0,0.821l-0.265,0Zm52.76,-6.295l0,0.274l0.265,0l0,-0.548l0.265,0l0,-0.547l0.265,0l0,-0.274l0.266,0l0,-0.547l0.265,0l0,-0.548l0.265,0l0,-0.273l0.265,0l0,-0.548l0.265,0l0,-0.547l0.265,0l0,-0.274l0.265,0l0,-0.547l0.265,0l0,-0.548l0.266,0l0,-0.273l0.265,0l0,-0.548l0.265,0l0,-0.547l0.265,0l0,-0.274l0.265,0l0,-0.547l0.265,0l0,-0.548l0.265,0l0,-0.273l0.265,0l0,-0.548l0.266,0l0,-0.547l0.265,0l0,-0.274l0.265,0l0,-0.547l0.265,0l0,-0.274l0.265,0l0,-0.547l0.265,0l0,-0.274l0.265,0l0,-0.547l0.265,0l0,-0.274l0.266,0l0,-0.547l0.265,0l0,-0.274l0.265,0l0,-0.548l0.265,0l0,-0.273l0.265,0l0,-0.548l0.265,0l0,-0.273l0.265,0l0,-0.548l0.265,0l0,-0.273l0.266,0l0,-0.548l0.265,0l0,-0.274l0.265,0l0,-0.547l0.265,0l0,-0.274l0.265,0l0,-0.547l0.265,0l0,-0.274l0.265,0l0,-0.273l0.265,0l0,-0.548l0.266,0l0,-0.273l0.265,0l0,-0.274l0.265,0l0,-0.548l0.265,0l0,-0.273l0.265,0l0,-0.274l0.265,0l0,-0.547l0.265,0l0,-0.274l0.265,0l0,-0.274l0.266,0l0,-0.547l0.265,0l0,-0.274l0.265,0l0,-0.274l0.265,0l0,-0.547l0.265,0l0,-0.274l0.265,0l0,-0.273l0.265,0l0,-0.548l0.265,0l0,-0.273l0.266,0l0,-0.548l0.265,0l0,-0.274l0.265,0l0,-0.273l0.265,0l0,-0.274l0.265,0l0,-0.274l0.265,0l0,-0.547l0.265,0l0,-0.274l0.265,0l0,-0.273l0.266,0l0,-0.274l0.265,0l0,-0.274l0.265,0l0,-0.547l0.265,0l0,-0.274l0.265,0l0,-0.274l0.265,0l0,-0.273l0.265,0l0,-0.274l0.265,0l0,-0.547l0.266,0l0,-0.274l0.265,0l0,-0.274l0.265,0l0,-0.273l0.265,0l0,-0.274l0.265,0l0,-0.548l-0.53,0l0,0.274l-1.591,0l0,0.274l-1.326,0l0,0.274l-1.325,0l0,0.273l-1.591,0l0,0.274l-1.06,0l0,0.274l-1.061,0l0,0.273l-1.06,0l0,0.274l-1.061,0l0,0.274l-1.06,0l0,0.273l-0.796,0l0,0.274l-1.06,0l0,0.274l-1.061,0l0,0.274l-0.795,0l0,0.273l-0.796,0l0,0.274l-0.795,0l0,0.274l-0.795,0l0,0.273l-0.796,0l0,0.274l-0.795,0l0,0.274l-0.795,0l0,0.273l-0.796,0l0,0.274l-0.53,0l0,0.274l-0.796,0l0,0.273l-0.53,0l0,0.274l-0.795,0l0,0.274l-0.53,0l0,0.274l-0.796,0l0,0.273l-0.53,0l0,0.274l-0.795,0l0,0.274l-0.531,0l0,0.273l-0.795,0l0,0.274l-0.53,0l0,0.274l-0.531,0l0,0.273l-0.53,0l0,0.274l-0.53,0l0,0.274l-0.53,0l0,0.274l-0.531,0l0,0.273l-0.53,0l0,0.274l-0.53,0l0,0.274l-0.53,0l0,0.273l-0.531,0l0,0.274l-0.53,0l0,0.274l-0.53,0l0,0.273l-0.53,0l0,0.274l-0.531,0l0,0.274l-0.265,0l0,0.274l-0.53,0l0,0.273l-0.53,0l0,0.274l-0.53,0l0,0.274l-0.531,0l0,0.273l-0.265,0l0,0.274l-0.53,0l0,0.274l-0.265,0l0,0.273l0.265,0l0,0.548l0.265,0l0,0.273l0.265,0l0,0.548l0.265,0l0,0.274l0.265,0l0,0.547l0.266,0l0,0.547l0.265,0l0,0.274l0.265,0l0,0.547l0.265,0l0,0.274l0.265,0l0,0.548l0.265,0l0,0.273l0.265,0l0,0.274l0.265,0l0,0.274l0.266,0l0,0.273l0.265,0l0,0.274l0.265,0l0,0.274l0.265,0l0,0.273l0.265,0l0,0.548l0.265,0l0,0.274l0.265,0l0,0.273l0.265,0l0,0.274l0.266,0l0,0.274l0.265,0l0,0.273l0.265,0l0,0.274l0.265,0l0,0.274l0.265,0l0,0.273l0.265,0l0,0.274l0.265,0l0,0.274l0.265,0l0,0.273l0.266,0l0,0.274l0.53,0l0,0.274l0.265,0l0,0.274l0.265,0l0,0.273l0.265,0l0,0.274l0.265,0l0,0.274l0.531,0l0,0.273l0.265,0l0,0.274l0.265,0l0,0.274l0.265,0l0,0.273l0.53,0l0,0.274l0.265,0l0,0.274l0.265,0l0,0.274l0.266,0l0,0.273l0.53,0l0,0.274l0.265,0l0,0.274l0.53,0l0,0.273l0.53,0l0,0.274l0.266,0l0,0.274l0.53,0l0,0.273l0.265,0l0,0.274l0.53,0l0,0.274l0.265,0l0,0.274l0.531,0l0,0.273l0.265,0l0,0.274l0.53,0Zm-19.884,-25.454l0,0.274l0.265,0l0,-0.274l0.53,0l0,-0.274l0.53,0l0,-0.273l0.53,0l0,-0.274l0.531,0l0,-0.274l0.53,0l0,-0.273l0.265,0l0,-0.274l0.53,0l0,-0.274l0.531,0l0,-0.273l0.53,0l0,-0.274l0.53,0l0,-0.274l0.53,0l0,-0.274l0.531,0l0,-0.273l0.53,0l0,-0.274l0.53,0l0,-0.274l0.53,0l0,-0.273l0.796,0l0,-0.274l0.53,0l0,-0.274l0.53,0l0,-0.273l0.53,0l0,-0.274l0.531,0l0,-0.274l0.53,0l0,-0.274l0.795,0l0,-0.273l0.531,0l0,-0.274l0.795,0l0,-0.274l0.53,0l0,-0.273l0.796,0l0,-0.274l0.53,0l0,-0.274l0.795,0l0,-0.273l0.53,0l0,-0.274l0.796,0l0,-0.274l0.795,0l0,-0.274l0.796,0l0,-0.273l0.795,0l0,-0.274l0.795,0l0,-0.274l0.796,0l0,-0.273l0.795,0l0,-0.274l0.796,0l0,-0.274l0.795,0l0,-0.273l1.06,0l0,-0.274l0.796,0l0,-0.274l1.06,0l0,-0.273l1.061,0l0,-0.274l1.06,0l0,-0.274l0.796,0l0,-0.274l1.06,0l0,-0.273l1.326,0l0,-0.274l1.325,0l0,-0.274l1.326,0l0,-0.273l1.326,0l0,-0.274l1.325,0l0,-0.274l-0.795,0l0,-0.273l-0.795,0l0,-0.274l-1.061,0l0,-0.274l-0.795,0l0,-0.274l-1.061,0l0,-0.273l-0.795,0l0,-0.274l-0.796,0l0,-0.274l-1.06,0l0,-0.273l-1.326,0l0,-0.274l-1.59,0l0,-0.274l-1.856,0l0,-0.273l-1.856,0l0,-0.274l-9.545,0l0,0.274l-1.591,0l0,0.273l-1.325,0l0,0.274l-1.326,0l0,0.274l-1.325,0l0,0.273l-1.061,0l0,0.274l-0.265,0l0,0.274l-0.265,0l0,0.273l-0.53,0l0,0.274l-0.266,0l0,0.274l-0.265,0l0,0.274l-0.265,0l0,0.273l-0.265,0l0,0.274l-0.265,0l0,0.274l-0.265,0l0,0.273l-0.265,0l0,0.274l-0.265,0l0,0.547l-0.266,0l0,0.274l-0.265,0l0,0.274l-0.265,0l0,0.274l-0.265,0l0,0.547l-0.265,0l0,0.274l-0.265,0l0,0.547l-0.265,0l0,0.547l-0.265,0l0,0.274l-0.266,0l0,0.547l-0.265,0l0,0.548l-0.265,0l0,0.547l-0.265,0l0,0.821l-0.265,0l0,1.095l-0.265,0l0,0.821l-0.265,0l0,4.106l-0.265,0l0,0.547Zm80.333,-13.137l0,0.273l0.53,0l0,-0.273l-0.265,0l0,-0.274l-0.53,0l0,-0.274l-0.531,0l0,-0.273l-0.265,0l0,-0.274l-0.53,0l0,-0.274l-0.53,0l0,-0.274l-0.265,0l0,-0.273l-0.531,0l0,-0.274l-0.53,0l0,-0.274l-0.265,0l0,-0.273l-0.53,0l0,-0.274l-0.796,0l0,-0.274l-0.53,0l0,-0.273l-0.53,0l0,-0.274l-0.53,0l0,-0.274l-0.531,0l0,-0.274l-0.53,0l0,-0.273l-0.53,0l0,-0.274l-0.796,0l0,-0.274l-0.53,0l0,-0.273l-0.53,0l0,0.273l-0.53,0l0,0.274l-0.796,0l0,0.274l-0.795,0l0,0.273l-0.53,0l0,0.274l-0.531,0l0,0.274l-0.53,0l0,0.274l-0.53,0l0,0.273l-0.53,0l0,0.274l-0.265,0l0,0.274l-0.531,0l0,0.273l-0.53,0l0,0.274l1.326,0l0,0.274l2.651,0l0,0.273l2.916,0l0,0.274l2.386,0l0,0.274l1.326,0l0,0.274l1.326,0l0,0.273l1.59,0l0,0.274l1.326,0l0,0.274l1.326,0Zm-26.778,-4.927l0,0.274l0.265,0l0,-0.274l0.265,0l0,-0.274l0.53,0l0,-0.273l0.266,0l0,-0.274l0.265,0l0,-0.274l0.53,0l0,-0.273l0.265,0l0,-0.274l0.53,0l0,-0.274l0.265,0l0,-0.273l0.531,0l0,-0.274l0.265,0l0,-0.274l0.53,0l0,-0.274l0.53,0l0,-0.273l0.265,0l0,-0.274l0.531,0l0,-0.274l0.53,0l0,-0.273l-1.326,0l0,-0.274l-1.325,0l0,-0.274l-1.326,0l0,-0.273l-1.591,0l0,-0.274l-1.856,0l0,-0.274l-1.59,0l0,0.548l0.265,0l0,0.547l0.265,0l0,0.274l0.265,0l0,0.547l0.265,0l0,0.547l0.265,0l0,0.548l0.265,0l0,0.547l0.266,0l0,0.548l0.265,0l0,0.547l0.265,0l0,0.547l0.265,0l0,0.274Zm-9.81,-2.189l0,0.273l0.265,0l0,-0.273l-0.265,0l0,-0.274l-0.265,0l0,-0.548l-0.265,0l0,-0.547l-0.265,0l0,-0.274l-0.265,0l0,-0.273l-0.265,0l0,-0.274l-0.265,0l0,-0.547l-0.266,0l0,-0.274l-0.53,0l0,-0.274l-0.265,0l0,-0.274l-0.265,0l0,-0.273l-0.795,0l0,-0.274l-1.591,0l0,0.274l-4.507,0l0,0.273l-0.796,0l0,0.274l1.061,0l0,0.274l0.795,0l0,0.274l1.061,0l0,0.273l1.06,0l0,0.274l0.796,0l0,0.274l0.795,0l0,0.273l0.795,0l0,0.274l0.531,0l0,0.274l0.795,0l0,0.273l0.795,0l0,0.274l0.796,0l0,0.274l0.53,0l0,0.274" style="fill:url(#_Radial2);fill-rule:nonzero;"/></g><g><path id="path60-5" d="M0,328.705l32.327,0l0,6.85l-11.874,0l0,34.338l-8.577,0l0,-34.338l-11.876,0l0,-6.85" style="fill:#1b2f50;fill-rule:nonzero;"/><path id="path62-2" d="M36.87,369.893l0,-41.183l8.566,0l0,16.252l15.089,0l0,-16.252l8.669,0l0,41.183l-8.564,0l0,-18.085l-15.194,0l0,18.085l-8.566,0" style="fill:#1b2f50;fill-rule:nonzero;"/><path id="path64-7" d="M76.173,328.705l26.744,0l0,6.85l-18.177,0l0,9.639l17.028,0l0,6.843l-17.028,0l0,11.013l18.787,0l0,6.843l-27.354,0l0,-41.188" style="fill:#1b2f50;fill-rule:nonzero;"/><path id="path66-6" d="M145.485,328.705l9.66,0l6.962,30.978l0.11,0l6.42,-30.978l8.176,0l-10.171,41.188l-9.502,0l-7.184,-31.374l-0.11,0l-7.743,31.374l-9.719,0l-9.729,-41.188l8.845,0l6.133,30.978l0.113,0l7.739,-30.978" style="fill:#1b2f50;fill-rule:nonzero;"/><path id="path68-1" d="M188.829,349.306c0,7.066 1.604,15.056 10.064,15.056c8.453,0 10.055,-7.99 10.055,-15.056c0,-7.08 -1.602,-15.069 -10.055,-15.069c-8.46,0 -10.064,7.989 -10.064,15.069m-9.108,0c0,-12.153 5.961,-21.458 19.172,-21.458c13.198,0 19.167,9.305 19.167,21.458c0,12.15 -5.969,21.44 -19.167,21.44c-13.211,0 -19.172,-9.29 -19.172,-21.44" style="fill:#1b2f50;fill-rule:nonzero;"/><path id="path70-4" d="M232.288,346.452l7.177,0c3.756,-0.068 5.965,-1.995 5.965,-5.653c0,-3.646 -2.209,-5.186 -5.965,-5.248l-7.177,0l0,10.901Zm0,23.445l-8.575,0l0,-41.192l16.96,0c6.854,0.059 13.872,2.335 13.872,10.73c0,5.355 -3.365,8.898 -8.287,9.98l0,0.116c6.574,0.737 6.574,4.901 7.296,10.611c0.39,2.626 0.721,7.474 2.315,9.755l-9.446,0c-0.715,-3.65 -1.106,-7.359 -1.489,-11.071c-0.224,-2.28 -0.782,-5.419 -3.587,-5.531l-9.059,0l0,16.602" style="fill:#1b2f50;fill-rule:nonzero;"/><path id="path72-2" d="M261.091,369.893l0,-41.183l8.563,0l0,34.34l17.3,0l0,6.843l-25.863,0" style="fill:#1b2f50;fill-rule:nonzero;"/><path id="path74-3" d="M300.16,363.05l4.426,0c10.173,0.112 11.663,-7.191 11.663,-13.744c0,-6.564 -1.49,-13.863 -11.663,-13.751l-4.426,0l0,27.495Zm-8.56,-34.345l13.595,0c12.43,-0.105 20.169,6.272 20.169,20.601c0,14.315 -7.739,20.699 -20.169,20.587l-13.595,0l0,-41.188" style="fill:#1b2f50;fill-rule:nonzero;"/><path id="path76-2" d="M362.299,345.253c3.594,0 5.575,-1.541 5.575,-4.849c0,-3.313 -1.981,-4.849 -5.575,-4.849l-6.692,0l0,9.698l6.692,0Zm0,17.797c4.03,0 6.786,-0.745 6.786,-5.477c0,-4.738 -2.756,-5.478 -6.786,-5.478l-6.692,0l0,10.955l6.692,0Zm-15.251,6.843l0,-41.188l14.973,0c7.125,-0.449 14.426,2.63 14.426,10.671c0,4.503 -3.044,7.641 -7.025,9.007l0,0.116c5.039,1.09 8.785,4.684 8.785,10.727c0,8.161 -9.948,11.123 -16.074,10.667l-15.085,0" style="fill:#1b2f50;fill-rule:nonzero;"/><path id="path78-2" d="M405.697,354.322l-5.472,-17.568l-0.111,0l-5.85,17.568l11.433,0Zm-24.813,15.571l14.42,-41.188l10.166,0l13.868,41.188l-8.614,0l-2.869,-8.728l-15.807,0l-2.988,8.728l-8.176,0" style="fill:#1b2f50;fill-rule:nonzero;"/><path id="path80-1" d="M447.599,369.893l-15.747,-34.229l-0.109,0.117l0,34.112l-8.011,0l0,-41.183l12.7,0l15.201,32.401l0.114,-0.116l0,-32.285l8.008,0l0,41.183l-12.156,0" style="fill:#1b2f50;fill-rule:nonzero;"/><path id="path82-6" d="M475.354,346.509l0.114,0l13.259,-17.804l10,0l-14.645,18.424l15.918,22.764l-10.665,0l-13.867,-20.991l-0.114,0l0,20.991l-8.562,0l0,-41.188l8.562,0l0,17.804" style="fill:#1b2f50;fill-rule:nonzero;"/></g></g><defs><radialGradient id="_Radial2" cx="0" cy="0" r="1" gradientUnits="userSpaceOnUse" gradientTransform="matrix(138.716,0,0,143.201,332.478,169.235)"><stop offset="0" style="stop-color:#fff;stop-opacity:1"/><stop offset="0.51" style="stop-color:#52afe6;stop-opacity:1"/><stop offset="0.54" style="stop-color:#52afe6;stop-opacity:1"/><stop offset="0.95" style="stop-color:#1b2f50;stop-opacity:1"/><stop offset="1" style="stop-color:#1b2f50;stop-opacity:1"/></radialGradient></defs></svg>