<svg clip-rule="evenodd" fill-rule="evenodd" stroke-linecap="round" stroke-linejoin="round" stroke-miterlimit="1.41421" viewBox="0 0 240 240" xmlns="http://www.w3.org/2000/svg"><g fill="none"><path d="m0 0h240v240h-240z"/><g stroke="#808080" stroke-width="5"><path d="m138.637 220h-13.537"/><path d="m111.229 219.996 6.342-63.888"/><path d="m128.442 85.012h-38.459"/><path d="m75.242 154.692h15.212l5.692 65.308h14.921v-.004h.162"/><path d="m90.454 154.692 15.146-48.571"/><path d="m130.929 55.658c0 7.963-6.642 14.417-14.825 14.417-8.191 0-14.829-6.454-14.829-14.417 0-7.966 6.638-14.408 14.829-14.408 8.183 0 14.825 6.442 14.825 14.408z"/><path d="m89.983 85.012-14.741 69.68"/><path d="m145.004 85.012h-55.021"/><path d="m129.925 104.321 8.712 115.679"/><path d="m145.004 85.012 5.554 64.876"/><path d="m79.15 192.05h-23.162"/><path d="m55.988 192.05 6.341-63.888"/><path d="m73.2 57.062h-10.492v.005h-27.97"/><path d="m20 126.746h15.208l5.696 65.304h15.084"/><path d="m35.208 126.746 15.15-48.575"/><path d="m75.687 27.712c0 7.963-6.645 14.417-14.829 14.417-8.187 0-14.825-6.454-14.825-14.417 0-7.97 6.638-14.408 14.825-14.408 8.184 0 14.829 6.438 14.829 14.408z"/><path d="m34.738 57.067-14.738 69.679"/><path d="m86.983 57.062h-24.275v.005h-27.97"/><path d="m86.983 57.062 1.113 13.013"/><path d="m152.633 192.05h24.48"/><path d="m177.113 192.05-6.342-63.888"/><path d="m159.9 57.062h10.487v.005h27.971"/><path d="m213.096 126.746h-15.208l-5.696 65.304h-15.079"/><path d="m197.888 126.746-15.151-48.575"/><path d="m157.412 27.712c0 7.963 6.642 14.417 14.825 14.417 8.192 0 14.83-6.454 14.83-14.417 0-7.97-6.638-14.408-14.83-14.408-8.183 0-14.825 6.438-14.825 14.408z"/><path d="m198.358 57.067 14.738 69.679"/><path d="m146.117 57.062h24.27v.005h27.971"/><path d="m146.117 57.062-1.113 13.013"/></g></g></svg>