<?xml version="1.0" encoding="UTF-8" standalone="no"?>
<!DOCTYPE svg PUBLIC "-//W3C//DTD SVG 1.1//EN" "http://www.w3.org/Graphics/SVG/1.1/DTD/svg11.dtd">
<svg width="100%" height="100%" viewBox="0 0 1920 1080" version="1.1" xmlns="http://www.w3.org/2000/svg" xmlns:xlink="http://www.w3.org/1999/xlink" xml:space="preserve" xmlns:serif="http://www.serif.com/" style="fill-rule:evenodd;clip-rule:evenodd;stroke-linecap:round;stroke-linejoin:round;stroke-miterlimit:1.5;">
    <g transform="matrix(1.09215,0,0,1.09215,-184.027,-52.4915)">
        <rect x="608" y="103" width="879" height="879" style="fill:rgb(235,235,235);"/>
    </g>
    <g transform="matrix(1.72043,0,0,1.13879,3.44086,-8.3274)">
        <rect x="277" y="60" width="186" height="281" style="fill:rgb(235,235,235);stroke:black;stroke-width:0.69px;"/>
    </g>
    <g transform="matrix(1.72043,0,0,1.13879,323.441,-8.3274)">
        <rect x="277" y="60" width="186" height="281" style="fill:rgb(235,235,235);stroke:black;stroke-width:0.69px;"/>
    </g>
    <g transform="matrix(1.72043,0,0,1.13879,643.441,-8.3274)">
        <rect x="277" y="60" width="186" height="281" style="fill:rgb(235,235,235);stroke:black;stroke-width:0.69px;"/>
    </g>
    <g transform="matrix(1.72043,0,0,1.13879,3.44086,311.673)">
        <rect x="277" y="60" width="186" height="281" style="fill:rgb(235,235,235);stroke:black;stroke-width:0.69px;"/>
    </g>
    <g transform="matrix(1.72043,0,0,1.13879,323.441,311.673)">
        <rect x="277" y="60" width="186" height="281" style="fill:rgb(235,235,235);stroke:black;stroke-width:0.69px;"/>
    </g>
    <g transform="matrix(1.72043,0,0,1.13879,643.441,311.673)">
        <rect x="277" y="60" width="186" height="281" style="fill:rgb(235,235,235);stroke:black;stroke-width:0.69px;"/>
    </g>
    <g transform="matrix(1.72043,0,0,1.13879,3.44086,631.673)">
        <rect x="277" y="60" width="186" height="281" style="fill:rgb(235,235,235);stroke:black;stroke-width:0.69px;"/>
    </g>
    <g transform="matrix(1.72043,0,0,1.13879,323.441,631.673)">
        <rect x="277" y="60" width="186" height="281" style="fill:rgb(235,235,235);stroke:black;stroke-width:0.69px;"/>
    </g>
    <g transform="matrix(1.72043,0,0,1.13879,643.441,631.673)">
        <rect x="277" y="60" width="186" height="281" style="fill:rgb(235,235,235);stroke:black;stroke-width:0.69px;"/>
    </g>
    <g transform="matrix(1,0,0,1,2.5,1.5)">
        <circle cx="957.5" cy="538.5" r="75.5" style="fill:rgb(252,109,8);"/>
    </g>
    <g transform="matrix(1,0,0,1,769.137,-220)">
        <text x="105px" y="267px" style="font-family:'Arial-BoldMT', 'Arial', sans-serif;font-weight:700;font-size:48px;">LOGOS</text>
    </g>
    <g transform="matrix(1,0,0,1,152.137,290.191)">
        <text x="105px" y="267px" style="font-family:'Arial-BoldMT', 'Arial', sans-serif;font-weight:700;font-size:48px;">P<tspan x="133.453px 164.555px 193.875px " y="267px 267px 267px ">ATH</tspan>OS</text>
    </g>
    <g transform="matrix(1,0,0,1,80.5117,610.18)">
        <text x="105px" y="267px" style="font-family:'ArialMT', 'Arial', sans-serif;font-size:48px;">P<tspan x="133.453px 165.469px 197.484px 208.172px 240.188px " y="267px 267px 267px 267px 267px ">AS AS</tspan>SEZ</text>
    </g>
    <g transform="matrix(1,0,0,1,208.621,-29.8086)">
        <text x="105px" y="267px" style="font-family:'ArialMT', 'Arial', sans-serif;font-size:48px;">TROP</text>
    </g>
    <g transform="matrix(1,0,0,1,1108.81,-219.977)">
        <text x="105px" y="267px" style="font-family:'ArialMT', 'Arial', sans-serif;font-size:48px;">TROP</text>
    </g>
    <g transform="matrix(1,0,0,1,403.469,-220)">
        <text x="105px" y="267px" style="font-family:'ArialMT', 'Arial', sans-serif;font-size:48px;">P<tspan x="133.453px 165.469px 197.484px 208.172px 240.188px " y="267px 267px 267px 267px 267px ">AS AS</tspan>SEZ</text>
    </g>
    <g transform="matrix(0.375391,0.375391,-1.10605,1.10605,1038.53,-97.1912)">
        <path d="M260.629,332.32L260.629,314.773L349.301,314.773L349.301,306L401,323.546L349.301,341.093L349.301,332.32L260.629,332.32Z" style="fill:rgb(18,145,216);"/>
    </g>
    <g transform="matrix(-0.375391,-0.375391,1.10605,-1.10605,891.178,1186.89)">
        <path d="M260.629,332.32L260.629,314.773L349.301,314.773L349.301,306L401,323.546L349.301,341.093L349.301,332.32L260.629,332.32Z" style="fill:rgb(18,145,216);"/>
    </g>
    <g transform="matrix(-0.375391,0.375391,-1.10605,-1.10605,1597.19,618.525)">
        <path d="M260.629,332.32L260.629,314.773L349.301,314.773L349.301,306L401,323.546L349.301,341.093L349.301,332.32L260.629,332.32Z" style="fill:rgb(18,145,216);"/>
    </g>
    <g transform="matrix(-5.55112e-17,0.530883,-1.56419,-1.11022e-16,1466.09,204.376)">
        <path d="M260.629,332.32L260.629,314.773L349.301,314.773L349.301,306L401,323.546L349.301,341.093L349.301,332.32L260.629,332.32Z" style="fill:rgb(18,145,216);"/>
    </g>
    <g transform="matrix(1.20526e-16,-0.530883,1.56419,3.0258e-16,453.912,875.624)">
        <path d="M260.629,332.32L260.629,314.773L349.301,314.773L349.301,306L401,323.546L349.301,341.093L349.301,332.32L260.629,332.32Z" style="fill:rgb(18,145,216);"/>
    </g>
    <g transform="matrix(0.375391,-0.375391,1.10605,1.10605,322.809,461.475)">
        <path d="M260.629,332.32L260.629,314.773L349.301,314.773L349.301,306L401,323.546L349.301,341.093L349.301,332.32L260.629,332.32Z" style="fill:rgb(18,145,216);"/>
    </g>
    <g transform="matrix(0.530883,-5.55112e-17,3.33067e-16,1.56419,624.376,33.912)">
        <path d="M260.629,332.32L260.629,314.773L349.301,314.773L349.301,306L401,323.546L349.301,341.093L349.301,332.32L260.629,332.32Z" style="fill:rgb(18,145,216);"/>
    </g>
    <g transform="matrix(-0.530883,-9.50327e-18,-1.41509e-16,-1.56419,1295.62,1046.09)">
        <path d="M260.629,332.32L260.629,314.773L349.301,314.773L349.301,306L401,323.546L349.301,341.093L349.301,332.32L260.629,332.32Z" style="fill:rgb(18,145,216);"/>
    </g>
</svg>
