<?xml version="1.0" encoding="UTF-8" standalone="no"?><!DOCTYPE svg PUBLIC "-//W3C//DTD SVG 1.1//EN" "http://www.w3.org/Graphics/SVG/1.1/DTD/svg11.dtd"><svg width="100%" height="100%" viewBox="0 0 180 233" version="1.1" xmlns="http://www.w3.org/2000/svg" xmlns:xlink="http://www.w3.org/1999/xlink" xml:space="preserve" xmlns:serif="http://www.serif.com/" style="fill-rule:evenodd;clip-rule:evenodd;stroke-linejoin:round;stroke-miterlimit:2;"><circle cx="90" cy="217.5" r="15" style="fill:#ff8200;"/><path d="M77.058,179.068c-43.553,-6.28 -77.058,-43.792 -77.058,-89.068c0,-49.672 40.327,-90 90,-90c49.673,0 90,40.328 90,90c0,45.276 -33.505,82.788 -77.058,89.068c1.028,-1.988 1.723,-4.221 2.058,-6.568c1.17,-8.192 5.743,-40.199 7.5,-52.5c1.757,-12.293 -10.082,-22.5 -22.5,-22.5c-12.418,0 -24.256,10.207 -22.5,22.5c1.75,12.248 6.296,44.073 7.5,52.5c0.335,2.347 1.03,4.58 2.058,6.568Zm12.942,-119.068c8.279,0 15,6.722 15,15c0,8.278 -6.721,15 -15,15c-8.278,0 -15,-6.722 -15,-15c0,-8.278 6.722,-15 15,-15Z" style="fill:#ff8200;"/></svg>