<?xml version="1.0" standalone="no"?>
<!DOCTYPE svg PUBLIC "-//W3C//DTD SVG 20010904//EN"
 "http://www.w3.org/TR/2001/REC-SVG-20010904/DTD/svg10.dtd">
<svg version="1.0" xmlns="http://www.w3.org/2000/svg"
 width="1240.000000pt" height="1240.000000pt" viewBox="0 0 1240.000000 1240.000000"
 preserveAspectRatio="xMidYMid meet">
<metadata>
Created by potrace 1.11, written by Peter Selinger 2001-2013
</metadata>
<g transform="translate(0.000000,1240.000000) scale(0.100000,-0.100000)"
fill="#000000" stroke="none">
<path d="M5855 12394 c-715 -53 -1410 -265 -2030 -617 -872 -496 -1588 -1281
-2004 -2198 -199 -440 -337 -938 -398 -1434 -25 -213 -26 -884 0 -1090 77
-621 259 -1199 538 -1718 80 -148 72 -133 165 -282 409 -657 1020 -1247 1674
-1617 185 -105 217 -121 375 -195 301 -142 666 -265 1015 -342 147 -32 307
-57 316 -49 3 3 -11 43 -30 89 -19 46 -41 118 -49 159 -17 83 -168 1116 -268
1830 -16 118 -59 418 -95 665 -62 419 -66 459 -61 575 6 145 29 234 97 372
148 300 467 538 835 624 114 27 416 27 530 0 368 -86 687 -324 835 -624 68
-138 91 -227 97 -372 5 -116 1 -156 -61 -575 -36 -247 -79 -547 -95 -665 -100
-714 -251 -1747 -268 -1830 -8 -41 -30 -113 -49 -159 -19 -46 -33 -86 -30 -89
9 -8 169 17 316 49 349 77 714 200 1015 342 158 74 190 90 375 195 654 370
1265 960 1674 1617 93 149 85 134 165 282 279 519 461 1097 538 1718 26 206
25 877 0 1090 -61 496 -199 994 -398 1434 -605 1335 -1805 2336 -3214 2681
-436 107 -633 131 -1105 135 -195 1 -377 1 -405 -1z m570 -3234 c216 -68 385
-211 485 -411 60 -119 74 -183 74 -344 1 -165 -9 -215 -69 -341 -79 -164 -187
-278 -346 -363 -136 -73 -193 -86 -369 -86 -176 0 -233 13 -369 86 -159 85
-267 199 -346 363 -60 126 -70 176 -69 341 0 161 14 225 74 344 100 201 275
348 485 409 103 30 108 31 250 27 99 -2 147 -9 200 -25z"/>
<path d="M6085 1599 c-84 -12 -197 -52 -285 -100 -54 -30 -102 -69 -170 -138
-79 -80 -103 -112 -143 -191 -66 -132 -89 -227 -89 -370 0 -207 70 -388 204
-534 167 -182 356 -266 598 -266 242 0 431 84 598 266 134 146 204 327 204
534 0 143 -23 238 -89 370 -40 79 -64 111 -143 191 -104 105 -180 154 -311
201 -124 43 -246 55 -374 37z"/>
</g>
</svg>
