<?xml version="1.0" encoding="UTF-8" standalone="no"?><!DOCTYPE svg PUBLIC "-//W3C//DTD SVG 1.1//EN" "http://www.w3.org/Graphics/SVG/1.1/DTD/svg11.dtd"><svg width="100%" height="100%" viewBox="0 0 187 104" version="1.1" xmlns="http://www.w3.org/2000/svg" xmlns:xlink="http://www.w3.org/1999/xlink" xml:space="preserve" xmlns:serif="http://www.serif.com/" style="fill-rule:evenodd;clip-rule:evenodd;stroke-linejoin:round;stroke-miterlimit:2;"><clipPath id="_clip1"><rect x="19.843" y="26.427" width="147.313" height="51.145"/></clipPath><g clip-path="url(#_clip1)"><g><g><path d="M54.704,69.931l0,-28.549l11.127,0c1.883,0 3.444,0.195 4.684,0.586c1.242,0.39 2.315,1.206 3.222,2.447c0.907,1.241 1.36,2.698 1.36,4.372c0,1.576 -0.461,2.946 -1.381,4.11c-0.92,1.163 -2.189,1.906 -3.807,2.227c2.009,0.349 3.528,1.165 4.56,2.448c1.032,1.283 1.549,2.801 1.549,4.559c0,2.203 -0.722,4.054 -2.166,5.553c-1.442,1.5 -3.664,2.248 -6.662,2.248l-12.486,0l0,-0.001Zm4.872,-16.564l6.276,0c1.283,0 2.297,-0.384 3.043,-1.151c0.746,-0.766 1.119,-1.742 1.119,-2.928c0,-1.31 -0.426,-2.276 -1.276,-2.897c-0.851,-0.62 -1.847,-0.93 -2.99,-0.93l-6.172,0l0,7.906Zm0,12.277l6.652,0c1.409,0 2.52,-0.369 3.336,-1.108c0.816,-0.739 1.224,-1.736 1.224,-2.992c0,-1.198 -0.415,-2.181 -1.244,-2.949c-0.83,-0.767 -1.928,-1.15 -3.296,-1.15l-6.672,0l0,8.199Z" style="fill:#2473bb;fill-rule:nonzero;"/><path d="M83.486,46.338l-4.769,0l0,-4.956l4.769,0l0,4.956Zm0,23.594l-4.769,0l0,-21.125l4.769,0l0,21.125Z" style="fill:#2473bb;fill-rule:nonzero;"/><path d="M95.763,70.371c-3.123,0 -5.508,-1.122 -7.152,-3.367c-1.645,-2.245 -2.469,-4.817 -2.469,-7.718c0,-3.123 0.91,-5.724 2.729,-7.802c1.821,-2.078 4.223,-3.116 7.207,-3.116c2.83,0 5.155,1.012 6.975,3.033c1.82,2.022 2.729,4.651 2.729,7.885c0,3.333 -0.944,6.014 -2.833,8.043c-1.89,2.028 -4.286,3.042 -7.186,3.042m0.168,-3.932c3.207,0 4.811,-2.391 4.811,-7.174c0,-2.161 -0.384,-3.866 -1.151,-5.114c-0.767,-1.248 -1.945,-1.872 -3.535,-1.872c-1.645,0 -2.865,0.646 -3.661,1.935c-0.795,1.29 -1.193,3.002 -1.193,5.134c0,2.301 0.422,4.058 1.267,5.271c0.844,1.214 1.997,1.82 3.462,1.82" style="fill:#2473bb;fill-rule:nonzero;"/><path d="M142.348,63.197l4.309,0.587c-0.558,1.909 -1.646,3.485 -3.262,4.726c-1.619,1.241 -3.647,1.861 -6.087,1.861c-2.928,0 -5.285,-0.982 -7.07,-2.949c-1.785,-1.966 -2.677,-4.629 -2.677,-7.99c0,-3.192 0.899,-5.835 2.698,-7.927c1.799,-2.091 4.239,-3.137 7.321,-3.137c3.012,0 5.34,1.032 6.985,3.096c1.645,2.063 2.469,4.713 2.469,7.948l-0.02,0.543l-14.495,0c0,1.436 0.136,2.587 0.407,3.451c0.273,0.866 0.812,1.618 1.623,2.259c0.808,0.642 1.818,0.963 3.032,0.963c2.355,0 3.945,-1.144 4.767,-3.431m-0.292,-6.316c-0.014,-1.52 -0.471,-2.761 -1.37,-3.723c-0.9,-0.962 -2.012,-1.443 -3.336,-1.443c-1.311,0 -2.406,0.449 -3.284,1.349c-0.879,0.899 -1.394,2.172 -1.548,3.817l9.538,0l0,0Z" style="fill:#2473bb;fill-rule:nonzero;"/><path d="M167.157,69.931l-4.771,0l0,-13.198c0,-1.393 -0.319,-2.443 -0.96,-3.147c-0.642,-0.704 -1.416,-1.056 -2.322,-1.056c-1.241,0 -2.329,0.544 -3.263,1.631c-0.935,1.088 -1.402,2.727 -1.402,4.915l0,10.855l-4.768,0l0,-21.125l4.35,0l0,4.895c1.52,-3.556 3.653,-5.334 6.4,-5.334c1.854,0 3.441,0.585 4.759,1.758c1.319,1.171 1.977,3.228 1.977,6.168l0,13.638Z" style="fill:#2473bb;fill-rule:nonzero;"/><path d="M123.098,50.1c1.68,1.373 2.52,2.899 2.52,4.579c0,1.877 -0.787,3.43 -2.364,4.662c-1.574,1.234 -3.657,1.848 -6.247,1.848c-1.12,0 -2.43,-0.181 -3.928,-0.545c-0.98,0.448 -1.47,1.141 -1.47,2.079c0,0.519 0.238,0.995 0.714,1.429c0.475,0.435 1.197,0.651 2.163,0.651l6.301,0c2.157,0 3.848,0.556 5.073,1.67c1.225,1.113 1.838,2.496 1.838,4.148c0,2.002 -0.928,3.661 -2.783,4.976c-1.856,1.318 -4.603,1.975 -8.244,1.975c-6.847,0 -10.271,-1.91 -10.271,-5.734c0,-1.889 1.03,-3.325 3.088,-4.306c-1.317,-1.119 -1.974,-2.289 -1.974,-3.507c0,-1.848 1.127,-3.319 3.381,-4.41c-1.961,-1.191 -2.94,-2.829 -2.94,-4.915c0,-1.764 0.72,-3.27 2.164,-4.517c1.442,-1.245 3.632,-1.868 6.574,-1.868c1.343,0 2.708,0.147 4.094,0.442m-9.241,20.058c-0.687,0.629 -1.029,1.239 -1.029,1.827c0,0.966 0.574,1.816 1.722,2.551c1.148,0.736 2.975,1.104 5.482,1.104c3.682,0 5.524,-0.946 5.524,-2.836c0,-0.7 -0.322,-1.229 -0.967,-1.585c-0.643,-0.357 -1.38,-0.536 -2.205,-0.536l-5.083,0c-0.965,-0.001 -2.114,-0.175 -3.444,-0.525m5.25,-10.459c2.604,0 3.907,-1.226 3.907,-3.677c0,-0.938 -0.326,-1.728 -0.977,-2.373c-0.652,-0.643 -1.599,-0.966 -2.846,-0.966c-1.26,0 -2.236,0.336 -2.929,1.008c-0.695,0.672 -1.04,1.513 -1.04,2.521c0,1.036 0.343,1.876 1.028,2.52c0.687,0.644 1.639,0.967 2.857,0.967" style="fill:#2473bb;fill-rule:nonzero;"/><path d="M120.36,48.923l6.206,-2.089l0.682,4.062l-3.427,0.301" style="fill:#2473bb;fill-rule:nonzero;"/></g><g id="circle_1_"><g><clipPath id="_clip2"><path d="M23.613,39.891c0,7.435 6.027,13.461 13.46,13.461c7.437,0 13.464,-6.026 13.464,-13.461c0,-7.436 -6.027,-13.464 -13.464,-13.464c-7.433,0 -13.46,6.028 -13.46,13.464"/></clipPath><g clip-path="url(#_clip2)"><path id="_x33__2_" d="M50.401,33.491c1.397,3.355 1.601,7.27 0.298,11.07c-2.359,6.884 -9.64,2.387 -15.281,-3.954c-2.81,0.851 -5.244,1.361 -7.186,1.787c-5.504,1.211 -7.084,1.768 -2.24,7.599c8.556,10.298 17.169,5.376 22.815,-1.977c1.027,-1.339 1.955,-2.756 2.768,-4.179l0,-11.153c-0.393,0.277 -0.785,0.547 -1.174,0.807Z" style="fill:url(#_Linear3);fill-rule:nonzero;"/><path id="_x32__2_" d="M50.699,44.561c1.303,-3.801 1.099,-7.715 -0.298,-11.07c-5.608,3.757 -10.729,5.829 -14.983,7.116c5.641,6.341 12.922,10.838 15.281,3.954Z" style="fill:url(#_Linear4);fill-rule:nonzero;"/><path id="_x31__2_" d="M50.401,33.491c-2.844,-6.828 -10.657,-11.332 -20.958,-7.784c-0.841,0.289 -1.214,1.011 -1.211,2.025l0,0.007c0.011,2.951 3.186,8.373 7.186,12.869c4.254,-1.288 9.375,-3.36 14.983,-7.117Z" style="fill:url(#_Linear5);fill-rule:nonzero;"/></g></g><clipPath id="_clip6"><path d="M40.653,39.455c-5.397,-16.582 -16.84,-18.262 -20.305,-5.202c-7.017,26.451 22.449,11.789 20.305,5.202Z"/></clipPath><g clip-path="url(#_clip6)"><rect x="14.416" y="21.888" width="29.465" height="39.511" style="fill:url(#_Radial7);"/></g></g><clipPath id="_clip8"><path id="outer_1_" d="M19.843,39.891c0,2.904 0.882,5.604 2.391,7.845c6.338,-0.998 13.505,-6.354 12.437,-9.866c-1.535,-5.05 -3.821,-8.674 -6.174,-10.968c-5.081,2.121 -8.654,7.138 -8.654,12.989"/></clipPath><g clip-path="url(#_clip8)"><path d="M17.51,47.485l2.526,-22.277l18.068,1.946l-2.526,22.277l-18.068,-1.946Z" style="fill:url(#_Radial9);fill-rule:nonzero;"/></g></g></g><defs><linearGradient id="_Linear3" x1="0" y1="0" x2="1" y2="0" gradientUnits="userSpaceOnUse" gradientTransform="matrix(28.4742,0,0,28.4742,23.1011,44.2746)"><stop offset="0" style="stop-color:#d6e6a6;stop-opacity:1"/><stop offset="0" style="stop-color:#d6e6a6;stop-opacity:1"/><stop offset="1" style="stop-color:#d3deaa;stop-opacity:1"/></linearGradient><linearGradient id="_Linear4" x1="0" y1="0" x2="1" y2="0" gradientUnits="userSpaceOnUse" gradientTransform="matrix(-16.153,1.97817e-15,-1.97817e-15,-16.153,51.5713,40.7536)"><stop offset="0" style="stop-color:#cdd894;stop-opacity:1"/><stop offset="0.33" style="stop-color:#bfcf83;stop-opacity:1"/><stop offset="1" style="stop-color:#9eba56;stop-opacity:1"/></linearGradient><linearGradient id="_Linear5" x1="0" y1="0" x2="1" y2="0" gradientUnits="userSpaceOnUse" gradientTransform="matrix(-12.0914,-20.9443,20.9443,-12.0914,48.7919,48.006)"><stop offset="0" style="stop-color:#cfe294;stop-opacity:1"/><stop offset="0" style="stop-color:#cfe294;stop-opacity:1"/><stop offset="0.17" style="stop-color:#b9d187;stop-opacity:1"/><stop offset="0.52" style="stop-color:#87b268;stop-opacity:1"/><stop offset="1" style="stop-color:#338d45;stop-opacity:1"/></linearGradient><radialGradient id="_Radial7" cx="0" cy="0" r="1" gradientUnits="userSpaceOnUse" gradientTransform="matrix(11.364,0,0,-11.364,31.1013,38.2302)"><stop offset="0" style="stop-color:#010101;stop-opacity:0.92"/><stop offset="0.09" style="stop-color:#1f2428;stop-opacity:0.92"/><stop offset="0.21" style="stop-color:#35404a;stop-opacity:0.92"/><stop offset="0.34" style="stop-color:#46596b;stop-opacity:0.92"/><stop offset="0.47" style="stop-color:#536f8a;stop-opacity:0.92"/><stop offset="0.59" style="stop-color:#5c80a4;stop-opacity:0.92"/><stop offset="0.73" style="stop-color:#618db8;stop-opacity:0.92"/><stop offset="0.86" style="stop-color:#6595c6;stop-opacity:0.92"/><stop offset="1" style="stop-color:#69c;stop-opacity:0.92"/></radialGradient><radialGradient id="_Radial9" cx="0" cy="0" r="1" gradientUnits="userSpaceOnUse" gradientTransform="matrix(1.72877,-15.2462,-9.03255,-0.972962,24.2952,36.279)"><stop offset="0" style="stop-color:#e7f2f8;stop-opacity:1"/><stop offset="0.12" style="stop-color:#cadbed;stop-opacity:1"/><stop offset="0.3" style="stop-color:#a5c1e1;stop-opacity:1"/><stop offset="0.48" style="stop-color:#89aed7;stop-opacity:1"/><stop offset="0.66" style="stop-color:#76a2d1;stop-opacity:1"/><stop offset="0.84" style="stop-color:#6a9bcd;stop-opacity:1"/><stop offset="1" style="stop-color:#69c;stop-opacity:1"/></radialGradient></defs></svg>