<?xml version="1.0" encoding="UTF-8" standalone="no"?><!DOCTYPE svg PUBLIC "-//W3C//DTD SVG 1.1//EN" "http://www.w3.org/Graphics/SVG/1.1/DTD/svg11.dtd"><svg width="100%" height="100%" viewBox="0 0 187 104" version="1.1" xmlns="http://www.w3.org/2000/svg" xmlns:xlink="http://www.w3.org/1999/xlink" xml:space="preserve" xmlns:serif="http://www.serif.com/" style="fill-rule:evenodd;clip-rule:evenodd;stroke-linejoin:round;stroke-miterlimit:2;"><clipPath id="_clip1"><rect x="55.5" y="14" width="76" height="76"/></clipPath><g clip-path="url(#_clip1)"><g><path d="M131.455,88.23l0,-0.03l-0.255,-2.01c-0.027,-0.178 -0.18,-0.313 -0.36,-0.315c-0.031,-0.003 -0.062,0.003 -0.09,0.015c-0.028,0.016 -0.058,0.027 -0.09,0.03c-0.527,0.2 -1.087,0.302 -1.651,0.3c-0.542,0.054 -1.08,-0.145 -1.455,-0.54c-0.33,-0.54 -0.477,-1.171 -0.42,-1.801l0,-4.471l3.451,0c0.181,-0.014 0.324,-0.164 0.33,-0.345l0,-2.026c-0.009,-0.191 -0.169,-0.344 -0.36,-0.345l-3.406,0l0,-2.88l0,-0.076c-0.021,-0.183 -0.175,-0.325 -0.36,-0.33l-2.566,0c-0.003,0 -0.005,0 -0.008,0c-0.19,0 -0.348,0.155 -0.352,0.346l0,2.925l-1.981,0c-0.001,0 -0.003,0 -0.004,0c-0.195,0 -0.356,0.161 -0.356,0.356l0,2c-0.004,0.172 0.116,0.325 0.285,0.36l2.056,0l0,5.056c0,1.591 0.36,2.761 1.095,3.526c0.735,0.766 1.846,1.156 3.346,1.156c0.611,0.005 1.22,-0.061 1.816,-0.195c0.397,-0.085 0.784,-0.21 1.155,-0.375c0.132,-0.049 0.222,-0.175 0.225,-0.316l0,-0.015c-0.045,0.015 -0.045,0.015 -0.045,0Z" style="fill:#11100e;fill-rule:nonzero;"/><path d="M73.104,85.47c-0.06,-0.088 -0.105,-0.184 -0.135,-0.285c-0.045,-0.241 0.165,-0.451 0.285,-0.646c0.135,-0.211 0.255,-0.432 0.36,-0.66c0.708,-1.392 1.048,-2.941 0.991,-4.501c-0.019,-1.13 -0.237,-2.247 -0.645,-3.301c-0.382,-0.965 -0.925,-1.858 -1.606,-2.641c-0.618,-0.723 -1.353,-1.337 -2.175,-1.815c-0.867,-0.524 -1.816,-0.9 -2.806,-1.11c-1.048,-0.235 -2.126,-0.306 -3.196,-0.21c-2.196,0.157 -4.268,1.081 -5.852,2.61c-1.588,1.536 -2.574,3.592 -2.775,5.792c-0.108,1.094 -0.042,2.198 0.195,3.271c0.242,1.047 0.658,2.046 1.23,2.956c0.563,0.885 1.279,1.662 2.116,2.295c0.825,0.619 1.748,1.096 2.73,1.41c0.538,0.177 1.09,0.302 1.651,0.376c0.531,0.08 1.068,0.115 1.605,0.105c0.513,-0.016 1.023,-0.061 1.531,-0.135c0.282,-0.041 0.563,-0.096 0.84,-0.165c0.225,-0.06 0.48,-0.105 0.57,-0.346c0.044,-0.193 0,-0.396 -0.12,-0.555c-0.105,-0.225 -0.225,-0.45 -0.33,-0.675c-0.21,-0.405 -0.405,-0.825 -0.615,-1.23c-0.05,-0.116 -0.149,-0.204 -0.27,-0.24c-0.115,-0.025 -0.234,-0.02 -0.345,0.015c-0.136,0.03 -0.271,0.045 -0.406,0.075c-0.562,0.075 -1.132,0.075 -1.695,0c-2.164,-0.287 -4.021,-1.698 -4.876,-3.706c-0.423,-0.999 -0.583,-2.088 -0.465,-3.166c0.124,-1.064 0.522,-2.077 1.155,-2.941c1.287,-1.752 3.401,-2.709 5.566,-2.521c0.993,0.086 1.951,0.41 2.791,0.946c1.679,1.07 2.742,2.888 2.851,4.876c0.054,0.956 -0.115,1.912 -0.495,2.791c-0.358,0.84 -0.902,1.589 -1.591,2.19c-0.103,0.073 -0.186,0.171 -0.24,0.285c-0.033,0.104 -0.027,0.216 0.015,0.315l1.771,3.511c0.09,0.18 0.18,0.451 0.36,0.556c0.137,0.056 0.287,0.077 0.435,0.06l2.716,0c0.002,0 0.005,0 0.007,0c0.24,0 0.436,-0.197 0.436,-0.436c0,-0.073 -0.018,-0.145 -0.053,-0.21c-0.165,-0.33 -0.345,-0.645 -0.51,-0.975l-1.006,-1.965Z" style="fill:#1d1e1c;fill-rule:nonzero;"/><path d="M89.129,84.93l2.175,-8.058c0.045,-0.152 0.187,-0.257 0.345,-0.255l2.611,0c0.197,0.003 0.358,0.164 0.36,0.36c0.003,0.036 -0.003,0.072 -0.015,0.105l-3.796,11.419c-0.061,0.127 -0.189,0.208 -0.33,0.21l-2.476,0c-0.141,-0.002 -0.269,-0.083 -0.33,-0.21l-2.656,-7.773l-2.55,7.787l0,0.015c-0.059,0.12 -0.182,0.196 -0.315,0.195l-2.431,0c-0.146,0.004 -0.279,-0.087 -0.33,-0.224l-3.811,-11.524c0.003,-0.196 0.164,-0.357 0.36,-0.36l2.701,0c0.13,0.012 0.244,0.092 0.3,0.21l2.145,8.088l2.506,-8.073c0.057,-0.132 0.186,-0.22 0.33,-0.225l2.251,0c0.141,0.001 0.269,0.083 0.33,0.21l2.626,8.103Z" style="fill:#1d1e1c;fill-rule:nonzero;"/><path d="M104.193,78.178c-0.395,-0.617 -0.95,-1.115 -1.606,-1.441c-0.698,-0.348 -1.47,-0.523 -2.25,-0.51c-1.066,-0.011 -2.112,0.297 -3.001,0.885c-0.881,0.59 -1.591,1.403 -2.056,2.356c-0.488,1.005 -0.734,2.109 -0.72,3.226l0,0.255c0.007,1.082 0.259,2.149 0.735,3.121c0.445,0.924 1.142,1.705 2.011,2.25c0.861,0.528 1.856,0.799 2.866,0.781c0.679,0.012 1.356,-0.099 1.995,-0.331c0.829,-0.305 1.539,-0.868 2.026,-1.605l0.03,1.23c0.026,0.179 0.18,0.313 0.36,0.315l2.445,0c0.197,-0.002 0.358,-0.163 0.361,-0.36l0,-11.373c-0.003,-0.196 -0.164,-0.357 -0.361,-0.36l-2.445,0c-0.176,0.002 -0.327,0.128 -0.36,0.3l0,0.015l-0.03,1.246Zm-0.72,2.055c1.123,1.457 1.092,3.514 -0.076,4.937c-0.606,0.623 -1.44,0.975 -2.31,0.975c-0.87,0 -1.704,-0.352 -2.311,-0.975c-0.552,-0.617 -0.871,-1.409 -0.9,-2.236c-0.094,-1.007 0.226,-2.009 0.885,-2.776c0.596,-0.648 1.446,-1.004 2.326,-0.975c0.91,-0.017 1.783,0.367 2.386,1.05Z" style="fill:#1d1e1c;fill-rule:nonzero;"/><path d="M112.7,76.932c-0.027,-0.178 -0.18,-0.312 -0.36,-0.315l-2.461,0c-0.196,0.003 -0.357,0.164 -0.36,0.36l0,11.373c0.003,0.197 0.164,0.358 0.36,0.361l2.596,0c0.159,0.001 0.3,-0.103 0.345,-0.255l0,-6.257c-0.048,-0.804 0.186,-1.6 0.66,-2.251c0.458,-0.538 1.141,-0.832 1.846,-0.795c1.44,0 2.16,0.945 2.16,2.836l0,6.481c0.049,0.15 0.188,0.253 0.345,0.255l2.601,0c0.195,0 0.355,-0.16 0.355,-0.355l0,-0.005l0,-6.976c0,-1.666 -0.375,-2.941 -1.125,-3.812c-0.75,-0.885 -1.846,-1.32 -3.271,-1.32c-0.763,-0.015 -1.518,0.15 -2.206,0.48c-0.61,0.314 -1.116,0.799 -1.455,1.396l-0.03,-1.201Z" style="fill:#1d1e1c;fill-rule:nonzero;"/><path d="M106.818,58.417c0.21,0.435 0.421,1.081 0.871,1.336c0.332,0.134 0.694,0.181 1.05,0.135l6.512,0c0.585,-0.002 1.065,-0.483 1.065,-1.068c0,-0.172 -0.041,-0.341 -0.12,-0.493c-0.405,-0.78 -0.825,-1.545 -1.23,-2.325l-2.506,-4.727c-0.141,-0.211 -0.248,-0.444 -0.315,-0.69c-0.068,-0.245 -0.09,-0.15 0.03,-0.555c0.12,-0.3 1.635,-3.286 1.725,-3.586c0.616,-1.905 8.102,-19.955 -13.143,-21.801c0.16,0.087 0.315,0.182 0.465,0.285c1.815,1.165 3.36,2.705 4.531,4.517c2.64,4.136 3.067,9.321 1.14,13.833c-0.315,0.741 -0.691,1.453 -1.125,2.131c-0.74,1.16 -1.639,2.211 -2.671,3.121c-0.247,0.171 -0.44,0.411 -0.555,0.69c-0.083,0.251 -0.067,0.525 0.045,0.765l4.231,8.432Z" style="fill:#4ba2ea;fill-rule:nonzero;"/><path d="M70.569,34.831c3.421,-2.326 6.872,-2.476 7.952,0.735c-0.012,0.054 -0.017,0.11 -0.015,0.165c-0.939,7.993 4.791,15.366 12.768,16.43c1.345,0.182 2.708,0.177 4.051,-0.015c0.33,-0.045 0.645,-0.105 0.976,-0.165c0.234,-0.065 0.478,-0.085 0.72,-0.06c0.375,4.591 -14.029,5.791 -22.941,-5.192c-2.206,-2.716 -3.271,-8.192 -3.511,-11.898" style="fill:#ff3b4a;fill-rule:nonzero;"/><path d="M115.056,44.118c-0.362,1.152 -0.818,2.271 -1.366,3.346c-0.12,0.226 -0.225,0.436 -0.345,0.661c-0.165,0.3 -0.345,0.615 -0.525,0.915c-0.255,0.329 -0.472,0.687 -0.645,1.065l0.015,-0.06c0.12,-0.299 0.226,-0.605 0.315,-0.915c3.189,-9.925 -2.009,-20.753 -11.748,-24.472c-0.075,-0.045 -0.135,-0.075 -0.21,-0.12c0.57,0.3 -2.701,-7.937 4.096,-6.871c0.285,0.15 0.57,0.315 0.855,0.48c1.949,1.168 3.701,2.636 5.191,4.351c1.631,1.871 2.93,4.008 3.841,6.317c0.972,2.519 1.49,5.191 1.531,7.892c0.073,2.509 -0.267,5.013 -1.005,7.411Z" style="fill:#65cee7;fill-rule:nonzero;"/><path d="M106.458,21.012c-0.002,0.509 -0.098,1.013 -0.285,1.486c-0.609,1.517 -2.086,2.517 -3.721,2.52c-0.665,-0.002 -1.319,-0.167 -1.905,-0.48c-1.848,-1.034 -3.893,-1.668 -6.002,-1.86c-2.622,-0.243 -5.261,0.229 -7.637,1.365c-1.156,0.54 -2.236,1.232 -3.211,2.056c-0.917,0.769 -1.738,1.645 -2.445,2.61c-1.354,1.866 -2.263,4.016 -2.656,6.287c-7.307,-8.942 7.697,-23.346 24.531,-17.93c0.286,0.075 0.586,0.165 0.871,0.255c0.21,0.105 0.435,0.21 0.645,0.33l0.015,0c1.125,0.747 1.802,2.011 1.8,3.361Z" style="fill:#87c966;fill-rule:nonzero;"/><path d="M103.908,17.276c-0.254,-0.092 -0.515,-0.163 -0.781,-0.21c-1.275,-0.346 -2.582,-0.562 -3.901,-0.645c-0.39,-0.03 -0.78,-0.03 -1.185,-0.03c-10.336,0.047 -18.942,8.281 -19.445,18.605c-0.016,0.069 -0.027,0.139 -0.03,0.21c-0.015,0.12 -0.03,0.24 -0.045,0.345c-0.356,1.891 -2.023,3.272 -3.946,3.271l-0.12,0c-2.154,-0.062 -3.89,-1.852 -3.886,-4.006c0,-0.18 0.015,-0.345 0.03,-0.51c0.299,-2.369 0.978,-4.674 2.01,-6.827c1.12,-2.359 2.66,-4.495 4.546,-6.302c1.881,-1.797 4.052,-3.263 6.422,-4.336c2.398,-1.061 4.962,-1.701 7.577,-1.89c1.504,-0.118 3.014,-0.108 4.516,0.03c1.056,0.09 2.104,0.256 3.136,0.495c1.766,0.397 3.478,1.001 5.102,1.8Z" style="fill:url(#_Linear2);fill-rule:nonzero;"/><path d="M100.322,58.387c-0.21,0.601 -0.826,0.706 -1.381,0.841c-0.66,0.165 -1.32,0.285 -1.995,0.39c-1.216,0.18 -2.446,0.255 -3.661,0.315c-1.28,0.04 -2.561,-0.04 -3.826,-0.24c-1.337,-0.195 -2.657,-0.496 -3.946,-0.901c-3.112,-0.991 -5.959,-2.673 -8.328,-4.921c-1.246,-1.183 -2.344,-2.513 -3.27,-3.961c-1.386,-2.166 -2.381,-4.557 -2.941,-7.067c-0.552,-2.613 -0.694,-5.295 -0.42,-7.952l0,-0.06c0.547,9.689 8.281,17.552 17.959,18.26c0.526,0.045 1.051,0.06 1.591,0.06c2.357,0.006 4.695,-0.416 6.902,-1.245c0.036,0.005 0.071,0.015 0.105,0.03c0.29,0.091 0.526,0.305 0.645,0.585c0.495,0.975 0.99,1.95 1.47,2.941c0.015,0.03 0.03,0.075 0.045,0.105c0.255,0.495 0.496,1.005 0.751,1.5c0.225,0.42 0.48,0.825 0.3,1.32Z" style="fill:#af27cc;fill-rule:nonzero;"/></g></g><defs><linearGradient id="_Linear2" x1="0" y1="0" x2="1" y2="0" gradientUnits="userSpaceOnUse" gradientTransform="matrix(33.3389,0,0,33.3389,70.5687,26.8457)"><stop offset="0" style="stop-color:#ffda12;stop-opacity:1"/><stop offset="1" style="stop-color:#efe333;stop-opacity:1"/></linearGradient></defs></svg>