<?xml version="1.0" encoding="UTF-8" standalone="no"?><!DOCTYPE svg PUBLIC "-//W3C//DTD SVG 1.1//EN" "http://www.w3.org/Graphics/SVG/1.1/DTD/svg11.dtd"><svg width="100%" height="100%" viewBox="0 0 187 104" version="1.1" xmlns="http://www.w3.org/2000/svg" xmlns:xlink="http://www.w3.org/1999/xlink" xml:space="preserve" xmlns:serif="http://www.serif.com/" style="fill-rule:evenodd;clip-rule:evenodd;stroke-linejoin:round;stroke-miterlimit:2;"><g><path d="M49.982,44.653l-8.482,0l0,-7.758l26.281,0l0,7.758l-8.479,0l0,22.51l-9.32,0l0,-22.51Z" style="fill:#e72500;fill-rule:nonzero;"/><path d="M69.23,36.895l25.512,0l0,7.758l-16.187,0l0,3.772l16.187,0l0,7.208l-16.187,0l0,3.772l16.191,0l0,7.758l-25.516,0l0,-30.268Z" style="fill:#e72500;fill-rule:nonzero;"/><path d="M105.636,59.405l3.647,0c5.809,0 6.658,-4.706 6.658,-7.55c0,-1.904 -0.597,-7.202 -7.337,-7.202l-2.968,0l0,14.752Zm-9.325,-22.51l15.303,0c10.087,0 13.652,7.462 13.652,15.09c0,9.286 -4.917,15.178 -15.473,15.178l-13.482,0l0,-30.268Z" style="fill:#e72500;fill-rule:nonzero;"/><path d="M138.666,55.499l-2.845,-4.717l-2.774,4.717l-6.832,0l6.486,-9.538l-6.246,-9.124l6.835,0l2.531,4.51l2.604,-4.51l6.833,0l-6.244,9.124l6.486,9.538l-6.834,0Z" style="fill:#e72500;fill-rule:nonzero;"/></g></svg>