<?xml version="1.0" encoding="UTF-8" standalone="no"?>
<!DOCTYPE svg PUBLIC "-//W3C//DTD SVG 1.1//EN" "http://www.w3.org/Graphics/SVG/1.1/DTD/svg11.dtd">
<svg width="100%" height="100%" viewBox="0 0 1080 1080" version="1.1" xmlns="http://www.w3.org/2000/svg" xmlns:xlink="http://www.w3.org/1999/xlink" xml:space="preserve" xmlns:serif="http://www.serif.com/" style="fill-rule:evenodd;clip-rule:evenodd;stroke-linejoin:round;stroke-miterlimit:2;">
    <g transform="matrix(1,0,0,1,-2470,-1200)">
        <g transform="matrix(1,0,0,1,10,0)">
            <g id="trois-cercles" transform="matrix(1,0,0,1,2040,1201)">
                <rect x="0" y="0" width="1920" height="1080" style="fill:none;"/>
                <g transform="matrix(1,0,0,1,1087.84,554.08)">
                    <g transform="matrix(48,0,0,48,61.2,180)">
                        <path d="M0.436,-0.317L0.164,-0.317L0.164,-0L0.08,-0L0.08,-0.698L0.164,-0.698L0.164,-0.39L0.436,-0.39L0.436,-0.698L0.52,-0.698L0.52,-0L0.436,-0L0.436,-0.317Z" style="fill-rule:nonzero;"/>
                    </g>
                    <g transform="matrix(48,0,0,48,90,180)">
                        <path d="M0.203,-0.74L0.203,-0.634L0.097,-0.634L0.097,-0.74L0.203,-0.74ZM0.11,-0.516L0.19,-0.516L0.19,-0L0.11,-0L0.11,-0.516Z" style="fill-rule:nonzero;"/>
                    </g>
                    <g transform="matrix(48,0,0,48,104.4,180)">
                        <path d="M0.306,0.012C0.206,0.012 0.126,-0.022 0.067,-0.089L0.121,-0.136C0.146,-0.109 0.174,-0.088 0.204,-0.075C0.234,-0.062 0.269,-0.055 0.308,-0.055C0.35,-0.055 0.383,-0.063 0.408,-0.078C0.433,-0.093 0.445,-0.115 0.445,-0.144C0.445,-0.169 0.437,-0.186 0.421,-0.197C0.405,-0.208 0.383,-0.215 0.354,-0.219L0.273,-0.231C0.24,-0.236 0.212,-0.242 0.187,-0.251C0.162,-0.259 0.141,-0.273 0.123,-0.293C0.105,-0.312 0.096,-0.339 0.096,-0.374C0.096,-0.424 0.115,-0.462 0.153,-0.489C0.191,-0.515 0.241,-0.528 0.304,-0.528C0.392,-0.528 0.462,-0.5 0.514,-0.445L0.462,-0.396C0.426,-0.439 0.372,-0.461 0.301,-0.461C0.26,-0.461 0.229,-0.454 0.208,-0.44C0.186,-0.426 0.175,-0.406 0.175,-0.379C0.175,-0.354 0.183,-0.337 0.2,-0.326C0.216,-0.315 0.238,-0.308 0.266,-0.304L0.347,-0.292C0.38,-0.287 0.409,-0.281 0.434,-0.273C0.459,-0.264 0.48,-0.25 0.498,-0.231C0.515,-0.211 0.524,-0.184 0.524,-0.149C0.524,-0.098 0.504,-0.059 0.465,-0.031C0.426,-0.002 0.373,0.012 0.306,0.012Z" style="fill-rule:nonzero;"/>
                    </g>
                    <g transform="matrix(48,0,0,48,133.2,180)">
                        <path d="M0.241,-0.172C0.241,-0.14 0.246,-0.117 0.256,-0.102C0.266,-0.087 0.281,-0.077 0.3,-0.074C0.319,-0.07 0.347,-0.068 0.385,-0.068L0.398,-0.068L0.398,-0L0.386,-0C0.333,-0 0.291,-0.005 0.26,-0.014C0.228,-0.023 0.204,-0.04 0.187,-0.065C0.169,-0.09 0.161,-0.126 0.161,-0.173L0.161,-0.448L0.049,-0.448L0.049,-0.516L0.161,-0.516L0.161,-0.698L0.241,-0.698L0.241,-0.516L0.396,-0.516L0.396,-0.448L0.241,-0.448L0.241,-0.172Z" style="fill-rule:nonzero;"/>
                    </g>
                    <g transform="matrix(48,0,0,48,154.8,180)">
                        <path d="M0.3,0.012C0.252,0.012 0.211,0.001 0.176,-0.021C0.14,-0.043 0.114,-0.074 0.095,-0.115C0.076,-0.156 0.066,-0.203 0.066,-0.258C0.066,-0.313 0.076,-0.36 0.095,-0.401C0.114,-0.442 0.14,-0.473 0.176,-0.495C0.211,-0.517 0.252,-0.528 0.3,-0.528C0.348,-0.528 0.389,-0.517 0.425,-0.495C0.46,-0.473 0.487,-0.442 0.506,-0.401C0.525,-0.36 0.534,-0.313 0.534,-0.258C0.534,-0.203 0.525,-0.156 0.506,-0.115C0.487,-0.074 0.46,-0.043 0.425,-0.021C0.389,0.001 0.348,0.012 0.3,0.012ZM0.3,-0.057C0.346,-0.057 0.382,-0.071 0.409,-0.099C0.436,-0.126 0.449,-0.167 0.449,-0.221L0.449,-0.295C0.449,-0.349 0.436,-0.39 0.409,-0.418C0.382,-0.445 0.346,-0.459 0.3,-0.459C0.254,-0.459 0.218,-0.445 0.191,-0.418C0.164,-0.39 0.151,-0.349 0.151,-0.295L0.151,-0.221C0.151,-0.167 0.164,-0.126 0.191,-0.099C0.218,-0.071 0.254,-0.057 0.3,-0.057Z" style="fill-rule:nonzero;"/>
                    </g>
                    <g transform="matrix(48,0,0,48,183.6,180)">
                        <path d="M0.203,-0.74L0.203,-0.634L0.097,-0.634L0.097,-0.74L0.203,-0.74ZM0.11,-0.516L0.19,-0.516L0.19,-0L0.11,-0L0.11,-0.516Z" style="fill-rule:nonzero;"/>
                    </g>
                    <g transform="matrix(48,0,0,48,198,180)">
                        <path d="M0.112,-0.516L0.192,-0.516L0.192,-0.386L0.197,-0.386C0.222,-0.473 0.28,-0.516 0.371,-0.516L0.423,-0.516L0.423,-0.436L0.346,-0.436C0.297,-0.436 0.26,-0.422 0.233,-0.395C0.206,-0.368 0.192,-0.333 0.192,-0.291L0.192,-0L0.112,-0L0.112,-0.516Z" style="fill-rule:nonzero;"/>
                    </g>
                    <g transform="matrix(48,0,0,48,219.6,180)">
                        <path d="M0.309,0.012C0.26,0.012 0.218,0.001 0.181,-0.021C0.144,-0.043 0.116,-0.074 0.097,-0.115C0.077,-0.156 0.067,-0.203 0.067,-0.257C0.067,-0.311 0.077,-0.359 0.097,-0.4C0.117,-0.441 0.145,-0.472 0.181,-0.495C0.216,-0.517 0.257,-0.528 0.304,-0.528C0.349,-0.528 0.389,-0.517 0.424,-0.496C0.459,-0.474 0.486,-0.444 0.505,-0.406C0.524,-0.368 0.533,-0.325 0.533,-0.276L0.533,-0.238L0.151,-0.238L0.151,-0.214C0.151,-0.168 0.165,-0.13 0.194,-0.101C0.223,-0.072 0.261,-0.057 0.309,-0.057C0.343,-0.057 0.373,-0.065 0.398,-0.081C0.423,-0.096 0.443,-0.118 0.457,-0.147L0.516,-0.107C0.5,-0.071 0.474,-0.042 0.438,-0.021C0.401,0.001 0.358,0.012 0.309,0.012ZM0.304,-0.462C0.275,-0.462 0.249,-0.455 0.226,-0.442C0.203,-0.428 0.184,-0.409 0.171,-0.385C0.158,-0.361 0.151,-0.334 0.151,-0.305L0.151,-0.298L0.447,-0.298L0.447,-0.309C0.447,-0.354 0.434,-0.391 0.408,-0.42C0.381,-0.448 0.347,-0.462 0.304,-0.462Z" style="fill-rule:nonzero;"/>
                    </g>
                </g>
                <g transform="matrix(1,0,0,1,500.848,555.52)">
                    <g transform="matrix(48,0,0,48,90,180)">
                        <path d="M0.243,-0L0.036,-0.698L0.125,-0.698L0.299,-0.085L0.304,-0.085L0.478,-0.698L0.564,-0.698L0.357,-0L0.243,-0Z" style="fill-rule:nonzero;"/>
                    </g>
                    <g transform="matrix(48,0,0,48,118.8,180)">
                        <path d="M0.203,-0.74L0.203,-0.634L0.097,-0.634L0.097,-0.74L0.203,-0.74ZM0.11,-0.516L0.19,-0.516L0.19,-0L0.11,-0L0.11,-0.516Z" style="fill-rule:nonzero;"/>
                    </g>
                    <g transform="matrix(48,0,0,48,133.2,180)">
                        <path d="M0.306,0.012C0.206,0.012 0.126,-0.022 0.067,-0.089L0.121,-0.136C0.146,-0.109 0.174,-0.088 0.204,-0.075C0.234,-0.062 0.269,-0.055 0.308,-0.055C0.35,-0.055 0.383,-0.063 0.408,-0.078C0.433,-0.093 0.445,-0.115 0.445,-0.144C0.445,-0.169 0.437,-0.186 0.421,-0.197C0.405,-0.208 0.383,-0.215 0.354,-0.219L0.273,-0.231C0.24,-0.236 0.212,-0.242 0.187,-0.251C0.162,-0.259 0.141,-0.273 0.123,-0.293C0.105,-0.312 0.096,-0.339 0.096,-0.374C0.096,-0.424 0.115,-0.462 0.153,-0.489C0.191,-0.515 0.241,-0.528 0.304,-0.528C0.392,-0.528 0.462,-0.5 0.514,-0.445L0.462,-0.396C0.426,-0.439 0.372,-0.461 0.301,-0.461C0.26,-0.461 0.229,-0.454 0.208,-0.44C0.186,-0.426 0.175,-0.406 0.175,-0.379C0.175,-0.354 0.183,-0.337 0.2,-0.326C0.216,-0.315 0.238,-0.308 0.266,-0.304L0.347,-0.292C0.38,-0.287 0.409,-0.281 0.434,-0.273C0.459,-0.264 0.48,-0.25 0.498,-0.231C0.515,-0.211 0.524,-0.184 0.524,-0.149C0.524,-0.098 0.504,-0.059 0.465,-0.031C0.426,-0.002 0.373,0.012 0.306,0.012Z" style="fill-rule:nonzero;"/>
                    </g>
                    <g transform="matrix(48,0,0,48,162,180)">
                        <path d="M0.422,-0.084L0.418,-0.084C0.391,-0.02 0.342,0.012 0.271,0.012C0.216,0.012 0.173,-0.005 0.141,-0.04C0.108,-0.075 0.092,-0.123 0.092,-0.185L0.092,-0.516L0.172,-0.516L0.172,-0.199C0.172,-0.152 0.182,-0.117 0.203,-0.094C0.224,-0.071 0.254,-0.059 0.294,-0.059C0.329,-0.059 0.36,-0.068 0.385,-0.085C0.409,-0.101 0.422,-0.126 0.422,-0.158L0.422,-0.516L0.502,-0.516L0.502,-0L0.422,-0L0.422,-0.084Z" style="fill-rule:nonzero;"/>
                    </g>
                    <g transform="matrix(48,0,0,48,190.8,180)">
                        <path d="M0.309,0.012C0.26,0.012 0.218,0.001 0.181,-0.021C0.144,-0.043 0.116,-0.074 0.097,-0.115C0.077,-0.156 0.067,-0.203 0.067,-0.257C0.067,-0.311 0.077,-0.359 0.097,-0.4C0.117,-0.441 0.145,-0.472 0.181,-0.495C0.216,-0.517 0.257,-0.528 0.304,-0.528C0.349,-0.528 0.389,-0.517 0.424,-0.496C0.459,-0.474 0.486,-0.444 0.505,-0.406C0.524,-0.368 0.533,-0.325 0.533,-0.276L0.533,-0.238L0.151,-0.238L0.151,-0.214C0.151,-0.168 0.165,-0.13 0.194,-0.101C0.223,-0.072 0.261,-0.057 0.309,-0.057C0.343,-0.057 0.373,-0.065 0.398,-0.081C0.423,-0.096 0.443,-0.118 0.457,-0.147L0.516,-0.107C0.5,-0.071 0.474,-0.042 0.438,-0.021C0.401,0.001 0.358,0.012 0.309,0.012ZM0.304,-0.462C0.275,-0.462 0.249,-0.455 0.226,-0.442C0.203,-0.428 0.184,-0.409 0.171,-0.385C0.158,-0.361 0.151,-0.334 0.151,-0.305L0.151,-0.298L0.447,-0.298L0.447,-0.309C0.447,-0.354 0.434,-0.391 0.408,-0.42C0.381,-0.448 0.347,-0.462 0.304,-0.462Z" style="fill-rule:nonzero;"/>
                    </g>
                    <g transform="matrix(48,0,0,48,219.6,180)">
                        <path d="M0.179,-0C0.152,-0 0.132,-0.008 0.117,-0.023C0.101,-0.038 0.094,-0.058 0.094,-0.083L0.094,-0.74L0.174,-0.74L0.174,-0.095C0.174,-0.078 0.182,-0.07 0.199,-0.07L0.25,-0.07L0.25,-0L0.179,-0Z" style="fill-rule:nonzero;"/>
                    </g>
                    <g transform="matrix(48,0,0,48,234,180)">
                        <path d="M0.306,0.012C0.206,0.012 0.126,-0.022 0.067,-0.089L0.121,-0.136C0.146,-0.109 0.174,-0.088 0.204,-0.075C0.234,-0.062 0.269,-0.055 0.308,-0.055C0.35,-0.055 0.383,-0.063 0.408,-0.078C0.433,-0.093 0.445,-0.115 0.445,-0.144C0.445,-0.169 0.437,-0.186 0.421,-0.197C0.405,-0.208 0.383,-0.215 0.354,-0.219L0.273,-0.231C0.24,-0.236 0.212,-0.242 0.187,-0.251C0.162,-0.259 0.141,-0.273 0.123,-0.293C0.105,-0.312 0.096,-0.339 0.096,-0.374C0.096,-0.424 0.115,-0.462 0.153,-0.489C0.191,-0.515 0.241,-0.528 0.304,-0.528C0.392,-0.528 0.462,-0.5 0.514,-0.445L0.462,-0.396C0.426,-0.439 0.372,-0.461 0.301,-0.461C0.26,-0.461 0.229,-0.454 0.208,-0.44C0.186,-0.426 0.175,-0.406 0.175,-0.379C0.175,-0.354 0.183,-0.337 0.2,-0.326C0.216,-0.315 0.238,-0.308 0.266,-0.304L0.347,-0.292C0.38,-0.287 0.409,-0.281 0.434,-0.273C0.459,-0.264 0.48,-0.25 0.498,-0.231C0.515,-0.211 0.524,-0.184 0.524,-0.149C0.524,-0.098 0.504,-0.059 0.465,-0.031C0.426,-0.002 0.373,0.012 0.306,0.012Z" style="fill-rule:nonzero;"/>
                    </g>
                </g>
                <g transform="matrix(1,0,0,1,764.24,469.824)">
                    <g transform="matrix(48,0,0,48,90,180)">
                        <path d="M0.678,-0.588L0.619,-0.471L0.452,-0.167L0.286,-0.471L0.227,-0.587L0.202,-0.587L0.202,-0L0.12,-0L0.12,-0.698L0.25,-0.698L0.45,-0.322L0.454,-0.322L0.655,-0.698L0.785,-0.698L0.785,-0L0.703,-0L0.703,-0.588L0.678,-0.588Z" style="fill-rule:nonzero;"/>
                    </g>
                    <g transform="matrix(48,0,0,48,133.2,180)">
                        <path d="M0.309,0.012C0.26,0.012 0.218,0.001 0.181,-0.021C0.144,-0.043 0.116,-0.074 0.097,-0.115C0.077,-0.156 0.067,-0.203 0.067,-0.257C0.067,-0.311 0.077,-0.359 0.097,-0.4C0.117,-0.441 0.145,-0.472 0.181,-0.495C0.216,-0.517 0.257,-0.528 0.304,-0.528C0.349,-0.528 0.389,-0.517 0.424,-0.496C0.459,-0.474 0.486,-0.444 0.505,-0.406C0.524,-0.368 0.533,-0.325 0.533,-0.276L0.533,-0.238L0.151,-0.238L0.151,-0.214C0.151,-0.168 0.165,-0.13 0.194,-0.101C0.223,-0.072 0.261,-0.057 0.309,-0.057C0.343,-0.057 0.373,-0.065 0.398,-0.081C0.423,-0.096 0.443,-0.118 0.457,-0.147L0.516,-0.107C0.5,-0.071 0.474,-0.042 0.438,-0.021C0.401,0.001 0.358,0.012 0.309,0.012ZM0.304,-0.462C0.275,-0.462 0.249,-0.455 0.226,-0.442C0.203,-0.428 0.184,-0.409 0.171,-0.385C0.158,-0.361 0.151,-0.334 0.151,-0.305L0.151,-0.298L0.447,-0.298L0.447,-0.309C0.447,-0.354 0.434,-0.391 0.408,-0.42C0.381,-0.448 0.347,-0.462 0.304,-0.462Z" style="fill-rule:nonzero;"/>
                    </g>
                    <g transform="matrix(48,0,0,48,162,180)">
                        <path d="M0.306,0.012C0.206,0.012 0.126,-0.022 0.067,-0.089L0.121,-0.136C0.146,-0.109 0.174,-0.088 0.204,-0.075C0.234,-0.062 0.269,-0.055 0.308,-0.055C0.35,-0.055 0.383,-0.063 0.408,-0.078C0.433,-0.093 0.445,-0.115 0.445,-0.144C0.445,-0.169 0.437,-0.186 0.421,-0.197C0.405,-0.208 0.383,-0.215 0.354,-0.219L0.273,-0.231C0.24,-0.236 0.212,-0.242 0.187,-0.251C0.162,-0.259 0.141,-0.273 0.123,-0.293C0.105,-0.312 0.096,-0.339 0.096,-0.374C0.096,-0.424 0.115,-0.462 0.153,-0.489C0.191,-0.515 0.241,-0.528 0.304,-0.528C0.392,-0.528 0.462,-0.5 0.514,-0.445L0.462,-0.396C0.426,-0.439 0.372,-0.461 0.301,-0.461C0.26,-0.461 0.229,-0.454 0.208,-0.44C0.186,-0.426 0.175,-0.406 0.175,-0.379C0.175,-0.354 0.183,-0.337 0.2,-0.326C0.216,-0.315 0.238,-0.308 0.266,-0.304L0.347,-0.292C0.38,-0.287 0.409,-0.281 0.434,-0.273C0.459,-0.264 0.48,-0.25 0.498,-0.231C0.515,-0.211 0.524,-0.184 0.524,-0.149C0.524,-0.098 0.504,-0.059 0.465,-0.031C0.426,-0.002 0.373,0.012 0.306,0.012Z" style="fill-rule:nonzero;"/>
                    </g>
                    <g transform="matrix(48,0,0,48,190.8,180)">
                        <path d="M0.306,0.012C0.206,0.012 0.126,-0.022 0.067,-0.089L0.121,-0.136C0.146,-0.109 0.174,-0.088 0.204,-0.075C0.234,-0.062 0.269,-0.055 0.308,-0.055C0.35,-0.055 0.383,-0.063 0.408,-0.078C0.433,-0.093 0.445,-0.115 0.445,-0.144C0.445,-0.169 0.437,-0.186 0.421,-0.197C0.405,-0.208 0.383,-0.215 0.354,-0.219L0.273,-0.231C0.24,-0.236 0.212,-0.242 0.187,-0.251C0.162,-0.259 0.141,-0.273 0.123,-0.293C0.105,-0.312 0.096,-0.339 0.096,-0.374C0.096,-0.424 0.115,-0.462 0.153,-0.489C0.191,-0.515 0.241,-0.528 0.304,-0.528C0.392,-0.528 0.462,-0.5 0.514,-0.445L0.462,-0.396C0.426,-0.439 0.372,-0.461 0.301,-0.461C0.26,-0.461 0.229,-0.454 0.208,-0.44C0.186,-0.426 0.175,-0.406 0.175,-0.379C0.175,-0.354 0.183,-0.337 0.2,-0.326C0.216,-0.315 0.238,-0.308 0.266,-0.304L0.347,-0.292C0.38,-0.287 0.409,-0.281 0.434,-0.273C0.459,-0.264 0.48,-0.25 0.498,-0.231C0.515,-0.211 0.524,-0.184 0.524,-0.149C0.524,-0.098 0.504,-0.059 0.465,-0.031C0.426,-0.002 0.373,0.012 0.306,0.012Z" style="fill-rule:nonzero;"/>
                    </g>
                    <g transform="matrix(48,0,0,48,219.6,180)">
                        <path d="M0.495,-0C0.441,-0 0.41,-0.028 0.403,-0.084L0.398,-0.084C0.374,-0.02 0.322,0.012 0.243,0.012C0.189,0.012 0.146,-0.002 0.114,-0.03C0.082,-0.058 0.066,-0.096 0.066,-0.145C0.066,-0.245 0.14,-0.295 0.288,-0.295L0.398,-0.295L0.398,-0.346C0.398,-0.383 0.387,-0.412 0.366,-0.431C0.345,-0.45 0.314,-0.46 0.275,-0.46C0.212,-0.46 0.166,-0.435 0.137,-0.384L0.083,-0.424C0.097,-0.453 0.121,-0.478 0.155,-0.498C0.189,-0.518 0.231,-0.528 0.28,-0.528C0.341,-0.528 0.389,-0.513 0.425,-0.482C0.46,-0.45 0.478,-0.408 0.478,-0.354L0.478,-0.106C0.478,-0.096 0.482,-0.088 0.489,-0.081C0.496,-0.074 0.504,-0.07 0.514,-0.07L0.55,-0.07L0.55,-0L0.495,-0ZM0.257,-0.055C0.298,-0.055 0.331,-0.064 0.358,-0.083C0.385,-0.101 0.398,-0.123 0.398,-0.15L0.398,-0.235L0.288,-0.235C0.196,-0.235 0.15,-0.209 0.15,-0.157L0.15,-0.136C0.15,-0.11 0.16,-0.09 0.179,-0.076C0.198,-0.062 0.224,-0.055 0.257,-0.055Z" style="fill-rule:nonzero;"/>
                    </g>
                    <g transform="matrix(48,0,0,48,248.4,180)">
                        <path d="M0.505,-0.017C0.505,0.054 0.485,0.11 0.445,0.151C0.405,0.192 0.349,0.212 0.278,0.212C0.201,0.212 0.139,0.188 0.093,0.141L0.14,0.086C0.176,0.123 0.222,0.142 0.279,0.142C0.376,0.142 0.425,0.091 0.425,-0.012L0.425,-0.098L0.421,-0.098C0.388,-0.034 0.335,-0.002 0.262,-0.002C0.199,-0.002 0.15,-0.025 0.114,-0.073C0.078,-0.12 0.06,-0.184 0.06,-0.265C0.06,-0.346 0.078,-0.411 0.114,-0.458C0.15,-0.505 0.199,-0.528 0.262,-0.528C0.335,-0.528 0.388,-0.496 0.421,-0.432L0.425,-0.432L0.425,-0.516L0.505,-0.516L0.505,-0.017ZM0.293,-0.073C0.33,-0.073 0.362,-0.082 0.387,-0.101C0.412,-0.12 0.425,-0.146 0.425,-0.179L0.425,-0.351C0.425,-0.384 0.412,-0.41 0.387,-0.429C0.362,-0.448 0.33,-0.457 0.293,-0.457C0.247,-0.457 0.211,-0.443 0.185,-0.415C0.159,-0.387 0.146,-0.349 0.146,-0.302L0.146,-0.228C0.146,-0.181 0.159,-0.143 0.185,-0.115C0.211,-0.087 0.247,-0.073 0.293,-0.073Z" style="fill-rule:nonzero;"/>
                    </g>
                    <g transform="matrix(48,0,0,48,277.2,180)">
                        <path d="M0.309,0.012C0.26,0.012 0.218,0.001 0.181,-0.021C0.144,-0.043 0.116,-0.074 0.097,-0.115C0.077,-0.156 0.067,-0.203 0.067,-0.257C0.067,-0.311 0.077,-0.359 0.097,-0.4C0.117,-0.441 0.145,-0.472 0.181,-0.495C0.216,-0.517 0.257,-0.528 0.304,-0.528C0.349,-0.528 0.389,-0.517 0.424,-0.496C0.459,-0.474 0.486,-0.444 0.505,-0.406C0.524,-0.368 0.533,-0.325 0.533,-0.276L0.533,-0.238L0.151,-0.238L0.151,-0.214C0.151,-0.168 0.165,-0.13 0.194,-0.101C0.223,-0.072 0.261,-0.057 0.309,-0.057C0.343,-0.057 0.373,-0.065 0.398,-0.081C0.423,-0.096 0.443,-0.118 0.457,-0.147L0.516,-0.107C0.5,-0.071 0.474,-0.042 0.438,-0.021C0.401,0.001 0.358,0.012 0.309,0.012ZM0.304,-0.462C0.275,-0.462 0.249,-0.455 0.226,-0.442C0.203,-0.428 0.184,-0.409 0.171,-0.385C0.158,-0.361 0.151,-0.334 0.151,-0.305L0.151,-0.298L0.447,-0.298L0.447,-0.309C0.447,-0.354 0.434,-0.391 0.408,-0.42C0.381,-0.448 0.347,-0.462 0.304,-0.462Z" style="fill-rule:nonzero;"/>
                    </g>
                </g>
                <g transform="matrix(1,0,0,1,264.437,-284.362)">
                    <g transform="matrix(48,0,0,48,604.867,584.362)">
                        <path d="M0.3,0.012C0.137,0.012 0.056,-0.108 0.056,-0.349C0.056,-0.59 0.137,-0.71 0.3,-0.71C0.463,-0.71 0.544,-0.59 0.544,-0.349C0.544,-0.108 0.463,0.012 0.3,0.012ZM0.3,-0.061C0.353,-0.061 0.393,-0.081 0.418,-0.122C0.443,-0.162 0.455,-0.219 0.455,-0.292L0.455,-0.406C0.455,-0.479 0.443,-0.536 0.418,-0.577C0.393,-0.617 0.353,-0.637 0.3,-0.637C0.247,-0.637 0.208,-0.617 0.183,-0.577C0.158,-0.536 0.145,-0.479 0.145,-0.406L0.145,-0.292C0.145,-0.219 0.158,-0.162 0.183,-0.122C0.208,-0.081 0.247,-0.061 0.3,-0.061Z" style="fill-rule:nonzero;"/>
                    </g>
                    <g transform="matrix(48,0,0,48,633.667,584.362)">
                        <path d="M0.112,-0.516L0.192,-0.516L0.192,-0.386L0.197,-0.386C0.222,-0.473 0.28,-0.516 0.371,-0.516L0.423,-0.516L0.423,-0.436L0.346,-0.436C0.297,-0.436 0.26,-0.422 0.233,-0.395C0.206,-0.368 0.192,-0.333 0.192,-0.291L0.192,-0L0.112,-0L0.112,-0.516Z" style="fill-rule:nonzero;"/>
                    </g>
                    <g transform="matrix(48,0,0,48,655.267,584.362)">
                        <path d="M0.495,-0C0.441,-0 0.41,-0.028 0.403,-0.084L0.398,-0.084C0.374,-0.02 0.322,0.012 0.243,0.012C0.189,0.012 0.146,-0.002 0.114,-0.03C0.082,-0.058 0.066,-0.096 0.066,-0.145C0.066,-0.245 0.14,-0.295 0.288,-0.295L0.398,-0.295L0.398,-0.346C0.398,-0.383 0.387,-0.412 0.366,-0.431C0.345,-0.45 0.314,-0.46 0.275,-0.46C0.212,-0.46 0.166,-0.435 0.137,-0.384L0.083,-0.424C0.097,-0.453 0.121,-0.478 0.155,-0.498C0.189,-0.518 0.231,-0.528 0.28,-0.528C0.341,-0.528 0.389,-0.513 0.425,-0.482C0.46,-0.45 0.478,-0.408 0.478,-0.354L0.478,-0.106C0.478,-0.096 0.482,-0.088 0.489,-0.081C0.496,-0.074 0.504,-0.07 0.514,-0.07L0.55,-0.07L0.55,-0L0.495,-0ZM0.257,-0.055C0.298,-0.055 0.331,-0.064 0.358,-0.083C0.385,-0.101 0.398,-0.123 0.398,-0.15L0.398,-0.235L0.288,-0.235C0.196,-0.235 0.15,-0.209 0.15,-0.157L0.15,-0.136C0.15,-0.11 0.16,-0.09 0.179,-0.076C0.198,-0.062 0.224,-0.055 0.257,-0.055Z" style="fill-rule:nonzero;"/>
                    </g>
                    <g transform="matrix(48,0,0,48,684.067,584.362)">
                        <path d="M0.241,-0.172C0.241,-0.14 0.246,-0.117 0.256,-0.102C0.266,-0.087 0.281,-0.077 0.3,-0.074C0.319,-0.07 0.347,-0.068 0.385,-0.068L0.398,-0.068L0.398,-0L0.386,-0C0.333,-0 0.291,-0.005 0.26,-0.014C0.228,-0.023 0.204,-0.04 0.187,-0.065C0.169,-0.09 0.161,-0.126 0.161,-0.173L0.161,-0.448L0.049,-0.448L0.049,-0.516L0.161,-0.516L0.161,-0.698L0.241,-0.698L0.241,-0.516L0.396,-0.516L0.396,-0.448L0.241,-0.448L0.241,-0.172Z" style="fill-rule:nonzero;"/>
                    </g>
                    <g transform="matrix(48,0,0,48,705.667,584.362)">
                        <path d="M0.309,0.012C0.26,0.012 0.218,0.001 0.181,-0.021C0.144,-0.043 0.116,-0.074 0.097,-0.115C0.077,-0.156 0.067,-0.203 0.067,-0.257C0.067,-0.311 0.077,-0.359 0.097,-0.4C0.117,-0.441 0.145,-0.472 0.181,-0.495C0.216,-0.517 0.257,-0.528 0.304,-0.528C0.349,-0.528 0.389,-0.517 0.424,-0.496C0.459,-0.474 0.486,-0.444 0.505,-0.406C0.524,-0.368 0.533,-0.325 0.533,-0.276L0.533,-0.238L0.151,-0.238L0.151,-0.214C0.151,-0.168 0.165,-0.13 0.194,-0.101C0.223,-0.072 0.261,-0.057 0.309,-0.057C0.343,-0.057 0.373,-0.065 0.398,-0.081C0.423,-0.096 0.443,-0.118 0.457,-0.147L0.516,-0.107C0.5,-0.071 0.474,-0.042 0.438,-0.021C0.401,0.001 0.358,0.012 0.309,0.012ZM0.304,-0.462C0.275,-0.462 0.249,-0.455 0.226,-0.442C0.203,-0.428 0.184,-0.409 0.171,-0.385C0.158,-0.361 0.151,-0.334 0.151,-0.305L0.151,-0.298L0.447,-0.298L0.447,-0.309C0.447,-0.354 0.434,-0.391 0.408,-0.42C0.381,-0.448 0.347,-0.462 0.304,-0.462Z" style="fill-rule:nonzero;"/>
                    </g>
                    <g transform="matrix(48,0,0,48,734.467,584.362)">
                        <path d="M0.422,-0.084L0.418,-0.084C0.391,-0.02 0.342,0.012 0.271,0.012C0.216,0.012 0.173,-0.005 0.141,-0.04C0.108,-0.075 0.092,-0.123 0.092,-0.185L0.092,-0.516L0.172,-0.516L0.172,-0.199C0.172,-0.152 0.182,-0.117 0.203,-0.094C0.224,-0.071 0.254,-0.059 0.294,-0.059C0.329,-0.059 0.36,-0.068 0.385,-0.085C0.409,-0.101 0.422,-0.126 0.422,-0.158L0.422,-0.516L0.502,-0.516L0.502,-0L0.422,-0L0.422,-0.084Z" style="fill-rule:nonzero;"/>
                    </g>
                    <g transform="matrix(48,0,0,48,763.267,584.362)">
                        <path d="M0.112,-0.516L0.192,-0.516L0.192,-0.386L0.197,-0.386C0.222,-0.473 0.28,-0.516 0.371,-0.516L0.423,-0.516L0.423,-0.436L0.346,-0.436C0.297,-0.436 0.26,-0.422 0.233,-0.395C0.206,-0.368 0.192,-0.333 0.192,-0.291L0.192,-0L0.112,-0L0.112,-0.516Z" style="fill-rule:nonzero;"/>
                    </g>
                </g>
                <g transform="matrix(1,0,0,1,-2038.72,-7.85333)">
                    <path d="M2998.72,102.56C3163.59,102.56 3297.44,236.412 3297.44,401.28C3297.44,566.148 3163.59,700 2998.72,700C2833.85,700 2700,566.148 2700,401.28C2700,236.412 2833.85,102.56 2998.72,102.56ZM2998.72,105.56C2835.51,105.56 2703,238.068 2703,401.28C2703,564.492 2835.51,697 2998.72,697C3161.93,697 3294.44,564.492 3294.44,401.28C3294.44,238.068 3161.93,105.56 2998.72,105.56Z" style="fill:rgb(252,109,8);"/>
                </g>
                <g transform="matrix(1,0,0,1,-1867.13,285.293)">
                    <path d="M2998.72,102.56C3163.59,102.56 3297.44,236.412 3297.44,401.28C3297.44,566.148 3163.59,700 2998.72,700C2833.85,700 2700,566.148 2700,401.28C2700,236.412 2833.85,102.56 2998.72,102.56ZM2998.72,105.56C2835.51,105.56 2703,238.068 2703,401.28C2703,564.492 2835.51,697 2998.72,697C3161.93,697 3294.44,564.492 3294.44,401.28C3294.44,238.068 3161.93,105.56 2998.72,105.56Z" style="fill:rgb(252,109,8);"/>
                </g>
                <g transform="matrix(1,0,0,1,-2210.31,285.293)">
                    <path d="M2998.72,102.56C3163.59,102.56 3297.44,236.412 3297.44,401.28C3297.44,566.148 3163.59,700 2998.72,700C2833.85,700 2700,566.148 2700,401.28C2700,236.412 2833.85,102.56 2998.72,102.56ZM2998.72,105.56C2835.51,105.56 2703,238.068 2703,401.28C2703,564.492 2835.51,697 2998.72,697C3161.93,697 3294.44,564.492 3294.44,401.28C3294.44,238.068 3161.93,105.56 2998.72,105.56Z" style="fill:rgb(252,109,8);"/>
                </g>
            </g>
        </g>
    </g>
</svg>
