<?xml version="1.0" encoding="UTF-8" standalone="no"?><!DOCTYPE svg PUBLIC "-//W3C//DTD SVG 1.1//EN" "http://www.w3.org/Graphics/SVG/1.1/DTD/svg11.dtd"><svg width="100%" height="100%" viewBox="0 0 187 104" version="1.1" xmlns="http://www.w3.org/2000/svg" xmlns:xlink="http://www.w3.org/1999/xlink" xml:space="preserve" xmlns:serif="http://www.serif.com/" style="fill-rule:evenodd;clip-rule:evenodd;stroke-linejoin:round;stroke-miterlimit:2;"><path d="M32.144,65.957l4.237,0c2.437,0.011 3.553,-0.677 3.553,-1.934c0,-1.274 -1.116,-1.944 -3.553,-1.944l-4.237,0l0,3.878Zm-2.144,-5.071l7.108,0c3.232,0 4.983,1.169 4.983,3.137c0,1.945 -1.751,3.145 -4.983,3.127l-4.964,0l0,4.347l-2.144,0l0,-10.611" style="fill:#1b1b1f;fill-rule:nonzero;"/><path d="M44.979,71.499l1.934,0l0,-7.69l-1.934,0l0,7.69Zm1.934,-10.611l-1.934,0l0,1.528l1.934,0l0,-1.528Z" style="fill:#1b1b1f;fill-rule:nonzero;"/><path d="M58.536,66.916c-0.088,-1.211 -1.474,-2.174 -3.39,-2.174c-2.021,0 -3.225,1.005 -3.368,2.174l6.758,0Zm1.863,2.133c-0.523,1.71 -2.387,2.632 -5.025,2.632c-3.753,0 -5.527,-1.697 -5.639,-4.053c0,-2.297 2.319,-3.997 5.527,-3.997c4.167,0 5.435,2.551 5.323,4.395l-8.807,0c-0.059,1.34 1.1,2.534 3.668,2.534c1.592,0 2.709,-0.5 3.044,-1.511l1.909,0" style="fill:#1b1b1f;fill-rule:nonzero;"/><path d="M62.978,63.813l1.816,0l0,1.61l0.041,0c0.935,-1.233 2.227,-1.844 4.329,-1.792l0,1.341c-3.124,0 -4.259,1.156 -4.259,3.1l0,3.427l-1.927,0l0,-7.686" style="fill:#1b1b1f;fill-rule:nonzero;"/><path d="M71.003,63.813l1.822,0l0,1.61l0.046,0c0.929,-1.233 2.223,-1.844 4.318,-1.792l0,1.341c-3.113,0 -4.259,1.156 -4.259,3.1l0,3.427l-1.927,0l0,-7.686" style="fill:#1b1b1f;fill-rule:nonzero;"/><path d="M86.861,66.916c-0.088,-1.211 -1.48,-2.174 -3.39,-2.174c-2.021,0 -3.238,1.005 -3.367,2.174l6.757,0Zm1.868,2.133c-0.535,1.71 -2.391,2.632 -5.034,2.632c-3.749,0 -5.525,-1.697 -5.636,-4.053c0,-2.297 2.316,-3.997 5.528,-3.997c4.154,0 5.435,2.551 5.323,4.395l-8.806,0c-0.064,1.34 1.088,2.534 3.661,2.534c1.592,0 2.702,-0.5 3.054,-1.511l1.91,0" style="fill:#1b1b1f;fill-rule:nonzero;"/><path d="M98.464,60.888l10.67,0l0,1.193l-8.513,0l0,3.366l7.456,0l0,1.193l-7.456,0l0,4.859l-2.157,0l0,-10.611Z" style="fill:#1b1b1f;fill-rule:nonzero;"/><path d="M118.935,67.533c-0.758,0.34 -2.209,0.362 -3.501,0.508c-1.27,0.147 -2.374,0.445 -2.374,1.389c0,0.827 1.104,1.127 2.28,1.127c2.548,0 3.595,-1.038 3.595,-1.732l0,-1.294l0,0.002Zm3.142,3.94c-0.346,0.129 -0.775,0.21 -1.39,0.21c-1.005,0 -1.634,-0.364 -1.634,-1.191c-1.07,0.81 -2.509,1.191 -4.149,1.191c-2.137,0 -3.882,-0.622 -3.882,-2.161c0,-1.739 1.979,-2.107 3.976,-2.37c2.146,-0.269 3.955,-0.166 3.955,-1.121c0,-1.112 -1.382,-1.287 -2.621,-1.287c-1.621,-0.002 -2.838,0.328 -2.919,1.462l-1.94,0.003c0.111,-1.899 2.369,-2.575 4.988,-2.575c2.104,0 4.407,0.311 4.407,2.115l0,3.948c0,0.6 0,0.865 0.605,0.865c0.171,0 0.346,-0.018 0.604,-0.07l0,0.981" style="fill:#1b1b1f;fill-rule:nonzero;"/><path d="M129.85,64.742c-2.596,0 -3.588,1.462 -3.588,2.897c0,1.526 1.038,2.918 3.7,2.918c2.65,0 3.525,-1.473 3.525,-2.978c0,-1.445 -1.134,-2.837 -3.637,-2.837m-5.463,-3.854l1.932,0l0,3.965l0.048,0c0.639,-0.845 2.139,-1.222 3.753,-1.222c3.626,0 5.417,1.886 5.417,4.049c0,2.161 -1.78,4.001 -5.369,4.001c-1.204,0 -2.932,-0.307 -3.801,-1.218l-0.048,0l0,1.036l-1.932,0l0,-10.611" style="fill:#1b1b1f;fill-rule:nonzero;"/><path d="M138.2,63.813l1.821,0l0,1.61l0.046,0c0.924,-1.233 2.227,-1.844 4.318,-1.792l0,1.341c-3.107,0 -4.258,1.156 -4.258,3.1l0,3.427l-1.927,0l0,-7.686" style="fill:#1b1b1f;fill-rule:nonzero;"/><path d="M154.057,66.916c-0.087,-1.211 -1.476,-2.174 -3.389,-2.174c-2.017,0 -3.232,1.005 -3.362,2.174l6.751,0Zm1.863,2.133c-0.523,1.71 -2.386,2.632 -5.025,2.632c-3.753,0 -5.533,-1.697 -5.645,-4.053c0,-2.297 2.326,-3.997 5.529,-3.997c4.165,0 5.428,2.551 5.323,4.395l-8.796,0c-0.076,1.34 1.086,2.534 3.661,2.534c1.586,0 2.709,-0.5 3.044,-1.511l1.909,0" style="fill:#1b1b1f;fill-rule:nonzero;"/><path d="M92.913,31.225c-7.206,0 -12.941,5.734 -12.941,12.943c0,7.136 5.805,12.943 12.941,12.943c7.138,0 12.941,-5.807 12.941,-12.943c0,-7.139 -5.803,-12.943 -12.941,-12.943" style="fill:#fff;fill-rule:nonzero;"/><path d="M85.385,36.821c-0.447,1.154 -0.67,2.416 -0.613,3.714c0.217,4.692 4.213,8.329 8.905,8.113c1.52,-0.07 2.994,-0.546 4.259,-1.373c0.224,-0.151 0.344,-0.261 0.344,-0.261c0.344,0.311 0.653,0.657 0.92,1.034l0.026,0.033c0.72,1.031 1.11,2.224 1.152,3.435l-0.002,0.057c0.462,-1.165 0.694,-2.441 0.635,-3.762c-0.219,-4.69 -4.216,-8.329 -8.906,-8.11c-1.519,0.07 -2.993,0.545 -4.257,1.373c-0.074,0.046 -0.175,0.124 -0.262,0.194c-0.031,0.022 -0.057,0.042 -0.086,0.064l-0.002,-0.002c-0.44,-0.397 -0.817,-0.85 -1.128,-1.342l-0.017,-0.029c-0.6,-0.974 -0.922,-2.071 -0.95,-3.181l-0.018,0.043Z" style="fill:url(#_Linear1);fill-rule:nonzero;"/><path d="M86.896,32.678c-4.132,2.17 -6.957,6.508 -6.957,11.49c0,7.144 5.805,12.958 12.95,12.971c0,0 4.53,0.191 6.033,-3.433c0.685,-1.658 0.453,-3.537 -0.578,-5.008l-0.217,-0.28l-0.013,0.008c-1.332,0.78 -2.84,1.222 -4.388,1.297c-5.284,0.245 -9.784,-3.856 -10.025,-9.138c-0.149,-3.096 1.154,-5.993 3.267,-7.95l-0.072,0.043Z" style="fill:url(#_Linear2);fill-rule:nonzero;"/><path d="M86.795,34.82c-0.582,1.616 -0.35,3.414 0.644,4.83l0.219,0.278c1.331,-0.781 2.844,-1.23 4.399,-1.302c5.284,-0.246 9.781,3.851 10.029,9.135c0.144,3.105 -1.172,6.008 -3.294,7.964l-0.019,0.013c4.217,-2.144 7.109,-6.525 7.109,-11.57c0,-7.154 -5.817,-12.97 -12.971,-12.97c-1.8,0.125 -5.041,0.631 -6.116,3.622Z" style="fill:url(#_Linear3);fill-rule:nonzero;"/><defs><linearGradient id="_Linear1" x1="0" y1="0" x2="1" y2="0" gradientUnits="userSpaceOnUse" gradientTransform="matrix(15.1774,15.1774,-15.1774,15.1774,85.4497,36.7318)"><stop offset="0" style="stop-color:#00052e;stop-opacity:1"/><stop offset="0.88" style="stop-color:#005daa;stop-opacity:1"/><stop offset="1" style="stop-color:#005daa;stop-opacity:1"/></linearGradient><linearGradient id="_Linear2" x1="0" y1="0" x2="1" y2="0" gradientUnits="userSpaceOnUse" gradientTransform="matrix(18.8614,18.8614,-18.8614,18.8614,79.9882,37.6162)"><stop offset="0" style="stop-color:#005daa;stop-opacity:1"/><stop offset="0.2" style="stop-color:#005daa;stop-opacity:1"/><stop offset="1" style="stop-color:#00052e;stop-opacity:1"/></linearGradient><linearGradient id="_Linear3" x1="0" y1="0" x2="1" y2="0" gradientUnits="userSpaceOnUse" gradientTransform="matrix(18.7342,18.7342,-18.7342,18.7342,87.3758,32.3183)"><stop offset="0" style="stop-color:#005daa;stop-opacity:1"/><stop offset="0.2" style="stop-color:#005daa;stop-opacity:1"/><stop offset="1" style="stop-color:#00052e;stop-opacity:1"/></linearGradient></defs></svg>