<?xml version="1.0" encoding="UTF-8" standalone="no"?><!DOCTYPE svg PUBLIC "-//W3C//DTD SVG 1.1//EN" "http://www.w3.org/Graphics/SVG/1.1/DTD/svg11.dtd"><svg width="100%" height="100%" viewBox="0 0 240 240" version="1.1" xmlns="http://www.w3.org/2000/svg" xmlns:xlink="http://www.w3.org/1999/xlink" xml:space="preserve" xmlns:serif="http://www.serif.com/" style="fill-rule:evenodd;clip-rule:evenodd;stroke-linecap:round;stroke-linejoin:round;stroke-miterlimit:1.41421;"><g id="allemployees"><rect x="0" y="0" width="240" height="240" style="fill:none;"/><g><path d="M139.437,190.341c4.784,2.215 10.148,4.454 11.877,9.064c1.262,3.362 2.465,8.032 3.075,12.047c0.043,0.153 0.066,0.306 0.066,0.463c0,0.033 -0.01,0.063 -0.01,0.093c0,0.037 0.01,0.067 0.01,0.103c-0.033,4.185 -13.435,7.519 -30.615,7.822c-1.203,0.044 -2.429,0.064 -3.705,0.054l1.809,0.013c-1.276,-0.01 -2.505,-0.05 -3.697,-0.113c-17.174,-0.577 -30.523,-4.128 -30.489,-8.312c0,-0.033 0.01,-0.067 0.01,-0.103c0,-0.027 -0.01,-0.06 -0.01,-0.09c0.003,-0.16 0.033,-0.31 0.086,-0.463c0.667,-4.008 1.943,-8.659 3.258,-11.997c1.763,-4.47 6.95,-6.629 11.674,-8.718" style="fill:none;stroke:#808080;stroke-width:5px;"/><path d="M137.942,163.497c-0.04,-9.242 -7.569,-16.787 -16.824,-16.847l-0.03,0c-9.248,0.056 -16.773,7.602 -16.823,16.833c-0.287,0.267 -0.54,0.587 -0.75,0.95c-1.322,2.288 -0.719,6.159 0.593,8.431c0.973,1.689 2.176,2.376 3.155,2.636c2.095,4.743 6.639,12.552 13.832,12.582c7.202,-0.03 11.746,-7.829 13.842,-12.569c3.095,-0.786 4.5,-4.864 4.5,-7.849c0.004,-1.969 -0.606,-3.338 -1.495,-4.167Z" style="fill:none;stroke:#808080;stroke-width:5px;"/><path d="M72.267,104.884c4.78,2.219 10.144,4.458 11.873,9.068c1.262,3.358 2.465,8.029 3.078,12.047c0.04,0.153 0.067,0.303 0.067,0.459c0,0.034 -0.01,0.067 -0.014,0.097c0.004,0.033 0.01,0.067 0.01,0.1c-0.03,4.184 -13.435,7.522 -30.615,7.822c-1.199,0.043 -2.425,0.063 -3.701,0.053l1.806,0.017c-1.276,-0.01 -2.506,-0.05 -3.698,-0.113c-17.174,-0.58 -30.522,-4.131 -30.486,-8.315c0,-0.03 0.007,-0.064 0.01,-0.1c-0.003,-0.03 -0.01,-0.06 -0.01,-0.094c0.004,-0.156 0.034,-0.306 0.084,-0.463c0.666,-4.004 1.942,-8.655 3.261,-11.993c1.759,-4.474 6.946,-6.629 11.67,-8.721" style="fill:none;stroke:#808080;stroke-width:5px;"/><path d="M70.771,78.04c-0.04,-9.238 -7.572,-16.787 -16.823,-16.843l-0.03,0c-9.248,0.056 -16.777,7.599 -16.824,16.83c-0.286,0.27 -0.539,0.589 -0.753,0.949c-1.319,2.292 -0.716,6.16 0.593,8.435c0.973,1.689 2.179,2.376 3.155,2.635c2.099,4.741 6.643,12.55 13.832,12.583c7.202,-0.033 11.75,-7.832 13.845,-12.573c3.095,-0.782 4.501,-4.86 4.501,-7.845c0.003,-1.972 -0.61,-3.341 -1.496,-4.171Z" style="fill:none;stroke:#808080;stroke-width:5px;"/><path d="M204.982,104.884c4.784,2.219 10.148,4.458 11.877,9.068c1.259,3.358 2.461,8.029 3.074,12.047c0.04,0.153 0.067,0.303 0.067,0.459c0,0.034 -0.01,0.067 -0.013,0.097c0.003,0.033 0.013,0.067 0.013,0.1c-0.033,4.184 -13.435,7.522 -30.619,7.822c-1.199,0.043 -2.425,0.063 -3.701,0.053l1.809,0.017c-1.279,-0.01 -2.505,-0.05 -3.701,-0.113c-17.17,-0.58 -30.522,-4.131 -30.485,-8.315c0,-0.03 0.006,-0.064 0.01,-0.1c-0.004,-0.03 -0.01,-0.06 -0.01,-0.094c0.003,-0.156 0.033,-0.306 0.083,-0.463c0.669,-4.004 1.942,-8.655 3.261,-11.993c1.763,-4.474 6.946,-6.629 11.673,-8.721" style="fill:none;stroke:#808080;stroke-width:5px;"/><path d="M203.486,78.04c-0.04,-9.238 -7.569,-16.787 -16.823,-16.843l-0.03,0c-9.248,0.056 -16.777,7.599 -16.823,16.83c-0.287,0.27 -0.54,0.589 -0.75,0.949c-1.323,2.292 -0.72,6.16 0.593,8.435c0.969,1.689 2.175,2.376 3.155,2.635c2.095,4.741 6.639,12.55 13.832,12.583c7.199,-0.033 11.746,-7.832 13.841,-12.573c3.095,-0.782 4.501,-4.86 4.501,-7.845c0.003,-1.972 -0.609,-3.341 -1.496,-4.171Z" style="fill:none;stroke:#808080;stroke-width:5px;"/><path d="M79.523,196.634c-16.84,-11.264 -28.857,-29.176 -32.295,-49.984" style="fill:none;stroke:#808080;stroke-width:3px;"/><path d="M194.985,146.65c-3.375,20.428 -15.018,38.064 -31.375,49.361" style="fill:none;stroke:#808080;stroke-width:3px;"/><path d="M82.011,70.468c11.38,-6.979 24.769,-11.004 39.097,-11.004c14.089,0 27.267,3.891 38.521,10.654" style="fill:none;stroke:#808080;stroke-width:3px;"/></g></g></svg>