<?xml version="1.0" encoding="UTF-8" standalone="no"?><!DOCTYPE svg PUBLIC "-//W3C//DTD SVG 1.1//EN" "http://www.w3.org/Graphics/SVG/1.1/DTD/svg11.dtd"><svg width="100%" height="100%" viewBox="0 0 240 240" version="1.1" xmlns="http://www.w3.org/2000/svg" xmlns:xlink="http://www.w3.org/1999/xlink" xml:space="preserve" xmlns:serif="http://www.serif.com/" style="fill-rule:evenodd;clip-rule:evenodd;stroke-linejoin:round;stroke-miterlimit:2;"><g id="circlearrow"><rect x="0" y="0" width="240" height="240" style="fill:none;"/><g><path d="M156.487,177.259c-3.631,3.558 -7.784,6.581 -12.327,8.96l8.682,26.724c10.073,-4.543 19.047,-11.089 26.382,-19.162l-22.737,-16.522Z" style="fill:none;stroke:#808080;stroke-width:2.5px;"/><path d="M67.826,140c0,-28.814 23.357,-52.174 52.174,-52.174c14.407,0 27.367,5.924 36.803,15.371l-12.208,12.208l55.405,12.421l-11.134,-56.692l-12.316,12.316c-14.477,-14.476 -34.46,-23.45 -56.55,-23.45c-44.184,0 -80,35.819 -80,80c0,14.456 3.85,28.003 10.557,39.704l22.747,-16.528c-3.474,-6.988 -5.478,-14.839 -5.478,-23.176Z" style="fill:none;stroke:#808080;stroke-width:5px;"/><path d="M127.607,191.558c-2.49,0.365 -5.016,0.616 -7.607,0.616c-2.595,0 -5.12,-0.251 -7.61,-0.616l-8.7,26.776c5.267,1.089 10.72,1.666 16.31,1.666c5.586,0 11.04,-0.577 16.306,-1.666l-8.699,-26.776Z" style="fill:none;stroke:#808080;stroke-width:2.5px;"/><path d="M95.837,186.219c-4.543,-2.379 -8.696,-5.402 -12.327,-8.96l-22.738,16.522c7.336,8.073 16.31,14.619 26.383,19.162l8.682,-26.724Z" style="fill:none;stroke:#808080;stroke-width:2.5px;"/></g></g></svg>