<?xml version="1.0" encoding="UTF-8" standalone="no"?><!DOCTYPE svg PUBLIC "-//W3C//DTD SVG 1.1//EN" "http://www.w3.org/Graphics/SVG/1.1/DTD/svg11.dtd"><svg width="100%" height="100%" viewBox="0 0 240 240" version="1.1" xmlns="http://www.w3.org/2000/svg" xmlns:xlink="http://www.w3.org/1999/xlink" xml:space="preserve" xmlns:serif="http://www.serif.com/" style="fill-rule:evenodd;clip-rule:evenodd;stroke-linejoin:round;stroke-miterlimit:2;"><g id="launch"><rect x="0" y="0" width="240" height="240" style="fill:none;"/><g><path d="M99.571,106.193c3.242,-5.631 7.51,-11.287 13.267,-17.044c36.391,-36.395 86.449,-28.542 86.449,-28.542c0,0 7.849,50.058 -28.542,86.449c-5.757,5.757 -11.413,10.025 -17.043,13.268l-9.445,33.237c-1.038,3.643 -4.13,6.328 -7.883,6.849l-40.291,5.568l26.126,-17.533l-1.132,-17.499c-3.074,0.54 -6.182,1.042 -9.337,1.575l0.128,-0.049c-1.714,-5.142 -4.904,-10.386 -9.48,-14.966c-4.579,-4.576 -9.823,-7.77 -14.965,-9.48l-0.053,0.129c0.533,-3.158 1.036,-6.268 1.576,-9.34l-17.497,-1.13l-17.533,26.122l5.569,-40.291c0.517,-3.749 3.205,-6.841 6.848,-7.879l33.238,-9.444Zm55.284,15.156c-4.504,4.504 -11.81,4.504 -16.31,0c-4.504,-4.504 -4.504,-11.805 0,-16.309c4.5,-4.504 11.806,-4.504 16.306,0c4.504,4.504 4.504,11.805 0.004,16.309Z" style="fill:none;fill-rule:nonzero;stroke:#808080;stroke-width:5px;"/><path d="M103.064,175.258c-7.691,7.483 -14.463,10.56 -26.707,8.385c-2.175,-12.243 0.902,-19.017 8.385,-26.707c-37.233,6.082 -32.812,39.453 -44.742,63.064c23.615,-11.93 56.982,-7.509 63.064,-44.742Z" style="fill:none;fill-rule:nonzero;stroke:#808080;stroke-width:3px;"/></g></g></svg>