<?xml version="1.0" encoding="UTF-8" standalone="no"?><!DOCTYPE svg PUBLIC "-//W3C//DTD SVG 1.1//EN" "http://www.w3.org/Graphics/SVG/1.1/DTD/svg11.dtd"><svg width="100%" height="100%" viewBox="0 0 240 240" version="1.1" xmlns="http://www.w3.org/2000/svg" xmlns:xlink="http://www.w3.org/1999/xlink" xml:space="preserve" xmlns:serif="http://www.serif.com/" style="fill-rule:evenodd;clip-rule:evenodd;stroke-linejoin:round;stroke-miterlimit:2;"><g id="vision"><rect x="0" y="0" width="240" height="240" style="fill:none;"/><g><path d="M45.548,139.998c2.72,3.534 10.422,13.058 21.324,22.466c12.466,10.761 31.8,23.587 53.128,23.587c21.324,0 40.662,-12.826 53.128,-23.587c10.898,-9.408 18.601,-18.928 21.321,-22.466c-2.717,-3.534 -10.423,-13.054 -21.321,-22.462c-12.466,-10.761 -31.804,-23.587 -53.128,-23.587c-21.36,0 -40.728,12.865 -53.212,23.657c-10.874,9.401 -18.531,18.869 -21.24,22.392Zm74.452,50.986c-10.148,0 -20.665,-2.636 -31.268,-7.833c-8.396,-4.116 -16.863,-9.845 -25.168,-17.026c-14.095,-12.181 -22.741,-24.185 -23.104,-24.689c-0.613,-0.86 -0.613,-2.012 0,-2.872c0.363,-0.504 9.009,-12.508 23.104,-24.689c8.305,-7.181 16.772,-12.91 25.168,-17.026c10.603,-5.197 21.12,-7.833 31.268,-7.833c10.148,0 20.665,2.636 31.264,7.833c8.397,4.116 16.867,9.845 25.172,17.026c14.091,12.181 22.741,24.185 23.104,24.689c0.613,0.86 0.613,2.012 0,2.872c-0.363,0.504 -9.013,12.508 -23.104,24.689c-8.305,7.181 -16.775,12.91 -25.172,17.026c-10.599,5.197 -21.116,7.833 -31.264,7.833Z" style="fill:#808080;fill-rule:nonzero;"/><path d="M120,173.493c-18.47,0 -33.495,-15.024 -33.495,-33.495c0,-18.467 15.025,-33.491 33.495,-33.491c18.467,0 33.491,15.024 33.491,33.491c0,18.471 -15.024,33.495 -33.491,33.495Zm0,-64.519c17.124,0 31.026,13.902 31.026,31.026c0,17.124 -13.902,31.026 -31.026,31.026c-17.124,0 -31.026,-13.902 -31.026,-31.026c0,-17.124 13.902,-31.026 31.026,-31.026Z" style="fill:#808080;"/><path d="M120,153.437c-7.41,0 -13.439,-6.029 -13.439,-13.439c0,-7.406 6.029,-13.435 13.439,-13.435c7.41,0 13.435,6.029 13.435,13.435c0,7.41 -6.025,13.439 -13.435,13.439Zm-0.002,-24.437c6.071,0 11,4.929 11,11c0,6.071 -4.929,11 -11,11c-6.071,0 -11,-4.929 -11,-11c0,-6.071 4.929,-11 11,-11Z" style="fill:#808080;"/></g></g></svg>