<?xml version="1.0" encoding="UTF-8" standalone="no"?>
<!DOCTYPE svg PUBLIC "-//W3C//DTD SVG 1.1//EN" "http://www.w3.org/Graphics/SVG/1.1/DTD/svg11.dtd">
<svg width="100%" height="100%" viewBox="0 0 1920 1080" version="1.1" xmlns="http://www.w3.org/2000/svg" xmlns:xlink="http://www.w3.org/1999/xlink" xml:space="preserve" xmlns:serif="http://www.serif.com/" style="fill-rule:evenodd;clip-rule:evenodd;stroke-linejoin:round;stroke-miterlimit:2;">
    <g transform="matrix(1,0,0,1,0,-1199)">
        <g transform="matrix(1,0,0,1,-2040,-1.52767e-13)">
            <g id="trois-cercles" transform="matrix(1,0,0,1,2040,1199)">
                <rect x="0" y="0" width="1920" height="1080" style="fill:none;"/>
                <g transform="matrix(1,0,0,1,1087.84,554.08)">
                    <g transform="matrix(48,0,0,48,60.336,180)">
                        <path d="M0.084,-0L0.238,-0L0.238,-0.281L0.522,-0.281L0.522,-0L0.676,-0L0.676,-0.7L0.522,-0.7L0.522,-0.423L0.238,-0.423L0.238,-0.7L0.084,-0.7L0.084,-0Z" style="fill-rule:nonzero;"/>
                    </g>
                    <g transform="matrix(48,0,0,48,96.816,180)">
                        <path d="M0.071,-0.595L0.231,-0.595L0.231,-0.73L0.071,-0.73L0.071,-0.595ZM0.075,-0L0.227,-0L0.227,-0.536L0.075,-0.536L0.075,-0Z" style="fill-rule:nonzero;"/>
                    </g>
                    <g transform="matrix(48,0,0,48,111.312,180)">
                        <path d="M0.256,0.01C0.372,0.01 0.461,-0.044 0.461,-0.163L0.461,-0.165C0.461,-0.263 0.374,-0.299 0.299,-0.324C0.241,-0.344 0.19,-0.358 0.19,-0.388L0.19,-0.39C0.19,-0.411 0.209,-0.427 0.246,-0.427C0.285,-0.427 0.338,-0.408 0.391,-0.377L0.449,-0.482C0.391,-0.521 0.317,-0.544 0.249,-0.544C0.141,-0.544 0.053,-0.483 0.053,-0.374L0.053,-0.372C0.053,-0.268 0.138,-0.233 0.213,-0.211C0.272,-0.193 0.324,-0.182 0.324,-0.149L0.324,-0.147C0.324,-0.123 0.304,-0.107 0.26,-0.107C0.21,-0.107 0.149,-0.129 0.091,-0.171L0.026,-0.071C0.097,-0.015 0.181,0.01 0.256,0.01Z" style="fill-rule:nonzero;"/>
                    </g>
                    <g transform="matrix(48,0,0,48,134.928,180)">
                        <path d="M0.249,0.009C0.3,0.009 0.337,-0.003 0.369,-0.022L0.369,-0.144C0.347,-0.132 0.322,-0.125 0.294,-0.125C0.26,-0.125 0.245,-0.142 0.245,-0.177L0.245,-0.406L0.371,-0.406L0.371,-0.536L0.245,-0.536L0.245,-0.673L0.093,-0.673L0.093,-0.536L0.029,-0.536L0.029,-0.406L0.093,-0.406L0.093,-0.152C0.093,-0.028 0.156,0.009 0.249,0.009Z" style="fill-rule:nonzero;"/>
                    </g>
                    <g transform="matrix(48,0,0,48,154.128,180)">
                        <path d="M0.331,0.012C0.498,0.012 0.622,-0.113 0.622,-0.267L0.622,-0.269C0.622,-0.423 0.499,-0.546 0.333,-0.546C0.166,-0.546 0.042,-0.421 0.042,-0.267L0.042,-0.265C0.042,-0.111 0.165,0.012 0.331,0.012ZM0.333,-0.119C0.249,-0.119 0.192,-0.188 0.192,-0.267L0.192,-0.269C0.192,-0.348 0.244,-0.415 0.331,-0.415C0.415,-0.415 0.472,-0.346 0.472,-0.267L0.472,-0.265C0.472,-0.186 0.42,-0.119 0.333,-0.119Z" style="fill-rule:nonzero;"/>
                    </g>
                    <g transform="matrix(48,0,0,48,186,180)">
                        <path d="M0.071,-0.595L0.231,-0.595L0.231,-0.73L0.071,-0.73L0.071,-0.595ZM0.075,-0L0.227,-0L0.227,-0.536L0.075,-0.536L0.075,-0Z" style="fill-rule:nonzero;"/>
                    </g>
                    <g transform="matrix(48,0,0,48,200.496,180)">
                        <path d="M0.068,-0L0.22,-0L0.22,-0.198C0.22,-0.326 0.282,-0.387 0.383,-0.387L0.391,-0.387L0.391,-0.546C0.301,-0.55 0.251,-0.502 0.22,-0.428L0.22,-0.536L0.068,-0.536L0.068,-0Z" style="fill-rule:nonzero;"/>
                    </g>
                    <g transform="matrix(48,0,0,48,219.84,180)">
                        <path d="M0.322,0.012C0.419,0.012 0.491,-0.026 0.541,-0.088L0.454,-0.165C0.412,-0.126 0.375,-0.11 0.324,-0.11C0.256,-0.11 0.208,-0.146 0.193,-0.215L0.566,-0.215C0.567,-0.229 0.568,-0.243 0.568,-0.255C0.568,-0.407 0.486,-0.546 0.307,-0.546C0.151,-0.546 0.042,-0.42 0.042,-0.267L0.042,-0.265C0.042,-0.101 0.161,0.012 0.322,0.012ZM0.191,-0.31C0.203,-0.379 0.244,-0.424 0.307,-0.424C0.371,-0.424 0.411,-0.378 0.42,-0.31L0.191,-0.31Z" style="fill-rule:nonzero;"/>
                    </g>
                </g>
                <g transform="matrix(1,0,0,1,500.848,555.52)">
                    <g transform="matrix(48,0,0,48,90,180)">
                        <path d="M0.307,0.005L0.443,0.005L0.726,-0.7L0.56,-0.7L0.377,-0.207L0.194,-0.7L0.024,-0.7L0.307,0.005Z" style="fill-rule:nonzero;"/>
                    </g>
                    <g transform="matrix(48,0,0,48,125.04,180)">
                        <path d="M0.071,-0.595L0.231,-0.595L0.231,-0.73L0.071,-0.73L0.071,-0.595ZM0.075,-0L0.227,-0L0.227,-0.536L0.075,-0.536L0.075,-0Z" style="fill-rule:nonzero;"/>
                    </g>
                    <g transform="matrix(48,0,0,48,139.536,180)">
                        <path d="M0.256,0.01C0.372,0.01 0.461,-0.044 0.461,-0.163L0.461,-0.165C0.461,-0.263 0.374,-0.299 0.299,-0.324C0.241,-0.344 0.19,-0.358 0.19,-0.388L0.19,-0.39C0.19,-0.411 0.209,-0.427 0.246,-0.427C0.285,-0.427 0.338,-0.408 0.391,-0.377L0.449,-0.482C0.391,-0.521 0.317,-0.544 0.249,-0.544C0.141,-0.544 0.053,-0.483 0.053,-0.374L0.053,-0.372C0.053,-0.268 0.138,-0.233 0.213,-0.211C0.272,-0.193 0.324,-0.182 0.324,-0.149L0.324,-0.147C0.324,-0.123 0.304,-0.107 0.26,-0.107C0.21,-0.107 0.149,-0.129 0.091,-0.171L0.026,-0.071C0.097,-0.015 0.181,0.01 0.256,0.01Z" style="fill-rule:nonzero;"/>
                    </g>
                    <g transform="matrix(48,0,0,48,163.632,180)">
                        <path d="M0.246,0.01C0.323,0.01 0.368,-0.031 0.403,-0.076L0.403,-0L0.555,-0L0.555,-0.536L0.403,-0.536L0.403,-0.237C0.403,-0.165 0.366,-0.128 0.308,-0.128C0.25,-0.128 0.216,-0.165 0.216,-0.237L0.216,-0.536L0.064,-0.536L0.064,-0.189C0.064,-0.066 0.131,0.01 0.246,0.01Z" style="fill-rule:nonzero;"/>
                    </g>
                    <g transform="matrix(48,0,0,48,193.536,180)">
                        <path d="M0.322,0.012C0.419,0.012 0.491,-0.026 0.541,-0.088L0.454,-0.165C0.412,-0.126 0.375,-0.11 0.324,-0.11C0.256,-0.11 0.208,-0.146 0.193,-0.215L0.566,-0.215C0.567,-0.229 0.568,-0.243 0.568,-0.255C0.568,-0.407 0.486,-0.546 0.307,-0.546C0.151,-0.546 0.042,-0.42 0.042,-0.267L0.042,-0.265C0.042,-0.101 0.161,0.012 0.322,0.012ZM0.191,-0.31C0.203,-0.379 0.244,-0.424 0.307,-0.424C0.371,-0.424 0.411,-0.378 0.42,-0.31L0.191,-0.31Z" style="fill-rule:nonzero;"/>
                    </g>
                    <g transform="matrix(48,0,0,48,222.96,180)">
                        <rect x="0.075" y="-0.73" width="0.152" height="0.73" style="fill-rule:nonzero;"/>
                    </g>
                    <g transform="matrix(48,0,0,48,237.456,180)">
                        <path d="M0.256,0.01C0.372,0.01 0.461,-0.044 0.461,-0.163L0.461,-0.165C0.461,-0.263 0.374,-0.299 0.299,-0.324C0.241,-0.344 0.19,-0.358 0.19,-0.388L0.19,-0.39C0.19,-0.411 0.209,-0.427 0.246,-0.427C0.285,-0.427 0.338,-0.408 0.391,-0.377L0.449,-0.482C0.391,-0.521 0.317,-0.544 0.249,-0.544C0.141,-0.544 0.053,-0.483 0.053,-0.374L0.053,-0.372C0.053,-0.268 0.138,-0.233 0.213,-0.211C0.272,-0.193 0.324,-0.182 0.324,-0.149L0.324,-0.147C0.324,-0.123 0.304,-0.107 0.26,-0.107C0.21,-0.107 0.149,-0.129 0.091,-0.171L0.026,-0.071C0.097,-0.015 0.181,0.01 0.256,0.01Z" style="fill-rule:nonzero;"/>
                    </g>
                </g>
                <g transform="matrix(1,0,0,1,764.24,469.824)">
                    <g transform="matrix(48,0,0,48,90,180)">
                        <path d="M0.084,-0L0.235,-0L0.235,-0.454L0.43,-0.158L0.434,-0.158L0.631,-0.457L0.631,-0L0.784,-0L0.784,-0.7L0.618,-0.7L0.434,-0.404L0.25,-0.7L0.084,-0.7L0.084,-0Z" style="fill-rule:nonzero;"/>
                    </g>
                    <g transform="matrix(48,0,0,48,131.664,180)">
                        <path d="M0.322,0.012C0.419,0.012 0.491,-0.026 0.541,-0.088L0.454,-0.165C0.412,-0.126 0.375,-0.11 0.324,-0.11C0.256,-0.11 0.208,-0.146 0.193,-0.215L0.566,-0.215C0.567,-0.229 0.568,-0.243 0.568,-0.255C0.568,-0.407 0.486,-0.546 0.307,-0.546C0.151,-0.546 0.042,-0.42 0.042,-0.267L0.042,-0.265C0.042,-0.101 0.161,0.012 0.322,0.012ZM0.191,-0.31C0.203,-0.379 0.244,-0.424 0.307,-0.424C0.371,-0.424 0.411,-0.378 0.42,-0.31L0.191,-0.31Z" style="fill-rule:nonzero;"/>
                    </g>
                    <g transform="matrix(48,0,0,48,161.088,180)">
                        <path d="M0.256,0.01C0.372,0.01 0.461,-0.044 0.461,-0.163L0.461,-0.165C0.461,-0.263 0.374,-0.299 0.299,-0.324C0.241,-0.344 0.19,-0.358 0.19,-0.388L0.19,-0.39C0.19,-0.411 0.209,-0.427 0.246,-0.427C0.285,-0.427 0.338,-0.408 0.391,-0.377L0.449,-0.482C0.391,-0.521 0.317,-0.544 0.249,-0.544C0.141,-0.544 0.053,-0.483 0.053,-0.374L0.053,-0.372C0.053,-0.268 0.138,-0.233 0.213,-0.211C0.272,-0.193 0.324,-0.182 0.324,-0.149L0.324,-0.147C0.324,-0.123 0.304,-0.107 0.26,-0.107C0.21,-0.107 0.149,-0.129 0.091,-0.171L0.026,-0.071C0.097,-0.015 0.181,0.01 0.256,0.01Z" style="fill-rule:nonzero;"/>
                    </g>
                    <g transform="matrix(48,0,0,48,184.704,180)">
                        <path d="M0.256,0.01C0.372,0.01 0.461,-0.044 0.461,-0.163L0.461,-0.165C0.461,-0.263 0.374,-0.299 0.299,-0.324C0.241,-0.344 0.19,-0.358 0.19,-0.388L0.19,-0.39C0.19,-0.411 0.209,-0.427 0.246,-0.427C0.285,-0.427 0.338,-0.408 0.391,-0.377L0.449,-0.482C0.391,-0.521 0.317,-0.544 0.249,-0.544C0.141,-0.544 0.053,-0.483 0.053,-0.374L0.053,-0.372C0.053,-0.268 0.138,-0.233 0.213,-0.211C0.272,-0.193 0.324,-0.182 0.324,-0.149L0.324,-0.147C0.324,-0.123 0.304,-0.107 0.26,-0.107C0.21,-0.107 0.149,-0.129 0.091,-0.171L0.026,-0.071C0.097,-0.015 0.181,0.01 0.256,0.01Z" style="fill-rule:nonzero;"/>
                    </g>
                    <g transform="matrix(48,0,0,48,208.8,180)">
                        <path d="M0.22,0.01C0.294,0.01 0.345,-0.017 0.382,-0.058L0.382,-0L0.529,-0L0.529,-0.311C0.529,-0.383 0.511,-0.442 0.471,-0.482C0.433,-0.52 0.373,-0.542 0.29,-0.542C0.199,-0.542 0.141,-0.525 0.082,-0.499L0.12,-0.383C0.169,-0.401 0.21,-0.412 0.268,-0.412C0.344,-0.412 0.383,-0.377 0.383,-0.314L0.383,-0.305C0.345,-0.318 0.306,-0.327 0.252,-0.327C0.125,-0.327 0.036,-0.273 0.036,-0.156L0.036,-0.154C0.036,-0.048 0.119,0.01 0.22,0.01ZM0.266,-0.095C0.217,-0.095 0.183,-0.119 0.183,-0.16L0.183,-0.162C0.183,-0.21 0.223,-0.236 0.288,-0.236C0.325,-0.236 0.359,-0.228 0.385,-0.216L0.385,-0.189C0.385,-0.134 0.337,-0.095 0.266,-0.095Z" style="fill-rule:nonzero;"/>
                    </g>
                    <g transform="matrix(48,0,0,48,237.216,180)">
                        <path d="M0.308,0.162C0.412,0.162 0.489,0.14 0.539,0.09C0.584,0.045 0.607,-0.025 0.607,-0.121L0.607,-0.536L0.455,-0.536L0.455,-0.466C0.414,-0.511 0.365,-0.546 0.282,-0.546C0.159,-0.546 0.044,-0.456 0.044,-0.296L0.044,-0.294C0.044,-0.135 0.157,-0.044 0.282,-0.044C0.363,-0.044 0.412,-0.077 0.457,-0.131L0.457,-0.105C0.457,-0.009 0.408,0.041 0.304,0.041C0.233,0.041 0.178,0.023 0.123,-0.008L0.071,0.106C0.139,0.142 0.221,0.162 0.308,0.162ZM0.326,-0.17C0.252,-0.17 0.196,-0.22 0.196,-0.294L0.196,-0.296C0.196,-0.369 0.252,-0.42 0.326,-0.42C0.4,-0.42 0.457,-0.369 0.457,-0.296L0.457,-0.294C0.457,-0.221 0.4,-0.17 0.326,-0.17Z" style="fill-rule:nonzero;"/>
                    </g>
                    <g transform="matrix(48,0,0,48,269.616,180)">
                        <path d="M0.322,0.012C0.419,0.012 0.491,-0.026 0.541,-0.088L0.454,-0.165C0.412,-0.126 0.375,-0.11 0.324,-0.11C0.256,-0.11 0.208,-0.146 0.193,-0.215L0.566,-0.215C0.567,-0.229 0.568,-0.243 0.568,-0.255C0.568,-0.407 0.486,-0.546 0.307,-0.546C0.151,-0.546 0.042,-0.42 0.042,-0.267L0.042,-0.265C0.042,-0.101 0.161,0.012 0.322,0.012ZM0.191,-0.31C0.203,-0.379 0.244,-0.424 0.307,-0.424C0.371,-0.424 0.411,-0.378 0.42,-0.31L0.191,-0.31Z" style="fill-rule:nonzero;"/>
                    </g>
                </g>
                <g transform="matrix(1,0,0,1,264.437,-284.362)">
                    <g transform="matrix(48,0,0,48,601.651,584.362)">
                        <path d="M0.424,0.012C0.64,0.012 0.797,-0.151 0.797,-0.35L0.797,-0.352C0.797,-0.551 0.642,-0.712 0.426,-0.712C0.21,-0.712 0.053,-0.549 0.053,-0.35L0.053,-0.348C0.053,-0.149 0.208,0.012 0.424,0.012ZM0.426,-0.13C0.302,-0.13 0.214,-0.23 0.214,-0.35L0.214,-0.352C0.214,-0.472 0.3,-0.57 0.424,-0.57C0.548,-0.57 0.636,-0.47 0.636,-0.35L0.636,-0.348C0.636,-0.228 0.55,-0.13 0.426,-0.13Z" style="fill-rule:nonzero;"/>
                    </g>
                    <g transform="matrix(48,0,0,48,642.451,584.362)">
                        <path d="M0.068,-0L0.22,-0L0.22,-0.198C0.22,-0.326 0.282,-0.387 0.383,-0.387L0.391,-0.387L0.391,-0.546C0.301,-0.55 0.251,-0.502 0.22,-0.428L0.22,-0.536L0.068,-0.536L0.068,-0Z" style="fill-rule:nonzero;"/>
                    </g>
                    <g transform="matrix(48,0,0,48,661.315,584.362)">
                        <path d="M0.22,0.01C0.294,0.01 0.345,-0.017 0.382,-0.058L0.382,-0L0.529,-0L0.529,-0.311C0.529,-0.383 0.511,-0.442 0.471,-0.482C0.433,-0.52 0.373,-0.542 0.29,-0.542C0.199,-0.542 0.141,-0.525 0.082,-0.499L0.12,-0.383C0.169,-0.401 0.21,-0.412 0.268,-0.412C0.344,-0.412 0.383,-0.377 0.383,-0.314L0.383,-0.305C0.345,-0.318 0.306,-0.327 0.252,-0.327C0.125,-0.327 0.036,-0.273 0.036,-0.156L0.036,-0.154C0.036,-0.048 0.119,0.01 0.22,0.01ZM0.266,-0.095C0.217,-0.095 0.183,-0.119 0.183,-0.16L0.183,-0.162C0.183,-0.21 0.223,-0.236 0.288,-0.236C0.325,-0.236 0.359,-0.228 0.385,-0.216L0.385,-0.189C0.385,-0.134 0.337,-0.095 0.266,-0.095Z" style="fill-rule:nonzero;"/>
                    </g>
                    <g transform="matrix(48,0,0,48,689.491,584.362)">
                        <path d="M0.249,0.009C0.3,0.009 0.337,-0.003 0.369,-0.022L0.369,-0.144C0.347,-0.132 0.322,-0.125 0.294,-0.125C0.26,-0.125 0.245,-0.142 0.245,-0.177L0.245,-0.406L0.371,-0.406L0.371,-0.536L0.245,-0.536L0.245,-0.673L0.093,-0.673L0.093,-0.536L0.029,-0.536L0.029,-0.406L0.093,-0.406L0.093,-0.152C0.093,-0.028 0.156,0.009 0.249,0.009Z" style="fill-rule:nonzero;"/>
                    </g>
                    <g transform="matrix(48,0,0,48,708.691,584.362)">
                        <path d="M0.322,0.012C0.419,0.012 0.491,-0.026 0.541,-0.088L0.454,-0.165C0.412,-0.126 0.375,-0.11 0.324,-0.11C0.256,-0.11 0.208,-0.146 0.193,-0.215L0.566,-0.215C0.567,-0.229 0.568,-0.243 0.568,-0.255C0.568,-0.407 0.486,-0.546 0.307,-0.546C0.151,-0.546 0.042,-0.42 0.042,-0.267L0.042,-0.265C0.042,-0.101 0.161,0.012 0.322,0.012ZM0.191,-0.31C0.203,-0.379 0.244,-0.424 0.307,-0.424C0.371,-0.424 0.411,-0.378 0.42,-0.31L0.191,-0.31Z" style="fill-rule:nonzero;"/>
                    </g>
                    <g transform="matrix(48,0,0,48,738.115,584.362)">
                        <path d="M0.246,0.01C0.323,0.01 0.368,-0.031 0.403,-0.076L0.403,-0L0.555,-0L0.555,-0.536L0.403,-0.536L0.403,-0.237C0.403,-0.165 0.366,-0.128 0.308,-0.128C0.25,-0.128 0.216,-0.165 0.216,-0.237L0.216,-0.536L0.064,-0.536L0.064,-0.189C0.064,-0.066 0.131,0.01 0.246,0.01Z" style="fill-rule:nonzero;"/>
                    </g>
                    <g transform="matrix(48,0,0,48,768.019,584.362)">
                        <path d="M0.068,-0L0.22,-0L0.22,-0.198C0.22,-0.326 0.282,-0.387 0.383,-0.387L0.391,-0.387L0.391,-0.546C0.301,-0.55 0.251,-0.502 0.22,-0.428L0.22,-0.536L0.068,-0.536L0.068,-0Z" style="fill-rule:nonzero;"/>
                    </g>
                </g>
                <g transform="matrix(1,0,0,1,-2038.72,-7.85333)">
                    <path d="M2998.72,102.56C3163.59,102.56 3297.44,236.412 3297.44,401.28C3297.44,566.148 3163.59,700 2998.72,700C2833.85,700 2700,566.148 2700,401.28C2700,236.412 2833.85,102.56 2998.72,102.56ZM2998.72,105.56C2835.51,105.56 2703,238.068 2703,401.28C2703,564.492 2835.51,697 2998.72,697C3161.93,697 3294.44,564.492 3294.44,401.28C3294.44,238.068 3161.93,105.56 2998.72,105.56Z" style="fill:rgb(252,109,8);"/>
                </g>
                <g transform="matrix(1,0,0,1,-1867.13,285.293)">
                    <path d="M2998.72,102.56C3163.59,102.56 3297.44,236.412 3297.44,401.28C3297.44,566.148 3163.59,700 2998.72,700C2833.85,700 2700,566.148 2700,401.28C2700,236.412 2833.85,102.56 2998.72,102.56ZM2998.72,105.56C2835.51,105.56 2703,238.068 2703,401.28C2703,564.492 2835.51,697 2998.72,697C3161.93,697 3294.44,564.492 3294.44,401.28C3294.44,238.068 3161.93,105.56 2998.72,105.56Z" style="fill:rgb(252,109,8);"/>
                </g>
                <g transform="matrix(1,0,0,1,-2210.31,285.293)">
                    <path d="M2998.72,102.56C3163.59,102.56 3297.44,236.412 3297.44,401.28C3297.44,566.148 3163.59,700 2998.72,700C2833.85,700 2700,566.148 2700,401.28C2700,236.412 2833.85,102.56 2998.72,102.56ZM2998.72,105.56C2835.51,105.56 2703,238.068 2703,401.28C2703,564.492 2835.51,697 2998.72,697C3161.93,697 3294.44,564.492 3294.44,401.28C3294.44,238.068 3161.93,105.56 2998.72,105.56Z" style="fill:rgb(252,109,8);"/>
                </g>
            </g>
        </g>
    </g>
</svg>
