<?xml version="1.0" encoding="UTF-8" standalone="no"?><!DOCTYPE svg PUBLIC "-//W3C//DTD SVG 1.1//EN" "http://www.w3.org/Graphics/SVG/1.1/DTD/svg11.dtd"><svg width="100%" height="100%" viewBox="0 0 240 310" version="1.1" xmlns="http://www.w3.org/2000/svg" xmlns:xlink="http://www.w3.org/1999/xlink" xml:space="preserve" xmlns:serif="http://www.serif.com/" style="fill-rule:evenodd;clip-rule:evenodd;stroke-linejoin:round;stroke-miterlimit:2;"><circle cx="120" cy="290" r="20" style="fill:#ff8200;"/><path d="M102.744,238.758c-58.071,-8.374 -102.744,-58.39 -102.744,-118.758c0,-66.23 53.77,-120 120,-120c66.23,0 120,53.77 120,120c0,60.368 -44.673,110.384 -102.744,118.758c1.371,-2.651 2.297,-5.629 2.744,-8.758c1.56,-10.923 7.657,-53.599 10,-70c2.341,-16.391 -13.443,-30 -30,-30c-16.558,0 -32.342,13.609 -30,30c2.333,16.331 8.395,58.764 10,70c0.447,3.129 1.373,6.107 2.744,8.758Zm5.061,-154.698l-0.009,-0.002c-2.84,-1.046 -5.36,-2.15 -7.396,-3.249c-3.957,-2.137 -5.184,-3.787 -5.032,-4.552c0.153,-0.775 1.979,-1.727 6.619,-1.858c0.453,-0.012 0.809,-0.39 0.797,-0.843c-0.013,-0.453 -0.391,-0.813 -0.844,-0.797c-5.039,0.142 -7.793,1.212 -8.182,3.18c-0.374,1.887 1.599,4.011 5.862,6.314c1.891,1.021 4.179,2.043 6.744,3.02c-3.952,3.658 -6.428,8.888 -6.428,14.698c0,11.062 8.967,20.029 20.028,20.029l0.018,0l0.018,0c11.038,0 20,-8.962 20,-20c0,-1.957 -0.282,-3.848 -0.807,-5.636l-0.008,-0.028l-0.012,-0.043l-0.001,-0.002l-0.001,-0.002c-0.272,-0.92 -0.609,-1.811 -1.004,-2.671c0.046,0.1 0.095,0.197 0.139,0.297c0.174,0.003 0.351,0.003 0.525,0.003c4.365,0 8.833,-0.641 9.338,-3.196c0.404,-2.042 -1.921,-4.35 -6.91,-6.859c-4.523,-2.274 -10.776,-4.46 -17.604,-6.151c-0.442,-0.109 -0.887,0.158 -0.995,0.598c-0.109,0.442 0.159,0.886 0.598,0.994c15.651,3.875 23.712,9.022 23.3,11.1c-0.159,0.8 -2.264,2.055 -9.075,1.855c0.009,0.016 0.016,0.032 0.025,0.047c-3.411,-6.178 -9.988,-10.363 -17.544,-10.363c-4.574,0 -8.787,1.536 -12.159,4.117Zm30.085,6.975c-0.045,-0.089 -0.091,-0.176 -0.137,-0.264c0.046,0.088 0.092,0.175 0.137,0.264c0.025,0.049 0.05,0.099 0.074,0.148c-0.024,-0.049 -0.049,-0.099 -0.074,-0.148Zm-31.777,-17.345l1.615,0.705c0.18,0.079 0.286,0.263 0.264,0.455l-0.201,1.728c-0.049,0.431 0.492,0.667 0.791,0.345l1.199,-1.292c0.134,-0.144 0.346,-0.188 0.526,-0.109l1.616,0.705c0.402,0.176 0.804,-0.258 0.586,-0.633l-0.874,-1.503c-0.097,-0.168 -0.073,-0.379 0.061,-0.523l1.199,-1.292c0.299,-0.322 0.005,-0.826 -0.428,-0.736l-1.739,0.363c-0.194,0.04 -0.391,-0.046 -0.489,-0.214l-0.874,-1.503c-0.218,-0.375 -0.801,-0.253 -0.851,0.177l-0.201,1.728c-0.022,0.193 -0.169,0.35 -0.362,0.391l-1.74,0.362c-0.434,0.091 -0.501,0.67 -0.098,0.846Zm9.64,1.281l1.08,-0.314c0.12,-0.035 0.249,0.011 0.32,0.115l0.632,0.93c0.158,0.231 0.52,0.126 0.529,-0.154l0.034,-1.124c0.004,-0.125 0.089,-0.234 0.209,-0.269l1.079,-0.314c0.27,-0.079 0.281,-0.456 0.018,-0.55l-1.059,-0.381c-0.118,-0.042 -0.195,-0.156 -0.191,-0.281l0.035,-1.124c0.008,-0.28 -0.347,-0.407 -0.518,-0.186l-0.689,0.889c-0.077,0.099 -0.209,0.137 -0.327,0.095l-1.058,-0.381c-0.263,-0.094 -0.495,0.204 -0.337,0.436l0.633,0.929c0.07,0.104 0.066,0.241 -0.011,0.34l-0.689,0.889c-0.171,0.222 0.041,0.534 0.31,0.455Z" style="fill:#ff8200;"/><path d="M159.723,126.76l-69.002,0l0,-56.419l17.796,0c-0.001,0.007 -0.002,0.015 -0.003,0.022l-0.201,1.728c-0.022,0.193 -0.169,0.35 -0.362,0.391l-1.74,0.362c-0.434,0.091 -0.501,0.67 -0.098,0.846l1.615,0.705c0.18,0.079 0.286,0.263 0.264,0.455l-0.201,1.728c-0.049,0.431 0.492,0.667 0.791,0.345l1.199,-1.292c0.134,-0.144 0.346,-0.188 0.526,-0.109l1.616,0.705c0.402,0.176 0.804,-0.258 0.586,-0.633l-0.874,-1.503c-0.097,-0.168 -0.073,-0.379 0.061,-0.523l1.199,-1.292c0.299,-0.322 0.005,-0.826 -0.428,-0.736l-1.739,0.363c-0.194,0.04 -0.391,-0.046 -0.489,-0.214l-0.784,-1.348l50.268,0l0,56.419Zm-57.761,-54.001c-0.007,0 -0.015,0 -0.022,0c-5.039,0.142 -7.793,1.212 -8.182,3.18c-0.374,1.887 1.599,4.011 5.862,6.314c1.891,1.021 4.179,2.043 6.744,3.02c-3.952,3.658 -6.428,8.888 -6.428,14.698c0,11.062 8.967,20.029 20.028,20.029c11.062,0 20.029,-8.967 20.029,-20.029c0,-2.982 -0.657,-5.81 -1.826,-8.353c0.046,0.1 0.095,0.197 0.139,0.297c0.174,0.003 0.351,0.003 0.525,0.003c4.365,0 8.833,-0.641 9.338,-3.196c0.404,-2.042 -1.921,-4.35 -6.91,-6.859c-4.523,-2.274 -10.776,-4.46 -17.604,-6.151c-0.442,-0.109 -0.887,0.158 -0.995,0.598c-0.109,0.442 0.159,0.886 0.598,0.994c15.651,3.875 23.712,9.022 23.3,11.1c-0.159,0.8 -2.264,2.055 -9.075,1.855c0.002,0.004 0.004,0.008 0.006,0.012l0.012,0.023c0.002,0.004 0.004,0.008 0.007,0.012c-3.411,-6.178 -9.988,-10.363 -17.544,-10.363c-4.574,0 -8.787,1.536 -12.159,4.117c2.323,0.855 4.857,1.672 7.52,2.417c0.436,0.122 0.691,0.574 0.569,1.011c-0.102,0.362 -0.431,0.599 -0.79,0.599c-0.073,0 -0.147,-0.01 -0.221,-0.03c-3.038,-0.849 -5.919,-1.794 -8.518,-2.784l1.431,-1.215c-2.84,-1.046 -5.36,-2.15 -7.396,-3.249c-3.957,-2.137 -5.184,-3.787 -5.032,-4.552c0.153,-0.775 1.979,-1.727 6.619,-1.858c0.453,-0.012 0.809,-0.39 0.797,-0.843c-0.013,-0.442 -0.373,-0.796 -0.812,-0.797l-0.01,0Zm22.529,35.796l-0.026,0.02c-0.395,0.312 -1.219,0.962 -2.563,0.962c-0.714,0 -1.573,-0.183 -2.594,-0.696c-1.993,-1.002 -3.21,0.191 -3.261,0.243c-0.292,0.295 -0.77,0.301 -1.068,0.013c-0.298,-0.289 -0.31,-0.761 -0.024,-1.062c0.053,-0.057 0.546,-0.558 1.407,-0.869c0.794,-0.286 2.067,-0.462 3.627,0.322c2.08,1.047 3.029,0.3 3.538,-0.102l0.027,-0.021c0.329,-0.259 0.805,-0.202 1.063,0.126c0.259,0.329 0.203,0.805 -0.126,1.064Zm-10.782,-6.499l-0.997,-1.008l-0.997,1.008c-0.148,0.15 -0.343,0.225 -0.539,0.225c-0.192,0 -0.384,-0.073 -0.532,-0.219c-0.298,-0.294 -0.3,-0.774 -0.006,-1.071l1.009,-1.02l-1.009,-1.019c-0.294,-0.298 -0.292,-0.777 0.006,-1.072c0.297,-0.294 0.777,-0.291 1.071,0.006l0.997,1.008l0.997,-1.008c0.294,-0.297 0.774,-0.3 1.071,-0.006c0.297,0.295 0.3,0.774 0.006,1.072l-1.009,1.019l1.009,1.02c0.294,0.297 0.292,0.777 -0.006,1.071c-0.147,0.146 -0.34,0.219 -0.533,0.219c-0.195,0 -0.39,-0.075 -0.538,-0.225Zm15.078,-1.065c0.294,0.297 0.291,0.777 -0.006,1.071c-0.148,0.146 -0.34,0.219 -0.533,0.219c-0.195,0 -0.39,-0.075 -0.538,-0.225l-0.997,-1.008l-0.997,1.008c-0.148,0.15 -0.343,0.225 -0.539,0.225c-0.192,0 -0.384,-0.073 -0.532,-0.219c-0.298,-0.294 -0.3,-0.774 -0.006,-1.071l1.009,-1.02l-1.009,-1.019c-0.294,-0.298 -0.292,-0.777 0.006,-1.072c0.296,-0.294 0.776,-0.291 1.071,0.006l0.997,1.008l0.997,-1.008c0.294,-0.297 0.774,-0.3 1.071,-0.006c0.297,0.295 0.3,0.774 0.006,1.072l-1.009,1.019l1.009,1.02Zm9.103,-9.956c-0.045,-0.089 -0.091,-0.176 -0.137,-0.264c0.046,0.088 0.092,0.175 0.137,0.264c0.025,0.049 0.05,0.099 0.074,0.148c-0.024,-0.049 -0.049,-0.099 -0.074,-0.148Zm-7.78,-0.78c-0.056,0.411 -0.408,0.71 -0.812,0.71c-0.037,0 -0.074,-0.003 -0.111,-0.008c-2.148,-0.293 -4.376,-0.693 -6.621,-1.189c-0.443,-0.097 -0.722,-0.535 -0.625,-0.978c0.098,-0.442 0.538,-0.721 0.978,-0.624c2.203,0.486 4.386,0.878 6.489,1.165c0.449,0.062 0.763,0.475 0.702,0.924Zm-14.357,-15.284l1.08,-0.314c0.12,-0.035 0.249,0.011 0.32,0.115l0.632,0.93c0.158,0.231 0.52,0.126 0.529,-0.154l0.034,-1.124c0.004,-0.125 0.089,-0.234 0.209,-0.269l1.079,-0.314c0.27,-0.079 0.281,-0.456 0.018,-0.55l-1.059,-0.381c-0.118,-0.042 -0.195,-0.156 -0.191,-0.281l0.035,-1.124c0.008,-0.28 -0.347,-0.407 -0.518,-0.186l-0.689,0.889c-0.077,0.099 -0.209,0.137 -0.327,0.095l-1.058,-0.381c-0.263,-0.094 -0.495,0.204 -0.337,0.436l0.633,0.929c0.07,0.104 0.066,0.241 -0.011,0.34l-0.689,0.889c-0.171,0.222 0.041,0.534 0.31,0.455Z" style="fill:#ff8200;"/></svg>