<?xml version="1.0" encoding="UTF-8" standalone="no"?><!DOCTYPE svg PUBLIC "-//W3C//DTD SVG 1.1//EN" "http://www.w3.org/Graphics/SVG/1.1/DTD/svg11.dtd"><svg width="100%" height="100%" viewBox="0 0 187 104" version="1.1" xmlns="http://www.w3.org/2000/svg" xmlns:xlink="http://www.w3.org/1999/xlink" xml:space="preserve" xmlns:serif="http://www.serif.com/" style="fill-rule:evenodd;clip-rule:evenodd;stroke-linejoin:round;stroke-miterlimit:2;"><path id="XMLID_55_" d="M47.51,60.845l0.832,0l0,-1.739l1.411,0l0,5.091l-0.882,0l0,0.857l2.797,0l0,-0.857l-0.882,0l0,-5.091l1.386,0l0,1.739l0.832,0l0,-2.57l-5.494,0l0,2.57Zm10.483,0.781c0,-1.058 -0.554,-1.436 -1.285,-1.436c-0.504,0 -0.983,0.202 -1.562,0.68l0,-2.595l-1.79,0l0,0.806l0.832,0l0,5.141l-0.857,0l0,0.806l2.596,0l0,-0.806l-0.807,0l0,-2.596c0.53,-0.403 1.008,-0.63 1.336,-0.63c0.428,0 0.58,0.328 0.58,0.807l0,3.225l1.738,0l0,-0.806l-0.806,0l0,-2.596l0.025,0Zm5.393,1.991c-0.353,0.504 -0.932,0.781 -1.537,0.781c-0.882,0 -1.487,-0.529 -1.613,-1.461l3.956,0c0,-1.739 -1.209,-2.722 -2.52,-2.722c-1.234,0 -2.469,0.983 -2.469,2.495c0,1.462 1.109,2.495 2.621,2.495c1.008,0 1.864,-0.454 2.368,-1.235l-0.806,-0.353Zm-1.688,-2.671c0.73,0 1.386,0.554 1.537,1.285l-2.974,0c0.126,-0.756 0.706,-1.285 1.437,-1.285m9.576,0.529c0.529,-0.252 0.831,-0.781 0.831,-1.436c0,-0.882 -0.579,-1.739 -2.066,-1.739l-2.747,0l0,0.857l0.832,0l0,5.09l-0.832,0l0,0.857l2.646,0c2.066,0 2.495,-1.159 2.495,-1.915c0.025,-0.857 -0.403,-1.462 -1.159,-1.714m-2.142,-2.343l0.63,0c0.907,0 1.31,0.302 1.31,0.982c0,0.53 -0.252,1.008 -1.184,1.008l-0.756,0l0,-1.99Zm0.806,5.09l-0.806,0l0,-2.268l0.831,0c1.159,0 1.437,0.554 1.437,1.109c0,0.731 -0.404,1.159 -1.462,1.159m7.661,-3.881l-1.739,0l0,0.807l0.806,0l0,2.545c-0.428,0.378 -0.957,0.605 -1.335,0.605c-0.353,0 -0.555,-0.202 -0.555,-0.681l0,-3.276l-1.612,0l0,0.807l0.655,0l0,2.52c0,0.982 0.453,1.461 1.31,1.461c0.479,0 1.008,-0.201 1.537,-0.63l0,0.529l1.739,0l0,-0.806l-0.806,0l0,-3.881Zm2.142,4.461c0.327,0.226 0.731,0.327 1.235,0.327c1.083,0 1.814,-0.579 1.814,-1.436c0,-0.328 -0.126,-0.706 -0.403,-0.983c-0.781,-0.781 -2.596,-0.328 -2.596,-1.109c0,-0.353 0.328,-0.579 0.832,-0.579c0.479,0 0.831,0.176 1.109,0.579l0,0.303l0.806,0l0,-1.563l-0.806,0l0,0.177c-0.303,-0.177 -0.706,-0.278 -1.16,-0.278c-0.957,0 -1.663,0.58 -1.663,1.386c0,0.353 0.151,0.681 0.378,0.908c0.907,0.907 2.545,0.327 2.545,1.209c0,0.353 -0.378,0.58 -0.957,0.58c-0.63,0 -1.059,-0.277 -1.134,-0.756l0,-0.151l-0.832,0l0,1.612l0.832,0l0,-0.226Zm5.317,-6.048c0,-0.303 -0.252,-0.555 -0.554,-0.555c-0.303,0 -0.555,0.252 -0.555,0.555c0,0.302 0.252,0.554 0.555,0.554c0.302,0 0.554,-0.252 0.554,-0.554m-1.739,5.493l0,0.807l2.445,0l0,-0.807l-0.756,0l0,-3.881l-1.689,0l0,0.807l0.756,0l0,3.074l-0.756,0Zm8.367,0.807l0,-0.807l-0.807,0l0,-2.646c0,-0.932 -0.579,-1.335 -1.235,-1.335c-0.504,0 -0.982,0.176 -1.612,0.655l0,-0.58l-1.764,0l0,0.807l0.831,0l0,3.074l-0.806,0l0,0.806l2.545,0l0,-0.806l-0.806,0l0,-2.52c0.478,-0.378 0.982,-0.605 1.36,-0.605c0.378,0 0.555,0.252 0.555,0.857l0,3.074l1.739,0.026Zm5.367,-1.084l-0.806,-0.353c-0.353,0.504 -0.933,0.781 -1.537,0.781c-0.882,0 -1.487,-0.529 -1.613,-1.461l3.956,0c0,-1.739 -1.209,-2.722 -2.52,-2.722c-1.235,0 -2.469,0.983 -2.469,2.495c0,1.462 1.108,2.495 2.62,2.495c1.008,0 1.865,-0.454 2.369,-1.235m-2.495,-3.024c0.731,0 1.386,0.554 1.538,1.285l-2.974,0c0.151,-0.756 0.706,-1.285 1.436,-1.285m3.276,2.495l0,1.613l0.832,0l0,-0.252c0.328,0.226 0.731,0.327 1.235,0.327c1.083,0 1.814,-0.579 1.814,-1.436c0,-0.328 -0.126,-0.706 -0.403,-0.983c-0.781,-0.781 -2.596,-0.328 -2.596,-1.109c0,-0.353 0.328,-0.579 0.832,-0.579c0.479,0 0.832,0.176 1.109,0.579l0,0.303l0.806,0l0,-1.563l-0.806,0l0,0.177c-0.303,-0.177 -0.731,-0.278 -1.159,-0.278c-0.958,0 -1.664,0.58 -1.664,1.386c0,0.353 0.152,0.681 0.378,0.908c0.908,0.907 2.546,0.327 2.546,1.209c0,0.353 -0.378,0.58 -0.958,0.58c-0.605,0 -1.033,-0.277 -1.134,-0.756l0,-0.151l-0.832,0.025Zm4.562,0l0,1.613l0.831,0l0,-0.252c0.328,0.226 0.731,0.327 1.235,0.327c1.084,0 1.814,-0.579 1.814,-1.436c0,-0.328 -0.126,-0.706 -0.403,-0.983c-0.781,-0.781 -2.595,-0.328 -2.595,-1.109c0,-0.353 0.327,-0.579 0.831,-0.579c0.479,0 0.832,0.176 1.109,0.579l0,0.303l0.806,0l0,-1.563l-0.806,0l0,0.177c-0.302,-0.177 -0.706,-0.278 -1.159,-0.278c-0.958,0 -1.663,0.58 -1.663,1.386c0,0.353 0.151,0.681 0.378,0.908c0.907,0.907 2.545,0.327 2.545,1.209c0,0.353 -0.378,0.58 -0.958,0.58c-0.63,0 -1.058,-0.277 -1.134,-0.756l0,-0.151l-0.831,0.025Zm11.667,-0.277c0,-0.555 -0.227,-1.109 -0.579,-1.462c-0.782,-0.781 -2.42,-0.706 -2.949,-1.235c-0.151,-0.126 -0.227,-0.353 -0.227,-0.579c0,-0.53 0.454,-0.882 1.134,-0.882c0.63,0 1.059,0.252 1.437,0.781l0,0.479l0.831,0l0,-2.042l-0.831,0l0,0.454c-0.454,-0.353 -0.983,-0.529 -1.512,-0.529c-1.008,0 -1.966,0.605 -1.966,1.865c0,0.579 0.202,0.982 0.454,1.234c1.058,1.059 3.175,0.605 3.175,1.916c0,0.655 -0.504,1.134 -1.184,1.134c-0.656,0 -1.16,-0.378 -1.588,-1.109l0,-0.605l-0.832,0l0,2.444l0.832,0l0,-0.554c0.479,0.454 1.058,0.655 1.663,0.655c1.21,0.051 2.142,-0.806 2.142,-1.965m5.267,0.604l-0.781,-0.352c-0.277,0.604 -0.781,0.932 -1.411,0.932c-0.857,0 -1.437,-0.68 -1.437,-1.688c0,-0.958 0.555,-1.613 1.411,-1.613c0.328,0 0.63,0.101 0.832,0.277c0.227,0.176 0.353,0.454 0.403,0.781l0.832,0l0,-1.789l-0.832,0l0,0.328c-0.353,-0.303 -0.806,-0.454 -1.335,-0.454c-1.286,0 -2.319,1.109 -2.319,2.444c0,1.21 0.781,2.546 2.419,2.546c1.034,0.025 1.815,-0.479 2.218,-1.412m5.897,1.286l0,-0.807l-0.807,0l0,-2.595c0,-1.059 -0.554,-1.437 -1.31,-1.437c-0.504,0 -0.983,0.202 -1.562,0.681l0,-2.596l-1.79,0l0,0.806l0.857,0l0,5.141l-0.857,0l0,0.807l2.596,0l0,-0.807l-0.806,0l0,-2.595c0.529,-0.404 1.008,-0.63 1.36,-0.63c0.429,0 0.58,0.327 0.58,0.806l0,3.226l1.739,0Zm2.923,-4.839c-1.436,0 -2.495,1.059 -2.495,2.495c0,1.436 1.059,2.495 2.47,2.495c1.411,0 2.495,-1.059 2.495,-2.495c0,-1.436 -1.059,-2.495 -2.47,-2.495m0,4.083c-0.832,0 -1.487,-0.681 -1.487,-1.588c0,-0.907 0.63,-1.613 1.487,-1.613c0.857,0 1.487,0.681 1.487,1.613c0,0.907 -0.655,1.588 -1.487,1.588m5.72,-4.083c-1.436,0 -2.494,1.059 -2.494,2.495c0,1.436 1.058,2.495 2.469,2.495c1.411,0 2.495,-1.059 2.495,-2.495c0,-1.436 -1.058,-2.495 -2.47,-2.495m0,4.083c-0.831,0 -1.486,-0.681 -1.486,-1.588c0,-0.907 0.63,-1.613 1.486,-1.613c0.857,0 1.487,0.681 1.487,1.613c0,0.907 -0.655,1.588 -1.487,1.588m4.889,-0.051l0,-5.947l-1.789,0l0,0.806l0.832,0l0,5.141l-0.857,0l0,0.807l2.52,0l0,-0.807l-0.706,0Zm-73.206,8.316l0.807,0l0,-0.806l-0.807,0l0,-0.933c0,-0.327 0.126,-0.504 0.353,-0.504c0.202,0 0.328,0.152 0.353,0.454l0.806,-0.126c-0.101,-0.706 -0.554,-1.084 -1.209,-1.084c-0.681,0 -1.26,0.429 -1.26,1.361l0,0.857l-0.681,0l0,0.806l0.681,0l0,3.075l-0.681,0l0,0.831l2.52,0l0,-0.831l-0.907,0l0,-3.1l0.025,0Zm3.831,-0.957c-1.437,0 -2.495,1.058 -2.495,2.494c0,1.437 1.058,2.495 2.469,2.495c1.412,0 2.495,-1.058 2.495,-2.495c0,-1.411 -1.058,-2.494 -2.469,-2.494m-0.026,4.107c-0.831,0 -1.461,-0.68 -1.461,-1.587c0,-0.908 0.63,-1.588 1.461,-1.588c0.857,0 1.487,0.68 1.487,1.588c0.025,0.907 -0.63,1.587 -1.487,1.587m4.814,-2.898l-0.026,-1.058l-1.688,0l0,0.806l0.958,0l0,3.075l-0.933,0l0,0.831l2.873,0l0,-0.831l-1.008,0l0,-1.336c0,-1.084 0.328,-1.688 1.411,-1.688l0.504,0l0,-0.933l-0.605,0c-0.604,0 -1.184,0.353 -1.486,1.134m6.577,-2.646l-0.933,0.857l0,0.731l-0.604,0l0,0.806l0.604,0l0,2.873c0,0.806 0.454,1.109 1.109,1.109c0.227,0 0.479,-0.076 0.681,-0.126l0,-0.832c-0.454,0.151 -0.882,0.177 -0.882,-0.277l0,-2.722l0.882,0l0,-0.806l-0.882,0l0,-1.613l0.025,0Zm6.023,2.873c0,-1.058 -0.555,-1.436 -1.311,-1.436c-0.504,0 -0.983,0.201 -1.562,0.68l0,-2.596l-1.789,0l0,0.832l0.856,0l0,5.141l-0.856,0l0,0.831l2.595,0l0,-0.831l-0.806,0l0,-2.596c0.529,-0.403 1.008,-0.605 1.361,-0.605c0.428,0 0.579,0.328 0.579,0.807l0,3.225l1.739,0l0,-0.831l-0.806,0l0,-2.621Zm3.704,-1.436c-1.235,0 -2.47,0.957 -2.47,2.494c0,1.462 1.109,2.495 2.621,2.495c1.008,0 1.865,-0.428 2.369,-1.235l-0.832,-0.352c-0.352,0.504 -0.907,0.756 -1.512,0.756c-0.882,0 -1.486,-0.53 -1.612,-1.462l3.956,0c-0.025,-1.688 -1.235,-2.696 -2.52,-2.696m-1.436,2.066c0.151,-0.781 0.705,-1.31 1.436,-1.31c0.731,0 1.386,0.554 1.537,1.31l-2.973,0Zm16.077,-3.982l-2.495,0l0,0.857l0.807,0l-1.235,4.435l-0.025,0l-1.235,-4.435l0.806,0l0,-0.857l-3.124,0l0,0.857l0.806,0l-1.21,4.435l-0.025,0l-1.26,-4.435l0.807,0l0,-0.857l-2.596,0l0,0.857l0.806,0l1.739,5.998l0.933,0l1.512,-5.368l0.025,0l1.512,5.368l0.957,0l1.689,-5.998l0.806,0l0,-0.857Zm2.142,1.916c-1.436,0 -2.495,1.058 -2.495,2.494c0,1.437 1.059,2.495 2.47,2.495c1.411,0 2.495,-1.058 2.495,-2.495c0.025,-1.411 -1.033,-2.494 -2.47,-2.494m0,4.107c-0.831,0 -1.487,-0.68 -1.487,-1.587c0,-0.908 0.63,-1.588 1.487,-1.588c0.857,0 1.487,0.68 1.487,1.588c0,0.907 -0.63,1.587 -1.487,1.587m4.788,-2.898l-0.025,-1.058l-1.688,0l0,0.806l0.957,0l0,3.075l-0.932,0l0,0.831l2.873,0l0,-0.831l-1.008,0l0,-1.336c0,-1.084 0.327,-1.688 1.411,-1.688l0.504,0l0,-0.933l-0.605,0c-0.58,0 -1.184,0.353 -1.487,1.134m4.284,-3.125l-1.789,0l0,0.832l0.832,0l0,5.141l-0.857,0l0,0.831l2.52,0l0,-0.831l-0.731,0l0,-5.973l0.025,0Zm6.225,0l-1.84,0l0,0.832l0.907,0l0,1.865c-0.479,-0.504 -1.008,-0.756 -1.663,-0.756c-1.336,0 -2.344,1.083 -2.344,2.52c0,1.688 1.26,2.419 2.319,2.419c0.655,0 1.184,-0.252 1.663,-0.781l0,0.705l1.789,0l0,-0.831l-0.857,0l0,-5.973l0.026,0Zm-2.445,6.048c-0.882,0 -1.487,-0.655 -1.487,-1.638c0,-0.932 0.63,-1.638 1.487,-1.638c0.907,0 1.512,0.656 1.512,1.588c0,0.983 -0.63,1.688 -1.512,1.688m-19.152,-40.042l-0.479,0c-0.075,0.453 -0.176,1.688 -0.932,2.444c-0.68,0.68 -1.235,0.731 -2.142,0.731l-2.47,0l0,-5.292l1.109,0c1.487,0 1.689,1.058 1.941,2.217l0.428,0l0,-4.788l-0.428,0c-0.252,1.185 -0.404,2.092 -2.142,2.092l-0.882,0l0,-4.889l2.394,0c2.268,0 2.494,1.588 2.772,2.596l0.478,0l0,-3.1l-9.248,0l0,0.529l1.739,0l0,10.635l-1.739,0l0,0.529l9.626,0l-0.025,-3.704Zm-20.034,3.175c0.655,0 1.109,0.831 3.226,0.831c1.134,0 2.192,-0.403 3.024,-1.209c0.705,-0.706 1.134,-1.613 1.134,-2.621c0,-4.284 -6.855,-3.024 -6.855,-6.023c0,-1.335 1.185,-1.965 2.319,-1.965c1.764,0 2.646,1.436 2.948,2.948l0.479,0l0,-3.125l-0.454,0c-0.05,0.353 -0.176,0.454 -0.327,0.454c-0.378,0 -1.185,-0.756 -2.621,-0.756c-1.84,0 -3.478,1.26 -3.478,3.351c0,3.276 4.133,3.05 5.822,4.511c0.428,0.378 0.68,0.907 0.68,1.487c0,0.605 -0.176,1.084 -0.554,1.562c-0.53,0.63 -1.286,0.908 -2.092,0.908c-2.318,0 -3.125,-1.437 -3.578,-3.503l-0.53,0l0,3.679l0.454,0c0.05,-0.454 0.302,-0.529 0.403,-0.529m10.912,9.324c0.983,0.983 1.209,2.469 1.31,3.175l0.63,0c0.126,-0.706 0.353,-2.218 1.311,-3.175c1.058,-1.033 2.268,-1.134 3.276,-1.134l30.214,0l0,-0.655l-30.24,0c-1.638,0 -2.62,0.201 -3.729,1.31c-0.907,0.907 -1.109,2.016 -1.159,2.344c-0.051,-0.328 -0.227,-1.412 -1.16,-2.344c-1.108,-1.109 -2.116,-1.31 -3.729,-1.31l-30.417,0l0,0.655l30.417,0c1.008,0 2.243,0.075 3.276,1.134m-21.571,-9.324l-1.714,0l0,-9.778l6.628,10.408l0.579,0l0,-11.265l1.714,0l0,-0.529l-4.007,0l0,0.529l1.714,0l0,7.838l-5.343,-8.367l-3.578,0l0,0.529l1.713,0l0,10.635l-1.713,0l0,0.529l4.007,0l0,-0.529Zm-6.779,0l-1.739,0l0,-10.635l1.714,0l0,-0.529l-5.343,0l0,0.529l1.739,0l0,10.635l-1.739,0l0,0.529l5.343,0l0,-0.529l0.025,0Zm58.817,0.605c1.99,0 3.452,-0.278 4.914,-1.714c0.932,-0.932 1.688,-2.318 1.688,-4.108c0,-1.864 -0.731,-3.553 -2.167,-4.636c-1.336,-1.008 -2.823,-1.336 -4.511,-1.336c-0.983,0 -1.966,0.05 -2.948,0.05l-1.84,0l0,0.53l1.714,0l0,10.634l-1.714,0l0,0.529l1.613,0c1.713,-0.025 2.545,0.051 3.251,0.051m-1.286,-11.265c0.202,0 0.706,-0.025 1.185,-0.025c1.31,0 2.671,0.428 3.528,1.562c0.781,1.034 1.083,2.596 1.083,3.982c0,1.966 -0.655,3.452 -1.461,4.259c-0.807,0.806 -1.84,1.008 -3.075,1.008c-0.453,0 -1.234,-0.076 -1.234,-0.076l0,-10.71l-0.026,0Zm-13.935,10.66l-1.638,0l1.26,-3.528l3.83,0l1.285,3.528l-1.612,0l0,0.529l5.065,0l0,-0.529l-1.411,0l-4.234,-11.391l-0.605,0l-4.183,11.391l-1.411,0l0,0.529l3.654,0l0,-0.529Zm1.562,-8.719l1.714,4.662l-3.453,0l1.739,-4.662Zm16.683,41.302c0.302,-0.05 0.478,-0.226 0.478,-0.504c0,-0.252 -0.151,-0.478 -0.554,-0.478l-0.857,0l0,1.738l0.353,0l0,-0.705l0.076,0c0.151,0 0.201,0 0.277,0.101c0.126,0.126 0.227,0.327 0.378,0.63l0.428,0c-0.327,-0.605 -0.378,-0.731 -0.579,-0.782m-0.278,-0.252l-0.302,0l0,-0.478l0.328,0c0.252,0 0.352,0.1 0.352,0.226c0,0.202 -0.176,0.252 -0.378,0.252m0.076,-1.512c-0.907,0 -1.638,0.731 -1.638,1.638c0,0.908 0.731,1.638 1.638,1.638c0.907,0 1.638,-0.73 1.638,-1.638c0,-0.907 -0.731,-1.638 -1.638,-1.638m0,2.949c-0.731,0 -1.31,-0.58 -1.31,-1.311c0,-0.73 0.579,-1.31 1.31,-1.31c0.731,0 1.31,0.58 1.31,1.31c0,0.731 -0.579,1.311 -1.31,1.311" style="fill:#006e4f;fill-rule:nonzero;"/></svg>