<?xml version="1.0" encoding="UTF-8" standalone="no"?><!DOCTYPE svg PUBLIC "-//W3C//DTD SVG 1.1//EN" "http://www.w3.org/Graphics/SVG/1.1/DTD/svg11.dtd"><svg width="100%" height="100%" viewBox="0 0 240 240" version="1.1" xmlns="http://www.w3.org/2000/svg" xmlns:xlink="http://www.w3.org/1999/xlink" xml:space="preserve" xmlns:serif="http://www.serif.com/" style="fill-rule:evenodd;clip-rule:evenodd;stroke-linecap:round;stroke-linejoin:round;stroke-miterlimit:1.41421;"><g id="checklist"><rect x="0" y="0" width="240" height="240" style="fill:none;"/><g><path d="M72,101.6c0,8.838 -7.165,16 -16,16c-8.838,0 -16,-7.162 -16,-16c0,-8.835 7.162,-16 16,-16c8.835,0 16,7.165 16,16Z" style="fill:none;stroke:#808080;stroke-width:5px;"/><path d="M72,152.8c0,8.838 -7.165,16 -16,16c-8.838,0 -16,-7.162 -16,-16c0,-8.835 7.162,-16 16,-16c8.835,0 16,7.165 16,16Z" style="fill:none;stroke:#808080;stroke-width:5px;"/><path d="M72,204c0,8.838 -7.165,16 -16,16c-8.838,0 -16,-7.162 -16,-16c0,-8.835 7.162,-16 16,-16c8.835,0 16,7.165 16,16Z" style="fill:none;stroke:#808080;stroke-width:5px;"/><path d="M200,207.2c0,3.536 -2.867,6.4 -6.4,6.4l-96,0c-3.536,0 -6.4,-2.864 -6.4,-6.4l0,-6.4c0,-3.533 2.864,-6.4 6.4,-6.4l96,0c3.533,0 6.4,2.867 6.4,6.4l0,6.4Z" style="fill:none;stroke:#808080;stroke-width:3px;"/><path d="M200,156c0,3.536 -2.867,6.4 -6.4,6.4l-96,0c-3.536,0 -6.4,-2.864 -6.4,-6.4l0,-6.4c0,-3.533 2.864,-6.4 6.4,-6.4l96,0c3.533,0 6.4,2.867 6.4,6.4l0,6.4Z" style="fill:none;stroke:#808080;stroke-width:3px;"/><path d="M200,104.8c0,3.536 -2.867,6.4 -6.4,6.4l-96,0c-3.536,0 -6.4,-2.864 -6.4,-6.4l0,-6.4c0,-3.533 2.864,-6.4 6.4,-6.4l96,0c3.533,0 6.4,2.867 6.4,6.4l0,6.4Z" style="fill:none;stroke:#808080;stroke-width:3px;"/></g></g></svg>