<?xml version="1.0" encoding="UTF-8" standalone="no"?><!DOCTYPE svg PUBLIC "-//W3C//DTD SVG 1.1//EN" "http://www.w3.org/Graphics/SVG/1.1/DTD/svg11.dtd"><svg width="100%" height="100%" viewBox="0 0 240 240" version="1.1" xmlns="http://www.w3.org/2000/svg" xmlns:xlink="http://www.w3.org/1999/xlink" xml:space="preserve" xmlns:serif="http://www.serif.com/" style="fill-rule:evenodd;clip-rule:evenodd;stroke-linecap:round;stroke-linejoin:round;stroke-miterlimit:1.5;"><g id="credit-0005"><rect x="0" y="0" width="240" height="240" style="fill:none;"/><g><g><path d="M160,140c0,11.038 -17.923,20 -40,20c-22.077,0 -40,-8.962 -40,-20" style="fill:none;stroke:#808080;stroke-width:5px;"/><path d="M80,140l0,-20" style="fill:none;stroke:#808080;stroke-width:5px;"/><path d="M160,140l0,-20" style="fill:none;stroke:#808080;stroke-width:5px;"/></g><g><path d="M160,160c0,11.038 -17.923,20 -40,20c-22.077,0 -40,-8.962 -40,-20" style="fill:none;stroke:#808080;stroke-width:5px;"/><path d="M80,160l0,-20" style="fill:none;stroke:#808080;stroke-width:5px;"/><path d="M160,160l0,-20" style="fill:none;stroke:#808080;stroke-width:5px;"/></g><g><path d="M160,180c0,11.038 -17.923,20 -40,20c-22.077,0 -40,-8.962 -40,-20" style="fill:none;stroke:#808080;stroke-width:5px;"/><path d="M80,180l0,-20" style="fill:none;stroke:#808080;stroke-width:5px;"/><path d="M160,180l0,-20" style="fill:none;stroke:#808080;stroke-width:5px;"/></g><g><path d="M160,200c0,11.038 -17.923,20 -40,20c-22.077,0 -40,-8.962 -40,-20" style="fill:none;stroke:#808080;stroke-width:5px;"/><path d="M80,200l0,-20" style="fill:none;stroke:#808080;stroke-width:5px;"/><path d="M160,200l0,-20" style="fill:none;stroke:#808080;stroke-width:5px;"/></g><g id="coin"><ellipse cx="120" cy="100" rx="40" ry="20" style="fill:none;stroke:#808080;stroke-width:5px;"/><path d="M160,120c0,11.038 -17.923,20 -40,20c-22.077,0 -40,-8.962 -40,-20" style="fill:none;stroke:#808080;stroke-width:5px;"/><path d="M80,120l0,-20" style="fill:none;stroke:#808080;stroke-width:5px;"/><path d="M160,120l0,-20" style="fill:none;stroke:#808080;stroke-width:5px;"/><text x="103.279px" y="107.782px" style="font-family:'Gotham-Bold', 'Gotham';font-size:22.236px;fill:#808080;">C</text></g></g></g></svg>