<?xml version="1.0" encoding="UTF-8" standalone="no"?><!DOCTYPE svg PUBLIC "-//W3C//DTD SVG 1.1//EN" "http://www.w3.org/Graphics/SVG/1.1/DTD/svg11.dtd"><svg width="100%" height="100%" viewBox="0 0 240 240" version="1.1" xmlns="http://www.w3.org/2000/svg" xmlns:xlink="http://www.w3.org/1999/xlink" xml:space="preserve" xmlns:serif="http://www.serif.com/" style="fill-rule:evenodd;clip-rule:evenodd;stroke-miterlimit:2;"><g id="priority"><rect x="0" y="0" width="240" height="240" style="fill:none;"/><g><path d="M43.406,201.132l-10.906,0c-6.875,0 -12.5,-5.625 -12.5,-12.5l0,-83.735c0,-6.874 5.625,-12.499 12.5,-12.499l110.799,0c0,0 38.78,-2.753 76.701,70.166l-0.003,26.068c0,6.875 -5.622,12.5 -12.5,12.5l-12.94,0l0,0.106c0,10.365 -8.406,18.762 -18.771,18.762c-10.366,0 -18.772,-8.397 -18.772,-18.762l0.001,-0.106l-76.073,0l0,0.106c0,10.365 -8.403,18.762 -18.768,18.762c-10.369,0 -18.768,-8.397 -18.768,-18.762l0,-0.106Z" style="fill:none;stroke:#808080;stroke-width:5px;"/><path d="M156.836,201.132l-75.894,0" style="fill:none;stroke:#808080;stroke-width:3px;stroke-linejoin:round;"/><path d="M194.557,201.238c0,10.365 -8.406,18.762 -18.771,18.762c-10.366,0 -18.772,-8.397 -18.772,-18.762c0,-10.368 8.406,-18.777 18.772,-18.777c10.365,0 18.771,8.409 18.771,18.777Z" style="fill:none;stroke:#808080;stroke-width:3px;"/><path d="M80.942,201.238c0,10.365 -8.403,18.762 -18.768,18.762c-10.369,0 -18.768,-8.397 -18.768,-18.762c0,-10.368 8.399,-18.777 18.768,-18.777c10.365,0 18.768,8.409 18.768,18.777Z" style="fill:none;stroke:#808080;stroke-width:3px;"/><path d="M145.884,113.75l0,19.493c0,0 0,15.519 14.793,15.519l49.817,0" style="fill:none;stroke:#808080;stroke-width:3px;stroke-linecap:round;stroke-linejoin:round;"/><path d="M118.119,78.558l0,-8.463c0,-5.156 4.215,-9.374 9.375,-9.374l3.512,0c5.156,0 9.375,4.218 9.375,9.374l0,8.463" style="fill:none;stroke:#808080;stroke-width:3px;stroke-linejoin:round;"/></g></g></svg>