<?xml version="1.0" encoding="UTF-8" standalone="no"?>
<!DOCTYPE svg PUBLIC "-//W3C//DTD SVG 1.1//EN" "http://www.w3.org/Graphics/SVG/1.1/DTD/svg11.dtd">
<svg width="100%" height="100%" viewBox="0 0 1280 414" version="1.1" xmlns="http://www.w3.org/2000/svg" xmlns:xlink="http://www.w3.org/1999/xlink" xml:space="preserve" xmlns:serif="http://www.serif.com/" style="fill-rule:evenodd;clip-rule:evenodd;stroke-linecap:round;stroke-linejoin:round;stroke-miterlimit:1.5;">
    <rect x="12" y="7.5" width="218.25" height="111" style="fill:rgb(249,133,0);stroke:white;stroke-width:1px;"/>
    <rect x="230.25" y="7.5" width="346.5" height="111" style="fill:rgb(249,133,0);stroke:white;stroke-width:1px;"/>
    <rect x="576.75" y="7.5" width="346.5" height="111" style="fill:rgb(249,133,0);stroke:white;stroke-width:1px;"/>
    <rect x="923.25" y="7.5" width="346.5" height="111" style="fill:rgb(249,133,0);stroke:white;stroke-width:1px;"/>
    <rect x="12" y="118.5" width="218.25" height="69.75" style="fill:rgb(249,133,0);fill-opacity:0.49;stroke:white;stroke-width:1px;"/>
    <rect x="230.25" y="118.5" width="346.5" height="69.75" style="fill:white;stroke:rgb(230,230,230);stroke-width:1px;"/>
    <rect x="576.75" y="118.5" width="346.5" height="69.75" style="fill:white;stroke:rgb(230,230,230);stroke-width:1px;"/>
    <rect x="923.25" y="118.5" width="346.5" height="69.75" style="fill:white;stroke:rgb(230,230,230);stroke-width:1px;"/>
    <rect x="12" y="188.25" width="218.25" height="69.75" style="fill:rgb(249,133,0);fill-opacity:0.49;stroke:white;stroke-width:1px;"/>
    <rect x="12" y="258" width="218.25" height="69.75" style="fill:rgb(249,133,0);fill-opacity:0.49;stroke:white;stroke-width:1px;"/>
    <rect x="12" y="327.75" width="218.25" height="69.75" style="fill:rgb(249,133,0);fill-opacity:0.49;stroke:white;stroke-width:1px;"/>
    <rect x="230.25" y="188.25" width="346.5" height="69.75" style="fill:white;stroke:rgb(230,230,230);stroke-width:1px;"/>
    <rect x="230.25" y="258" width="346.5" height="69.75" style="fill:white;stroke:rgb(230,230,230);stroke-width:1px;"/>
    <rect x="230.25" y="327.75" width="346.5" height="69.75" style="fill:white;stroke:rgb(230,230,230);stroke-width:1px;"/>
    <rect x="576.75" y="188.25" width="346.5" height="69.75" style="fill:white;stroke:rgb(230,230,230);stroke-width:1px;"/>
    <rect x="576.75" y="258" width="346.5" height="69.75" style="fill:white;stroke:rgb(230,230,230);stroke-width:1px;"/>
    <rect x="576.75" y="327.75" width="346.5" height="69.75" style="fill:white;stroke:rgb(230,230,230);stroke-width:1px;"/>
    <rect x="923.25" y="188.25" width="346.5" height="69.75" style="fill:white;stroke:rgb(230,230,230);stroke-width:1px;"/>
    <rect x="923.25" y="258" width="346.5" height="69.75" style="fill:white;stroke:rgb(230,230,230);stroke-width:1px;"/>
    <rect x="923.25" y="327.75" width="346.5" height="69.75" style="fill:white;stroke:rgb(230,230,230);stroke-width:1px;"/>
    <g>
        <g transform="matrix(1,0,0,1,38.164,71.52)">
            <text x="0px" y="0px" style="font-family:'Arial-BoldMT', 'Arial', sans-serif;font-weight:700;font-size:36px;fill:rgb(38,38,38);">Ce qu&apos;ils</text>
        </g>
        <g transform="matrix(1,0,0,1,187.494,71.52)">
            <text x="0px" y="0px" style="font-family:'Arial-BoldMT', 'Arial', sans-serif;font-weight:700;font-size:36px;fill:rgb(38,38,38);">...</text>
        </g>
    </g>
    <g transform="matrix(1,0,0,1,100.488,161.895)">
        <text x="0px" y="0px" style="font-family:'Arial-BoldMT', 'Arial', sans-serif;font-weight:700;font-size:36px;fill:rgb(38,38,38);">savent</text>
    </g>
    <g transform="matrix(1,0,0,1,74.412,231.645)">
        <text x="0px" y="0px" style="font-family:'Arial-BoldMT', 'Arial', sans-serif;font-weight:700;font-size:36px;fill:rgb(38,38,38);">pensent</text>
    </g>
    <g transform="matrix(1,0,0,1,32.459,301.395)">
        <text x="0px" y="0px" style="font-family:'Arial-BoldMT', 'Arial', sans-serif;font-weight:700;font-size:36px;fill:rgb(38,38,38);">ressentent</text>
    </g>
    <g transform="matrix(1,0,0,1,147.512,371.145)">
        <text x="0px" y="0px" style="font-family:'Arial-BoldMT', 'Arial', sans-serif;font-weight:700;font-size:36px;fill:rgb(38,38,38);">font</text>
    </g>
    <g transform="matrix(1,0,0,1,346.485,71.52)">
        <text x="0px" y="0px" style="font-family:'Arial-BoldMT', 'Arial', sans-serif;font-weight:700;font-size:36px;fill:white;">A<tspan x="24.662px 44.684px " y="0px 0px ">va</tspan>nt</text>
    </g>
    <g transform="matrix(1,0,0,1,1054.5,71.52)">
        <text x="0px" y="0px" style="font-family:'Arial-BoldMT', 'Arial', sans-serif;font-weight:700;font-size:36px;fill:white;">Après</text>
    </g>
</svg>
