<?xml version="1.0" encoding="UTF-8" standalone="no"?><!DOCTYPE svg PUBLIC "-//W3C//DTD SVG 1.1//EN" "http://www.w3.org/Graphics/SVG/1.1/DTD/svg11.dtd"><svg width="100%" height="100%" viewBox="0 0 187 104" version="1.1" xmlns="http://www.w3.org/2000/svg" xmlns:xlink="http://www.w3.org/1999/xlink" xml:space="preserve" xmlns:serif="http://www.serif.com/" style="fill-rule:evenodd;clip-rule:evenodd;stroke-linejoin:round;stroke-miterlimit:2;"><clipPath id="_clip1"><rect x="41.5" y="0" width="104" height="104"/></clipPath><g clip-path="url(#_clip1)"><g id="Layer-1" serif:id="Layer 1"><path id="path524" d="M61.359,45.011l3.925,0c0.163,0 0.293,-0.131 0.293,-0.298l0,-8.572c0,-0.172 -0.129,-0.302 -0.293,-0.302l-23.486,0c-0.168,0 -0.298,0.13 -0.298,0.302l0,8.572c0,0.167 0.13,0.298 0.298,0.298l3.904,0c0.151,0.003 0.269,0.121 0.277,0.264l0,13.026c-0.017,0.121 -0.105,0.201 -0.214,0.226l-3.967,0c-0.168,0 -0.298,0.139 -0.298,0.298l0,9.038c0,0.164 0.13,0.298 0.298,0.298l23.486,0c0.163,0 0.294,-0.134 0.294,-0.298l0,-9.038c0,-0.159 -0.13,-0.298 -0.294,-0.298l-3.988,0c-0.097,-0.013 -0.181,-0.088 -0.214,-0.176l0,-13.05c0,-0.156 0.121,-0.282 0.277,-0.29" style="fill:#244ba6;fill-rule:nonzero;"/><path id="path526" d="M105.61,36.141c0,-0.172 -0.13,-0.302 -0.298,-0.302l-35.965,0c-0.168,0 -0.298,0.13 -0.298,0.302l0,8.572c0,0.168 0.13,0.298 0.298,0.298l3.895,0c0.151,0.003 0.269,0.121 0.281,0.265l0,13.025c-0.02,0.121 -0.109,0.201 -0.226,0.226l-3.95,0c-0.168,0 -0.299,0.139 -0.299,0.299l0,9.037c0,0.164 0.13,0.298 0.299,0.298l23.477,0c0.164,0 0.298,-0.134 0.298,-0.298l0,-9.037c0,-0.16 -0.134,-0.299 -0.298,-0.299l-5.646,0c-0.101,-0.013 -0.185,-0.088 -0.218,-0.176l0,-3.337c0,-0.155 0.126,-0.277 0.281,-0.294l5.457,-0.01c0.155,0 0.29,-0.134 0.29,-0.294l0,-5.188c0,-0.164 -0.134,-0.298 -0.29,-0.298l-5.444,-0.01c-0.155,0 -0.277,-0.113 -0.294,-0.265l0,-3.358c0,-0.155 0.122,-0.281 0.273,-0.289l8.273,0c0.143,0.003 0.265,0.117 0.277,0.264l0,2.124c0,0.172 0.135,0.302 0.294,0.302l9.243,0c0.16,0 0.298,-0.13 0.298,-0.302l-0.006,-11.258" style="fill:#244ba6;fill-rule:nonzero;"/><path id="path528" d="M145.5,36.141c0,-0.172 -0.135,-0.302 -0.303,-0.302l-35.965,0c-0.167,0 -0.298,0.13 -0.298,0.302l0,8.572c0,0.168 0.13,0.298 0.298,0.298l3.9,0c0.147,0.003 0.269,0.121 0.277,0.265l0,13.025c-0.017,0.121 -0.113,0.201 -0.222,0.226l-3.954,0c-0.168,0 -0.299,0.139 -0.299,0.299l0,9.037c0,0.164 0.13,0.298 0.299,0.298l23.481,0c0.16,0 0.294,-0.134 0.294,-0.298l0,-9.037c0,-0.16 -0.134,-0.299 -0.294,-0.299l-5.646,0c-0.105,-0.013 -0.184,-0.088 -0.222,-0.176l0,-3.337c0,-0.155 0.126,-0.277 0.285,-0.294l5.448,-0.01c0.16,0 0.294,-0.134 0.294,-0.294l0,-5.188c0,-0.164 -0.134,-0.298 -0.294,-0.298l-5.444,-0.01c-0.155,0 -0.273,-0.113 -0.29,-0.265l0,-3.358c0.007,-0.155 0.126,-0.281 0.277,-0.289l8.265,0c0.143,0.003 0.265,0.117 0.282,0.264l0,2.124c0,0.172 0.134,0.302 0.298,0.302l9.235,0c0.163,0 0.298,-0.13 0.298,-0.302l0,-11.258" style="fill:#244ba6;fill-rule:nonzero;"/></g></g></svg>